# Blender 5.2.2 LTS
# www.blender.org
mtllib Banqueta.mtl
o Cube
v -163.307678 -0.361138 30.069895
v -163.307678 0.361138 30.069895
v -163.307678 -0.361138 -30.069895
v -163.307678 0.361138 -30.069895
v 163.307678 -0.361138 30.069895
v 163.307678 0.361138 30.069895
v 163.307678 -0.361138 -30.069895
v 163.307678 0.361138 -30.069895
v 1.979014 -0.361138 -30.069895
v 1.979014 0.361138 -30.069895
v 1.979014 -0.361138 30.069895
v 1.979014 0.361138 30.069895
v -16.330397 -0.361138 -30.069895
v -16.330397 0.361138 30.069895
v -16.330393 0.361138 -30.069895
v -16.330393 -0.361138 30.069895
v -16.330393 0.361138 -30.069895
v 1.979014 0.361138 -30.069895
v 1.979014 0.361138 30.069895
v -16.330397 0.361138 30.069895
v -163.307678 -0.361138 18.888065
v -163.307678 0.361138 18.888065
v 163.307678 -0.361138 18.888065
v 163.307678 0.361138 18.888065
v 1.979014 0.361138 18.888065
v 1.979014 -0.361138 18.888065
v -16.330393 -0.361138 18.888065
v -16.330397 0.361138 18.888065
v 1.979014 0.361138 18.888065
v -16.330397 0.361138 18.888065
v -163.307678 0.361138 -19.101000
v 163.307678 -0.361138 -19.101000
v -163.307678 -0.361138 -19.101000
v 163.307678 0.361138 -19.101000
v 1.979014 0.361138 -19.101000
v 1.979014 -0.361138 -19.101000
v -16.330397 -0.361138 -19.101000
v -16.330393 0.361138 -19.101000
v 1.979014 0.361138 -19.101000
v -16.330393 0.361138 -19.101000
v -16.330393 4.972485 -30.069895
v 1.979014 4.972485 30.069895
v -163.307678 4.972485 30.069895
v -16.330397 4.972485 30.069895
v 163.307678 4.972485 30.069895
v 163.307678 4.972485 -30.069895
v 1.979014 4.972485 -30.069895
v -163.307678 4.972485 -30.069895
v 1.385505 4.249314 -18.991716
v 1.979014 4.225202 -19.101000
v -7.491993 4.246146 -19.101000
v 1.612631 4.246507 -19.033537
v 1.805180 4.240939 -19.068991
v 1.933836 4.233457 -19.092682
v -9.518344 4.250627 -18.727886
v 1.385505 4.249314 -18.991716
v -5.784878 4.250527 -18.747957
v -2.401662 4.250242 -18.805195
v 0.116242 4.249816 -18.890738
v -0.047338 4.250627 -18.727886
v 1.979014 4.246146 -19.101000
v -8.085503 4.249314 -18.991716
v 0.546165 4.249883 -18.837170
v 1.139670 4.248770 -18.946451
v 1.642819 4.247458 -19.039095
v 1.385515 4.249314 18.778784
v -9.518345 4.250627 18.514952
v 0.116248 4.249816 18.677805
v -2.401659 4.250242 18.592260
v -5.784879 4.250527 18.535023
v 1.979014 4.225202 18.888065
v 1.385515 4.249314 18.778784
v -7.491993 4.246146 18.888065
v 1.933837 4.233457 18.879747
v 1.805182 4.240939 18.856056
v 1.612637 4.246507 18.820602
v 1.979014 4.246146 18.888065
v -0.047338 4.250627 18.514952
v -8.085492 4.249314 18.778784
v 1.642823 4.247458 18.826162
v 1.139674 4.248770 18.733517
v 0.546168 4.249883 18.624235
v -15.736885 4.249314 -18.991716
v -4.833034 4.250627 -18.727886
v -14.467621 4.249816 -18.890738
v -11.949717 4.250242 -18.805195
v -8.566499 4.250527 -18.747957
v -16.330393 4.225202 -19.101000
v -15.736885 4.249314 -18.991716
v -6.859386 4.246146 -19.101000
v -16.285215 4.233457 -19.092682
v -16.156559 4.240939 -19.068991
v -15.964012 4.246507 -19.033537
v -16.330393 4.246146 -19.101000
v -14.304041 4.250627 -18.727886
v -6.265877 4.249314 -18.991716
v -15.994201 4.247458 -19.039095
v -15.491051 4.248770 -18.946451
v -14.897546 4.249883 -18.837170
v -15.736897 4.249314 18.778784
v -16.330397 4.225202 18.888065
v -6.859388 4.246146 18.888065
v -15.964021 4.246507 18.820602
v -16.156565 4.240939 18.856058
v -16.285219 4.233457 18.879747
v -4.833036 4.250627 18.514952
v -15.736897 4.249314 18.778784
v -8.566503 4.250527 18.535023
v -11.949722 4.250242 18.592260
v -14.467628 4.249816 18.677805
v -14.304043 4.250627 18.514952
v -16.330397 4.246146 18.888065
v -6.265890 4.249314 18.778784
v -14.897552 4.249883 18.624235
v -15.491056 4.248770 18.733517
v -15.994205 4.247458 18.826162
v -16.330393 4.972485 -30.069895
v 1.979014 4.972485 -30.069895
v 1.979014 4.972485 30.069895
v -16.330397 4.972485 30.069895
v -16.330397 4.925185 18.888065
v -16.330397 4.972485 22.826448
v -16.330397 4.972485 18.888065
v -16.330397 4.943286 19.187857
v -16.330397 4.958631 20.041592
v -16.330397 4.968884 21.319296
v 1.979014 4.972485 22.826450
v 1.979014 4.925185 18.888065
v 1.979014 4.972485 18.888065
v 1.979014 4.968884 21.319298
v 1.979014 4.958631 20.041594
v 1.979014 4.943286 19.187859
v 163.307678 4.925185 18.888065
v 163.307678 4.972485 22.826450
v 163.307678 4.943286 19.187859
v 163.307678 4.958631 20.041594
v 163.307678 4.968884 21.319298
v -163.307678 4.925185 -19.101000
v -163.307678 4.972485 -23.039383
v -163.307678 4.943286 -19.400791
v -163.307678 4.958631 -20.254526
v -163.307678 4.968884 -21.532230
v 1.979014 4.925185 18.888065
v 1.979014 4.972485 22.826450
v 1.979014 4.972485 18.888065
v 1.979014 4.943286 19.187859
v 1.979014 4.958631 20.041594
v 1.979014 4.968884 21.319298
v -16.330397 4.972485 22.826450
v -16.330397 4.925185 18.888065
v -16.330397 4.972485 18.888065
v -16.330397 4.968884 21.319298
v -16.330397 4.958631 20.041594
v -16.330397 4.943286 19.187859
v -163.307678 4.972485 22.826448
v -163.307678 4.925185 18.888065
v -163.307678 4.968884 21.319296
v -163.307678 4.958631 20.041592
v -163.307678 4.943286 19.187857
v 163.307678 4.972485 -23.039383
v 163.307678 4.925185 -19.101000
v 163.307678 4.968884 -21.532230
v 163.307678 4.958631 -20.254526
v 163.307678 4.943286 -19.400791
v 1.979014 4.925185 -19.101000
v 1.979014 4.972485 -23.039383
v 1.979014 4.943286 -19.400791
v 1.979014 4.958631 -20.254526
v 1.979014 4.968884 -21.532230
v -16.330393 4.972485 -23.039383
v -16.330393 4.925185 -19.101000
v -16.330393 4.968884 -21.532230
v -16.330393 4.958631 -20.254526
v -16.330393 4.943286 -19.400791
v 1.979014 4.972485 -23.039383
v 1.979014 4.925185 -19.101000
v 1.979014 4.968884 -21.532230
v 1.979014 4.958631 -20.254526
v 1.979014 4.943286 -19.400791
v -16.330393 4.925185 -19.101000
v -16.330393 4.972485 -23.039383
v -16.330393 4.943286 -19.400791
v -16.330393 4.958631 -20.254526
v -16.330393 4.968884 -21.532230
vn -1.0000 -0.0000 -0.0000
vn -0.0000 -0.0000 -1.0000
vn 1.0000 -0.0000 -0.0000
vn -0.0000 -0.0000 1.0000
vn -0.0000 -1.0000 -0.0000
vn -0.0000 1.0000 -0.0000
vn 0.0004 0.9979 -0.0646
vn 0.0011 0.9888 -0.1495
vn 0.0015 0.9560 -0.2935
vn 0.0016 0.7140 -0.7001
vn 0.0001 1.0000 -0.0065
vn 0.0001 1.0000 -0.0096
vn 0.0001 0.9999 -0.0135
vn 0.0001 0.9998 -0.0207
vn 0.0016 0.7142 0.7000
vn 0.0015 0.9559 0.2935
vn 0.0011 0.9888 0.1495
vn 0.0004 0.9979 0.0646
vn 0.0001 0.9998 0.0207
vn 0.0001 0.9999 0.0135
vn 0.0001 1.0000 0.0096
vn 0.0001 1.0000 0.0065
vn -0.0016 0.7140 -0.7001
vn -0.0015 0.9560 -0.2934
vn -0.0011 0.9888 -0.1495
vn -0.0004 0.9979 -0.0646
vn -0.0001 0.9998 -0.0207
vn -0.0001 0.9999 -0.0135
vn -0.0001 1.0000 -0.0096
vn -0.0001 1.0000 -0.0065
vn -0.0004 0.9979 0.0646
vn -0.0011 0.9888 0.1495
vn -0.0015 0.9559 0.2935
vn -0.0016 0.7142 0.7000
vn -0.0001 1.0000 0.0065
vn -0.0001 1.0000 0.0096
vn -0.0001 0.9999 0.0135
vn -0.0001 0.9998 0.0207
vn 0.0001 1.0000 -0.0000
vn 0.0002 1.0000 -0.0000
vn 0.0004 1.0000 -0.0000
vn 0.0039 1.0000 -0.0000
vn 0.0026 1.0000 -0.0000
vn 0.0019 1.0000 -0.0000
vn 0.0013 1.0000 -0.0000
vn 0.1798 0.9837 -0.0000
vn 0.0581 0.9983 -0.0000
vn 0.0289 0.9996 -0.0000
vn 0.0124 0.9999 -0.0000
vn -0.1798 0.9837 -0.0000
vn -0.0581 0.9983 -0.0000
vn -0.0289 0.9996 -0.0000
vn -0.0124 0.9999 -0.0000
vn -0.0013 1.0000 -0.0000
vn -0.0019 1.0000 -0.0000
vn -0.0026 1.0000 -0.0000
vn -0.0039 1.0000 -0.0000
vn -0.0001 1.0000 -0.0000
vn -0.0002 1.0000 -0.0000
vn -0.0004 1.0000 -0.0000
vn -0.0000 -0.9996 0.0290
vn -0.0053 -1.0000 -0.0000
vn -0.0000 1.0000 -0.0050
vn -0.0009 -1.0000 -0.0000
vn -0.0000 1.0000 0.0050
vn -0.0000 -0.9996 -0.0290
vn 0.0009 -1.0000 -0.0000
vn 0.0053 -1.0000 -0.0000
vn -0.0000 1.0000 -0.0024
vn -0.0000 1.0000 -0.0080
vn -0.0000 0.9998 -0.0180
vn -0.0000 0.9982 -0.0603
vn -0.0000 0.9982 0.0603
vn -0.0000 0.9998 0.0180
vn -0.0000 1.0000 0.0080
vn -0.0000 1.0000 0.0024
vt 0.375000 0.204403
vt 0.625000 0.204403
vt 0.625000 0.250000
vt 0.375000 0.250000
vt 0.375000 0.376515
vt 0.625000 0.376515
vt 0.625000 0.500000
vt 0.375000 0.500000
vt 0.375000 0.703517
vt 0.625000 0.703517
vt 0.625000 0.750000
vt 0.375000 0.750000
vt 0.375000 0.887500
vt 0.625000 0.887500
vt 0.625000 1.000000
vt 0.375000 1.000000
vt 0.251515 0.703517
vt 0.251515 0.750000
vt 0.625000 0.873485
vt 0.237500 0.703517
vt 0.237500 0.750000
vt 0.375000 0.873485
vt 0.375000 0.362500
vt 0.625000 0.362500
vt 0.125000 0.703517
vt 0.125000 0.750000
vt 0.762500 0.500000
vt 0.748485 0.500000
vt 0.748485 0.750000
vt 0.762500 0.750000
vt 0.762500 0.545597
vt 0.748485 0.545597
vt 0.748485 0.703517
vt 0.125000 0.545597
vt 0.237500 0.545598
vt 0.251515 0.545597
vt 0.625000 0.545597
vt 0.875000 0.545597
vt 0.875000 0.703517
vt 0.762500 0.703517
vt 0.375000 0.545597
vt 0.375000 0.000000
vt 0.625000 0.000000
vt 0.625000 0.046483
vt 0.375000 0.046483
vt 0.251515 0.500000
vt 0.237500 0.500000
vt 0.125000 0.500000
vt 0.748712 0.545825
vt 0.748528 0.545835
vt 0.755735 0.545597
vt 0.748176 0.546030
vt 0.755735 0.545597
vt 0.747711 0.546358
vt 0.747204 0.546760
vt 0.750036 0.547148
vt 0.749458 0.546595
vt 0.756213 0.545825
vt 0.748826 0.546032
vt 0.748235 0.545548
vt 0.747776 0.545215
vt 0.748485 0.703483
vt 0.755735 0.703517
vt 0.748485 0.703384
vt 0.755735 0.703517
vt 0.748485 0.703237
vt 0.748485 0.703063
vt 0.748584 0.703359
vt 0.756213 0.703290
vt 0.748693 0.703082
vt 0.748794 0.702726
vt 0.748873 0.702347
vt 0.762500 0.545632
vt 0.755250 0.545597
vt 0.762500 0.545731
vt 0.755250 0.545597
vt 0.762500 0.545878
vt 0.762500 0.546052
vt 0.762401 0.545756
vt 0.754772 0.545825
vt 0.762292 0.546033
vt 0.762191 0.546388
vt 0.762112 0.546768
vt 0.762273 0.703290
vt 0.762457 0.703279
vt 0.755250 0.703517
vt 0.762808 0.703085
vt 0.763273 0.702757
vt 0.763781 0.702355
vt 0.760949 0.701966
vt 0.761527 0.702520
vt 0.754772 0.703290
vt 0.762159 0.703082
vt 0.762750 0.703567
vt 0.763209 0.703900
vt 0.757286 0.547149
vt 0.757286 0.701966
vt 0.754427 0.702055
vt 0.754427 0.547059
vt 0.750625 0.702096
vt 0.750625 0.547019
vt 0.749787 0.702719
vt 0.749787 0.546396
vt 0.748712 0.703290
vt 0.748485 0.545597
vt 0.748584 0.545756
vt 0.748712 0.546013
vt 0.748712 0.703102
vt 0.749458 0.702520
vt 0.750036 0.701966
vt 0.748485 0.545632
vt 0.748485 0.545731
vt 0.748485 0.703384
vt 0.748528 0.703279
vt 0.762500 0.703483
vt 0.762500 0.703384
vt 0.762500 0.545731
vt 0.762457 0.545835
vt 0.762273 0.545825
vt 0.760949 0.547149
vt 0.761527 0.546595
vt 0.762273 0.546013
vt 0.762273 0.703101
vt 0.762401 0.703359
vt 0.753699 0.701966
vt 0.753699 0.547148
vt 0.756558 0.547059
vt 0.756558 0.702055
vt 0.760360 0.547019
vt 0.760360 0.702096
vt 0.761198 0.546396
vt 0.761198 0.702719
vt 0.748485 0.719889
vt 0.748485 0.713624
vt 0.748485 0.703517
vt 0.748485 0.708313
vt 0.748485 0.704764
vt 0.762500 0.719889
vt 0.762500 0.713624
vt 0.762500 0.708313
vt 0.762500 0.704764
vt 0.875000 0.719889
vt 0.762500 0.719889
vt 0.762500 0.713624
vt 0.875000 0.713624
vt 0.625000 0.719889
vt 0.625000 0.713624
vt 0.625000 0.705116
vt 0.625000 0.703933
vt 0.625000 0.703517
vt 0.748485 0.719889
vt 0.762500 0.545182
vt 0.762500 0.543999
vt 0.762500 0.535491
vt 0.875000 0.535491
vt 0.762500 0.529226
vt 0.875000 0.529226
vt 0.625000 0.545182
vt 0.748485 0.545182
vt 0.625000 0.543999
vt 0.748485 0.543999
vt 0.625000 0.535491
vt 0.748485 0.535491
vt 0.625000 0.529226
vt 0.748485 0.529226
vt 0.748485 0.543999
vt 0.748485 0.535491
vt 0.762500 0.535491
vt 0.875000 0.750000
vt 0.625000 0.205649
vt 0.625000 0.209198
vt 0.625000 0.214509
vt 0.625000 0.220774
vt 0.875000 0.500000
vt 0.625000 0.030111
vt 0.625000 0.036376
vt 0.625000 0.041687
vt 0.625000 0.045236
vt 0.625000 0.046483
s 0
usemtl amarillo
f 33/1/1 31/2/1 4/3/1 3/4/1
f 9/5/2 18/6/2 8/7/2 7/8/2
f 23/9/3 24/10/3 6/11/3 5/12/3
f 16/13/4 20/14/4 2/15/4 1/16/4
f 26/17/5 23/9/5 5/12/5 11/18/5
f 19/19/4 6/11/4 45/11/4 42/19/4
f 27/20/5 26/17/5 11/18/5 16/21/5
f 5/12/4 6/11/4 19/19/4 11/22/4
f 13/23/2 17/24/2 18/6/2 9/5/2
f 3/4/2 4/3/2 17/24/2 13/23/2
f 21/25/5 27/20/5 16/21/5 1/26/5
f 11/22/4 19/19/4 20/14/4 16/13/4
f 15/27/6 10/28/6 18/28/6 17/27/6
f 17/24/2 4/3/2 48/3/2 41/24/2
f 12/29/6 14/30/6 20/30/6 19/29/6
f 40/31/6 15/27/6 17/27/6 38/31/6
f 1/42/1 2/43/1 22/44/1 21/45/1
f 7/8/3 8/7/3 34/37/3 32/41/3
f 9/46/5 7/8/5 32/41/5 36/36/5
f 10/28/2 15/27/2 117/27/2 118/28/2
f 13/47/5 9/46/5 36/36/5 37/35/5
f 3/48/5 13/47/5 37/35/5 33/34/5
f 10/28/6 39/32/6 35/32/6 18/28/6
f 14/30/4 12/29/4 119/29/4 120/30/4
f 49/49/7 52/50/7 51/51/7
f 52/50/8 53/52/8 51/53/8
f 53/52/9 54/54/9 51/53/9
f 54/54/10 50/55/10 51/53/10
f 60/56/11 63/57/11 62/58/11
f 63/57/12 64/59/12 62/58/12
f 64/59/13 65/60/13 62/58/13
f 65/60/14 61/61/14 62/58/14
f 71/33/15 74/62/15 73/63/15
f 74/62/16 75/64/16 73/65/16
f 75/64/17 76/66/17 73/65/17
f 76/66/18 72/67/18 73/65/18
f 77/33/19 80/68/19 79/69/19
f 80/68/20 81/70/20 79/69/20
f 81/70/21 82/71/21 79/69/21
f 82/71/22 78/72/22 79/69/22
f 88/31/23 91/73/23 90/74/23
f 91/73/24 92/75/24 90/76/24
f 92/75/25 93/77/25 90/76/25
f 93/77/26 89/78/26 90/76/26
f 94/31/27 97/79/27 96/80/27
f 97/79/28 98/81/28 96/80/28
f 98/81/29 99/82/29 96/80/29
f 99/82/30 95/83/30 96/80/30
f 100/84/31 103/85/31 102/86/31
f 103/85/32 104/87/32 102/86/32
f 104/87/33 105/88/33 102/86/33
f 105/88/34 101/89/34 102/86/34
f 111/90/35 114/91/35 113/92/35
f 114/91/36 115/93/36 113/92/36
f 115/93/37 116/94/37 113/92/37
f 116/94/38 112/95/38 113/92/38
f 94/31/61 96/80/61 62/58/61 61/105/61 49/49/61 51/51/61 90/74/61 89/119/61
f 39/32/2 40/31/2 88/31/2 90/74/2 51/51/2 50/105/2
f 83/119/63 85/131/63 86/129/63 87/127/63 84/126/63 55/96/63 57/99/63 58/101/63 59/103/63 56/49/63 60/56/63 62/58/63 96/80/63 95/120/63
f 111/90/65 113/92/65 79/69/65 78/110/65 66/104/65 68/102/65 69/100/65 70/98/65 67/97/65 106/125/65 108/128/65 109/130/65 110/132/65 107/84/65
f 100/84/66 102/86/66 73/63/66 72/104/66 77/33/66 79/69/66 113/92/66 112/40/66
f 30/40/4 29/33/4 71/33/4 73/63/4 102/86/4 101/40/4
f 2/15/4 20/14/4 44/14/4 43/15/4
f 12/29/6 19/29/6 42/29/6 119/29/6
f 8/7/2 18/6/2 47/6/2 46/7/2
f 20/30/6 14/30/6 120/30/6 44/30/6
f 121/40/1 124/40/1 123/40/1
f 124/40/1 125/40/1 123/40/1
f 125/40/1 126/40/1 123/40/1
f 126/40/1 122/40/1 123/40/1
f 127/133/3 130/134/3 129/135/3
f 130/134/3 131/136/3 129/33/3
f 131/136/3 132/137/3 129/33/3
f 132/137/3 128/33/3 129/33/3
f 143/33/1 146/33/1 145/135/1
f 146/33/1 147/33/1 145/33/1
f 147/33/1 148/33/1 145/33/1
f 148/33/1 144/33/1 145/33/1
f 149/138/3 152/139/3 151/40/3
f 152/139/3 153/140/3 151/40/3
f 153/140/3 154/141/3 151/40/3
f 154/141/3 150/40/3 151/40/3
f 155/142/69 122/143/69 126/144/69 157/145/69
f 157/145/70 126/144/70 125/40/70 158/39/70
f 158/39/71 125/40/71 124/40/71 159/39/71
f 159/39/72 124/40/72 121/40/72 156/39/72
f 127/133/69 134/146/69 137/147/69 130/134/69
f 130/134/70 137/147/70 136/148/70 131/33/70
f 131/33/71 136/148/71 135/149/71 132/33/71
f 132/33/72 135/149/72 133/150/72 128/135/72
f 149/138/69 144/151/69 148/134/69 152/139/69
f 152/139/70 148/134/70 147/33/70 153/40/70
f 153/40/71 147/33/71 146/33/71 154/40/71
f 154/40/72 146/33/72 143/33/72 150/40/72
f 138/38/73 171/31/73 174/152/73 140/38/73
f 140/38/74 174/152/74 173/153/74 141/38/74
f 141/38/75 173/153/75 172/154/75 142/155/75
f 142/155/76 172/154/76 170/156/76 139/157/76
f 165/105/73 161/37/73 164/158/73 167/159/73
f 167/159/74 164/158/74 163/160/74 168/161/74
f 168/161/75 163/160/75 162/162/75 169/163/75
f 169/163/76 162/162/76 160/164/76 166/165/76
f 180/31/73 176/105/73 179/159/73 182/152/73
f 182/152/74 179/159/74 178/166/74 183/153/74
f 183/153/75 178/166/75 177/167/75 184/168/75
f 184/168/76 177/167/76 175/165/76 181/156/76
f 122/143/6 155/142/6 43/169/6 44/30/6
f 120/30/6 149/138/6 151/40/6 123/40/6 122/143/6 44/30/6
f 30/40/6 28/40/6 121/40/6 123/40/6 151/40/6 150/40/6
f 28/40/2 22/39/2 156/39/2 121/40/2
f 25/33/6 29/33/6 143/33/6 145/135/6 129/135/6 128/135/6
f 24/10/2 25/33/2 128/135/2 133/150/2
f 145/135/1 144/151/1 119/29/1 42/29/1 127/133/1 129/135/1
f 134/146/6 127/133/6 42/29/6 45/11/6
f 6/11/3 24/10/3 133/150/3 135/149/3 136/148/3 137/147/3 134/146/3 45/11/3
f 4/3/1 31/2/1 138/2/1 140/170/1 141/171/1 142/172/1 139/173/1 48/3/1
f 41/27/6 48/174/6 139/157/6 170/156/6
f 31/38/4 38/31/4 171/31/4 138/38/4
f 144/151/6 149/138/6 120/30/6 119/29/6
f 29/33/2 30/40/2 150/40/2 143/33/2
f 22/44/1 2/43/1 43/43/1 155/175/1 157/176/1 158/177/1 159/178/1 156/179/1
f 46/7/6 47/28/6 166/165/6 160/164/6
f 35/32/4 34/37/4 161/37/4 165/105/4
f 34/37/3 8/7/3 46/7/3 160/164/3 162/162/3 163/160/3 164/158/3 161/37/3
f 18/28/1 35/32/1 165/105/1 167/159/1 168/161/1 169/163/1 166/165/1 47/28/1
f 38/31/3 17/27/3 41/27/3 170/156/3 172/154/3 173/153/3 174/152/3 171/31/3
f 39/32/3 10/28/3 118/28/3 175/165/3 177/167/3 178/166/3 179/159/3 176/105/3
f 118/28/6 117/27/6 181/156/6 175/165/6
f 40/31/4 39/32/4 176/105/4 180/31/4
f 15/27/1 40/31/1 180/31/1 182/152/1 183/153/1 184/168/1 181/156/1 117/27/1
usemtl azfalto
f 39/32/6 29/33/6 25/33/6 35/32/6
f 33/34/5 37/35/5 27/20/5 21/25/5
f 37/35/5 36/36/5 26/17/5 27/20/5
f 34/37/6 35/32/6 25/33/6 24/10/6
f 38/31/6 31/38/6 22/39/6 28/40/6
f 36/36/5 32/41/5 23/9/5 26/17/5
f 32/41/3 34/37/3 24/10/3 23/9/3
f 30/40/6 40/31/6 38/31/6 28/40/6
f 21/45/1 22/44/1 31/2/1 33/1/1
f 55/96/6 67/97/6 70/98/6 57/99/6
f 57/99/39 70/98/39 69/100/39 58/101/39
f 58/101/40 69/100/40 68/102/40 59/103/40
f 59/103/41 68/102/41 66/104/41 56/49/41
f 77/33/42 61/105/42 65/106/42 80/68/42
f 80/68/43 65/106/43 64/107/43 81/108/43
f 81/108/44 64/107/44 63/57/44 82/109/44
f 82/109/45 63/57/45 60/56/45 78/110/45
f 71/33/46 50/105/46 54/111/46 74/62/46
f 74/62/47 54/111/47 53/112/47 75/113/47
f 75/113/48 53/112/48 52/50/48 76/114/48
f 76/114/49 52/50/49 49/49/49 72/104/49
f 88/31/50 101/40/50 105/115/50 91/73/50
f 91/73/51 105/115/51 104/116/51 92/117/51
f 92/117/52 104/116/52 103/85/52 93/118/52
f 93/118/53 103/85/53 100/84/53 89/119/53
f 111/90/54 95/120/54 99/121/54 114/91/54
f 114/91/55 99/121/55 98/122/55 115/123/55
f 115/123/56 98/122/56 97/79/56 116/124/56
f 116/124/57 97/79/57 94/31/57 112/40/57
f 106/125/6 84/126/6 87/127/6 108/128/6
f 108/128/58 87/127/58 86/129/58 109/130/58
f 109/130/59 86/129/59 85/131/59 110/132/59
f 110/132/60 85/131/60 83/119/60 107/84/60
f 61/105/62 77/33/62 72/104/62 49/49/62
f 29/33/3 39/32/3 50/105/3 71/33/3
f 56/49/64 66/104/64 78/110/64 60/56/64
f 55/96/5 84/126/5 106/125/5 67/97/5
f 95/120/67 111/90/67 107/84/67 83/119/67
f 89/119/68 100/84/68 112/40/68 94/31/68
f 40/31/1 30/40/1 101/40/1 88/31/1
