# Blender 5.2.2 LTS
# www.blender.org
mtllib señal-alto.mtl
o senal_alto_poste
v 0.000000 0.000000 -0.030000
v 0.000000 2.200000 -0.030000
v 0.005853 0.000000 -0.029424
v 0.005853 2.200000 -0.029424
v 0.011481 0.000000 -0.027716
v 0.011481 2.200000 -0.027716
v 0.016667 0.000000 -0.024944
v 0.016667 2.200000 -0.024944
v 0.021213 0.000000 -0.021213
v 0.021213 2.200000 -0.021213
v 0.024944 0.000000 -0.016667
v 0.024944 2.200000 -0.016667
v 0.027716 0.000000 -0.011481
v 0.027716 2.200000 -0.011481
v 0.029424 0.000000 -0.005853
v 0.029424 2.200000 -0.005853
v 0.030000 0.000000 0.000000
v 0.030000 2.200000 0.000000
v 0.029424 0.000000 0.005853
v 0.029424 2.200000 0.005853
v 0.027716 0.000000 0.011481
v 0.027716 2.200000 0.011481
v 0.024944 0.000000 0.016667
v 0.024944 2.200000 0.016667
v 0.021213 0.000000 0.021213
v 0.021213 2.200000 0.021213
v 0.016667 0.000000 0.024944
v 0.016667 2.200000 0.024944
v 0.011481 0.000000 0.027716
v 0.011481 2.200000 0.027716
v 0.005853 0.000000 0.029424
v 0.005853 2.200000 0.029424
v 0.000000 0.000000 0.030000
v 0.000000 2.200000 0.030000
v -0.005853 0.000000 0.029424
v -0.005853 2.200000 0.029424
v -0.011481 0.000000 0.027716
v -0.011481 2.200000 0.027716
v -0.016667 0.000000 0.024944
v -0.016667 2.200000 0.024944
v -0.021213 0.000000 0.021213
v -0.021213 2.200000 0.021213
v -0.024944 0.000000 0.016667
v -0.024944 2.200000 0.016667
v -0.027716 0.000000 0.011481
v -0.027716 2.200000 0.011481
v -0.029424 0.000000 0.005853
v -0.029424 2.200000 0.005853
v -0.030000 0.000000 0.000000
v -0.030000 2.200000 0.000000
v -0.029424 0.000000 -0.005853
v -0.029424 2.200000 -0.005853
v -0.027716 0.000000 -0.011481
v -0.027716 2.200000 -0.011481
v -0.024944 0.000000 -0.016667
v -0.024944 2.200000 -0.016667
v -0.021213 0.000000 -0.021213
v -0.021213 2.200000 -0.021213
v -0.016667 0.000000 -0.024944
v -0.016667 2.200000 -0.024944
v -0.011481 0.000000 -0.027716
v -0.011481 2.200000 -0.027716
v -0.005853 0.000000 -0.029424
v -0.005853 2.200000 -0.029424
vn 0.0980 -0.0000 -0.9952
vn 0.2903 -0.0000 -0.9569
vn 0.4714 -0.0000 -0.8819
vn 0.6344 -0.0000 -0.7730
vn 0.7730 -0.0000 -0.6344
vn 0.8819 -0.0000 -0.4714
vn 0.9569 -0.0000 -0.2903
vn 0.9952 -0.0000 -0.0980
vn 0.9952 -0.0000 0.0980
vn 0.9569 -0.0000 0.2903
vn 0.8819 -0.0000 0.4714
vn 0.7730 -0.0000 0.6344
vn 0.6344 -0.0000 0.7730
vn 0.4714 -0.0000 0.8819
vn 0.2903 -0.0000 0.9569
vn 0.0980 -0.0000 0.9952
vn -0.0980 -0.0000 0.9952
vn -0.2903 -0.0000 0.9569
vn -0.4714 -0.0000 0.8819
vn -0.6344 -0.0000 0.7730
vn -0.7730 -0.0000 0.6344
vn -0.8819 -0.0000 0.4714
vn -0.9569 -0.0000 0.2903
vn -0.9952 -0.0000 0.0980
vn -0.9952 -0.0000 -0.0980
vn -0.9569 -0.0000 -0.2903
vn -0.8819 -0.0000 -0.4714
vn -0.7730 -0.0000 -0.6344
vn -0.6344 -0.0000 -0.7730
vn -0.4714 -0.0000 -0.8819
vn -0.0000 1.0000 -0.0000
vn -0.2903 -0.0000 -0.9569
vn -0.0980 -0.0000 -0.9952
vn -0.0000 -1.0000 -0.0000
vt 1.000000 0.500000
vt 1.000000 1.000000
vt 0.968750 1.000000
vt 0.968750 0.500000
vt 0.937500 1.000000
vt 0.937500 0.500000
vt 0.906250 1.000000
vt 0.906250 0.500000
vt 0.875000 1.000000
vt 0.875000 0.500000
vt 0.843750 1.000000
vt 0.843750 0.500000
vt 0.812500 1.000000
vt 0.812500 0.500000
vt 0.781250 1.000000
vt 0.781250 0.500000
vt 0.750000 1.000000
vt 0.750000 0.500000
vt 0.718750 1.000000
vt 0.718750 0.500000
vt 0.687500 1.000000
vt 0.687500 0.500000
vt 0.656250 1.000000
vt 0.656250 0.500000
vt 0.625000 1.000000
vt 0.625000 0.500000
vt 0.593750 1.000000
vt 0.593750 0.500000
vt 0.562500 1.000000
vt 0.562500 0.500000
vt 0.531250 1.000000
vt 0.531250 0.500000
vt 0.500000 1.000000
vt 0.500000 0.500000
vt 0.468750 1.000000
vt 0.468750 0.500000
vt 0.437500 1.000000
vt 0.437500 0.500000
vt 0.406250 1.000000
vt 0.406250 0.500000
vt 0.375000 1.000000
vt 0.375000 0.500000
vt 0.343750 1.000000
vt 0.343750 0.500000
vt 0.312500 1.000000
vt 0.312500 0.500000
vt 0.281250 1.000000
vt 0.281250 0.500000
vt 0.250000 1.000000
vt 0.250000 0.500000
vt 0.218750 1.000000
vt 0.218750 0.500000
vt 0.187500 1.000000
vt 0.187500 0.500000
vt 0.156250 1.000000
vt 0.156250 0.500000
vt 0.125000 1.000000
vt 0.125000 0.500000
vt 0.093750 1.000000
vt 0.093750 0.500000
vt 0.062500 1.000000
vt 0.062500 0.500000
vt 0.296822 0.485388
vt 0.250000 0.490000
vt 0.203178 0.485388
vt 0.158156 0.471731
vt 0.116663 0.449553
vt 0.080294 0.419706
vt 0.050447 0.383337
vt 0.028269 0.341844
vt 0.014612 0.296822
vt 0.010000 0.250000
vt 0.014612 0.203178
vt 0.028269 0.158156
vt 0.050447 0.116663
vt 0.080294 0.080294
vt 0.116663 0.050447
vt 0.158156 0.028269
vt 0.203178 0.014612
vt 0.250000 0.010000
vt 0.296822 0.014612
vt 0.341844 0.028269
vt 0.383337 0.050447
vt 0.419706 0.080294
vt 0.449553 0.116663
vt 0.471731 0.158156
vt 0.485388 0.203178
vt 0.490000 0.250000
vt 0.485388 0.296822
vt 0.471731 0.341844
vt 0.449553 0.383337
vt 0.419706 0.419706
vt 0.383337 0.449553
vt 0.341844 0.471731
vt 0.031250 1.000000
vt 0.031250 0.500000
vt 0.000000 1.000000
vt 0.000000 0.500000
vt 0.750000 0.490000
vt 0.796822 0.485388
vt 0.841844 0.471731
vt 0.883337 0.449553
vt 0.919706 0.419706
vt 0.949553 0.383337
vt 0.971731 0.341844
vt 0.985388 0.296822
vt 0.990000 0.250000
vt 0.985388 0.203178
vt 0.971731 0.158156
vt 0.949553 0.116663
vt 0.919706 0.080294
vt 0.883337 0.050447
vt 0.841844 0.028269
vt 0.796822 0.014612
vt 0.750000 0.010000
vt 0.703178 0.014612
vt 0.658156 0.028269
vt 0.616663 0.050447
vt 0.580294 0.080294
vt 0.550447 0.116663
vt 0.528269 0.158156
vt 0.514612 0.203178
vt 0.510000 0.250000
vt 0.514612 0.296822
vt 0.528269 0.341844
vt 0.550447 0.383337
vt 0.580294 0.419706
vt 0.616663 0.449553
vt 0.658156 0.471731
vt 0.703178 0.485388
s 0
f 1/1/1 2/2/1 4/3/1 3/4/1
f 3/4/2 4/3/2 6/5/2 5/6/2
f 5/6/3 6/5/3 8/7/3 7/8/3
f 7/8/4 8/7/4 10/9/4 9/10/4
f 9/10/5 10/9/5 12/11/5 11/12/5
f 11/12/6 12/11/6 14/13/6 13/14/6
f 13/14/7 14/13/7 16/15/7 15/16/7
f 15/16/8 16/15/8 18/17/8 17/18/8
f 17/18/9 18/17/9 20/19/9 19/20/9
f 19/20/10 20/19/10 22/21/10 21/22/10
f 21/22/11 22/21/11 24/23/11 23/24/11
f 23/24/12 24/23/12 26/25/12 25/26/12
f 25/26/13 26/25/13 28/27/13 27/28/13
f 27/28/14 28/27/14 30/29/14 29/30/14
f 29/30/15 30/29/15 32/31/15 31/32/15
f 31/32/16 32/31/16 34/33/16 33/34/16
f 33/34/17 34/33/17 36/35/17 35/36/17
f 35/36/18 36/35/18 38/37/18 37/38/18
f 37/38/19 38/37/19 40/39/19 39/40/19
f 39/40/20 40/39/20 42/41/20 41/42/20
f 41/42/21 42/41/21 44/43/21 43/44/21
f 43/44/22 44/43/22 46/45/22 45/46/22
f 45/46/23 46/45/23 48/47/23 47/48/23
f 47/48/24 48/47/24 50/49/24 49/50/24
f 49/50/25 50/49/25 52/51/25 51/52/25
f 51/52/26 52/51/26 54/53/26 53/54/26
f 53/54/27 54/53/27 56/55/27 55/56/27
f 55/56/28 56/55/28 58/57/28 57/58/28
f 57/58/29 58/57/29 60/59/29 59/60/29
f 59/60/30 60/59/30 62/61/30 61/62/30
f 4/63/31 2/64/31 64/65/31 62/66/31 60/67/31 58/68/31 56/69/31 54/70/31 52/71/31 50/72/31 48/73/31 46/74/31 44/75/31 42/76/31 40/77/31 38/78/31 36/79/31 34/80/31 32/81/31 30/82/31 28/83/31 26/84/31 24/85/31 22/86/31 20/87/31 18/88/31 16/89/31 14/90/31 12/91/31 10/92/31 8/93/31 6/94/31
f 61/62/32 62/61/32 64/95/32 63/96/32
f 63/96/33 64/95/33 2/97/33 1/98/33
f 1/99/34 3/100/34 5/101/34 7/102/34 9/103/34 11/104/34 13/105/34 15/106/34 17/107/34 19/108/34 21/109/34 23/110/34 25/111/34 27/112/34 29/113/34 31/114/34 33/115/34 35/116/34 37/117/34 39/118/34 41/119/34 43/120/34 45/121/34 47/122/34 49/123/34 51/124/34 53/125/34 55/126/34 57/127/34 59/128/34 61/129/34 63/130/34
o senal_alto_placa
v 0.000000 2.150000 -0.025000
v 0.000000 2.150000 0.025000
v 0.212132 2.062132 -0.025000
v 0.212132 2.062132 0.025000
v 0.300000 1.850000 -0.025000
v 0.300000 1.850000 0.025000
v 0.212132 1.637868 -0.025000
v 0.212132 1.637868 0.025000
v 0.000000 1.550000 -0.025000
v 0.000000 1.550000 0.025000
v -0.212132 1.637868 -0.025000
v -0.212132 1.637868 0.025000
v -0.300000 1.850000 -0.025000
v -0.300000 1.850000 0.025000
v -0.212132 2.062132 -0.025000
v -0.212132 2.062132 0.025000
vn 0.3827 0.9239 -0.0000
vn 0.9239 0.3827 -0.0000
vn 0.9239 -0.3827 -0.0000
vn 0.3827 -0.9239 -0.0000
vn -0.3827 -0.9239 -0.0000
vn -0.9239 -0.3827 -0.0000
vn -0.0000 -0.0000 1.0000
vn -0.9239 0.3827 -0.0000
vn -0.3827 0.9239 -0.0000
vn -0.0000 -0.0000 -1.0000
vt 1.000000 0.500000
vt 1.000000 1.000000
vt 0.875000 1.000000
vt 0.875000 0.500000
vt 0.750000 1.000000
vt 0.750000 0.500000
vt 0.625000 1.000000
vt 0.625000 0.500000
vt 0.500000 1.000000
vt 0.500000 0.500000
vt 0.375000 1.000000
vt 0.375000 0.500000
vt 0.250000 1.000000
vt 0.250000 0.500000
vt 0.419706 0.419706
vt 0.250000 0.490000
vt 0.080294 0.419706
vt 0.010000 0.250000
vt 0.080294 0.080294
vt 0.250000 0.010000
vt 0.419706 0.080294
vt 0.490000 0.250000
vt 0.125000 1.000000
vt 0.125000 0.500000
vt 0.000000 1.000000
vt 0.000000 0.500000
vt 0.750000 0.490000
vt 0.919706 0.419706
vt 0.990000 0.250000
vt 0.919706 0.080294
vt 0.750000 0.010000
vt 0.580294 0.080294
vt 0.510000 0.250000
vt 0.580294 0.419706
s 0
f 65/131/35 66/132/35 68/133/35 67/134/35
f 67/134/36 68/133/36 70/135/36 69/136/36
f 69/136/37 70/135/37 72/137/37 71/138/37
f 71/138/38 72/137/38 74/139/38 73/140/38
f 73/140/39 74/139/39 76/141/39 75/142/39
f 75/142/40 76/141/40 78/143/40 77/144/40
f 68/145/41 66/146/41 80/147/41 78/148/41 76/149/41 74/150/41 72/151/41 70/152/41
f 77/144/42 78/143/42 80/153/42 79/154/42
f 79/154/43 80/153/43 66/155/43 65/156/43
f 65/157/44 67/158/44 69/159/44 71/160/44 73/161/44 75/162/44 77/163/44 79/164/44
o senal_alto_texto
v 0.168208 1.919794 0.055000
v 0.177356 1.918088 0.055000
v 0.185808 1.915346 0.055000
v 0.193527 1.911647 0.055000
v 0.200476 1.907073 0.055000
v 0.206618 1.901705 0.055000
v 0.211916 1.895625 0.055000
v 0.216333 1.888913 0.055000
v 0.219833 1.881652 0.055000
v 0.222379 1.873922 0.055000
v 0.223934 1.865804 0.055000
v 0.224460 1.857380 0.055000
v 0.223947 1.849183 0.055000
v 0.222428 1.841213 0.055000
v 0.219929 1.833564 0.055000
v 0.216480 1.826327 0.055000
v 0.212108 1.819595 0.055000
v 0.206843 1.813460 0.055000
v 0.200710 1.808015 0.055000
v 0.193740 1.803353 0.055000
v 0.185960 1.799566 0.055000
v 0.177398 1.796747 0.055000
v 0.168082 1.794987 0.055000
v 0.158040 1.794380 0.055000
v 0.148319 1.794984 0.055000
v 0.139249 1.796734 0.055000
v 0.130868 1.799541 0.055000
v 0.123213 1.803313 0.055000
v 0.116321 1.807961 0.055000
v 0.110228 1.813393 0.055000
v 0.104971 1.819518 0.055000
v 0.100587 1.826247 0.055000
v 0.097113 1.833488 0.055000
v 0.094586 1.841151 0.055000
v 0.093043 1.849145 0.055000
v 0.092520 1.857380 0.055000
v 0.093057 1.865766 0.055000
v 0.094638 1.873859 0.055000
v 0.097220 1.881576 0.055000
v 0.100760 1.888833 0.055000
v 0.105215 1.895548 0.055000
v 0.110543 1.901638 0.055000
v 0.116698 1.907018 0.055000
v 0.123640 1.911607 0.055000
v 0.131324 1.915320 0.055000
v 0.139708 1.918076 0.055000
v 0.148747 1.919790 0.055000
v 0.158400 1.920380 0.055000
v 0.165127 1.810989 0.055000
v 0.171509 1.812184 0.055000
v 0.177500 1.814121 0.055000
v 0.183053 1.816753 0.055000
v 0.188125 1.820036 0.055000
v 0.192668 1.823923 0.055000
v 0.196637 1.828368 0.055000
v 0.199987 1.833327 0.055000
v 0.202672 1.838753 0.055000
v 0.204646 1.844601 0.055000
v 0.205864 1.850825 0.055000
v 0.206280 1.857380 0.055000
v 0.205864 1.863973 0.055000
v 0.204646 1.870222 0.055000
v 0.202672 1.876083 0.055000
v 0.199987 1.881513 0.055000
v 0.196637 1.886469 0.055000
v 0.192668 1.890905 0.055000
v 0.188125 1.894779 0.055000
v 0.183053 1.898047 0.055000
v 0.177500 1.900664 0.055000
v 0.171509 1.902588 0.055000
v 0.165127 1.903775 0.055000
v 0.158400 1.904180 0.055000
v 0.151714 1.903775 0.055000
v 0.145367 1.902588 0.055000
v 0.139404 1.900664 0.055000
v 0.133873 1.898047 0.055000
v 0.128820 1.894779 0.055000
v 0.124290 1.890905 0.055000
v 0.120330 1.886469 0.055000
v 0.116987 1.881513 0.055000
v 0.114306 1.876083 0.055000
v 0.112333 1.870222 0.055000
v 0.111116 1.863973 0.055000
v 0.110700 1.857380 0.055000
v 0.111116 1.850825 0.055000
v 0.112333 1.844601 0.055000
v 0.114306 1.838753 0.055000
v 0.116987 1.833327 0.055000
v 0.120330 1.828368 0.055000
v 0.124290 1.823923 0.055000
v 0.128820 1.820036 0.055000
v 0.133873 1.816753 0.055000
v 0.139404 1.814121 0.055000
v 0.145367 1.812184 0.055000
v 0.151714 1.810989 0.055000
v 0.158400 1.810580 0.055000
v 0.038880 1.902920 0.055000
v 0.038880 1.796000 0.055000
v 0.021240 1.796000 0.055000
v 0.021240 1.902920 0.055000
v -0.021240 1.902920 0.055000
v -0.021240 1.918760 0.055000
v 0.081360 1.918760 0.055000
v 0.081360 1.902920 0.055000
v -0.026100 1.811840 0.055000
v -0.026100 1.796000 0.055000
v -0.099180 1.796000 0.055000
v -0.099180 1.918760 0.055000
v -0.081540 1.918760 0.055000
v -0.081540 1.811840 0.055000
v -0.130500 1.796000 0.055000
v -0.146880 1.832180 0.055000
v -0.199080 1.832180 0.055000
v -0.214560 1.796000 0.055000
v -0.232560 1.796000 0.055000
v -0.179820 1.919480 0.055000
v -0.167400 1.919480 0.055000
v -0.112500 1.796000 0.055000
v -0.154080 1.848020 0.055000
v -0.173880 1.892480 0.055000
v -0.192240 1.848020 0.055000
v 0.168208 1.919794 0.035000
v 0.177356 1.918088 0.035000
v 0.185808 1.915346 0.035000
v 0.193527 1.911647 0.035000
v 0.200476 1.907073 0.035000
v 0.206618 1.901705 0.035000
v 0.211916 1.895625 0.035000
v 0.216333 1.888913 0.035000
v 0.219833 1.881652 0.035000
v 0.222379 1.873922 0.035000
v 0.223934 1.865804 0.035000
v 0.224460 1.857380 0.035000
v 0.223947 1.849183 0.035000
v 0.222428 1.841213 0.035000
v 0.219929 1.833564 0.035000
v 0.216480 1.826327 0.035000
v 0.212108 1.819595 0.035000
v 0.206843 1.813460 0.035000
v 0.200710 1.808015 0.035000
v 0.193740 1.803353 0.035000
v 0.185960 1.799566 0.035000
v 0.177398 1.796747 0.035000
v 0.168082 1.794987 0.035000
v 0.158040 1.794380 0.035000
v 0.148319 1.794984 0.035000
v 0.139249 1.796734 0.035000
v 0.130868 1.799541 0.035000
v 0.123213 1.803313 0.035000
v 0.116321 1.807961 0.035000
v 0.110228 1.813393 0.035000
v 0.104971 1.819518 0.035000
v 0.100587 1.826247 0.035000
v 0.097113 1.833488 0.035000
v 0.094586 1.841151 0.035000
v 0.093043 1.849145 0.035000
v 0.092520 1.857380 0.035000
v 0.093057 1.865766 0.035000
v 0.094638 1.873859 0.035000
v 0.097220 1.881576 0.035000
v 0.100760 1.888833 0.035000
v 0.105215 1.895548 0.035000
v 0.110543 1.901638 0.035000
v 0.116698 1.907018 0.035000
v 0.123640 1.911607 0.035000
v 0.131324 1.915320 0.035000
v 0.139708 1.918076 0.035000
v 0.148747 1.919790 0.035000
v 0.158400 1.920380 0.035000
v 0.165127 1.810989 0.035000
v 0.171509 1.812184 0.035000
v 0.177500 1.814121 0.035000
v 0.183053 1.816753 0.035000
v 0.188125 1.820036 0.035000
v 0.192668 1.823923 0.035000
v 0.196637 1.828368 0.035000
v 0.199987 1.833327 0.035000
v 0.202672 1.838753 0.035000
v 0.204646 1.844601 0.035000
v 0.205864 1.850825 0.035000
v 0.206280 1.857380 0.035000
v 0.205864 1.863973 0.035000
v 0.204646 1.870222 0.035000
v 0.202672 1.876083 0.035000
v 0.199987 1.881513 0.035000
v 0.196637 1.886469 0.035000
v 0.192668 1.890905 0.035000
v 0.188125 1.894779 0.035000
v 0.183053 1.898047 0.035000
v 0.177500 1.900664 0.035000
v 0.171509 1.902588 0.035000
v 0.165127 1.903775 0.035000
v 0.158400 1.904180 0.035000
v 0.151714 1.903775 0.035000
v 0.145367 1.902588 0.035000
v 0.139404 1.900664 0.035000
v 0.133873 1.898047 0.035000
v 0.128820 1.894779 0.035000
v 0.124290 1.890905 0.035000
v 0.120330 1.886469 0.035000
v 0.116987 1.881513 0.035000
v 0.114306 1.876083 0.035000
v 0.112333 1.870222 0.035000
v 0.111116 1.863973 0.035000
v 0.110700 1.857380 0.035000
v 0.111116 1.850825 0.035000
v 0.112333 1.844601 0.035000
v 0.114306 1.838753 0.035000
v 0.116987 1.833327 0.035000
v 0.120330 1.828368 0.035000
v 0.124290 1.823923 0.035000
v 0.128820 1.820036 0.035000
v 0.133873 1.816753 0.035000
v 0.139404 1.814121 0.035000
v 0.145367 1.812184 0.035000
v 0.151714 1.810989 0.035000
v 0.158400 1.810580 0.035000
v 0.038880 1.902920 0.035000
v 0.038880 1.796000 0.035000
v 0.021240 1.796000 0.035000
v 0.021240 1.902920 0.035000
v -0.021240 1.902920 0.035000
v -0.021240 1.918760 0.035000
v 0.081360 1.918760 0.035000
v 0.081360 1.902920 0.035000
v -0.026100 1.811840 0.035000
v -0.026100 1.796000 0.035000
v -0.099180 1.796000 0.035000
v -0.099180 1.918760 0.035000
v -0.081540 1.918760 0.035000
v -0.081540 1.811840 0.035000
v -0.130500 1.796000 0.035000
v -0.146880 1.832180 0.035000
v -0.199080 1.832180 0.035000
v -0.214560 1.796000 0.035000
v -0.232560 1.796000 0.035000
v -0.179820 1.919480 0.035000
v -0.167400 1.919480 0.035000
v -0.112500 1.796000 0.035000
v -0.154080 1.848020 0.035000
v -0.173880 1.892480 0.035000
v -0.192240 1.848020 0.035000
v -0.130500 1.796000 0.035000
v -0.130500 1.796000 0.055000
v -0.146880 1.832180 0.035000
v -0.146880 1.832180 0.055000
v -0.199080 1.832180 0.035000
v -0.199080 1.832180 0.055000
v -0.214560 1.796000 0.035000
v -0.214560 1.796000 0.055000
v -0.232560 1.796000 0.035000
v -0.232560 1.796000 0.055000
v -0.179820 1.919480 0.035000
v -0.179820 1.919480 0.055000
v -0.167400 1.919480 0.035000
v -0.167400 1.919480 0.055000
v -0.112500 1.796000 0.035000
v -0.112500 1.796000 0.055000
v -0.154080 1.848020 0.035000
v -0.154080 1.848020 0.055000
v -0.173880 1.892480 0.035000
v -0.173880 1.892480 0.055000
v -0.192240 1.848020 0.035000
v -0.192240 1.848020 0.055000
v -0.026100 1.811840 0.035000
v -0.026100 1.811840 0.055000
v -0.026100 1.796000 0.035000
v -0.026100 1.796000 0.055000
v -0.099180 1.796000 0.035000
v -0.099180 1.796000 0.055000
v -0.099180 1.918760 0.035000
v -0.099180 1.918760 0.055000
v -0.081540 1.918760 0.035000
v -0.081540 1.918760 0.055000
v -0.081540 1.811840 0.035000
v -0.081540 1.811840 0.055000
v 0.038880 1.902920 0.035000
v 0.038880 1.902920 0.055000
v 0.038880 1.796000 0.035000
v 0.038880 1.796000 0.055000
v 0.021240 1.796000 0.035000
v 0.021240 1.796000 0.055000
v 0.021240 1.902920 0.035000
v 0.021240 1.902920 0.055000
v -0.021240 1.902920 0.035000
v -0.021240 1.902920 0.055000
v -0.021240 1.918760 0.035000
v -0.021240 1.918760 0.055000
v 0.081360 1.918760 0.035000
v 0.081360 1.918760 0.055000
v 0.081360 1.902920 0.035000
v 0.081360 1.902920 0.055000
v 0.168208 1.919794 0.035000
v 0.168208 1.919794 0.055000
v 0.177356 1.918088 0.035000
v 0.177356 1.918088 0.055000
v 0.185808 1.915346 0.035000
v 0.185808 1.915346 0.055000
v 0.193527 1.911647 0.035000
v 0.193527 1.911647 0.055000
v 0.200476 1.907073 0.035000
v 0.200476 1.907073 0.055000
v 0.206618 1.901705 0.035000
v 0.206618 1.901705 0.055000
v 0.211916 1.895625 0.035000
v 0.211916 1.895625 0.055000
v 0.216333 1.888913 0.035000
v 0.216333 1.888913 0.055000
v 0.219833 1.881652 0.035000
v 0.219833 1.881652 0.055000
v 0.222379 1.873922 0.035000
v 0.222379 1.873922 0.055000
v 0.223934 1.865804 0.035000
v 0.223934 1.865804 0.055000
v 0.224460 1.857380 0.035000
v 0.224460 1.857380 0.055000
v 0.223947 1.849183 0.035000
v 0.223947 1.849183 0.055000
v 0.222428 1.841213 0.035000
v 0.222428 1.841213 0.055000
v 0.219929 1.833564 0.035000
v 0.219929 1.833564 0.055000
v 0.216480 1.826327 0.035000
v 0.216480 1.826327 0.055000
v 0.212108 1.819595 0.035000
v 0.212108 1.819595 0.055000
v 0.206843 1.813460 0.035000
v 0.206843 1.813460 0.055000
v 0.200710 1.808015 0.035000
v 0.200710 1.808015 0.055000
v 0.193740 1.803353 0.035000
v 0.193740 1.803353 0.055000
v 0.185960 1.799566 0.035000
v 0.185960 1.799566 0.055000
v 0.177398 1.796747 0.035000
v 0.177398 1.796747 0.055000
v 0.168082 1.794987 0.035000
v 0.168082 1.794987 0.055000
v 0.158040 1.794380 0.035000
v 0.158040 1.794380 0.055000
v 0.148319 1.794984 0.035000
v 0.148319 1.794984 0.055000
v 0.139249 1.796734 0.035000
v 0.139249 1.796734 0.055000
v 0.130868 1.799541 0.035000
v 0.130868 1.799541 0.055000
v 0.123213 1.803313 0.035000
v 0.123213 1.803313 0.055000
v 0.116321 1.807961 0.035000
v 0.116321 1.807961 0.055000
v 0.110228 1.813393 0.035000
v 0.110228 1.813393 0.055000
v 0.104971 1.819518 0.035000
v 0.104971 1.819518 0.055000
v 0.100587 1.826247 0.035000
v 0.100587 1.826247 0.055000
v 0.097113 1.833488 0.035000
v 0.097113 1.833488 0.055000
v 0.094586 1.841151 0.035000
v 0.094586 1.841151 0.055000
v 0.093043 1.849145 0.035000
v 0.093043 1.849145 0.055000
v 0.092520 1.857380 0.035000
v 0.092520 1.857380 0.055000
v 0.093057 1.865766 0.035000
v 0.093057 1.865766 0.055000
v 0.094638 1.873859 0.035000
v 0.094638 1.873859 0.055000
v 0.097220 1.881576 0.035000
v 0.097220 1.881576 0.055000
v 0.100760 1.888833 0.035000
v 0.100760 1.888833 0.055000
v 0.105215 1.895548 0.035000
v 0.105215 1.895548 0.055000
v 0.110543 1.901638 0.035000
v 0.110543 1.901638 0.055000
v 0.116698 1.907018 0.035000
v 0.116698 1.907018 0.055000
v 0.123640 1.911607 0.035000
v 0.123640 1.911607 0.055000
v 0.131324 1.915320 0.035000
v 0.131324 1.915320 0.055000
v 0.139708 1.918076 0.035000
v 0.139708 1.918076 0.055000
v 0.148747 1.919790 0.035000
v 0.148747 1.919790 0.055000
v 0.158400 1.920380 0.035000
v 0.158400 1.920380 0.055000
v 0.165127 1.810989 0.035000
v 0.165127 1.810989 0.055000
v 0.171509 1.812184 0.035000
v 0.171509 1.812184 0.055000
v 0.177500 1.814121 0.035000
v 0.177500 1.814121 0.055000
v 0.183053 1.816753 0.035000
v 0.183053 1.816753 0.055000
v 0.188125 1.820036 0.035000
v 0.188125 1.820036 0.055000
v 0.192668 1.823923 0.035000
v 0.192668 1.823923 0.055000
v 0.196637 1.828368 0.035000
v 0.196637 1.828368 0.055000
v 0.199987 1.833327 0.035000
v 0.199987 1.833327 0.055000
v 0.202672 1.838753 0.035000
v 0.202672 1.838753 0.055000
v 0.204646 1.844601 0.035000
v 0.204646 1.844601 0.055000
v 0.205864 1.850825 0.035000
v 0.205864 1.850825 0.055000
v 0.206280 1.857380 0.035000
v 0.206280 1.857380 0.055000
v 0.205864 1.863973 0.035000
v 0.205864 1.863973 0.055000
v 0.204646 1.870222 0.035000
v 0.204646 1.870222 0.055000
v 0.202672 1.876083 0.035000
v 0.202672 1.876083 0.055000
v 0.199987 1.881513 0.035000
v 0.199987 1.881513 0.055000
v 0.196637 1.886469 0.035000
v 0.196637 1.886469 0.055000
v 0.192668 1.890905 0.035000
v 0.192668 1.890905 0.055000
v 0.188125 1.894779 0.035000
v 0.188125 1.894779 0.055000
v 0.183053 1.898047 0.035000
v 0.183053 1.898047 0.055000
v 0.177500 1.900664 0.035000
v 0.177500 1.900664 0.055000
v 0.171509 1.902588 0.035000
v 0.171509 1.902588 0.055000
v 0.165127 1.903775 0.035000
v 0.165127 1.903775 0.055000
v 0.158400 1.904180 0.035000
v 0.158400 1.904180 0.055000
v 0.151714 1.903775 0.035000
v 0.151714 1.903775 0.055000
v 0.145367 1.902588 0.035000
v 0.145367 1.902588 0.055000
v 0.139404 1.900664 0.035000
v 0.139404 1.900664 0.055000
v 0.133873 1.898047 0.035000
v 0.133873 1.898047 0.055000
v 0.128820 1.894779 0.035000
v 0.128820 1.894779 0.055000
v 0.124290 1.890905 0.035000
v 0.124290 1.890905 0.055000
v 0.120330 1.886469 0.035000
v 0.120330 1.886469 0.055000
v 0.116987 1.881513 0.035000
v 0.116987 1.881513 0.055000
v 0.114306 1.876083 0.035000
v 0.114306 1.876083 0.055000
v 0.112333 1.870222 0.035000
v 0.112333 1.870222 0.055000
v 0.111116 1.863973 0.035000
v 0.111116 1.863973 0.055000
v 0.110700 1.857380 0.035000
v 0.110700 1.857380 0.055000
v 0.111116 1.850825 0.035000
v 0.111116 1.850825 0.055000
v 0.112333 1.844601 0.035000
v 0.112333 1.844601 0.055000
v 0.114306 1.838753 0.035000
v 0.114306 1.838753 0.055000
v 0.116987 1.833327 0.035000
v 0.116987 1.833327 0.055000
v 0.120330 1.828368 0.035000
v 0.120330 1.828368 0.055000
v 0.124290 1.823923 0.035000
v 0.124290 1.823923 0.055000
v 0.128820 1.820036 0.035000
v 0.128820 1.820036 0.055000
v 0.133873 1.816753 0.035000
v 0.133873 1.816753 0.055000
v 0.139404 1.814121 0.035000
v 0.139404 1.814121 0.055000
v 0.145367 1.812184 0.035000
v 0.145367 1.812184 0.055000
v 0.151714 1.810989 0.035000
v 0.151714 1.810989 0.055000
v 0.158400 1.810580 0.035000
v 0.158400 1.810580 0.055000
vn -0.0000 -0.0000 1.0000
vn -0.0000 -0.0000 -1.0000
vn -0.5420 -0.8404 -0.0000
vn 0.5507 -0.8347 -0.0000
vn -0.8345 -0.5510 -0.0000
vn -0.5510 0.8345 -0.0000
vn 0.5449 0.8385 -0.0000
vn 0.8385 -0.5449 -0.0000
vn -0.8387 0.5446 -0.0000
vn 0.0137 -0.9999 -0.0000
vn 0.8312 0.5560 -0.0000
vn 0.7071 0.7071 -0.0000
vn 0.7071 -0.7071 -0.0000
vn -0.7071 -0.7071 -0.0000
vn -0.7071 0.7071 -0.0000
vn 0.1217 0.9926 -0.0000
vn 0.2465 0.9692 -0.0000
vn 0.3712 0.9285 -0.0000
vn 0.4921 0.8705 -0.0000
vn 0.6053 0.7960 -0.0000
vn 0.7076 0.7066 -0.0000
vn 0.7964 0.6048 -0.0000
vn 0.8700 0.4931 -0.0000
vn 0.9273 0.3743 -0.0000
vn 0.9680 0.2510 -0.0000
vn 0.9921 0.1255 -0.0000
vn 1.0000 -0.0000 -0.0000
vn 0.9921 -0.1251 -0.0000
vn 0.9684 -0.2494 -0.0000
vn 0.9286 -0.3711 -0.0000
vn 0.8726 -0.4885 -0.0000
vn 0.8005 -0.5993 -0.0000
vn 0.7130 -0.7012 -0.0000
vn 0.6114 -0.7913 -0.0000
vn 0.4980 -0.8672 -0.0000
vn 0.3761 -0.9266 -0.0000
vn 0.2497 -0.9683 -0.0000
vn 0.1232 -0.9924 -0.0000
vn -0.0008 -1.0000 -0.0000
vn -0.1260 -0.9920 -0.0000
vn -0.2541 -0.9672 -0.0000
vn -0.3807 -0.9247 -0.0000
vn -0.5017 -0.8650 -0.0000
vn -0.6136 -0.7896 -0.0000
vn -0.7137 -0.7004 -0.0000
vn -0.8001 -0.5999 -0.0000
vn -0.8716 -0.4902 -0.0000
vn -0.9276 -0.3736 -0.0000
vn -0.9678 -0.2519 -0.0000
vn -0.9919 -0.1267 -0.0000
vn -1.0000 0.0003 -0.0000
vn -0.9918 0.1281 -0.0000
vn -0.9669 0.2551 -0.0000
vn -0.9255 0.3787 -0.0000
vn -0.8679 0.4967 -0.0000
vn -0.7947 0.6070 -0.0000
vn -0.7069 0.7073 -0.0000
vn -0.6061 0.7954 -0.0000
vn -0.4944 0.8692 -0.0000
vn -0.3745 0.9272 -0.0000
vn -0.2498 0.9683 -0.0000
vn -0.1239 0.9923 -0.0000
vn -0.0007 1.0000 -0.0000
vn -0.1226 0.9925 -0.0000
vn -0.2464 0.9692 -0.0000
vn -0.3687 0.9295 -0.0000
vn -0.4869 0.8735 -0.0000
vn -0.5981 0.8015 -0.0000
vn -0.6996 0.7145 -0.0000
vn -0.7891 0.6143 -0.0000
vn -0.8644 0.5028 -0.0000
vn -0.9239 0.3825 -0.0000
vn -0.9665 0.2565 -0.0000
vn -0.9918 0.1280 -0.0000
vn -1.0000 0.0002 -0.0000
vn -0.9918 -0.1274 -0.0000
vn -0.9667 -0.2558 -0.0000
vn -0.9241 -0.3821 -0.0000
vn -0.8644 -0.5028 -0.0000
vn -0.7887 -0.6148 -0.0000
vn -0.6986 -0.7155 -0.0000
vn -0.5966 -0.8025 -0.0000
vn -0.4851 -0.8745 -0.0000
vn -0.3668 -0.9303 -0.0000
vn -0.2448 -0.9696 -0.0000
vn -0.1217 -0.9926 -0.0000
vn 0.0002 -1.0000 -0.0000
vn 0.1224 -0.9925 -0.0000
vn 0.2459 -0.9693 -0.0000
vn 0.3682 -0.9297 -0.0000
vn 0.4864 -0.8737 -0.0000
vn 0.5978 -0.8016 -0.0000
vn 0.6996 -0.7146 -0.0000
vn 0.7893 -0.6140 -0.0000
vn 0.8648 -0.5022 -0.0000
vn 0.9243 -0.3817 -0.0000
vn 0.9668 -0.2556 -0.0000
vn 0.9919 -0.1274 -0.0000
vn 1.0000 0.0002 -0.0000
vn 0.9918 0.1279 -0.0000
vn 0.9666 0.2563 -0.0000
vn 0.9241 0.3821 -0.0000
vn 0.8648 0.5022 -0.0000
vn 0.7897 0.6135 -0.0000
vn 0.7005 0.7136 -0.0000
vn 0.5993 0.8005 -0.0000
vn 0.4883 0.8727 -0.0000
vn 0.3701 0.9290 -0.0000
vn 0.2475 0.9689 -0.0000
vn 0.1233 0.9924 -0.0000
vn 0.0002 1.0000 -0.0000
vt 0.326316 0.000000
vt 0.315789 0.000000
vt 0.915789 0.000000
vt 0.905263 0.000000
vt 0.336842 0.000000
vt 0.894737 0.000000
vt 0.347368 0.000000
vt 0.884211 0.000000
vt 0.357895 0.000000
vt 0.873684 0.000000
vt 0.368421 0.000000
vt 0.378947 0.000000
vt 0.863158 0.000000
vt 0.389474 0.000000
vt 0.852632 0.000000
vt 0.400000 0.000000
vt 0.842105 0.000000
vt 0.410526 0.000000
vt 0.831579 0.000000
vt 0.421053 0.000000
vt 0.273684 0.000000
vt 0.957895 0.000000
vt 0.284211 0.000000
vt 0.947368 0.000000
vt 0.800000 0.000000
vt 0.789474 0.000000
vt 0.452632 0.000000
vt 0.463158 0.000000
vt 0.968421 0.000000
vt 0.263158 0.000000
vt 0.978947 0.000000
vt 0.768421 0.000000
vt 0.473684 0.000000
vt 0.778947 0.000000
vt 0.989474 0.000000
vt 0.252632 0.000000
vt 0.242105 0.000000
vt 1.000000 0.000000
vt 0.757895 0.000000
vt 0.484211 0.000000
vt 0.294737 0.000000
vt 0.936842 0.000000
vt 0.305263 0.000000
vt 0.926316 0.000000
vt 0.821053 0.000000
vt 0.431579 0.000000
vt 0.810526 0.000000
vt 0.442105 0.000000
vt 0.494737 0.000000
vt 0.747368 0.000000
vt 0.736842 0.000000
vt 0.000000 0.000000
vt 0.221053 0.000000
vt 0.526316 0.000000
vt 0.515789 0.000000
vt 0.010526 0.000000
vt 0.726316 0.000000
vt 0.715789 0.000000
vt 0.231579 0.000000
vt 0.505263 0.000000
vt 0.536842 0.000000
vt 0.210526 0.000000
vt 0.200000 0.000000
vt 0.547368 0.000000
vt 0.705263 0.000000
vt 0.694737 0.000000
vt 0.031579 0.000000
vt 0.021053 0.000000
vt 0.168421 0.000000
vt 0.157895 0.000000
vt 0.578947 0.000000
vt 0.589474 0.000000
vt 0.147368 0.000000
vt 0.600000 0.000000
vt 0.136842 0.000000
vt 0.610526 0.000000
vt 0.126316 0.000000
vt 0.621053 0.000000
vt 0.115789 0.000000
vt 0.105263 0.000000
vt 0.631579 0.000000
vt 0.094737 0.000000
vt 0.642105 0.000000
vt 0.084211 0.000000
vt 0.652632 0.000000
vt 0.073684 0.000000
vt 0.663158 0.000000
vt 0.063158 0.000000
vt 0.189474 0.000000
vt 0.557895 0.000000
vt 0.178947 0.000000
vt 0.568421 0.000000
vt 0.673684 0.000000
vt 0.052632 0.000000
vt 0.684211 0.000000
vt 0.042105 0.000000
vt 0.714286 0.000000
vt 0.571429 0.000000
vt 0.428571 0.000000
vt 0.857143 0.000000
vt 0.285714 0.000000
vt 0.142857 0.000000
vt 0.300000 0.000000
vt 0.500000 0.000000
vt 0.900000 0.000000
vt 0.100000 0.000000
vt 0.700000 0.000000
vt 0.000000 1.000000
vt 0.125000 1.000000
vt 0.125000 0.000000
vt 0.250000 1.000000
vt 0.250000 0.000000
vt 0.375000 1.000000
vt 0.375000 0.000000
vt 0.500000 1.000000
vt 0.625000 1.000000
vt 0.625000 0.000000
vt 0.750000 1.000000
vt 0.750000 0.000000
vt 0.875000 1.000000
vt 0.875000 0.000000
vt 1.000000 1.000000
vt 0.333333 1.000000
vt 0.333333 0.000000
vt 0.666667 1.000000
vt 0.666667 0.000000
vt 0.166667 1.000000
vt 0.166667 0.000000
vt 0.833333 1.000000
vt 0.833333 0.000000
vt 0.020833 1.000000
vt 0.020833 0.000000
vt 0.041667 1.000000
vt 0.041667 0.000000
vt 0.062500 1.000000
vt 0.062500 0.000000
vt 0.083333 1.000000
vt 0.083333 0.000000
vt 0.104167 1.000000
vt 0.104167 0.000000
vt 0.145833 1.000000
vt 0.145833 0.000000
vt 0.187500 1.000000
vt 0.187500 0.000000
vt 0.208333 1.000000
vt 0.208333 0.000000
vt 0.229167 1.000000
vt 0.229167 0.000000
vt 0.270833 1.000000
vt 0.270833 0.000000
vt 0.291667 1.000000
vt 0.291667 0.000000
vt 0.312500 1.000000
vt 0.312500 0.000000
vt 0.354167 1.000000
vt 0.354167 0.000000
vt 0.395833 1.000000
vt 0.395833 0.000000
vt 0.416667 1.000000
vt 0.416667 0.000000
vt 0.437500 1.000000
vt 0.437500 0.000000
vt 0.458333 1.000000
vt 0.458333 0.000000
vt 0.479167 1.000000
vt 0.479167 0.000000
vt 0.520833 1.000000
vt 0.520833 0.000000
vt 0.541667 1.000000
vt 0.541667 0.000000
vt 0.562500 1.000000
vt 0.562500 0.000000
vt 0.583333 1.000000
vt 0.583333 0.000000
vt 0.604167 1.000000
vt 0.604167 0.000000
vt 0.645833 1.000000
vt 0.645833 0.000000
vt 0.687500 1.000000
vt 0.687500 0.000000
vt 0.708333 1.000000
vt 0.708333 0.000000
vt 0.729167 1.000000
vt 0.729167 0.000000
vt 0.770833 1.000000
vt 0.770833 0.000000
vt 0.791667 1.000000
vt 0.791667 0.000000
vt 0.812500 1.000000
vt 0.812500 0.000000
vt 0.854167 1.000000
vt 0.854167 0.000000
vt 0.895833 1.000000
vt 0.895833 0.000000
vt 0.916667 1.000000
vt 0.916667 0.000000
vt 0.937500 1.000000
vt 0.937500 0.000000
vt 0.958333 1.000000
vt 0.958333 0.000000
vt 0.979167 1.000000
vt 0.979167 0.000000
s 0
f 112/165/45 111/166/45 168/167/45
f 168/167/45 167/168/45 112/165/45
f 113/169/45 112/165/45 167/168/45
f 167/168/45 166/170/45 113/169/45
f 114/171/45 113/169/45 166/170/45
f 166/170/45 165/172/45 114/171/45
f 115/173/45 114/171/45 165/172/45
f 165/172/45 164/174/45 115/173/45
f 116/175/45 115/173/45 164/174/45
f 117/176/45 116/175/45 164/174/45
f 164/174/45 163/177/45 117/176/45
f 118/178/45 117/176/45 163/177/45
f 163/177/45 162/179/45 118/178/45
f 119/180/45 118/178/45 162/179/45
f 162/179/45 161/181/45 119/180/45
f 120/182/45 119/180/45 161/181/45
f 161/181/45 160/183/45 120/182/45
f 121/184/45 120/182/45 160/183/45
f 107/185/45 172/186/45 108/187/45
f 172/186/45 171/188/45 108/187/45
f 157/189/45 156/190/45 124/191/45
f 156/190/45 125/192/45 124/191/45
f 173/193/45 106/194/45 174/195/45
f 154/196/45 126/197/45 155/198/45
f 175/199/45 105/200/45 104/201/45
f 104/201/45 176/202/45 175/199/45
f 174/195/45 106/194/45 105/200/45
f 105/200/45 175/199/45 174/195/45
f 153/203/45 127/204/45 154/196/45
f 126/197/45 154/196/45 127/204/45
f 106/194/45 173/193/45 107/185/45
f 172/186/45 107/185/45 173/193/45
f 125/192/45 156/190/45 155/198/45
f 155/198/45 126/197/45 125/192/45
f 108/187/45 171/188/45 109/205/45
f 171/188/45 170/206/45 109/205/45
f 110/207/45 109/205/45 170/206/45
f 170/206/45 169/208/45 110/207/45
f 111/166/45 110/207/45 169/208/45
f 168/167/45 111/166/45 169/208/45
f 121/184/45 160/183/45 159/209/45
f 122/210/45 121/184/45 159/209/45
f 159/209/45 158/211/45 122/210/45
f 123/212/45 122/210/45 158/211/45
f 158/211/45 157/189/45 123/212/45
f 157/189/45 124/191/45 123/212/45
f 128/213/45 152/214/45 151/215/45
f 128/213/45 151/215/45 81/216/45
f 102/217/45 131/218/45 130/219/45
f 82/220/45 150/221/45 149/222/45
f 102/217/45 130/219/45 103/223/45
f 129/224/45 103/223/45 130/219/45
f 81/216/45 151/215/45 150/221/45
f 150/221/45 82/220/45 81/216/45
f 132/225/45 101/226/45 100/227/45
f 133/228/45 132/225/45 100/227/45
f 148/229/45 147/230/45 84/231/45
f 83/232/45 148/229/45 84/231/45
f 131/218/45 102/217/45 101/226/45
f 101/226/45 132/225/45 131/218/45
f 148/229/45 83/232/45 149/222/45
f 82/220/45 149/222/45 83/232/45
f 97/233/45 96/234/45 136/235/45
f 137/236/45 136/235/45 96/234/45
f 96/234/45 95/237/45 137/236/45
f 138/238/45 137/236/45 95/237/45
f 95/237/45 94/239/45 138/238/45
f 139/240/45 138/238/45 94/239/45
f 94/239/45 93/241/45 139/240/45
f 140/242/45 139/240/45 93/241/45
f 93/241/45 92/243/45 140/242/45
f 92/243/45 91/244/45 140/242/45
f 141/245/45 140/242/45 91/244/45
f 91/244/45 90/246/45 141/245/45
f 142/247/45 141/245/45 90/246/45
f 90/246/45 89/248/45 142/247/45
f 143/249/45 142/247/45 89/248/45
f 89/248/45 88/250/45 143/249/45
f 144/251/45 143/249/45 88/250/45
f 88/250/45 87/252/45 144/251/45
f 133/228/45 100/227/45 99/253/45
f 134/254/45 133/228/45 99/253/45
f 99/253/45 98/255/45 134/254/45
f 135/256/45 134/254/45 98/255/45
f 98/255/45 97/233/45 135/256/45
f 97/233/45 136/235/45 135/256/45
f 144/251/45 87/252/45 145/257/45
f 87/252/45 86/258/45 145/257/45
f 146/259/45 145/257/45 86/258/45
f 86/258/45 85/260/45 146/259/45
f 147/230/45 146/259/45 85/260/45
f 84/231/45 147/230/45 85/260/45
f 103/223/45 129/224/45 104/201/45
f 176/202/45 104/201/45 129/224/45
f 152/214/45 128/213/45 153/203/45
f 127/204/45 153/203/45 128/213/45
f 182/261/45 181/262/45 180/263/45
f 184/202/45 183/264/45 177/216/45
f 180/263/45 179/265/45 178/266/45
f 178/266/45 177/216/45 180/263/45
f 177/216/45 183/264/45 180/263/45
f 182/261/45 180/263/45 183/264/45
f 188/238/45 187/180/45 190/202/45
f 190/202/45 187/180/45 186/227/45
f 186/227/45 185/216/45 190/202/45
f 188/238/45 190/202/45 189/189/45
f 195/180/45 194/267/45 193/227/45
f 193/227/45 201/202/45 195/180/45
f 201/202/45 196/268/45 195/180/45
f 197/238/45 200/269/45 199/189/45
f 192/270/45 191/216/45 198/271/45
f 192/270/45 198/271/45 199/189/45
f 197/238/45 199/189/45 198/271/45
f 192/270/45 199/189/45 193/227/45
f 201/202/45 193/227/45 199/189/45
f 196/268/45 201/202/45 200/269/45
f 200/269/45 197/238/45 196/268/45
f 233/165/46 289/167/46 232/166/46
f 289/167/46 233/165/46 288/168/46
f 234/169/46 288/168/46 233/165/46
f 288/168/46 234/169/46 287/170/46
f 235/171/46 287/170/46 234/169/46
f 287/170/46 235/171/46 286/172/46
f 236/173/46 286/172/46 235/171/46
f 286/172/46 236/173/46 285/174/46
f 237/175/46 285/174/46 236/173/46
f 238/176/46 285/174/46 237/175/46
f 285/174/46 238/176/46 284/177/46
f 239/178/46 284/177/46 238/176/46
f 284/177/46 239/178/46 283/179/46
f 240/180/46 283/179/46 239/178/46
f 283/179/46 240/180/46 282/181/46
f 241/182/46 282/181/46 240/180/46
f 282/181/46 241/182/46 281/183/46
f 242/184/46 281/183/46 241/182/46
f 228/185/46 229/187/46 293/186/46
f 293/186/46 229/187/46 292/188/46
f 278/189/46 245/191/46 277/190/46
f 277/190/46 245/191/46 246/192/46
f 294/193/46 295/195/46 227/194/46
f 275/196/46 276/198/46 247/197/46
f 296/199/46 225/201/46 226/200/46
f 225/201/46 296/199/46 297/202/46
f 295/195/46 226/200/46 227/194/46
f 226/200/46 295/195/46 296/199/46
f 274/203/46 275/196/46 248/204/46
f 247/197/46 248/204/46 275/196/46
f 227/194/46 228/185/46 294/193/46
f 293/186/46 294/193/46 228/185/46
f 246/192/46 276/198/46 277/190/46
f 276/198/46 246/192/46 247/197/46
f 229/187/46 230/205/46 292/188/46
f 292/188/46 230/205/46 291/206/46
f 231/207/46 291/206/46 230/205/46
f 291/206/46 231/207/46 290/208/46
f 232/166/46 290/208/46 231/207/46
f 289/167/46 290/208/46 232/166/46
f 242/184/46 280/209/46 281/183/46
f 243/210/46 280/209/46 242/184/46
f 280/209/46 243/210/46 279/211/46
f 244/212/46 279/211/46 243/210/46
f 279/211/46 244/212/46 278/189/46
f 278/189/46 244/212/46 245/191/46
f 249/213/46 272/215/46 273/214/46
f 249/213/46 202/216/46 272/215/46
f 223/217/46 251/219/46 252/218/46
f 203/220/46 270/222/46 271/221/46
f 223/217/46 224/223/46 251/219/46
f 250/224/46 251/219/46 224/223/46
f 202/216/46 271/221/46 272/215/46
f 271/221/46 202/216/46 203/220/46
f 253/225/46 221/227/46 222/226/46
f 254/228/46 221/227/46 253/225/46
f 269/229/46 205/231/46 268/230/46
f 204/232/46 205/231/46 269/229/46
f 252/218/46 222/226/46 223/217/46
f 222/226/46 252/218/46 253/225/46
f 269/229/46 270/222/46 204/232/46
f 203/220/46 204/232/46 270/222/46
f 218/233/46 257/235/46 217/234/46
f 258/236/46 217/234/46 257/235/46
f 217/234/46 258/236/46 216/237/46
f 259/238/46 216/237/46 258/236/46
f 216/237/46 259/238/46 215/239/46
f 260/240/46 215/239/46 259/238/46
f 215/239/46 260/240/46 214/241/46
f 261/242/46 214/241/46 260/240/46
f 214/241/46 261/242/46 213/243/46
f 213/243/46 261/242/46 212/244/46
f 262/245/46 212/244/46 261/242/46
f 212/244/46 262/245/46 211/246/46
f 263/247/46 211/246/46 262/245/46
f 211/246/46 263/247/46 210/248/46
f 264/249/46 210/248/46 263/247/46
f 210/248/46 264/249/46 209/250/46
f 265/251/46 209/250/46 264/249/46
f 209/250/46 265/251/46 208/252/46
f 254/228/46 220/253/46 221/227/46
f 255/254/46 220/253/46 254/228/46
f 220/253/46 255/254/46 219/255/46
f 256/256/46 219/255/46 255/254/46
f 219/255/46 256/256/46 218/233/46
f 218/233/46 256/256/46 257/235/46
f 265/251/46 266/257/46 208/252/46
f 208/252/46 266/257/46 207/258/46
f 267/259/46 207/258/46 266/257/46
f 207/258/46 267/259/46 206/260/46
f 268/230/46 206/260/46 267/259/46
f 205/231/46 206/260/46 268/230/46
f 224/223/46 225/201/46 250/224/46
f 297/202/46 250/224/46 225/201/46
f 273/214/46 274/203/46 249/213/46
f 248/204/46 249/213/46 274/203/46
f 303/261/46 301/263/46 302/262/46
f 305/202/46 298/216/46 304/264/46
f 301/263/46 299/266/46 300/265/46
f 299/266/46 301/263/46 298/216/46
f 298/216/46 301/263/46 304/264/46
f 303/261/46 304/264/46 301/263/46
f 309/238/46 311/202/46 308/180/46
f 311/202/46 307/227/46 308/180/46
f 307/227/46 311/202/46 306/216/46
f 309/238/46 310/189/46 311/202/46
f 316/180/46 314/227/46 315/267/46
f 314/227/46 316/180/46 322/202/46
f 322/202/46 316/180/46 317/268/46
f 318/238/46 320/189/46 321/269/46
f 313/270/46 319/271/46 312/216/46
f 313/270/46 320/189/46 319/271/46
f 318/238/46 319/271/46 320/189/46
f 313/270/46 314/227/46 320/189/46
f 322/202/46 320/189/46 314/227/46
f 317/268/46 321/269/46 322/202/46
f 321/269/46 317/268/46 318/238/46
s 1
f 324/272/47 326/273/47 325/274/47 323/216/47
f 326/273/47 328/275/48 327/276/48 325/274/47
f 328/275/48 330/277/48 329/278/48 327/276/48
f 330/277/48 332/279/49 331/268/49 329/278/48
f 332/279/49 334/280/50 333/281/50 331/268/49
f 334/280/50 336/282/51 335/283/51 333/281/50
f 336/282/51 338/284/52 337/285/52 335/283/51
f 338/284/52 324/286/47 323/202/47 337/285/52
f 340/272/53 342/287/54 341/288/54 339/216/53
f 342/287/54 344/289/55 343/290/55 341/288/54
f 344/289/55 340/286/53 339/202/53 343/290/55
f 346/272/56 348/291/57 347/292/57 345/216/56
f 348/291/57 350/287/58 349/288/58 347/292/57
f 350/287/58 352/279/59 351/268/59 349/288/58
f 352/279/59 354/289/56 353/290/56 351/268/59
f 354/289/56 356/293/56 355/294/56 353/290/56
f 356/293/56 346/286/56 345/202/56 355/294/56
f 358/272/57 360/273/57 359/274/57 357/216/57
f 360/273/57 362/275/58 361/276/58 359/274/57
f 362/275/58 364/277/58 363/278/58 361/276/58
f 364/277/58 366/279/58 365/268/58 363/278/58
f 366/279/58 368/280/59 367/281/59 365/268/58
f 368/280/59 370/282/56 369/283/56 367/281/59
f 370/282/56 372/284/57 371/285/57 369/283/56
f 372/284/57 358/286/57 357/202/57 371/285/57
f 374/272/60 376/295/61 375/296/61 373/216/60
f 376/295/61 378/297/62 377/298/62 375/296/61
f 378/297/62 380/299/63 379/300/63 377/298/62
f 380/299/63 382/301/64 381/302/64 379/300/63
f 382/301/64 384/303/65 383/304/65 381/302/64
f 384/303/65 386/273/66 385/274/66 383/304/65
f 386/273/66 388/305/67 387/306/67 385/274/66
f 388/305/67 390/291/68 389/292/68 387/306/67
f 390/291/68 392/307/69 391/308/69 389/292/68
f 392/307/69 394/309/70 393/310/70 391/308/69
f 394/309/70 396/311/71 395/312/71 393/310/70
f 396/311/71 398/275/72 397/276/72 395/312/71
f 398/275/72 400/313/73 399/314/73 397/276/72
f 400/313/73 402/315/74 401/316/74 399/314/73
f 402/315/74 404/317/75 403/318/75 401/316/74
f 404/317/75 406/287/76 405/288/76 403/318/75
f 406/287/76 408/319/77 407/320/77 405/288/76
f 408/319/77 410/277/78 409/278/78 407/320/77
f 410/277/78 412/321/79 411/322/79 409/278/78
f 412/321/79 414/323/80 413/324/80 411/322/79
f 414/323/80 416/325/81 415/326/81 413/324/80
f 416/325/81 418/327/82 417/328/82 415/326/81
f 418/327/82 420/329/83 419/330/83 417/328/82
f 420/329/83 422/279/84 421/268/84 419/330/83
f 422/279/84 424/331/85 423/332/85 421/268/84
f 424/331/85 426/333/86 425/334/86 423/332/85
f 426/333/86 428/335/87 427/336/87 425/334/86
f 428/335/87 430/337/88 429/338/88 427/336/87
f 430/337/88 432/339/89 431/340/89 429/338/88
f 432/339/89 434/280/90 433/281/90 431/340/89
f 434/280/90 436/341/91 435/342/91 433/281/90
f 436/341/91 438/289/92 437/290/92 435/342/91
f 438/289/92 440/343/93 439/344/93 437/290/92
f 440/343/93 442/345/94 441/346/94 439/344/93
f 442/345/94 444/347/95 443/348/95 441/346/94
f 444/347/95 446/282/96 445/283/96 443/348/95
f 446/282/96 448/349/97 447/350/97 445/283/96
f 448/349/97 450/351/98 449/352/98 447/350/97
f 450/351/98 452/353/99 451/354/99 449/352/98
f 452/353/99 454/293/100 453/294/100 451/354/99
f 454/293/100 456/355/101 455/356/101 453/294/100
f 456/355/101 458/284/102 457/285/102 455/356/101
f 458/284/102 460/357/103 459/358/103 457/285/102
f 460/357/103 462/359/104 461/360/104 459/358/103
f 462/359/104 464/361/105 463/362/105 461/360/104
f 464/361/105 466/363/106 465/364/106 463/362/105
f 466/363/106 468/365/107 467/366/107 465/364/106
f 468/365/107 374/286/60 373/202/60 467/366/107
f 470/272/108 472/295/109 471/296/109 469/216/108
f 472/295/109 474/297/110 473/298/110 471/296/109
f 474/297/110 476/299/111 475/300/111 473/298/110
f 476/299/111 478/301/112 477/302/112 475/300/111
f 478/301/112 480/303/113 479/304/113 477/302/112
f 480/303/113 482/273/114 481/274/114 479/304/113
f 482/273/114 484/305/115 483/306/115 481/274/114
f 484/305/115 486/291/116 485/292/116 483/306/115
f 486/291/116 488/307/117 487/308/117 485/292/116
f 488/307/117 490/309/118 489/310/118 487/308/117
f 490/309/118 492/311/119 491/312/119 489/310/118
f 492/311/119 494/275/120 493/276/120 491/312/119
f 494/275/120 496/313/121 495/314/121 493/276/120
f 496/313/121 498/315/122 497/316/122 495/314/121
f 498/315/122 500/317/123 499/318/123 497/316/122
f 500/317/123 502/287/124 501/288/124 499/318/123
f 502/287/124 504/319/125 503/320/125 501/288/124
f 504/319/125 506/277/126 505/278/126 503/320/125
f 506/277/126 508/321/127 507/322/127 505/278/126
f 508/321/127 510/323/128 509/324/128 507/322/127
f 510/323/128 512/325/129 511/326/129 509/324/128
f 512/325/129 514/327/130 513/328/130 511/326/129
f 514/327/130 516/329/131 515/330/131 513/328/130
f 516/329/131 518/279/132 517/268/132 515/330/131
f 518/279/132 520/331/133 519/332/133 517/268/132
f 520/331/133 522/333/134 521/334/134 519/332/133
f 522/333/134 524/335/135 523/336/135 521/334/134
f 524/335/135 526/337/136 525/338/136 523/336/135
f 526/337/136 528/339/137 527/340/137 525/338/136
f 528/339/137 530/280/138 529/281/138 527/340/137
f 530/280/138 532/341/139 531/342/139 529/281/138
f 532/341/139 534/289/140 533/290/140 531/342/139
f 534/289/140 536/343/141 535/344/141 533/290/140
f 536/343/141 538/345/142 537/346/142 535/344/141
f 538/345/142 540/347/143 539/348/143 537/346/142
f 540/347/143 542/282/144 541/283/144 539/348/143
f 542/282/144 544/349/145 543/350/145 541/283/144
f 544/349/145 546/351/146 545/352/146 543/350/145
f 546/351/146 548/353/147 547/354/147 545/352/146
f 548/353/147 550/293/148 549/294/148 547/354/147
f 550/293/148 552/355/149 551/356/149 549/294/148
f 552/355/149 554/284/150 553/285/150 551/356/149
f 554/284/150 556/357/151 555/358/151 553/285/150
f 556/357/151 558/359/152 557/360/152 555/358/151
f 558/359/152 560/361/153 559/362/153 557/360/152
f 560/361/153 562/363/154 561/364/154 559/362/153
f 562/363/154 564/365/155 563/366/155 561/364/154
f 564/365/155 470/286/108 469/202/108 563/366/155
