# Blender 5.2.2 LTS
# www.blender.org
mtllib alumbrado.mtl
o Base_Farola
v -3.200000 0.000000 -0.180000
v -3.200000 0.350000 -0.180000
v -3.131117 0.000000 -0.166298
v -3.131117 0.350000 -0.166298
v -3.072721 0.000000 -0.127279
v -3.072721 0.350000 -0.127279
v -3.033702 0.000000 -0.068883
v -3.033702 0.350000 -0.068883
v -3.020000 0.000000 0.000000
v -3.020000 0.350000 0.000000
v -3.033702 0.000000 0.068883
v -3.033702 0.350000 0.068883
v -3.072721 0.000000 0.127279
v -3.072721 0.350000 0.127279
v -3.131117 0.000000 0.166298
v -3.131117 0.350000 0.166298
v -3.200000 0.000000 0.180000
v -3.200000 0.350000 0.180000
v -3.268883 0.000000 0.166298
v -3.268883 0.350000 0.166298
v -3.327279 0.000000 0.127279
v -3.327279 0.350000 0.127279
v -3.366298 0.000000 0.068883
v -3.366298 0.350000 0.068883
v -3.380000 0.000000 0.000000
v -3.380000 0.350000 0.000000
v -3.366298 0.000000 -0.068883
v -3.366298 0.350000 -0.068883
v -3.327279 0.000000 -0.127279
v -3.327279 0.350000 -0.127279
v -3.268883 0.000000 -0.166298
v -3.268883 0.350000 -0.166298
vn -0.0000 -0.6657 -0.7462
vn -0.0000 0.6657 -0.7462
vn 0.2856 -0.6657 -0.6894
vn 0.2856 0.6657 -0.6894
vn 0.5276 -0.6657 -0.5276
vn 0.5276 0.6657 -0.5276
vn 0.6894 -0.6657 -0.2856
vn 0.6894 0.6657 -0.2856
vn 0.7462 -0.6657 -0.0000
vn 0.7462 0.6657 -0.0000
vn 0.6894 -0.6657 0.2856
vn 0.6894 0.6657 0.2856
vn 0.5276 -0.6657 0.5276
vn 0.5277 0.6657 0.5277
vn 0.2856 -0.6657 0.6894
vn 0.2856 0.6657 0.6894
vn -0.0000 -0.6657 0.7462
vn -0.0000 0.6657 0.7462
vn -0.2856 -0.6657 0.6894
vn -0.2856 0.6657 0.6894
vn -0.5276 -0.6657 0.5276
vn -0.5276 0.6657 0.5276
vn -0.6894 -0.6657 0.2856
vn -0.6894 0.6657 0.2856
vn -0.7462 -0.6657 -0.0000
vn -0.7462 0.6657 -0.0000
vn -0.6894 -0.6657 -0.2856
vn -0.6894 0.6657 -0.2856
vn -0.5276 -0.6657 -0.5276
vn -0.5277 0.6657 -0.5277
vn -0.2856 -0.6657 -0.6894
vn -0.2856 0.6657 -0.6894
vt 1.000000 1.000000
vt 0.937500 0.500000
vt 1.000000 0.500000
vt 0.937500 1.000000
vt 0.875000 0.500000
vt 0.875000 1.000000
vt 0.812500 0.500000
vt 0.812500 1.000000
vt 0.750000 0.500000
vt 0.750000 1.000000
vt 0.687500 0.500000
vt 0.687500 1.000000
vt 0.625000 0.500000
vt 0.625000 1.000000
vt 0.562500 0.500000
vt 0.562500 1.000000
vt 0.500000 0.500000
vt 0.500000 1.000000
vt 0.437500 0.500000
vt 0.437500 1.000000
vt 0.375000 0.500000
vt 0.375000 1.000000
vt 0.312500 0.500000
vt 0.312500 1.000000
vt 0.250000 0.500000
vt 0.250000 1.000000
vt 0.187500 0.500000
vt 0.187500 1.000000
vt 0.125000 0.500000
vt 0.080294 0.080294
vt 0.419706 0.080294
vt 0.419706 0.419706
vt 0.125000 1.000000
vt 0.062500 0.500000
vt 0.062500 1.000000
vt 0.000000 0.500000
vt 0.841844 0.028269
vt 0.528269 0.158156
vt 0.658156 0.471731
vt 0.341844 0.471731
vt 0.250000 0.490000
vt 0.158156 0.471731
vt 0.080294 0.419706
vt 0.028269 0.341844
vt 0.010000 0.250000
vt 0.028269 0.158156
vt 0.158156 0.028269
vt 0.250000 0.010000
vt 0.341844 0.028269
vt 0.471731 0.158156
vt 0.490000 0.250000
vt 0.471731 0.341844
vt 0.000000 1.000000
vt 0.750000 0.490000
vt 0.841844 0.471731
vt 0.919706 0.419706
vt 0.971731 0.341844
vt 0.990000 0.250000
vt 0.971731 0.158156
vt 0.919706 0.080294
vt 0.750000 0.010000
vt 0.658156 0.028269
vt 0.580294 0.080294
vt 0.510000 0.250000
vt 0.528269 0.341844
vt 0.580294 0.419706
s 1
usemtl Mat_Metal_Farola
f 2/1/2 3/2/3 1/3/1
f 4/4/4 5/5/5 3/2/3
f 6/6/6 7/7/7 5/5/5
f 8/8/8 9/9/9 7/7/7
f 10/10/10 11/11/11 9/9/9
f 12/12/12 13/13/13 11/11/11
f 14/14/14 15/15/15 13/13/13
f 16/16/16 17/17/17 15/15/15
f 18/18/18 19/19/19 17/17/17
f 20/20/20 21/21/21 19/19/19
f 22/22/22 23/23/23 21/21/21
f 24/24/24 25/25/25 23/23/23
f 26/26/26 27/27/27 25/25/25
f 28/28/28 29/29/29 27/27/27
f 22/30/22 14/31/14 6/32/6
f 30/33/30 31/34/31 29/29/29
f 32/35/32 1/36/1 31/34/31
f 15/37/15 23/38/23 31/39/31
f 2/1/2 4/4/4 3/2/3
f 4/4/4 6/6/6 5/5/5
f 6/6/6 8/8/8 7/7/7
f 8/8/8 10/10/10 9/9/9
f 10/10/10 12/12/12 11/11/11
f 12/12/12 14/14/14 13/13/13
f 14/14/14 16/16/16 15/15/15
f 16/16/16 18/18/18 17/17/17
f 18/18/18 20/20/20 19/19/19
f 20/20/20 22/22/22 21/21/21
f 22/22/22 24/24/24 23/23/23
f 24/24/24 26/26/26 25/25/25
f 26/26/26 28/28/28 27/27/27
f 28/28/28 30/33/30 29/29/29
f 6/32/6 4/40/4 2/41/2
f 2/41/2 32/42/32 30/43/30
f 30/43/30 28/44/28 26/45/26
f 26/45/26 24/46/24 22/30/22
f 22/30/22 20/47/20 18/48/18
f 18/48/18 16/49/16 14/31/14
f 14/31/14 12/50/12 10/51/10
f 10/51/10 8/52/8 6/32/6
f 6/32/6 2/41/2 30/43/30
f 30/43/30 26/45/26 22/30/22
f 22/30/22 18/48/18 14/31/14
f 14/31/14 10/51/10 6/32/6
f 6/32/6 30/43/30 22/30/22
f 30/33/30 32/35/32 31/34/31
f 32/35/32 2/53/2 1/36/1
f 31/39/31 1/54/1 3/55/3
f 3/55/3 5/56/5 7/57/7
f 7/57/7 9/58/9 11/59/11
f 11/59/11 13/60/13 15/37/15
f 15/37/15 17/61/17 19/62/19
f 19/62/19 21/63/21 23/38/23
f 23/38/23 25/64/25 27/65/27
f 27/65/27 29/66/29 31/39/31
f 31/39/31 3/55/3 7/57/7
f 7/57/7 11/59/11 15/37/15
f 15/37/15 19/62/19 23/38/23
f 23/38/23 27/65/27 31/39/31
f 31/39/31 7/57/7 15/37/15
o Poste_Farola
v -3.200000 0.000000 -0.110000
v -3.200000 5.200000 -0.060000
v -3.157905 0.000000 -0.101627
v -3.177039 5.200000 -0.055433
v -3.122218 0.000000 -0.077782
v -3.157574 5.200000 -0.042426
v -3.098373 0.000000 -0.042095
v -3.144567 5.200000 -0.022961
v -3.090000 0.000000 0.000000
v -3.140000 5.200000 0.000000
v -3.098373 0.000000 0.042095
v -3.144567 5.200000 0.022961
v -3.122218 0.000000 0.077782
v -3.157574 5.200000 0.042426
v -3.157905 0.000000 0.101627
v -3.177039 5.200000 0.055433
v -3.200000 0.000000 0.110000
v -3.200000 5.200000 0.060000
v -3.242095 0.000000 0.101627
v -3.222961 5.200000 0.055433
v -3.277782 0.000000 0.077782
v -3.242426 5.200000 0.042426
v -3.301627 0.000000 0.042095
v -3.255433 5.200000 0.022961
v -3.310000 0.000000 0.000000
v -3.260000 5.200000 0.000000
v -3.301627 0.000000 -0.042095
v -3.255433 5.200000 -0.022961
v -3.277782 0.000000 -0.077782
v -3.242426 5.200000 -0.042426
v -3.242095 0.000000 -0.101627
v -3.222961 5.200000 -0.055433
vn -0.0000 -0.6622 -0.7494
vn -0.0000 0.6692 -0.7430
vn 0.2868 -0.6621 -0.6923
vn 0.2843 0.6693 -0.6865
vn 0.5299 -0.6622 -0.5299
vn 0.5254 0.6693 -0.5254
vn 0.6923 -0.6621 -0.2868
vn 0.6865 0.6693 -0.2843
vn 0.7494 -0.6622 -0.0000
vn 0.7430 0.6692 -0.0000
vn 0.6923 -0.6621 0.2868
vn 0.6865 0.6693 0.2843
vn 0.5299 -0.6622 0.5299
vn 0.5254 0.6692 0.5254
vn 0.2868 -0.6622 0.6923
vn 0.2843 0.6693 0.6865
vn -0.0000 -0.6622 0.7494
vn -0.0000 0.6692 0.7430
vn -0.2868 -0.6621 0.6923
vn -0.2843 0.6693 0.6865
vn -0.5299 -0.6622 0.5299
vn -0.5254 0.6693 0.5254
vn -0.6923 -0.6621 0.2868
vn -0.6865 0.6693 0.2843
vn -0.7494 -0.6622 -0.0000
vn -0.7430 0.6692 -0.0000
vn -0.6923 -0.6621 -0.2868
vn -0.6865 0.6693 -0.2843
vn -0.5299 -0.6622 -0.5299
vn -0.5254 0.6692 -0.5254
vn -0.2868 -0.6622 -0.6923
vn -0.2843 0.6693 -0.6865
vt 1.000000 1.000000
vt 0.937500 0.500000
vt 1.000000 0.500000
vt 0.937500 1.000000
vt 0.875000 0.500000
vt 0.875000 1.000000
vt 0.812500 0.500000
vt 0.812500 1.000000
vt 0.750000 0.500000
vt 0.750000 1.000000
vt 0.687500 0.500000
vt 0.687500 1.000000
vt 0.625000 0.500000
vt 0.625000 1.000000
vt 0.562500 0.500000
vt 0.562500 1.000000
vt 0.500000 0.500000
vt 0.500000 1.000000
vt 0.437500 0.500000
vt 0.437500 1.000000
vt 0.375000 0.500000
vt 0.375000 1.000000
vt 0.312500 0.500000
vt 0.312500 1.000000
vt 0.250000 0.500000
vt 0.250000 1.000000
vt 0.187500 0.500000
vt 0.187500 1.000000
vt 0.125000 0.500000
vt 0.080294 0.080294
vt 0.419706 0.080294
vt 0.419706 0.419706
vt 0.125000 1.000000
vt 0.062500 0.500000
vt 0.062500 1.000000
vt 0.000000 0.500000
vt 0.841844 0.028269
vt 0.528269 0.158156
vt 0.658156 0.471731
vt 0.341844 0.471731
vt 0.250000 0.490000
vt 0.158156 0.471731
vt 0.080294 0.419706
vt 0.028269 0.341844
vt 0.010000 0.250000
vt 0.028269 0.158156
vt 0.158156 0.028269
vt 0.250000 0.010000
vt 0.341844 0.028269
vt 0.471731 0.158156
vt 0.490000 0.250000
vt 0.471731 0.341844
vt 0.000000 1.000000
vt 0.750000 0.490000
vt 0.841844 0.471731
vt 0.919706 0.419706
vt 0.971731 0.341844
vt 0.990000 0.250000
vt 0.971731 0.158156
vt 0.919706 0.080294
vt 0.750000 0.010000
vt 0.658156 0.028269
vt 0.580294 0.080294
vt 0.510000 0.250000
vt 0.528269 0.341844
vt 0.580294 0.419706
s 1
usemtl Mat_Metal_Farola
f 34/67/34 35/68/35 33/69/33
f 36/70/36 37/71/37 35/68/35
f 38/72/38 39/73/39 37/71/37
f 40/74/40 41/75/41 39/73/39
f 42/76/42 43/77/43 41/75/41
f 44/78/44 45/79/45 43/77/43
f 46/80/46 47/81/47 45/79/45
f 48/82/48 49/83/49 47/81/47
f 50/84/50 51/85/51 49/83/49
f 52/86/52 53/87/53 51/85/51
f 54/88/54 55/89/55 53/87/53
f 56/90/56 57/91/57 55/89/55
f 58/92/58 59/93/59 57/91/57
f 60/94/60 61/95/61 59/93/59
f 54/96/54 46/97/46 38/98/38
f 62/99/62 63/100/63 61/95/61
f 64/101/64 33/102/33 63/100/63
f 47/103/47 55/104/55 63/105/63
f 34/67/34 36/70/36 35/68/35
f 36/70/36 38/72/38 37/71/37
f 38/72/38 40/74/40 39/73/39
f 40/74/40 42/76/42 41/75/41
f 42/76/42 44/78/44 43/77/43
f 44/78/44 46/80/46 45/79/45
f 46/80/46 48/82/48 47/81/47
f 48/82/48 50/84/50 49/83/49
f 50/84/50 52/86/52 51/85/51
f 52/86/52 54/88/54 53/87/53
f 54/88/54 56/90/56 55/89/55
f 56/90/56 58/92/58 57/91/57
f 58/92/58 60/94/60 59/93/59
f 60/94/60 62/99/62 61/95/61
f 38/98/38 36/106/36 34/107/34
f 34/107/34 64/108/64 62/109/62
f 62/109/62 60/110/60 58/111/58
f 58/111/58 56/112/56 54/96/54
f 54/96/54 52/113/52 50/114/50
f 50/114/50 48/115/48 46/97/46
f 46/97/46 44/116/44 42/117/42
f 42/117/42 40/118/40 38/98/38
f 38/98/38 34/107/34 62/109/62
f 62/109/62 58/111/58 54/96/54
f 54/96/54 50/114/50 46/97/46
f 46/97/46 42/117/42 38/98/38
f 38/98/38 62/109/62 54/96/54
f 62/99/62 64/101/64 63/100/63
f 64/101/64 34/119/34 33/102/33
f 63/105/63 33/120/33 35/121/35
f 35/121/35 37/122/37 39/123/39
f 39/123/39 41/124/41 43/125/43
f 43/125/43 45/126/45 47/103/47
f 47/103/47 49/127/49 51/128/51
f 51/128/51 53/129/53 55/104/55
f 55/104/55 57/130/57 59/131/59
f 59/131/59 61/132/61 63/105/63
f 63/105/63 35/121/35 39/123/39
f 39/123/39 43/125/43 47/103/47
f 47/103/47 51/128/51 55/104/55
f 55/104/55 59/131/59 63/105/63
f 63/105/63 39/123/39 47/103/47
o Brazo_Farola
v -3.309188 4.847742 -0.045000
v -1.790812 5.352258 -0.045000
v -3.302093 4.826390 -0.038971
v -1.783718 5.330905 -0.038971
v -3.296899 4.810759 -0.022500
v -1.778524 5.315275 -0.022500
v -3.294998 4.805037 0.000000
v -1.776623 5.309554 0.000000
v -3.296899 4.810759 0.022500
v -1.778524 5.315275 0.022500
v -3.302093 4.826390 0.038971
v -1.783718 5.330905 0.038971
v -3.309188 4.847742 0.045000
v -1.790812 5.352258 0.045000
v -3.316282 4.869094 0.038971
v -1.797907 5.373610 0.038971
v -3.321476 4.884725 0.022500
v -1.803101 5.389241 0.022500
v -3.323377 4.890446 0.000000
v -1.805002 5.394962 0.000000
v -3.321476 4.884725 -0.022500
v -1.803101 5.389241 -0.022500
v -3.316282 4.869094 -0.038971
v -1.797907 5.373610 -0.038971
vn -0.6199 -0.2060 -0.7572
vn 0.6199 0.2060 -0.7572
vn -0.5005 -0.5652 -0.6557
vn 0.7393 -0.1533 -0.6557
vn -0.4131 -0.8282 -0.3786
vn 0.8267 -0.4163 -0.3786
vn -0.3811 -0.9245 -0.0000
vn 0.8587 -0.5126 -0.0000
vn -0.4131 -0.8282 0.3786
vn 0.8267 -0.4163 0.3786
vn -0.5005 -0.5652 0.6557
vn 0.7393 -0.1533 0.6557
vn -0.6199 -0.2060 0.7572
vn 0.6199 0.2060 0.7572
vn -0.7393 0.1533 0.6557
vn 0.5005 0.5652 0.6557
vn -0.8267 0.4163 0.3786
vn 0.4131 0.8283 0.3786
vn -0.8586 0.5126 -0.0000
vn 0.3811 0.9245 -0.0000
vn -0.8267 0.4163 -0.3786
vn 0.4131 0.8283 -0.3786
vn -0.7393 0.1533 -0.6557
vn 0.5005 0.5652 -0.6557
vt 1.000000 1.000000
vt 0.916667 0.500000
vt 1.000000 0.500000
vt 0.916667 1.000000
vt 0.833333 0.500000
vt 0.833333 1.000000
vt 0.750000 0.500000
vt 0.750000 1.000000
vt 0.666667 0.500000
vt 0.666667 1.000000
vt 0.583333 0.500000
vt 0.583333 1.000000
vt 0.500000 0.500000
vt 0.500000 1.000000
vt 0.416667 0.500000
vt 0.416667 1.000000
vt 0.333333 0.500000
vt 0.333333 1.000000
vt 0.250000 0.500000
vt 0.250000 1.000000
vt 0.166667 0.500000
vt 0.042154 0.370000
vt 0.250000 0.010000
vt 0.457846 0.370000
vt 0.166667 1.000000
vt 0.083333 0.500000
vt 0.083333 1.000000
vt 0.000000 0.500000
vt 0.990000 0.250000
vt 0.630000 0.042154
vt 0.630000 0.457846
vt 0.370000 0.457846
vt 0.250000 0.490000
vt 0.130000 0.457846
vt 0.010000 0.250000
vt 0.042154 0.130000
vt 0.130000 0.042154
vt 0.370000 0.042154
vt 0.457846 0.130000
vt 0.490000 0.250000
vt 0.000000 1.000000
vt 0.750000 0.490000
vt 0.870000 0.457846
vt 0.957846 0.370000
vt 0.957846 0.130000
vt 0.870000 0.042154
vt 0.750000 0.010000
vt 0.542154 0.130000
vt 0.510000 0.250000
vt 0.542154 0.370000
s 1
usemtl Mat_Metal_Farola
f 66/133/66 67/134/67 65/135/65
f 68/136/68 69/137/69 67/134/67
f 70/138/70 71/139/71 69/137/69
f 72/140/72 73/141/73 71/139/71
f 74/142/74 75/143/75 73/141/73
f 76/144/76 77/145/77 75/143/75
f 78/146/78 79/147/79 77/145/77
f 80/148/80 81/149/81 79/147/79
f 82/150/82 83/151/83 81/149/81
f 84/152/84 85/153/85 83/151/83
f 86/154/86 78/155/78 70/156/70
f 86/157/86 87/158/87 85/153/85
f 88/159/88 65/160/65 87/158/87
f 71/161/71 79/162/79 87/163/87
f 66/133/66 68/136/68 67/134/67
f 68/136/68 70/138/70 69/137/69
f 70/138/70 72/140/72 71/139/71
f 72/140/72 74/142/74 73/141/73
f 74/142/74 76/144/76 75/143/75
f 76/144/76 78/146/78 77/145/77
f 78/146/78 80/148/80 79/147/79
f 80/148/80 82/150/82 81/149/81
f 82/150/82 84/152/84 83/151/83
f 84/152/84 86/157/86 85/153/85
f 70/156/70 68/164/68 66/165/66
f 66/165/66 88/166/88 86/154/86
f 86/154/86 84/167/84 82/168/82
f 82/168/82 80/169/80 78/155/78
f 78/155/78 76/170/76 74/171/74
f 74/171/74 72/172/72 70/156/70
f 70/156/70 66/165/66 86/154/86
f 86/154/86 82/168/82 78/155/78
f 78/155/78 74/171/74 70/156/70
f 86/157/86 88/159/88 87/158/87
f 88/159/88 66/173/66 65/160/65
f 87/163/87 65/174/65 67/175/67
f 67/175/67 69/176/69 71/161/71
f 71/161/71 73/177/73 75/178/75
f 75/178/75 77/179/77 79/162/79
f 79/162/79 81/180/81 83/181/83
f 83/181/83 85/182/85 87/163/87
f 87/163/87 67/175/67 71/161/71
f 71/161/71 75/178/75 79/162/79
f 79/162/79 83/181/83 87/163/87
o Carcasa_Luminaria
v -2.058116 4.822136 0.110000
v -2.050125 4.921816 0.110000
v -2.058116 4.822136 -0.110000
v -2.050125 4.921816 -0.110000
v -1.509875 4.778183 0.110000
v -1.501884 4.877863 0.110000
v -1.509875 4.778183 -0.110000
v -1.501884 4.877863 -0.110000
vn -0.6217 -0.5293 0.5774
vn -0.5294 0.6217 0.5774
vn -0.6216 -0.5294 -0.5774
vn -0.5294 0.6216 -0.5774
vn 0.5294 -0.6217 0.5774
vn 0.6217 0.5293 0.5774
vn 0.5294 -0.6216 -0.5774
vn 0.6216 0.5294 -0.5774
vt 0.625000 0.000000
vt 0.375000 0.250000
vt 0.375000 0.000000
vt 0.625000 0.250000
vt 0.375000 0.500000
vt 0.625000 0.500000
vt 0.375000 0.750000
vt 0.625000 1.000000
vt 0.375000 1.000000
vt 0.125000 0.750000
vt 0.125000 0.500000
vt 0.875000 0.500000
vt 0.625000 0.750000
vt 0.875000 0.750000
s 1
usemtl Mat_Metal_Farola
f 90/183/90 91/184/91 89/185/89
f 92/186/92 95/187/95 91/184/91
f 96/188/96 93/189/93 95/187/95
f 93/189/93 90/190/90 89/191/89
f 95/187/95 89/192/89 91/193/91
f 92/194/92 94/195/94 96/188/96
f 90/183/90 92/186/92 91/184/91
f 92/186/92 96/188/96 95/187/95
f 96/188/96 94/195/94 93/189/93
f 93/189/93 94/195/94 90/190/90
f 95/187/95 93/189/93 89/192/89
f 92/194/92 90/196/90 94/195/94
o Lente_Luz_Farola
v -1.990127 4.806814 0.080000
v -1.988529 4.826750 0.080000
v -1.990127 4.806814 -0.080000
v -1.988529 4.826750 -0.080000
v -1.571471 4.773250 0.080000
v -1.569872 4.793186 0.080000
v -1.571471 4.773250 -0.080000
v -1.569872 4.793186 -0.080000
vn -0.9968 0.0799 -0.0000
vn -0.0000 -0.0000 -1.0000
vn 0.9968 -0.0799 -0.0000
vn -0.0000 -0.0000 1.0000
vn -0.0799 -0.9968 -0.0000
vn 0.0799 0.9968 -0.0000
vt 0.625000 0.000000
vt 0.375000 0.250000
vt 0.375000 0.000000
vt 0.625000 0.500000
vt 0.375000 0.500000
vt 0.375000 0.750000
vt 0.625000 0.750000
vt 0.375000 1.000000
vt 0.125000 0.750000
vt 0.125000 0.500000
vt 0.875000 0.500000
vt 0.625000 0.250000
vt 0.625000 1.000000
vt 0.875000 0.750000
s 0
usemtl Mat_Luz_Farola
f 98/197/97 99/198/97 97/199/97
f 99/198/98 104/200/98 103/201/98
f 104/200/99 101/202/99 103/201/99
f 102/203/100 97/204/100 101/202/100
f 103/201/101 97/205/101 99/206/101
f 100/207/102 102/203/102 104/200/102
f 98/197/97 100/208/97 99/198/97
f 99/198/98 100/208/98 104/200/98
f 104/200/99 102/203/99 101/202/99
f 102/203/100 98/209/100 97/204/100
f 103/201/101 101/202/101 97/205/101
f 100/207/102 98/210/102 102/203/102
