# Blender 5.2.2 LTS
# www.blender.org
mtllib montaña.mtl
o Grid
v -5.286200 0.000000 5.286200
v -4.228960 0.242070 5.286200
v -3.171720 0.343424 5.286200
v -2.114480 0.128576 5.286200
v -1.057240 0.272313 5.286200
v 0.000000 0.207669 5.286200
v 1.057240 0.076793 5.286200
v 2.114480 0.294160 5.286200
v 3.171720 0.207345 5.286200
v 4.228960 0.000000 5.286200
v 5.286200 0.000000 5.286200
v -5.286200 0.019348 4.228960
v -4.228960 0.797323 4.228960
v -3.171720 1.027244 4.228960
v -2.114480 0.606724 4.228960
v -1.057240 0.904294 4.228960
v 0.000000 1.969672 4.228960
v 1.057240 2.169713 4.228960
v 2.114480 1.228243 4.228960
v 3.171720 0.682947 4.228960
v 4.228960 0.016573 4.228960
v 5.286200 0.000000 4.228960
v -5.286200 0.003049 3.171720
v -4.228960 0.616251 3.171720
v -3.171720 0.797323 3.171720
v -2.114480 0.497243 3.171720
v -1.057240 0.854159 3.171720
v 0.000000 2.281889 3.171720
v 1.057240 2.629150 3.171720
v 2.114480 1.302080 3.171720
v 3.171720 0.527850 3.171720
v 4.228960 0.002612 3.171720
v 5.286200 0.000000 3.171720
v -5.286200 0.000000 2.114480
v -4.228960 0.503101 2.114480
v -3.253957 1.530257 2.154781
v -2.294527 1.010420 2.202714
v -1.057240 0.247018 2.114480
v 0.000000 0.765561 2.114480
v 1.057240 0.766407 2.114480
v 2.114480 0.127902 2.114480
v 3.171720 0.038283 2.114480
v 4.228960 0.000000 2.114480
v 5.286200 0.000000 2.114480
v -5.286200 0.000000 1.057240
v -4.228960 0.684451 1.057240
v -3.196944 2.255011 1.069601
v -2.183607 1.780715 1.091116
v -1.057240 0.415954 1.057240
v 0.000000 1.165877 1.057240
v 1.057240 0.901106 1.057240
v 2.114480 1.140602 1.057240
v 3.171720 1.470002 1.057240
v 4.228960 0.446297 1.057240
v 5.286200 0.000000 1.057240
v -5.286200 0.000000 0.000000
v -4.228960 0.110821 0.000000
v -3.171720 1.159127 0.000000
v -2.114480 1.092255 0.000000
v -1.057240 0.683271 0.000000
v 0.000000 1.502078 0.000000
v 1.057240 1.165877 0.000000
v 2.114480 1.497235 0.000000
v 3.171720 1.893902 0.000000
v 4.228960 0.633161 0.000000
v 5.286200 0.000000 0.000000
v -5.286200 0.000000 -1.057240
v -4.228960 0.002200 -1.057240
v -3.171720 0.444544 -1.057240
v -2.114480 0.575164 -1.057240
v -1.057240 0.247044 -1.057240
v 0.000000 0.502168 -1.057240
v 1.057240 0.353964 -1.057240
v 2.114480 0.484401 -1.057240
v 3.171720 0.729054 -1.057240
v 4.228960 0.092921 -1.057240
v 5.286200 0.000000 -1.057240
v -5.286200 0.000000 -2.114480
v -4.228960 0.088626 -2.114480
v -3.171720 0.592482 -2.114480
v -2.114480 0.430822 -2.114480
v -1.057240 0.000000 -2.114480
v 0.000000 0.000000 -2.114480
v 1.057240 0.004689 -2.114480
v 2.114480 1.270550 -2.114480
v 3.171720 1.672323 -2.114480
v 4.228960 0.424305 -2.114480
v 5.286200 0.000000 -2.114480
v -5.286200 0.000000 -3.171720
v -4.228960 0.592482 -3.171720
v -3.171720 1.048647 -3.171720
v -2.114480 0.895289 -3.171720
v -1.057240 0.034023 -3.171720
v 0.000000 0.000000 -3.171720
v 1.057240 0.029752 -3.171720
v 2.114480 1.463256 -3.171720
v 3.171720 1.925994 -3.171720
v 4.228960 0.536942 -3.171720
v 5.286200 0.000000 -3.171720
v -5.286200 0.000000 -4.228960
v -4.228960 0.425666 -4.228960
v -3.171720 0.895289 -4.228960
v -2.114480 0.819378 -4.228960
v -1.057240 0.005362 -4.228960
v 0.000000 0.000000 -4.228960
v 1.057240 0.000000 -4.228960
v 2.114480 0.372235 -4.228960
v 3.171720 0.528090 -4.228960
v 4.228960 0.077501 -4.228960
v 5.286200 0.000000 -4.228960
v -5.286200 0.000000 -5.286200
v -4.228960 0.000000 -5.286200
v -3.171720 0.034023 -5.286200
v -2.114480 0.005362 -5.286200
v -1.057240 0.000000 -5.286200
v 0.000000 0.000000 -5.286200
v 1.057240 0.000000 -5.286200
v 2.114480 0.000000 -5.286200
v 3.171720 0.000000 -5.286200
v 4.228960 0.000000 -5.286200
v 5.286200 0.000000 -5.286200
v -5.286200 0.003049 4.757579
v -4.757579 0.050400 5.286200
v -4.228960 0.616251 4.757579
v -4.757579 0.343424 4.228960
v -3.700340 0.343424 5.286200
v -3.171720 0.797323 4.757579
v -3.700340 1.027244 4.228960
v -2.643100 0.242533 5.286200
v -2.114480 0.381445 4.757579
v -2.643100 0.797322 4.228960
v -1.585860 0.201816 5.286200
v -1.057240 0.578637 4.757579
v -1.585860 0.721336 4.228960
v -0.528620 0.272313 5.286200
v 0.000000 0.992955 4.757579
v -0.528620 1.253975 4.228960
v 0.528620 0.111788 5.286200
v 1.057240 1.009077 4.757579
v 0.528620 2.165322 4.228960
v 1.585860 0.213731 5.286200
v 2.114480 0.760099 4.757579
v 1.585860 1.943770 4.228960
v 2.643100 0.294160 5.286200
v 3.171720 0.527850 4.757579
v 2.643100 0.879887 4.228960
v 3.700340 0.043170 5.286200
v 4.228960 0.002612 4.757579
v 3.700340 0.294160 4.228960
v 4.757580 0.000000 5.286200
v 5.286200 0.000000 4.757579
v 4.757580 0.000000 4.228960
v -5.286200 0.019348 3.700340
v -4.228960 0.797323 3.700340
v -4.757579 0.242070 3.171720
v -3.171720 1.027244 3.700340
v -3.700340 0.797323 3.171720
v -2.114480 0.650742 3.700340
v -2.643100 0.620859 3.171720
v -1.057240 0.998383 3.700340
v -1.585860 0.655304 3.171720
v 0.000000 2.341763 3.700340
v -0.528620 1.369895 3.171720
v 1.057240 2.716723 3.700340
v 0.528620 2.672264 3.171720
v 2.114480 1.411956 3.700340
v 1.585860 2.244195 3.171720
v 3.171720 0.682947 3.700340
v 2.643100 0.696079 3.171720
v 4.228960 0.016573 3.700340
v 3.700340 0.207345 3.171720
v 5.286200 0.000000 3.700340
v 4.757580 0.000000 3.171720
v -5.286200 0.000000 2.643100
v -4.228960 0.330398 2.643100
v -4.757579 0.006299 2.114480
v -3.171720 0.960355 2.643100
v -3.700340 1.292004 2.114480
v -2.131627 0.666460 2.651503
v -2.823147 1.352804 2.202714
v -1.057240 0.576515 2.643100
v -1.598238 0.634534 2.120546
v 0.000000 1.842485 2.643100
v -0.528620 0.366618 2.114480
v 1.057240 1.863459 2.643100
v 0.528620 0.832051 2.114480
v 2.114480 0.857592 2.643100
v 1.585860 0.534458 2.114480
v 3.171720 0.207345 2.643100
v 2.643100 0.052202 2.114480
v 4.228960 0.000000 2.643100
v 3.700340 0.005622 2.114480
v 5.286200 0.000000 2.643100
v 4.757580 0.000000 2.114480
v -5.286200 0.000000 1.585860
v -4.228960 0.709420 1.585860
v -4.757579 0.034843 1.057240
v -3.253987 1.988452 1.626176
v -3.700340 1.655300 1.057240
v -2.294527 1.363888 1.674094
v -2.712227 2.255673 1.091116
v -1.057240 0.126579 1.585860
v -1.585860 0.884604 1.057240
v 0.000000 0.505685 1.585860
v -0.528620 0.901106 1.057240
v 1.057240 0.395891 1.585860
v 0.528620 1.165877 1.057240
v 2.114480 0.446297 1.585860
v 1.585860 0.728560 1.057240
v 3.171720 0.633162 1.585860
v 2.643100 1.470002 1.057240
v 4.228960 0.092921 1.585860
v 3.700340 1.136165 1.057240
v 5.286200 0.000000 1.585860
v 4.757580 0.005622 1.057240
v -5.286200 0.000000 0.528620
v -4.228960 0.482459 0.528620
v -4.757579 0.000000 0.000000
v -3.171720 1.986629 0.528620
v -3.700340 0.744195 0.000000
v -2.114480 1.722969 0.528620
v -2.643100 1.265736 0.000000
v -1.057240 0.623500 0.528620
v -1.585860 0.674292 0.000000
v 0.000000 1.502078 0.528620
v -0.528620 1.165877 0.000000
v 1.057240 1.165877 0.528620
v 0.528620 1.502078 0.000000
v 2.114480 1.497235 0.528620
v 1.585860 0.965030 0.000000
v 3.171720 1.893902 0.528620
v 2.643100 1.893902 0.000000
v 4.228960 0.633161 0.528620
v 3.700340 1.470002 0.000000
v 5.286200 0.000000 0.528620
v 4.757580 0.035672 0.000000
v -5.286200 0.000000 -0.528620
v -4.228960 0.013957 -0.528620
v -4.757579 0.000000 -1.057240
v -3.171720 0.592182 -0.528620
v -3.700340 0.174622 -1.057240
v -2.114480 0.741023 -0.528620
v -2.643100 0.575164 -1.057240
v -1.057240 0.567053 -0.528620
v -1.585860 0.444544 -1.057240
v 0.000000 1.165877 -0.528620
v -0.528620 0.354199 -1.057240
v 1.057240 0.901106 -0.528620
v 0.528620 0.502168 -1.057240
v 2.114480 1.141824 -0.528620
v 1.585860 0.165236 -1.057240
v 3.171720 1.476374 -0.528620
v 2.643100 0.729054 -1.057240
v 4.228960 0.446297 -0.528620
v 3.700340 0.484401 -1.057240
v 5.286200 0.000000 -0.528620
v 4.757580 0.000000 -1.057240
v -5.286200 0.000000 -1.585860
v -4.228960 0.000000 -1.585860
v -4.757579 0.000000 -2.114480
v -3.171720 0.208372 -1.585860
v -3.700340 0.425666 -2.114480
v -2.114480 0.253090 -1.585860
v -2.643100 0.593314 -2.114480
v -1.057240 0.036357 -1.585860
v -1.585860 0.090643 -2.114480
v 0.000000 0.028292 -1.585860
v -0.528620 0.000000 -2.114480
v 1.057240 0.004459 -1.585860
v 0.528620 0.000000 -2.114480
v 2.114480 0.500625 -1.585860
v 1.585860 0.424305 -2.114480
v 3.171720 0.792028 -1.585860
v 2.643100 1.672323 -2.114480
v 4.228960 0.080178 -1.585860
v 3.700340 1.270551 -2.114480
v 5.286200 0.000000 -1.585860
v 4.757580 0.004689 -2.114480
v -5.286200 0.000000 -2.643100
v -4.228960 0.425666 -2.643100
v -4.757579 0.034023 -3.171720
v -3.171720 0.895289 -2.643100
v -3.700340 0.895289 -3.171720
v -2.114480 0.819379 -2.643100
v -2.643100 1.048647 -3.171720
v -1.057240 0.005362 -2.643100
v -1.585860 0.592482 -3.171720
v 0.000000 0.000000 -2.643100
v -0.528620 0.000000 -3.171720
v 1.057240 0.029752 -2.643100
v 0.528620 0.000000 -3.171720
v 2.114480 1.535285 -2.643100
v 1.585860 0.536943 -3.171720
v 3.171720 2.025878 -2.643100
v 2.643100 1.925994 -3.171720
v 4.228960 0.576633 -2.643100
v 3.700340 1.463256 -3.171720
v 5.286200 0.000000 -2.643100
v 4.757580 0.029752 -3.171720
v -5.286200 0.000000 -3.700340
v -4.228960 0.592482 -3.700340
v -4.757579 0.005362 -4.228960
v -3.171720 1.048647 -3.700340
v -3.700340 0.819379 -4.228960
v -2.114480 0.895289 -3.700340
v -2.643100 0.895289 -4.228960
v -1.057240 0.034023 -3.700340
v -1.585860 0.425666 -4.228960
v 0.000000 0.000000 -3.700340
v -0.528620 0.000000 -4.228960
v 1.057240 0.004689 -3.700340
v 0.528620 0.000000 -4.228960
v 2.114480 1.004607 -3.700340
v 1.585860 0.077501 -4.228960
v 3.171720 1.354433 -3.700340
v 2.643100 0.528090 -4.228960
v 4.228960 0.372235 -3.700340
v 3.700340 0.372235 -4.228960
v 5.286200 0.000000 -3.700340
v 4.757580 0.000000 -4.228960
v -5.286200 0.000000 -4.757580
v -4.228960 0.088626 -4.757580
v -4.757579 0.000000 -5.286200
v -3.171720 0.592482 -4.757580
v -3.700340 0.005362 -5.286200
v -2.114480 0.425666 -4.757580
v -2.643100 0.034023 -5.286200
v -1.057240 0.000000 -4.757580
v -1.585860 0.000000 -5.286200
v 0.000000 0.000000 -4.757580
v -0.528620 0.000000 -5.286200
v 1.057240 0.000000 -4.757580
v 0.528620 0.000000 -5.286200
v 2.114480 0.004689 -4.757580
v 1.585860 0.000000 -5.286200
v 3.171720 0.029752 -4.757580
v 2.643100 0.000000 -5.286200
v 4.228960 0.000000 -4.757580
v 3.700340 0.000000 -5.286200
v 5.286200 0.000000 -4.757580
v 4.757580 0.000000 -5.286200
v 4.757580 0.000000 -4.757580
v 3.700340 0.004689 -4.757580
v 2.643100 0.029752 -4.757580
v 1.585860 0.000000 -4.757580
v 0.528620 0.000000 -4.757580
v -0.528620 0.000000 -4.757580
v -1.585860 0.088626 -4.757580
v -2.643100 0.592482 -4.757580
v -3.700340 0.425666 -4.757580
v -4.757579 0.000000 -4.757580
v 4.757580 0.004689 -3.700340
v 3.700340 1.004607 -3.700340
v 2.643100 1.354433 -3.700340
v 1.585860 0.372235 -3.700340
v 0.528620 0.000000 -3.700340
v -0.528620 0.000000 -3.700340
v -1.585860 0.592482 -3.700340
v -2.643100 1.048647 -3.700340
v -3.700340 0.895289 -3.700340
v -4.757579 0.034023 -3.700340
v 4.757580 0.029752 -2.643100
v 3.700340 1.535286 -2.643100
v 2.643100 2.025878 -2.643100
v 1.585860 0.576633 -2.643100
v 0.528620 0.000000 -2.643100
v -0.528620 0.000000 -2.643100
v -1.585860 0.425666 -2.643100
v -2.643100 0.895289 -2.643100
v -3.700340 0.819379 -2.643100
v -4.757579 0.005362 -2.643100
v 4.757580 0.000000 -1.585860
v 3.700340 0.500626 -1.585860
v 2.643100 0.792028 -1.585860
v 1.585860 0.080178 -1.585860
v 0.528620 0.028292 -1.585860
v -0.528620 0.004459 -1.585860
v -1.585860 0.174622 -1.585860
v -2.643100 0.281424 -1.585860
v -3.700340 0.041716 -1.585860
v -4.757579 0.000000 -1.585860
v 4.757580 0.005622 -0.528620
v 3.700340 1.137376 -0.528620
v 2.643100 1.476374 -0.528620
v 1.585860 0.728560 -0.528620
v 0.528620 1.165877 -0.528620
v -0.528620 0.901106 -0.528620
v -1.585860 0.579613 -0.528620
v -2.643100 0.750015 -0.528620
v -3.700340 0.253677 -0.528620
v -4.757579 0.000000 -0.528620
v 4.757580 0.035672 0.528620
v 3.700340 1.470002 0.528620
v 2.643100 1.893902 0.528620
v 1.585860 0.965030 0.528620
v 0.528620 1.502078 0.528620
v -0.528620 1.165877 0.528620
v -1.585860 0.939189 0.528620
v -2.643100 2.069713 0.528620
v -3.700340 1.447633 0.528620
v -4.757579 0.004400 0.528620
v 4.757580 0.000000 1.585860
v 3.700340 0.446298 1.585860
v 2.643100 0.633162 1.585860
v 1.585860 0.172151 1.585860
v 0.528620 0.537025 1.585860
v -0.528620 0.364562 1.585860
v -1.586926 0.711697 1.586382
v -2.823147 1.838846 1.674094
v -3.700340 1.647052 1.585860
v -4.757579 0.039968 1.585860
v 4.757580 0.000000 2.643100
v 3.700340 0.043170 2.643100
v 2.643100 0.300900 2.643100
v 1.585860 1.651928 2.643100
v 0.528620 2.026512 2.643100
v -0.528620 1.071211 2.643100
v -1.585860 0.498666 2.643100
v -2.654518 0.891507 2.648695
v -3.700340 0.768555 2.643100
v -4.757579 0.050400 2.643100
v 4.757580 0.000000 3.700340
v 3.700340 0.294160 3.700340
v 2.643100 0.883861 3.700340
v 1.585860 2.328413 3.700340
v 0.528620 2.743129 3.700340
v -0.528620 1.450376 3.700340
v -1.585860 0.792446 3.700340
v -2.643100 0.799266 3.700340
v -3.700340 1.027244 3.700340
v -4.757579 0.343424 3.700340
v 4.757580 0.000000 4.757579
v 3.700340 0.207345 4.757579
v 2.643100 0.682948 4.757579
v 1.585860 1.059234 4.757579
v 0.528620 0.921023 4.757579
v -0.528620 0.678302 4.757579
v -1.585860 0.435773 4.757579
v -2.643100 0.616460 4.757579
v -3.700340 0.797323 4.757579
v -4.757579 0.242070 4.757579
v -1.850170 0.576274 3.171720
v -2.114480 0.596000 2.907410
v -1.585860 0.576985 2.907410
v -1.853098 0.591879 2.644535
v -1.850170 0.586493 2.907410
vn -0.6034 0.7704 0.2058
vn -0.0000 0.9170 0.3989
vn 0.3518 0.8738 0.3357
vn -0.2578 0.8365 0.4836
vn -0.4810 0.4935 0.7246
vn -0.0352 0.4022 0.9149
vn 0.5088 0.5301 0.6783
vn 0.3012 0.9047 0.3012
vn 0.4135 0.9064 0.0864
vn -0.0000 1.0000 -0.0000
vn -0.6034 0.7704 -0.2058
vn -0.0000 0.9170 -0.3989
vn 0.2385 0.9266 -0.2909
vn -0.3470 0.9063 -0.2412
vn -0.8607 0.5046 -0.0670
vn 0.0649 0.9869 -0.1479
vn 0.8656 0.4924 -0.0904
vn 0.3152 0.9027 -0.2928
vn 0.4135 0.9064 -0.0864
vn -0.5893 0.8020 0.0976
vn -0.3094 0.6351 0.7078
vn 0.4031 0.7495 0.5252
vn 0.2728 0.9456 -0.1774
vn -0.4918 0.4444 -0.7488
vn 0.0903 0.4172 -0.9043
vn 0.4914 0.4326 -0.7559
vn 0.0941 0.9259 -0.3659
vn 0.0461 0.9983 -0.0355
vn -0.7802 0.6253 -0.0178
vn -0.7008 0.6994 0.1403
vn 0.5581 0.6211 0.5503
vn 0.6739 0.6767 0.2964
vn -0.2464 0.6417 0.7263
vn 0.2533 0.6597 0.7076
vn -0.3864 0.5954 0.7044
vn -0.0000 0.5341 0.8454
vn 0.5748 0.5825 0.5748
vn 0.0053 1.0000 0.0053
vn -0.4647 0.8343 -0.2967
vn -0.4562 0.5057 -0.7322
vn 0.2802 0.5695 -0.7728
vn 0.2739 0.9442 -0.1832
vn -0.5367 0.8438 -0.0000
vn 0.5367 0.8438 -0.0000
vn -0.7095 0.7047 -0.0000
vn 0.8454 0.5341 -0.0000
vn 0.0673 0.9977 -0.0000
vn -0.0153 0.9998 -0.0111
vn -0.4904 0.8521 -0.1827
vn 0.0081 0.9518 -0.3067
vn 0.1795 0.9036 -0.3889
vn -0.2487 0.6371 -0.7295
vn 0.2488 0.6370 -0.7296
vn -0.4130 0.5962 -0.6884
vn -0.0000 0.5775 -0.8164
vn 0.5957 0.5818 -0.5538
vn 0.0053 1.0000 -0.0053
vn -0.0832 0.9930 0.0832
vn -0.2473 0.7839 0.5695
vn 0.1616 0.8955 0.4147
vn 0.2103 0.9714 -0.1106
vn -0.0225 0.9993 -0.0310
vn 0.0181 0.9995 -0.0265
vn -0.6363 0.5311 0.5596
vn -0.0000 0.5148 0.8573
vn 0.6363 0.5311 0.5596
vn 0.0044 1.0000 0.0044
vn -0.6732 0.7272 0.1344
vn -0.2073 0.9561 0.2073
vn 0.2073 0.9561 0.2073
vn 0.6732 0.7272 0.1344
vn -0.0562 0.9984 -0.0000
vn -0.8710 0.4885 -0.0516
vn -0.0000 0.9826 -0.1857
vn 0.8710 0.4885 -0.0516
vn 0.0562 0.9984 -0.0000
vn -0.6732 0.7272 -0.1344
vn -0.2073 0.9561 -0.2073
vn 0.2073 0.9561 -0.2073
vn 0.6732 0.7272 -0.1344
vn -0.0044 1.0000 -0.0044
vn -0.5504 0.6277 -0.5504
vn -0.0000 0.5389 -0.8424
vn 0.5504 0.6277 -0.5504
vn 0.0044 1.0000 -0.0044
vn -0.0832 0.9930 -0.0832
vn -0.1344 0.7272 -0.6732
vn 0.1344 0.7272 -0.6732
vn 0.0832 0.9930 -0.0832
vn -0.0000 0.9984 -0.0562
vn 0.0729 0.9947 -0.0729
vn 0.0237 0.9992 -0.0326
vn 0.1312 0.7670 -0.6281
vn 0.2526 0.8918 -0.3754
vn -0.0237 0.9992 -0.0326
vn -0.1312 0.7670 -0.6281
vn -0.0000 0.7276 -0.6860
vn -0.0729 0.9947 -0.0729
vn -0.2526 0.8918 -0.3754
vn 0.0051 1.0000 -0.0051
vn 0.2801 0.8650 -0.4164
vn 0.4943 0.7151 -0.4943
vn 0.4164 0.8650 -0.2801
vn -0.0000 0.6874 -0.7262
vn -0.0000 0.8677 -0.4971
vn 0.1883 0.8201 -0.5403
vn -0.2801 0.8650 -0.4164
vn -0.4943 0.7151 -0.4943
vn -0.1883 0.8201 -0.5403
vn -0.0051 1.0000 -0.0051
vn -0.4164 0.8650 -0.2801
vn 0.3754 0.8918 -0.2526
vn 0.6315 0.7632 -0.1370
vn 0.0326 0.9992 -0.0237
vn 0.2702 0.5650 -0.7796
vn 0.4822 0.6274 -0.6114
vn 0.7857 0.5329 -0.3142
vn -0.2702 0.5650 -0.7796
vn -0.4822 0.6274 -0.6114
vn -0.0000 0.6790 -0.7341
vn -0.3754 0.8918 -0.2526
vn -0.6315 0.7632 -0.1370
vn -0.7857 0.5329 -0.3142
vn -0.0326 0.9992 -0.0237
vn 0.0372 0.9989 -0.0271
vn 0.0642 0.9979 -0.0000
vn 0.5403 0.8201 -0.1883
vn 0.4971 0.8677 -0.0000
vn 0.7262 0.6874 -0.0000
vn -0.0000 0.9604 -0.2786
vn 0.2786 0.9604 -0.0000
vn -0.5403 0.8201 -0.1883
vn -0.4971 0.8677 -0.0000
vn -0.2786 0.9604 -0.0000
vn -0.0372 0.9989 -0.0271
vn -0.0642 0.9979 -0.0000
vn -0.7262 0.6874 -0.0000
vn 0.7058 0.7079 -0.0266
vn 0.6696 0.7325 0.1229
vn 0.0326 0.9992 0.0237
vn 0.6648 0.7373 -0.1199
vn 0.5889 0.6977 0.4080
vn 0.8462 0.4957 0.1955
vn -0.6648 0.7373 -0.1199
vn -0.5889 0.6977 0.4080
vn -0.0000 0.8312 0.5559
vn -0.7058 0.7079 -0.0266
vn -0.6696 0.7325 0.1229
vn -0.8462 0.4957 0.1955
vn -0.0326 0.9992 0.0237
vn 0.0372 0.9989 0.0271
vn 0.0051 1.0000 0.0051
vn 0.5403 0.8201 0.1883
vn 0.4971 0.7161 0.4901
vn 0.4179 0.8648 0.2784
vn -0.0000 0.9604 0.2786
vn -0.0007 0.8680 0.4965
vn 0.1855 0.8227 0.5373
vn -0.5403 0.8201 0.1883
vn -0.4943 0.7151 0.4943
vn -0.1883 0.8201 0.5403
vn -0.0372 0.9989 0.0271
vn -0.0051 1.0000 0.0051
vn -0.4164 0.8650 0.2801
vn 0.4096 0.8664 0.2858
vn 0.1616 0.9868 -0.0119
vn 0.3334 0.5086 0.7938
vn 0.4512 0.8899 0.0667
vn 0.6091 0.7931 0.0026
vn -0.3334 0.5086 0.7938
vn -0.4512 0.8899 0.0667
vn -0.0000 0.9930 0.1183
vn -0.4069 0.8685 0.2829
vn 0.0984 0.9204 -0.3783
vn -0.5724 0.8182 -0.0533
vn -0.0000 0.9986 -0.0534
vn -0.0000 0.7446 -0.6675
vn 0.1273 0.7825 -0.6094
vn 0.0301 0.9988 -0.0386
vn -0.0628 0.8818 -0.4674
vn -0.1272 0.7825 -0.6096
vn 0.3669 0.9266 0.0822
vn 0.1700 0.8598 -0.4815
vn 0.2777 0.8745 -0.3976
vn -0.0583 0.8338 0.5489
vn -0.1697 0.8810 -0.4416
vn 0.0232 0.8639 -0.5032
vn -0.3109 0.8677 0.3879
vn -0.1970 0.9725 -0.1243
vn -0.3632 0.8796 -0.3071
vn -0.0021 1.0000 -0.0021
vn 0.4312 0.8543 -0.2901
vn 0.6933 0.7060 -0.1448
vn 0.0390 0.9988 -0.0284
vn 0.3156 0.5718 -0.7573
vn 0.5072 0.7029 -0.4987
vn 0.7920 0.5480 -0.2693
vn -0.3129 0.5711 -0.7589
vn -0.4875 0.7048 -0.5153
vn -0.0000 0.7847 -0.6198
vn 0.2293 0.6712 -0.7049
vn 0.3040 0.8608 -0.4081
vn -0.6152 0.6879 -0.3851
vn -0.0000 0.6230 -0.7822
vn -0.0000 0.8438 -0.5367
vn 0.4430 0.7794 -0.4430
vn -0.3071 0.7359 -0.6034
vn -0.5879 0.7610 -0.2743
vn -0.4430 0.7794 -0.4430
vn 0.2568 0.9296 -0.2646
vn 0.4507 0.8225 -0.3469
vn 0.0033 0.9807 -0.1956
vn -0.2525 0.9255 -0.2823
vn -0.1721 0.6882 -0.7048
vn 0.1323 0.7665 -0.6285
vn -0.3620 0.9287 -0.0798
vn -0.5853 0.7088 -0.3938
vn -0.4500 0.6314 -0.6315
vn -0.1167 0.9890 -0.0906
vn 0.7490 0.6626 -0.0000
vn 0.6933 0.7060 0.1448
vn 0.0390 0.9988 0.0284
vn 0.6256 0.7801 -0.0000
vn 0.5034 0.7023 0.5034
vn 0.7916 0.5482 0.2700
vn -0.6002 0.7999 -0.0000
vn -0.4836 0.7042 0.5199
vn -0.0000 0.7801 0.6256
vn 0.3552 0.9348 -0.0000
vn 0.3040 0.8608 0.4081
vn -0.6145 0.6880 0.3860
vn -0.0000 0.8438 0.5367
vn 0.4430 0.7794 0.4430
vn -0.6955 0.7174 0.0406
vn -0.6637 0.6829 0.3051
vn -0.4430 0.7794 0.4430
vn 0.6552 0.5764 -0.4883
vn 0.8300 0.5555 0.0510
vn 0.5843 0.7877 0.1953
vn -0.0971 0.5413 -0.8352
vn -0.0679 0.9205 -0.3848
vn 0.6109 0.7860 -0.0952
vn -0.7274 0.4811 -0.4892
vn -0.8629 0.4712 -0.1826
vn -0.7047 0.6419 -0.3023
vn -0.0042 1.0000 -0.0042
vn -0.0371 0.9989 -0.0288
vn -0.7214 0.6764 -0.1487
vn 0.4312 0.8543 0.2901
vn 0.0872 0.9924 0.0872
vn 0.2700 0.5482 0.7916
vn 0.1467 0.7067 0.6922
vn 0.2901 0.8543 0.4312
vn -0.2674 0.5475 0.7929
vn -0.0798 0.7593 0.6459
vn 0.0088 0.6686 0.7436
vn 0.2557 0.6822 0.6850
vn 0.3339 0.7747 -0.5370
vn 0.1242 0.9914 -0.0412
vn -0.0188 0.6340 0.7731
vn -0.0817 0.8825 -0.4632
vn 0.1633 0.8349 -0.5256
vn -0.4745 0.6937 0.5419
vn -0.3185 0.9416 -0.1091
vn -0.4442 0.8696 -0.2154
vn 0.7218 0.5787 0.3796
vn 0.5859 0.7489 0.3097
vn 0.6721 0.7401 -0.0230
vn 0.0982 0.8470 0.5224
vn 0.2046 0.7301 0.6520
vn 0.5179 0.6699 0.5320
vn -0.8747 0.4846 -0.0077
vn -0.8218 0.5032 0.2672
vn -0.4950 0.6887 0.5298
vn -0.0706 0.9975 -0.0048
vn -0.0437 0.9985 0.0318
vn -0.7324 0.6640 0.1507
vn 0.0025 1.0000 -0.0025
vn 0.1797 0.9655 -0.1887
vn 0.3847 0.8391 -0.3847
vn 0.2256 0.9623 -0.1518
vn 0.4020 0.6720 -0.6219
vn 0.6526 0.5934 -0.4713
vn 0.2009 0.8112 -0.5491
vn 0.1778 0.4240 -0.8880
vn 0.3275 0.5804 -0.7455
vn 0.7609 0.4633 -0.4543
vn -0.0995 0.4199 -0.9021
vn -0.3545 0.6525 -0.6697
vn 0.1161 0.5955 -0.7950
vn -0.3836 0.6602 -0.6457
vn -0.6428 0.6726 -0.3666
vn -0.7939 0.4986 -0.3481
vn 0.3983 0.8514 0.3412
vn 0.1876 0.9728 -0.1356
vn -0.2353 0.8990 -0.3693
vn 0.1370 0.6832 0.7173
vn 0.2102 0.9046 0.3708
vn 0.2802 0.8875 0.3659
vn -0.6960 0.5997 0.3949
vn -0.4895 0.8358 -0.2487
vn -0.1771 0.9763 0.1240
vn -0.0535 0.9977 -0.0416
vn -0.2600 0.9496 -0.1749
vn -0.4912 0.7938 -0.3585
vn 0.0181 0.9997 -0.0132
vn 0.0313 0.9995 -0.0000
vn 0.5473 0.8158 -0.1867
vn 0.5925 0.8056 -0.0000
vn 0.4649 0.8854 -0.0000
vn 0.7183 0.6697 -0.1885
vn 0.6323 0.7628 0.1354
vn 0.3522 0.9359 0.0035
vn 0.5853 0.8003 -0.1300
vn 0.3996 0.6878 0.6061
vn 0.8056 0.5219 0.2805
vn -0.5965 0.7965 -0.0985
vn -0.3873 0.6858 0.6162
vn 0.0143 0.6848 0.7286
vn -0.6670 0.7287 -0.1549
vn -0.5902 0.7784 0.2139
vn -0.8012 0.5271 0.2834
vn -0.2637 0.9301 -0.2557
vn -0.2343 0.9664 0.1052
vn -0.3416 0.9286 0.1451
vn 0.3361 0.8786 -0.3393
vn 0.3974 0.9176 0.0017
vn 0.3052 0.9514 0.0414
vn -0.3407 0.8763 -0.3407
vn -0.3989 0.9170 -0.0000
vn -0.4678 0.8784 -0.0978
vn -0.5227 0.8525 -0.0000
vn -0.6514 0.7587 -0.0000
vn 0.0181 0.9997 0.0132
vn 0.0025 1.0000 0.0025
vn 0.5473 0.8158 0.1867
vn 0.3847 0.8391 0.3847
vn 0.2256 0.9623 0.1518
vn 0.3225 0.8012 0.5040
vn 0.0567 0.7764 0.6277
vn 0.1867 0.8158 0.5473
vn 0.0761 0.4579 0.8857
vn -0.0901 0.5091 0.8560
vn 0.1288 0.6224 0.7720
vn -0.0502 0.4293 0.9018
vn 0.0874 0.5505 0.8303
vn -0.0260 0.5188 0.8545
vn -0.3077 0.7241 0.6173
vn -0.0779 0.8268 0.5571
vn -0.1551 0.6557 0.7389
vn -0.1424 0.8912 0.4306
vn -0.1089 0.9029 0.4158
vn -0.1769 0.8764 0.4479
vn 0.3405 0.8764 0.3405
vn 0.2054 0.7706 0.6034
vn 0.2731 0.8275 0.4906
vn -0.3407 0.8763 0.3407
vn -0.2058 0.7704 0.6034
vn -0.0000 0.7587 0.6514
vn -0.4678 0.8784 0.0978
vn -0.2600 0.9496 0.1749
vn -0.4268 0.7973 0.4268
vn 0.1534 0.9786 0.1371
vn -0.1278 0.9714 0.2003
vn -0.1293 0.9835 -0.1267
vt 0.050000 0.050000
vt 0.100000 0.050000
vt 0.100000 0.100000
vt 0.050000 0.100000
vt 0.150000 0.050000
vt 0.200000 0.050000
vt 0.200000 0.100000
vt 0.150000 0.100000
vt 0.250000 0.050000
vt 0.300000 0.050000
vt 0.300000 0.100000
vt 0.250000 0.100000
vt 0.350000 0.050000
vt 0.400000 0.050000
vt 0.400000 0.100000
vt 0.350000 0.100000
vt 0.450000 0.050000
vt 0.500000 0.050000
vt 0.500000 0.100000
vt 0.450000 0.100000
vt 0.550000 0.050000
vt 0.600000 0.050000
vt 0.600000 0.100000
vt 0.550000 0.100000
vt 0.650000 0.050000
vt 0.700000 0.050000
vt 0.700000 0.100000
vt 0.650000 0.100000
vt 0.750000 0.050000
vt 0.800000 0.050000
vt 0.800000 0.100000
vt 0.750000 0.100000
vt 0.850000 0.050000
vt 0.900000 0.050000
vt 0.900000 0.100000
vt 0.850000 0.100000
vt 0.950000 0.050000
vt 1.000000 0.050000
vt 1.000000 0.100000
vt 0.950000 0.100000
vt 0.050000 0.150000
vt 0.100000 0.150000
vt 0.100000 0.200000
vt 0.050000 0.200000
vt 0.150000 0.150000
vt 0.200000 0.150000
vt 0.200000 0.200000
vt 0.150000 0.200000
vt 0.250000 0.150000
vt 0.300000 0.150000
vt 0.300000 0.200000
vt 0.250000 0.200000
vt 0.350000 0.150000
vt 0.400000 0.150000
vt 0.400000 0.200000
vt 0.350000 0.200000
vt 0.450000 0.150000
vt 0.500000 0.150000
vt 0.500000 0.200000
vt 0.450000 0.200000
vt 0.550000 0.150000
vt 0.600000 0.150000
vt 0.600000 0.200000
vt 0.550000 0.200000
vt 0.650000 0.150000
vt 0.700000 0.150000
vt 0.700000 0.200000
vt 0.650000 0.200000
vt 0.750000 0.150000
vt 0.800000 0.150000
vt 0.800000 0.200000
vt 0.750000 0.200000
vt 0.850000 0.150000
vt 0.900000 0.150000
vt 0.900000 0.200000
vt 0.850000 0.200000
vt 0.950000 0.150000
vt 1.000000 0.150000
vt 1.000000 0.200000
vt 0.950000 0.200000
vt 0.050000 0.250000
vt 0.100000 0.250000
vt 0.100000 0.300000
vt 0.050000 0.300000
vt 0.150000 0.250000
vt 0.200000 0.250000
vt 0.200000 0.300000
vt 0.150000 0.300000
vt 0.250000 0.250000
vt 0.300000 0.250000
vt 0.300000 0.300000
vt 0.250000 0.300000
vt 0.350000 0.250000
vt 0.400000 0.250000
vt 0.400000 0.300000
vt 0.350000 0.300000
vt 0.450000 0.250000
vt 0.500000 0.250000
vt 0.500000 0.300000
vt 0.450000 0.300000
vt 0.550000 0.250000
vt 0.600000 0.250000
vt 0.600000 0.300000
vt 0.550000 0.300000
vt 0.650000 0.250000
vt 0.700000 0.250000
vt 0.700000 0.300000
vt 0.650000 0.300000
vt 0.750000 0.250000
vt 0.800000 0.250000
vt 0.800000 0.300000
vt 0.750000 0.300000
vt 0.850000 0.250000
vt 0.900000 0.250000
vt 0.900000 0.300000
vt 0.850000 0.300000
vt 0.950000 0.250000
vt 1.000000 0.250000
vt 1.000000 0.300000
vt 0.950000 0.300000
vt 0.050000 0.350000
vt 0.100000 0.350000
vt 0.100000 0.400000
vt 0.050000 0.400000
vt 0.150000 0.350000
vt 0.200000 0.350000
vt 0.200000 0.400000
vt 0.150000 0.400000
vt 0.250000 0.350000
vt 0.300000 0.350000
vt 0.300000 0.400000
vt 0.250000 0.400000
vt 0.350000 0.350000
vt 0.400000 0.350000
vt 0.400000 0.400000
vt 0.350000 0.400000
vt 0.450000 0.350000
vt 0.500000 0.350000
vt 0.500000 0.400000
vt 0.450000 0.400000
vt 0.550000 0.350000
vt 0.600000 0.350000
vt 0.600000 0.400000
vt 0.550000 0.400000
vt 0.650000 0.350000
vt 0.700000 0.350000
vt 0.700000 0.400000
vt 0.650000 0.400000
vt 0.750000 0.350000
vt 0.800000 0.350000
vt 0.800000 0.400000
vt 0.750000 0.400000
vt 0.850000 0.350000
vt 0.900000 0.350000
vt 0.900000 0.400000
vt 0.850000 0.400000
vt 0.950000 0.350000
vt 1.000000 0.350000
vt 1.000000 0.400000
vt 0.950000 0.400000
vt 0.050000 0.450000
vt 0.100000 0.450000
vt 0.100000 0.500000
vt 0.050000 0.500000
vt 0.150000 0.450000
vt 0.200000 0.450000
vt 0.200000 0.500000
vt 0.150000 0.500000
vt 0.250000 0.450000
vt 0.300000 0.450000
vt 0.300000 0.500000
vt 0.250000 0.500000
vt 0.350000 0.450000
vt 0.400000 0.450000
vt 0.400000 0.500000
vt 0.350000 0.500000
vt 0.450000 0.450000
vt 0.500000 0.450000
vt 0.500000 0.500000
vt 0.450000 0.500000
vt 0.550000 0.450000
vt 0.600000 0.450000
vt 0.600000 0.500000
vt 0.550000 0.500000
vt 0.650000 0.450000
vt 0.700000 0.450000
vt 0.700000 0.500000
vt 0.650000 0.500000
vt 0.750000 0.450000
vt 0.800000 0.450000
vt 0.800000 0.500000
vt 0.750000 0.500000
vt 0.850000 0.450000
vt 0.900000 0.450000
vt 0.900000 0.500000
vt 0.850000 0.500000
vt 0.950000 0.450000
vt 1.000000 0.450000
vt 1.000000 0.500000
vt 0.950000 0.500000
vt 0.050000 0.550000
vt 0.100000 0.550000
vt 0.100000 0.600000
vt 0.050000 0.600000
vt 0.150000 0.550000
vt 0.200000 0.550000
vt 0.200000 0.600000
vt 0.150000 0.600000
vt 0.250000 0.550000
vt 0.300000 0.550000
vt 0.300000 0.600000
vt 0.250000 0.600000
vt 0.350000 0.550000
vt 0.400000 0.550000
vt 0.400000 0.600000
vt 0.350000 0.600000
vt 0.450000 0.550000
vt 0.500000 0.550000
vt 0.500000 0.600000
vt 0.450000 0.600000
vt 0.550000 0.550000
vt 0.600000 0.550000
vt 0.600000 0.600000
vt 0.550000 0.600000
vt 0.650000 0.550000
vt 0.700000 0.550000
vt 0.700000 0.600000
vt 0.650000 0.600000
vt 0.750000 0.550000
vt 0.800000 0.550000
vt 0.800000 0.600000
vt 0.750000 0.600000
vt 0.850000 0.550000
vt 0.900000 0.550000
vt 0.900000 0.600000
vt 0.850000 0.600000
vt 0.950000 0.550000
vt 1.000000 0.550000
vt 1.000000 0.600000
vt 0.950000 0.600000
vt 0.050000 0.650000
vt 0.100000 0.650000
vt 0.100000 0.700000
vt 0.050000 0.700000
vt 0.150000 0.650000
vt 0.200000 0.650000
vt 0.200000 0.700000
vt 0.150000 0.700000
vt 0.250000 0.650000
vt 0.300000 0.650000
vt 0.300000 0.700000
vt 0.250000 0.700000
vt 0.350000 0.650000
vt 0.400000 0.650000
vt 0.400000 0.700000
vt 0.350000 0.700000
vt 0.450000 0.650000
vt 0.500000 0.650000
vt 0.500000 0.700000
vt 0.450000 0.700000
vt 0.550000 0.650000
vt 0.600000 0.650000
vt 0.600000 0.700000
vt 0.550000 0.700000
vt 0.650000 0.650000
vt 0.700000 0.650000
vt 0.700000 0.700000
vt 0.650000 0.700000
vt 0.750000 0.650000
vt 0.800000 0.650000
vt 0.800000 0.700000
vt 0.750000 0.700000
vt 0.850000 0.650000
vt 0.900000 0.650000
vt 0.900000 0.700000
vt 0.850000 0.700000
vt 0.950000 0.650000
vt 1.000000 0.650000
vt 1.000000 0.700000
vt 0.950000 0.700000
vt 0.050000 0.750000
vt 0.100000 0.750000
vt 0.100000 0.800000
vt 0.050000 0.800000
vt 0.150000 0.750000
vt 0.200000 0.750000
vt 0.200000 0.800000
vt 0.150000 0.800000
vt 0.250000 0.750000
vt 0.300000 0.750000
vt 0.300000 0.800000
vt 0.250000 0.800000
vt 0.350000 0.750000
vt 0.400000 0.750000
vt 0.400000 0.800000
vt 0.350000 0.800000
vt 0.450000 0.750000
vt 0.500000 0.750000
vt 0.500000 0.800000
vt 0.450000 0.800000
vt 0.550000 0.750000
vt 0.600000 0.750000
vt 0.600000 0.800000
vt 0.550000 0.800000
vt 0.650000 0.750000
vt 0.700000 0.750000
vt 0.700000 0.800000
vt 0.650000 0.800000
vt 0.750000 0.750000
vt 0.800000 0.750000
vt 0.800000 0.800000
vt 0.750000 0.800000
vt 0.850000 0.750000
vt 0.900000 0.750000
vt 0.900000 0.800000
vt 0.850000 0.800000
vt 0.950000 0.750000
vt 1.000000 0.750000
vt 1.000000 0.800000
vt 0.950000 0.800000
vt 0.050000 0.850000
vt 0.100000 0.850000
vt 0.100000 0.900000
vt 0.050000 0.900000
vt 0.150000 0.850000
vt 0.200000 0.850000
vt 0.200000 0.900000
vt 0.150000 0.900000
vt 0.250000 0.850000
vt 0.300000 0.850000
vt 0.300000 0.900000
vt 0.250000 0.900000
vt 0.350000 0.850000
vt 0.400000 0.850000
vt 0.400000 0.900000
vt 0.350000 0.900000
vt 0.450000 0.850000
vt 0.500000 0.850000
vt 0.500000 0.900000
vt 0.450000 0.900000
vt 0.550000 0.850000
vt 0.600000 0.850000
vt 0.600000 0.900000
vt 0.550000 0.900000
vt 0.650000 0.850000
vt 0.700000 0.850000
vt 0.700000 0.900000
vt 0.650000 0.900000
vt 0.750000 0.850000
vt 0.800000 0.850000
vt 0.800000 0.900000
vt 0.750000 0.900000
vt 0.850000 0.850000
vt 0.900000 0.850000
vt 0.900000 0.900000
vt 0.850000 0.900000
vt 0.950000 0.850000
vt 1.000000 0.850000
vt 1.000000 0.900000
vt 0.950000 0.900000
vt 0.050000 0.950000
vt 0.100000 0.950000
vt 0.100000 1.000000
vt 0.050000 1.000000
vt 0.150000 0.950000
vt 0.200000 0.950000
vt 0.200000 1.000000
vt 0.150000 1.000000
vt 0.250000 0.950000
vt 0.300000 0.950000
vt 0.300000 1.000000
vt 0.250000 1.000000
vt 0.350000 0.950000
vt 0.400000 0.950000
vt 0.400000 1.000000
vt 0.350000 1.000000
vt 0.450000 0.950000
vt 0.500000 0.950000
vt 0.500000 1.000000
vt 0.450000 1.000000
vt 0.550000 0.950000
vt 0.600000 0.950000
vt 0.600000 1.000000
vt 0.550000 1.000000
vt 0.650000 0.950000
vt 0.700000 0.950000
vt 0.700000 1.000000
vt 0.650000 1.000000
vt 0.750000 0.950000
vt 0.800000 0.950000
vt 0.800000 1.000000
vt 0.750000 1.000000
vt 0.850000 0.950000
vt 0.900000 0.950000
vt 0.900000 1.000000
vt 0.850000 1.000000
vt 0.950000 0.950000
vt 1.000000 0.950000
vt 1.000000 1.000000
vt 0.950000 1.000000
vt 0.000000 0.950000
vt 0.000000 1.000000
vt 0.000000 0.900000
vt 0.000000 0.850000
vt 0.000000 0.800000
vt 0.000000 0.750000
vt 0.000000 0.700000
vt 0.000000 0.650000
vt 0.000000 0.600000
vt 0.000000 0.550000
vt 0.000000 0.500000
vt 0.000000 0.450000
vt 0.000000 0.400000
vt 0.000000 0.350000
vt 0.000000 0.300000
vt 0.325000 0.250000
vt 0.325000 0.225000
vt 0.350000 0.225000
vt 0.300000 0.225000
vt 0.000000 0.250000
vt 0.000000 0.200000
vt 0.325000 0.200000
vt 0.000000 0.150000
vt 0.000000 0.100000
vt 0.900000 0.000000
vt 0.950000 0.000000
vt 1.000000 0.000000
vt 0.800000 0.000000
vt 0.850000 0.000000
vt 0.700000 0.000000
vt 0.750000 0.000000
vt 0.600000 0.000000
vt 0.650000 0.000000
vt 0.500000 0.000000
vt 0.550000 0.000000
vt 0.400000 0.000000
vt 0.450000 0.000000
vt 0.300000 0.000000
vt 0.350000 0.000000
vt 0.200000 0.000000
vt 0.250000 0.000000
vt 0.100000 0.000000
vt 0.150000 0.000000
vt 0.000000 0.050000
vt 0.000000 0.000000
vt 0.050000 0.000000
s 0
usemtl cafe
f 441/1/1 124/2/1 13/3/1 125/4/1
f 440/5/2 127/6/2 14/7/2 128/8/2
f 439/9/3 130/10/3 15/11/3 131/12/3
f 438/13/4 133/14/4 16/15/4 134/16/4
f 437/17/5 136/18/5 17/19/5 137/20/5
f 436/21/6 139/22/6 18/23/6 140/24/6
f 435/25/7 142/26/7 19/27/7 143/28/7
f 434/29/8 145/30/8 20/31/8 146/32/8
f 433/33/9 148/34/9 21/35/9 149/36/9
f 432/37/10 151/38/10 22/39/10 152/40/10
f 431/41/11 154/42/11 24/43/11 155/44/11
f 430/45/12 156/46/12 25/47/12 157/48/12
f 429/49/13 158/50/13 26/51/13 159/52/13
f 428/53/14 160/54/14 27/55/14 161/56/14
f 427/57/15 162/58/15 28/59/15 163/60/15
f 425/65/17 166/66/17 30/67/17 167/68/17
f 424/69/18 168/70/18 31/71/18 169/72/18
f 423/73/19 170/74/19 32/75/19 171/76/19
f 422/77/10 172/78/10 33/79/10 173/80/10
f 421/81/20 175/82/20 35/83/20 176/84/20
f 420/85/21 177/86/21 36/87/21 178/88/21
f 419/89/22 179/90/22 37/91/22 180/92/22
f 418/93/23 181/94/23 38/95/23 182/96/23
f 417/97/24 183/98/24 39/99/24 184/100/24
f 414/109/27 189/110/27 42/111/27 190/112/27
f 413/113/28 191/114/28 43/115/28 192/116/28
f 412/117/10 193/118/10 44/119/10 194/120/10
f 411/121/29 196/122/29 46/123/29 197/124/29
f 408/133/32 202/134/32 49/135/32 203/136/32
f 407/137/33 204/138/33 50/139/33 205/140/33
f 405/145/35 208/146/35 52/147/35 209/148/35
f 404/149/36 210/150/36 53/151/36 211/152/36
f 403/153/37 212/154/37 54/155/37 213/156/37
f 402/157/38 214/158/38 55/159/38 215/160/38
f 401/161/39 217/162/39 57/163/39 218/164/39
f 399/169/41 221/170/41 59/171/41 222/172/41
f 398/173/42 223/174/42 60/175/42 224/176/42
f 393/193/46 233/194/46 65/195/46 234/196/46
f 392/197/47 235/198/47 66/199/47 236/200/47
f 391/201/48 238/202/48 68/203/48 239/204/48
f 390/205/49 240/206/49 69/207/49 241/208/49
f 389/209/50 242/210/50 70/211/50 243/212/50
f 388/213/51 244/214/51 71/215/51 245/216/51
f 387/217/52 246/218/52 72/219/52 247/220/52
f 386/221/53 248/222/53 73/223/53 249/224/53
f 385/225/54 250/226/54 74/227/54 251/228/54
f 383/233/56 254/234/56 76/235/56 255/236/56
f 382/237/57 256/238/57 77/239/57 257/240/57
f 381/241/58 259/242/58 79/243/58 260/244/58
f 380/245/59 261/246/59 80/247/59 262/248/59
f 379/249/60 263/250/60 81/251/60 264/252/60
f 378/253/61 265/254/61 82/255/61 266/256/61
f 377/257/62 267/258/62 83/259/62 268/260/62
f 376/261/63 269/262/63 84/263/63 270/264/63
f 375/265/64 271/266/64 85/267/64 272/268/64
f 374/269/65 273/270/65 86/271/65 274/272/65
f 373/273/66 275/274/66 87/275/66 276/276/66
f 372/277/67 277/278/67 88/279/67 278/280/67
f 371/281/68 280/282/68 90/283/68 281/284/68
f 370/285/69 282/286/69 91/287/69 283/288/69
f 368/293/71 286/294/71 93/295/71 287/296/71
f 367/297/10 288/298/10 94/299/10 289/300/10
f 366/301/72 290/302/72 95/303/72 291/304/72
f 365/305/73 292/306/73 96/307/73 293/308/73
f 363/313/75 296/314/75 98/315/75 297/316/75
f 362/317/76 298/318/76 99/319/76 299/320/76
f 361/321/77 301/322/77 101/323/77 302/324/77
f 358/333/80 307/334/80 104/335/80 308/336/80
f 357/337/10 309/338/10 105/339/10 310/340/10
f 356/341/81 311/342/81 106/343/81 312/344/81
f 355/345/82 313/346/82 107/347/82 314/348/82
f 354/349/83 315/350/83 108/351/83 316/352/83
f 353/353/84 317/354/84 109/355/84 318/356/84
f 352/357/85 319/358/85 110/359/85 320/360/85
f 351/361/86 322/362/86 112/363/86 323/364/86
f 350/365/87 324/366/87 113/367/87 325/368/87
f 348/373/89 328/374/89 115/375/89 329/376/89
f 347/377/10 330/378/10 116/379/10 331/380/10
f 346/381/10 332/382/10 117/383/10 333/384/10
f 345/385/81 334/386/81 118/387/81 335/388/81
f 344/389/90 336/390/90 119/391/90 337/392/90
f 343/393/85 338/394/85 120/395/85 339/396/85
f 342/397/10 340/398/10 121/399/10 341/400/10
f 338/394/10 342/397/10 341/400/10 120/395/10
f 109/355/91 320/360/91 342/397/91 338/394/91
f 320/360/10 110/359/10 340/398/10 342/397/10
f 336/390/92 343/393/92 339/396/92 119/391/92
f 108/351/93 318/356/93 343/393/93 336/390/93
f 318/356/94 109/355/94 338/394/94 343/393/94
f 334/386/95 344/389/95 337/392/95 118/387/95
f 107/347/96 316/352/96 344/389/96 334/386/96
f 316/352/97 108/351/97 336/390/97 344/389/97
f 332/382/10 345/385/10 335/388/10 117/383/10
f 106/343/98 314/348/98 345/385/98 332/382/98
f 314/348/99 107/347/99 334/386/99 345/385/99
f 330/378/10 346/381/10 333/384/10 116/379/10
f 105/339/10 312/344/10 346/381/10 330/378/10
f 312/344/10 106/343/10 332/382/10 346/381/10
f 328/374/10 347/377/10 331/380/10 115/375/10
f 104/335/100 310/340/100 347/377/100 328/374/100
f 310/340/10 105/339/10 330/378/10 347/377/10
f 326/370/101 348/373/101 329/376/101 114/371/101
f 103/331/102 308/336/102 348/373/102 326/370/102
f 308/336/103 104/335/103 328/374/103 348/373/103
f 322/362/107 350/365/107 325/368/107 112/363/107
f 101/323/108 304/328/108 350/365/108 322/362/108
f 321/401/10 351/361/10 323/364/10 111/402/10
f 100/403/110 302/324/110 351/361/110 321/401/110
f 302/324/111 101/323/111 322/362/111 351/361/111
f 317/354/112 352/357/112 320/360/112 109/355/112
f 98/315/113 299/320/113 352/357/113 317/354/113
f 299/320/114 99/319/114 319/358/114 352/357/114
f 315/350/115 353/353/115 318/356/115 108/351/115
f 97/311/116 297/316/116 353/353/116 315/350/116
f 297/316/117 98/315/117 317/354/117 353/353/117
f 313/346/118 354/349/118 316/352/118 107/347/118
f 311/342/121 355/345/121 314/348/121 106/343/121
f 95/303/122 293/308/122 355/345/122 311/342/122
f 293/308/123 96/307/123 313/346/123 355/345/123
f 309/338/10 356/341/10 312/344/10 105/339/10
f 94/299/10 291/304/10 356/341/10 309/338/10
f 291/304/124 95/303/124 311/342/124 356/341/124
f 307/334/125 357/337/125 310/340/125 104/335/125
f 93/295/126 289/300/126 357/337/126 307/334/126
f 289/300/10 94/299/10 309/338/10 357/337/10
f 287/296/129 93/295/129 307/334/129 358/333/129
f 301/322/132 360/325/132 304/328/132 101/323/132
f 90/283/133 283/288/133 360/325/133 301/322/133
f 300/404/135 361/321/135 302/324/135 100/403/135
f 89/405/136 281/284/136 361/321/136 300/404/136
f 281/284/137 90/283/137 301/322/137 361/321/137
f 87/275/139 278/280/139 362/317/139 296/314/139
f 278/280/140 88/279/140 298/318/140 362/317/140
f 276/276/143 87/275/143 296/314/143 363/313/143
f 290/302/147 365/305/147 293/308/147 95/303/147
f 84/263/148 272/268/148 365/305/148 290/302/148
f 272/268/149 85/267/149 292/306/149 365/305/149
f 288/298/10 366/301/10 291/304/10 94/299/10
f 83/259/10 270/264/10 366/301/10 288/298/10
f 270/264/150 84/263/150 290/302/150 366/301/150
f 286/294/151 367/297/151 289/300/151 93/295/151
f 82/255/152 268/260/152 367/297/152 286/294/152
f 268/260/10 83/259/10 288/298/10 367/297/10
f 284/290/153 368/293/153 287/296/153 92/291/153
f 81/251/154 266/256/154 368/293/154 284/290/154
f 266/256/155 82/255/155 286/294/155 368/293/155
f 80/247/157 264/252/157 369/289/157 282/286/157
f 264/252/158 81/251/158 284/290/158 369/289/158
f 280/282/159 370/285/159 283/288/159 90/283/159
f 79/243/160 262/248/160 370/285/160 280/282/160
f 262/248/161 80/247/161 282/286/161 370/285/161
f 279/406/162 371/281/162 281/284/162 89/405/162
f 78/407/163 260/244/163 371/281/163 279/406/163
f 260/244/164 79/243/164 280/282/164 371/281/164
f 275/274/165 372/277/165 278/280/165 87/275/165
f 76/235/166 257/240/166 372/277/166 275/274/166
f 257/240/10 77/239/10 277/278/10 372/277/10
f 273/270/167 373/273/167 276/276/167 86/271/167
f 75/231/168 255/236/168 373/273/168 273/270/168
f 255/236/169 76/235/169 275/274/169 373/273/169
f 271/266/170 374/269/170 274/272/170 85/267/170
f 74/227/171 253/232/171 374/269/171 271/266/171
f 253/232/172 75/231/172 273/270/172 374/269/172
f 269/262/173 375/265/173 272/268/173 84/263/173
f 73/223/174 251/228/174 375/265/174 269/262/174
f 251/228/175 74/227/175 271/266/175 375/265/175
f 267/258/176 376/261/176 270/264/176 83/259/176
f 72/219/177 249/224/177 376/261/177 267/258/177
f 249/224/178 73/223/178 269/262/178 376/261/178
f 265/254/179 377/257/179 268/260/179 82/255/179
f 71/215/180 247/220/180 377/257/180 265/254/180
f 247/220/181 72/219/181 267/258/181 377/257/181
f 263/250/182 378/253/182 266/256/182 81/251/182
f 70/211/183 245/216/183 378/253/183 263/250/183
f 245/216/184 71/215/184 265/254/184 378/253/184
f 261/246/185 379/249/185 264/252/185 80/247/185
f 69/207/186 243/212/186 379/249/186 261/246/186
f 243/212/187 70/211/187 263/250/187 379/249/187
f 259/242/188 380/245/188 262/248/188 79/243/188
f 68/203/189 241/208/189 380/245/189 259/242/189
f 241/208/190 69/207/190 261/246/190 380/245/190
f 258/408/10 381/241/10 260/244/10 78/407/10
f 67/409/10 239/204/10 381/241/10 258/408/10
f 239/204/191 68/203/191 259/242/191 381/241/191
f 254/234/192 382/237/192 257/240/192 76/235/192
f 65/195/193 236/200/193 382/237/193 254/234/193
f 236/200/194 66/199/194 256/238/194 382/237/194
f 252/230/195 383/233/195 255/236/195 75/231/195
f 64/191/196 234/196/196 383/233/196 252/230/196
f 234/196/197 65/195/197 254/234/197 383/233/197
f 248/222/201 385/225/201 251/228/201 73/223/201
f 62/183/202 230/188/202 385/225/202 248/222/202
f 246/218/204 386/221/204 249/224/204 72/219/204
f 228/184/206 62/183/206 248/222/206 386/221/206
f 244/214/207 387/217/207 247/220/207 71/215/207
f 60/175/208 226/180/208 387/217/208 244/214/208
f 226/180/209 61/179/209 246/218/209 387/217/209
f 242/210/210 388/213/210 245/216/210 70/211/210
f 59/171/211 224/176/211 388/213/211 242/210/211
f 224/176/212 60/175/212 244/214/212 388/213/212
f 240/206/213 389/209/213 243/212/213 69/207/213
f 58/167/214 222/172/214 389/209/214 240/206/214
f 222/172/215 59/171/215 242/210/215 389/209/215
f 238/202/216 390/205/216 241/208/216 68/203/216
f 57/163/217 220/168/217 390/205/217 238/202/217
f 220/168/218 58/167/218 240/206/218 390/205/218
f 237/410/10 391/201/10 239/204/10 67/409/10
f 56/411/10 218/164/10 391/201/10 237/410/10
f 218/164/219 57/163/219 238/202/219 391/201/219
f 233/194/220 392/197/220 236/200/220 65/195/220
f 54/155/221 215/160/221 392/197/221 233/194/221
f 215/160/222 55/159/222 235/198/222 392/197/222
f 231/190/223 393/193/223 234/196/223 64/191/223
f 53/151/224 213/156/224 393/193/224 231/190/224
f 213/156/225 54/155/225 233/194/225 393/193/225
f 209/148/231 52/147/231 229/186/231 395/185/231
f 223/174/234 397/177/234 226/180/234 60/175/234
f 49/135/235 205/140/235 397/177/235 223/174/235
f 221/170/237 398/173/237 224/176/237 59/171/237
f 203/136/239 49/135/239 223/174/239 398/173/239
f 217/162/243 400/165/243 220/168/243 57/163/243
f 46/123/244 199/128/244 400/165/244 217/162/244
f 216/412/246 401/161/246 218/164/246 56/411/246
f 45/413/247 197/124/247 401/161/247 216/412/247
f 197/124/248 46/123/248 217/162/248 401/161/248
f 212/154/249 402/157/249 215/160/249 54/155/249
f 43/115/250 194/120/250 402/157/250 212/154/250
f 194/120/10 44/119/10 214/158/10 402/157/10
f 210/150/251 403/153/251 213/156/251 53/151/251
f 42/111/252 192/116/252 403/153/252 210/150/252
f 192/116/253 43/115/253 212/154/253 403/153/253
f 208/146/254 404/149/254 211/152/254 52/147/254
f 41/107/255 190/112/255 404/149/255 208/146/255
f 190/112/256 42/111/256 210/150/256 404/149/256
f 206/142/257 405/145/257 209/148/257 51/143/257
f 40/103/258 188/108/258 405/145/258 206/142/258
f 188/108/259 41/107/259 208/146/259 405/145/259
f 204/138/260 406/141/260 207/144/260 50/139/260
f 39/99/261 186/104/261 406/141/261 204/138/261
f 186/104/262 40/103/262 206/142/262 406/141/262
f 202/134/263 407/137/263 205/140/263 49/135/263
f 38/95/264 184/100/264 407/137/264 202/134/264
f 184/100/265 39/99/265 204/138/265 407/137/265
f 37/91/267 182/96/267 408/133/267 200/130/267
f 182/96/268 38/95/268 202/134/268 408/133/268
f 36/87/270 180/92/270 409/129/270 198/126/270
f 180/92/271 37/91/271 200/130/271 409/129/271
f 196/122/272 410/125/272 199/128/272 46/123/272
f 35/83/273 178/88/273 410/125/273 196/122/273
f 178/88/274 36/87/274 198/126/274 410/125/274
f 195/414/275 411/121/275 197/124/275 45/413/275
f 34/415/276 176/84/276 411/121/276 195/414/276
f 176/84/277 35/83/277 196/122/277 411/121/277
f 191/114/10 412/117/10 194/120/10 43/115/10
f 32/75/278 173/80/278 412/117/278 191/114/278
f 173/80/10 33/79/10 193/118/10 412/117/10
f 189/110/279 413/113/279 192/116/279 42/111/279
f 31/71/280 171/76/280 413/113/280 189/110/280
f 171/76/281 32/75/281 191/114/281 413/113/281
f 187/106/282 414/109/282 190/112/282 41/107/282
f 167/68/287 30/67/287 187/106/287 415/105/287
f 183/98/288 416/101/288 186/104/288 39/99/288
f 181/94/291 417/97/291 184/100/291 38/95/291
f 27/55/292 163/60/292 417/97/292 181/94/292
f 163/60/293 28/59/293 183/98/293 417/97/293
f 179/90/294 445/416/294 418/93/294 182/96/294 37/91/294
f 446/417/295 444/418/295 418/93/295 445/416/295
f 161/56/296 27/55/296 181/94/296 418/93/296 444/418/296
f 177/86/297 419/89/297 180/92/297 36/87/297
f 25/47/298 159/52/298 419/89/298 177/86/298
f 159/52/299 26/51/299 443/419/299 179/90/299 419/89/299
f 175/82/300 420/85/300 178/88/300 35/83/300
f 24/43/301 157/48/301 420/85/301 175/82/301
f 157/48/302 25/47/302 177/86/302 420/85/302
f 174/420/303 421/81/303 176/84/303 34/415/303
f 23/421/304 155/44/304 421/81/304 174/420/304
f 155/44/305 24/43/305 175/82/305 421/81/305
f 170/74/306 422/77/306 173/80/306 32/75/306
f 21/35/307 152/40/307 422/77/307 170/74/307
f 152/40/10 22/39/10 172/78/10 422/77/10
f 168/70/308 423/73/308 171/76/308 31/71/308
f 20/31/309 149/36/309 423/73/309 168/70/309
f 149/36/310 21/35/310 170/74/310 423/73/310
f 19/27/312 146/32/312 424/69/312 166/66/312
f 146/32/313 20/31/313 168/70/313 424/69/313
f 143/28/316 19/27/316 166/66/316 425/65/316
f 17/19/318 140/24/318 426/61/318 162/58/318
f 160/54/320 427/57/320 163/60/320 27/55/320
f 16/15/321 137/20/321 427/57/321 160/54/321
f 137/20/322 17/19/322 162/58/322 427/57/322
f 158/50/323 428/53/323 161/56/323 442/422/323 26/51/323
f 15/11/324 134/16/324 428/53/324 158/50/324
f 134/16/325 16/15/325 160/54/325 428/53/325
f 156/46/326 429/49/326 159/52/326 25/47/326
f 14/7/327 131/12/327 429/49/327 156/46/327
f 131/12/328 15/11/328 158/50/328 429/49/328
f 154/42/329 430/45/329 157/48/329 24/43/329
f 13/3/330 128/8/330 430/45/330 154/42/330
f 128/8/10 14/7/10 156/46/10 430/45/10
f 153/423/331 431/41/331 155/44/331 23/421/331
f 12/424/332 125/4/332 431/41/332 153/423/332
f 125/4/333 13/3/333 154/42/333 431/41/333
f 148/34/334 432/37/334 152/40/334 21/35/334
f 10/425/335 150/426/335 432/37/335 148/34/335
f 150/426/10 11/427/10 151/38/10 432/37/10
f 145/30/336 433/33/336 149/36/336 20/31/336
f 9/428/337 147/429/337 433/33/337 145/30/337
f 147/429/338 10/425/338 148/34/338 433/33/338
f 142/26/339 434/29/339 146/32/339 19/27/339
f 8/430/340 144/431/340 434/29/340 142/26/340
f 144/431/341 9/428/341 145/30/341 434/29/341
f 139/22/342 435/25/342 143/28/342 18/23/342
f 7/432/343 141/433/343 435/25/343 139/22/343
f 141/433/344 8/430/344 142/26/344 435/25/344
f 136/18/345 436/21/345 140/24/345 17/19/345
f 6/434/346 138/435/346 436/21/346 136/18/346
f 138/435/347 7/432/347 139/22/347 436/21/347
f 133/14/348 437/17/348 137/20/348 16/15/348
f 5/436/349 135/437/349 437/17/349 133/14/349
f 135/437/350 6/434/350 136/18/350 437/17/350
f 130/10/351 438/13/351 134/16/351 15/11/351
f 4/438/352 132/439/352 438/13/352 130/10/352
f 132/439/353 5/436/353 133/14/353 438/13/353
f 127/6/354 439/9/354 131/12/354 14/7/354
f 3/440/355 129/441/355 439/9/355 127/6/355
f 129/441/356 4/438/356 130/10/356 439/9/356
f 124/2/357 440/5/357 128/8/357 13/3/357
f 2/442/358 126/443/358 440/5/358 124/2/358
f 126/443/359 3/440/359 127/6/359 440/5/359
f 122/444/360 441/1/360 125/4/360 12/424/360
f 1/445/361 123/446/361 441/1/361 122/444/361
f 123/446/362 2/442/362 124/2/362 441/1/362
f 443/419/363 446/417/363 445/416/363 179/90/363
f 26/51/364 442/422/364 446/417/364 443/419/364
f 442/422/365 161/56/365 444/418/365 446/417/365
usemtl snow
f 426/61/16 164/62/16 29/63/16 165/64/16
f 416/101/25 185/102/25 40/103/25 186/104/25
f 415/105/26 187/106/26 41/107/26 188/108/26
f 410/125/30 198/126/30 47/127/30 199/128/30
f 409/129/31 200/130/31 48/131/31 201/132/31
f 406/141/34 206/142/34 51/143/34 207/144/34
f 400/165/40 219/166/40 58/167/40 220/168/40
f 397/177/43 225/178/43 61/179/43 226/180/43
f 396/181/44 227/182/44 62/183/44 228/184/44
f 395/185/45 229/186/45 63/187/45 230/188/45
f 394/189/10 231/190/10 64/191/10 232/192/10
f 384/229/55 252/230/55 75/231/55 253/232/55
f 369/289/70 284/290/70 92/291/70 285/292/70
f 364/309/74 294/310/74 97/311/74 295/312/74
f 360/325/78 303/326/78 102/327/78 304/328/78
f 359/329/79 305/330/79 103/331/79 306/332/79
f 349/369/88 326/370/88 114/371/88 327/372/88
f 324/366/104 349/369/104 327/372/104 113/367/104
f 102/327/105 306/332/105 349/369/105 324/366/105
f 306/332/106 103/331/106 326/370/106 349/369/106
f 304/328/109 102/327/109 324/366/109 350/365/109
f 96/307/119 295/312/119 354/349/119 313/346/119
f 295/312/120 97/311/120 315/350/120 354/349/120
f 305/330/127 358/333/127 308/336/127 103/331/127
f 92/291/128 287/296/128 358/333/128 305/330/128
f 303/326/130 359/329/130 306/332/130 102/327/130
f 91/287/10 285/292/10 359/329/10 303/326/10
f 285/292/131 92/291/131 305/330/131 359/329/131
f 283/288/134 91/287/134 303/326/134 360/325/134
f 296/314/138 362/317/138 299/320/138 98/315/138
f 294/310/141 363/313/141 297/316/141 97/311/141
f 86/271/142 276/276/142 363/313/142 294/310/142
f 292/306/144 364/309/144 295/312/144 96/307/144
f 85/267/145 274/272/145 364/309/145 292/306/145
f 274/272/146 86/271/146 294/310/146 364/309/146
f 282/286/156 369/289/156 285/292/156 91/287/156
f 250/226/198 384/229/198 253/232/198 74/227/198
f 63/187/199 232/192/199 384/229/199 250/226/199
f 232/192/200 64/191/200 252/230/200 384/229/200
f 230/188/203 63/187/203 250/226/203 385/225/203
f 61/179/205 228/184/205 386/221/205 246/218/205
f 229/186/226 394/189/226 232/192/226 63/187/226
f 52/147/227 211/152/227 394/189/227 229/186/227
f 211/152/228 53/151/228 231/190/228 394/189/228
f 227/182/229 395/185/229 230/188/229 62/183/229
f 51/143/230 209/148/230 395/185/230 227/182/230
f 225/178/10 396/181/10 228/184/10 61/179/10
f 50/139/232 207/144/232 396/181/232 225/178/232
f 207/144/233 51/143/233 227/182/233 396/181/233
f 205/140/236 50/139/236 225/178/236 397/177/236
f 48/131/238 203/136/238 398/173/238 221/170/238
f 219/166/240 399/169/240 222/172/240 58/167/240
f 47/127/241 201/132/241 399/169/241 219/166/241
f 201/132/242 48/131/242 221/170/242 399/169/242
f 199/128/245 47/127/245 219/166/245 400/165/245
f 200/130/266 408/133/266 203/136/266 48/131/266
f 198/126/269 409/129/269 201/132/269 47/127/269
f 30/67/283 169/72/283 414/109/283 187/106/283
f 169/72/284 31/71/284 189/110/284 414/109/284
f 185/102/285 415/105/285 188/108/285 40/103/285
f 29/63/286 167/68/286 415/105/286 185/102/286
f 28/59/289 165/64/289 416/101/289 183/98/289
f 165/64/290 29/63/290 185/102/290 416/101/290
f 166/66/311 424/69/311 169/72/311 30/67/311
f 164/62/314 425/65/314 167/68/314 29/63/314
f 18/23/315 143/28/315 425/65/315 164/62/315
f 162/58/317 426/61/317 165/64/317 28/59/317
f 140/24/319 18/23/319 164/62/319 426/61/319
