# Blender 5.2.2 LTS
# www.blender.org
mtllib museo.mtl
o Museo_Fondo
v -6.000000 0.200000 2.000000
v -6.000000 0.600000 2.000000
v -6.000000 0.200000 -2.000000
v -6.000000 0.600000 -2.000000
v 6.000000 0.200000 2.000000
v 6.000000 0.600000 2.000000
v 6.000000 0.200000 -2.000000
v 6.000000 0.600000 -2.000000
v -5.500000 0.600000 0.000000
v -5.500000 4.599999 0.000000
v -5.500000 0.600000 -2.000000
v -5.500000 4.599999 -2.000000
v 5.500000 0.600000 0.000000
v 5.500000 4.599999 0.000000
v 5.500000 0.600000 -2.000000
v 5.500000 4.599999 -2.000000
v -4.500000 0.600000 0.100000
v -4.500000 4.599999 0.100000
v -4.217157 0.600000 0.217157
v -4.217157 4.599999 0.217157
v -4.099999 0.600000 0.500000
v -4.099999 4.599999 0.500000
v -4.217157 0.600000 0.782843
v -4.217157 4.599999 0.782843
v -4.500000 0.600000 0.900000
v -4.500000 4.599999 0.900000
v -4.782843 0.600000 0.782843
v -4.782843 4.599999 0.782843
v -4.900000 0.600000 0.500000
v -4.900000 4.599999 0.500000
v -4.782843 0.600000 0.217157
v -4.782843 4.599999 0.217157
v -2.700000 0.600000 0.100000
v -2.700000 4.599999 0.100000
v -2.417157 0.600000 0.217157
v -2.417157 4.599999 0.217157
v -2.300000 0.600000 0.500000
v -2.300000 4.599999 0.500000
v -2.417157 0.600000 0.782843
v -2.417157 4.599999 0.782843
v -2.700000 0.600000 0.900000
v -2.700000 4.599999 0.900000
v -2.982843 0.600000 0.782843
v -2.982843 4.599999 0.782843
v -3.100000 0.600000 0.500000
v -3.100000 4.599999 0.500000
v -2.982843 0.600000 0.217157
v -2.982843 4.599999 0.217157
v -0.900000 0.600000 0.100000
v -0.900000 4.599999 0.100000
v -0.617157 0.600000 0.217157
v -0.617157 4.599999 0.217157
v -0.500000 0.600000 0.500000
v -0.500000 4.599999 0.500000
v -0.617157 0.600000 0.782843
v -0.617157 4.599999 0.782843
v -0.900000 0.600000 0.900000
v -0.900000 4.599999 0.900000
v -1.182843 0.600000 0.782843
v -1.182843 4.599999 0.782843
v -1.300000 0.600000 0.500000
v -1.300000 4.599999 0.500000
v -1.182843 0.600000 0.217157
v -1.182843 4.599999 0.217157
v 0.900000 0.600000 0.100000
v 0.900000 4.599999 0.100000
v 1.182843 0.600000 0.217157
v 1.182843 4.599999 0.217157
v 1.300000 0.600000 0.500000
v 1.300000 4.599999 0.500000
v 1.182843 0.600000 0.782843
v 1.182843 4.599999 0.782843
v 0.900000 0.600000 0.900000
v 0.900000 4.599999 0.900000
v 0.617157 0.600000 0.782843
v 0.617157 4.599999 0.782843
v 0.500000 0.600000 0.500000
v 0.500000 4.599999 0.500000
v 0.617157 0.600000 0.217157
v 0.617157 4.599999 0.217157
v 2.700000 0.600000 0.100000
v 2.700000 4.599999 0.100000
v 2.982843 0.600000 0.217157
v 2.982843 4.599999 0.217157
v 3.100000 0.600000 0.500000
v 3.100000 4.599999 0.500000
v 2.982843 0.600000 0.782843
v 2.982843 4.599999 0.782843
v 2.700000 0.600000 0.900000
v 2.700000 4.599999 0.900000
v 2.417157 0.600000 0.782843
v 2.417157 4.599999 0.782843
v 2.300000 0.600000 0.500000
v 2.300000 4.599999 0.500000
v 2.417157 0.600000 0.217157
v 2.417157 4.599999 0.217157
v 4.500000 0.600000 0.100000
v 4.500000 4.599999 0.100000
v 4.782843 0.600000 0.217157
v 4.782843 4.599999 0.217157
v 4.900000 0.600000 0.500000
v 4.900000 4.599999 0.500000
v 4.782843 0.600000 0.782843
v 4.782843 4.599999 0.782843
v 4.500000 0.600000 0.900000
v 4.500000 4.599999 0.900000
v 4.217157 0.600000 0.782843
v 4.217157 4.599999 0.782843
v 4.099999 0.600000 0.500000
v 4.099999 4.599999 0.500000
v 4.217157 0.600000 0.217157
v 4.217157 4.599999 0.217157
v -5.750000 4.500000 1.500000
v -5.750000 5.099999 1.500000
v -5.750000 4.500000 -2.000000
v -5.750000 5.099999 -2.000000
v 5.750000 4.500000 1.500000
v 5.750000 5.099999 1.500000
v 5.750000 4.500000 -2.000000
v 5.750000 5.099999 -2.000000
v -5.000000 5.099999 0.750000
v -5.000000 5.499999 0.750000
v -5.000000 5.099999 -1.750000
v -5.000000 5.499999 -1.750000
v 5.000000 5.099999 0.750000
v 5.000000 5.499999 0.750000
v 5.000000 5.099999 -1.750000
v 5.000000 5.499999 -1.750000
vn -1.0000 -0.0000 -0.0000
vn -0.0000 -0.0000 -1.0000
vn 1.0000 -0.0000 -0.0000
vn -0.0000 -0.0000 1.0000
vn -0.0000 -1.0000 -0.0000
vn -0.0000 1.0000 -0.0000
vn 0.3827 -0.0000 -0.9239
vn 0.9239 -0.0000 -0.3827
vn 0.9239 -0.0000 0.3827
vn 0.3827 -0.0000 0.9239
vn -0.3827 -0.0000 0.9239
vn -0.9239 -0.0000 0.3827
vn -0.9239 -0.0000 -0.3827
vn -0.3827 -0.0000 -0.9239
vt 0.625000 0.000000
vt 0.375000 0.250000
vt 0.375000 0.000000
vt 0.625000 0.250000
vt 0.375000 0.500000
vt 0.625000 0.500000
vt 0.375000 0.750000
vt 0.625000 0.750000
vt 0.375000 1.000000
vt 0.125000 0.750000
vt 0.125000 0.500000
vt 0.875000 0.500000
vt 1.000000 1.000000
vt 1.000000 0.500000
vt 0.875000 1.000000
vt 0.750000 0.500000
vt 0.750000 1.000000
vt 0.625000 1.000000
vt 0.500000 0.500000
vt 0.500000 1.000000
vt 0.250000 0.500000
vt 0.010000 0.250000
vt 0.250000 0.010000
vt 0.490000 0.250000
vt 0.250000 1.000000
vt 0.125000 1.000000
vt 0.000000 0.500000
vt 0.919706 0.080294
vt 0.580294 0.080294
vt 0.580294 0.419706
vt 0.875000 0.750000
vt 0.419706 0.419706
vt 0.250000 0.490000
vt 0.080294 0.419706
vt 0.080294 0.080294
vt 0.419706 0.080294
vt 0.000000 1.000000
vt 0.750000 0.490000
vt 0.919706 0.419706
vt 0.990000 0.250000
vt 0.750000 0.010000
vt 0.510000 0.250000
s 0
usemtl Mat_Museo_Piedra
f 2/1/1 3/2/1 1/3/1
f 4/4/2 7/5/2 3/2/2
f 8/6/3 5/7/3 7/5/3
f 6/8/4 1/9/4 5/7/4
f 7/5/5 1/10/5 3/11/5
f 4/12/6 6/8/6 8/6/6
f 10/1/1 11/2/1 9/3/1
f 12/4/2 15/5/2 11/2/2
f 16/6/3 13/7/3 15/5/3
f 14/8/4 9/9/4 13/7/4
f 15/5/5 9/10/5 11/11/5
f 12/12/6 14/8/6 16/6/6
f 18/13/7 19/12/7 17/14/7
f 20/15/8 21/16/8 19/12/8
f 22/17/9 23/6/9 21/16/9
f 24/18/10 25/19/10 23/6/10
f 26/20/11 27/5/11 25/19/11
f 28/9/12 29/21/12 27/5/12
f 30/22/6 26/23/6 22/24/6
f 30/25/13 31/11/13 29/21/13
f 32/26/14 17/27/14 31/11/14
f 23/28/5 27/29/5 31/30/5
f 34/13/7 35/12/7 33/14/7
f 36/15/8 37/16/8 35/12/8
f 38/17/9 39/6/9 37/16/9
f 40/18/10 41/19/10 39/6/10
f 42/20/11 43/5/11 41/19/11
f 44/9/12 45/21/12 43/5/12
f 46/22/6 42/23/6 38/24/6
f 46/25/13 47/11/13 45/21/13
f 48/26/14 33/27/14 47/11/14
f 39/28/5 43/29/5 47/30/5
f 50/13/7 51/12/7 49/14/7
f 52/15/8 53/16/8 51/12/8
f 54/17/9 55/6/9 53/16/9
f 56/18/10 57/19/10 55/6/10
f 58/20/11 59/5/11 57/19/11
f 60/9/12 61/21/12 59/5/12
f 62/22/6 58/23/6 54/24/6
f 62/25/13 63/11/13 61/21/13
f 64/26/14 49/27/14 63/11/14
f 55/28/5 59/29/5 63/30/5
f 66/13/7 67/12/7 65/14/7
f 68/15/8 69/16/8 67/12/8
f 70/17/9 71/6/9 69/16/9
f 72/18/10 73/19/10 71/6/10
f 74/20/11 75/5/11 73/19/11
f 76/9/12 77/21/12 75/5/12
f 78/22/6 74/23/6 70/24/6
f 78/25/13 79/11/13 77/21/13
f 80/26/14 65/27/14 79/11/14
f 71/28/5 75/29/5 79/30/5
f 82/13/7 83/12/7 81/14/7
f 84/15/8 85/16/8 83/12/8
f 86/17/9 87/6/9 85/16/9
f 88/18/10 89/19/10 87/6/10
f 90/20/11 91/5/11 89/19/11
f 92/9/12 93/21/12 91/5/12
f 94/22/6 90/23/6 86/24/6
f 94/25/13 95/11/13 93/21/13
f 96/26/14 81/27/14 95/11/14
f 87/28/5 91/29/5 95/30/5
f 98/13/7 99/12/7 97/14/7
f 100/15/8 101/16/8 99/12/8
f 102/17/9 103/6/9 101/16/9
f 104/18/10 105/19/10 103/6/10
f 106/20/11 107/5/11 105/19/11
f 108/9/12 109/21/12 107/5/12
f 110/22/6 106/23/6 102/24/6
f 110/25/13 111/11/13 109/21/13
f 112/26/14 97/27/14 111/11/14
f 103/28/5 107/29/5 111/30/5
f 114/1/1 115/2/1 113/3/1
f 116/4/2 119/5/2 115/2/2
f 120/6/3 117/7/3 119/5/3
f 118/8/4 113/9/4 117/7/4
f 119/5/5 113/10/5 115/11/5
f 116/12/6 118/8/6 120/6/6
f 122/1/1 123/2/1 121/3/1
f 124/4/2 127/5/2 123/2/2
f 128/6/3 125/7/3 127/5/3
f 126/8/4 121/9/4 125/7/4
f 127/5/5 121/10/5 123/11/5
f 124/12/6 126/8/6 128/6/6
f 2/1/1 4/4/1 3/2/1
f 4/4/2 8/6/2 7/5/2
f 8/6/3 6/8/3 5/7/3
f 6/8/4 2/18/4 1/9/4
f 7/5/5 5/7/5 1/10/5
f 4/12/6 2/31/6 6/8/6
f 10/1/1 12/4/1 11/2/1
f 12/4/2 16/6/2 15/5/2
f 16/6/3 14/8/3 13/7/3
f 14/8/4 10/18/4 9/9/4
f 15/5/5 13/7/5 9/10/5
f 12/12/6 10/31/6 14/8/6
f 18/13/7 20/15/7 19/12/7
f 20/15/8 22/17/8 21/16/8
f 22/17/9 24/18/9 23/6/9
f 24/18/10 26/20/10 25/19/10
f 26/20/11 28/9/11 27/5/11
f 28/9/12 30/25/12 29/21/12
f 22/24/6 20/32/6 18/33/6
f 18/33/6 32/34/6 30/22/6
f 30/22/6 28/35/6 26/23/6
f 26/23/6 24/36/6 22/24/6
f 22/24/6 18/33/6 30/22/6
f 30/25/13 32/26/13 31/11/13
f 32/26/14 18/37/14 17/27/14
f 31/30/5 17/38/5 19/39/5
f 19/39/5 21/40/5 23/28/5
f 23/28/5 25/41/5 27/29/5
f 27/29/5 29/42/5 31/30/5
f 31/30/5 19/39/5 23/28/5
f 34/13/7 36/15/7 35/12/7
f 36/15/8 38/17/8 37/16/8
f 38/17/9 40/18/9 39/6/9
f 40/18/10 42/20/10 41/19/10
f 42/20/11 44/9/11 43/5/11
f 44/9/12 46/25/12 45/21/12
f 38/24/6 36/32/6 34/33/6
f 34/33/6 48/34/6 46/22/6
f 46/22/6 44/35/6 42/23/6
f 42/23/6 40/36/6 38/24/6
f 38/24/6 34/33/6 46/22/6
f 46/25/13 48/26/13 47/11/13
f 48/26/14 34/37/14 33/27/14
f 47/30/5 33/38/5 35/39/5
f 35/39/5 37/40/5 39/28/5
f 39/28/5 41/41/5 43/29/5
f 43/29/5 45/42/5 47/30/5
f 47/30/5 35/39/5 39/28/5
f 50/13/7 52/15/7 51/12/7
f 52/15/8 54/17/8 53/16/8
f 54/17/9 56/18/9 55/6/9
f 56/18/10 58/20/10 57/19/10
f 58/20/11 60/9/11 59/5/11
f 60/9/12 62/25/12 61/21/12
f 54/24/6 52/32/6 50/33/6
f 50/33/6 64/34/6 62/22/6
f 62/22/6 60/35/6 58/23/6
f 58/23/6 56/36/6 54/24/6
f 54/24/6 50/33/6 62/22/6
f 62/25/13 64/26/13 63/11/13
f 64/26/14 50/37/14 49/27/14
f 63/30/5 49/38/5 51/39/5
f 51/39/5 53/40/5 55/28/5
f 55/28/5 57/41/5 59/29/5
f 59/29/5 61/42/5 63/30/5
f 63/30/5 51/39/5 55/28/5
f 66/13/7 68/15/7 67/12/7
f 68/15/8 70/17/8 69/16/8
f 70/17/9 72/18/9 71/6/9
f 72/18/10 74/20/10 73/19/10
f 74/20/11 76/9/11 75/5/11
f 76/9/12 78/25/12 77/21/12
f 70/24/6 68/32/6 66/33/6
f 66/33/6 80/34/6 78/22/6
f 78/22/6 76/35/6 74/23/6
f 74/23/6 72/36/6 70/24/6
f 70/24/6 66/33/6 78/22/6
f 78/25/13 80/26/13 79/11/13
f 80/26/14 66/37/14 65/27/14
f 79/30/5 65/38/5 67/39/5
f 67/39/5 69/40/5 71/28/5
f 71/28/5 73/41/5 75/29/5
f 75/29/5 77/42/5 79/30/5
f 79/30/5 67/39/5 71/28/5
f 82/13/7 84/15/7 83/12/7
f 84/15/8 86/17/8 85/16/8
f 86/17/9 88/18/9 87/6/9
f 88/18/10 90/20/10 89/19/10
f 90/20/11 92/9/11 91/5/11
f 92/9/12 94/25/12 93/21/12
f 86/24/6 84/32/6 82/33/6
f 82/33/6 96/34/6 94/22/6
f 94/22/6 92/35/6 90/23/6
f 90/23/6 88/36/6 86/24/6
f 86/24/6 82/33/6 94/22/6
f 94/25/13 96/26/13 95/11/13
f 96/26/14 82/37/14 81/27/14
f 95/30/5 81/38/5 83/39/5
f 83/39/5 85/40/5 87/28/5
f 87/28/5 89/41/5 91/29/5
f 91/29/5 93/42/5 95/30/5
f 95/30/5 83/39/5 87/28/5
f 98/13/7 100/15/7 99/12/7
f 100/15/8 102/17/8 101/16/8
f 102/17/9 104/18/9 103/6/9
f 104/18/10 106/20/10 105/19/10
f 106/20/11 108/9/11 107/5/11
f 108/9/12 110/25/12 109/21/12
f 102/24/6 100/32/6 98/33/6
f 98/33/6 112/34/6 110/22/6
f 110/22/6 108/35/6 106/23/6
f 106/23/6 104/36/6 102/24/6
f 102/24/6 98/33/6 110/22/6
f 110/25/13 112/26/13 111/11/13
f 112/26/14 98/37/14 97/27/14
f 111/30/5 97/38/5 99/39/5
f 99/39/5 101/40/5 103/28/5
f 103/28/5 105/41/5 107/29/5
f 107/29/5 109/42/5 111/30/5
f 111/30/5 99/39/5 103/28/5
f 114/1/1 116/4/1 115/2/1
f 116/4/2 120/6/2 119/5/2
f 120/6/3 118/8/3 117/7/3
f 118/8/4 114/18/4 113/9/4
f 119/5/5 117/7/5 113/10/5
f 116/12/6 114/31/6 118/8/6
f 122/1/1 124/4/1 123/2/1
f 124/4/2 128/6/2 127/5/2
f 128/6/3 126/8/3 125/7/3
f 126/8/4 122/18/4 121/9/4
f 127/5/5 125/7/5 121/10/5
f 124/12/6 122/31/6 126/8/6
