# Blender 5.2.2 LTS
# www.blender.org
mtllib bird.mtl
o Cylinder
v 0.975088 2.868598 -1.033482
v 1.485590 2.657141 -1.033482
v 1.708567 3.187714 -1.933049
v 1.697046 2.146639 -1.033482
v 0.920500 3.514142 -1.933049
v 1.485590 1.636138 -1.033482
v 0.975088 1.424681 -1.033482
v 0.464586 1.636138 -1.033482
v 0.253130 2.146639 -1.033482
v 0.464586 2.657141 -1.033482
v 2.443527 4.487847 0.235012
v 0.909938 5.123081 0.235012
v 3.078761 2.954258 0.235012
v 2.443527 1.420668 0.235012
v 0.909938 1.132743 0.235012
v -0.623652 1.420668 0.235012
v -1.258886 2.954258 0.235012
v -0.623652 4.487847 0.235012
v 2.443527 4.487847 4.404817
v 0.909938 5.123081 4.404817
v 3.078761 2.954257 4.404817
v 2.443527 1.420668 4.404817
v 0.909938 1.132743 4.404817
v -0.623652 1.420668 4.404817
v -1.258886 2.954257 4.404817
v -0.623652 4.487847 4.404817
v 1.897777 3.942097 6.271070
v 0.909937 4.351274 6.271070
v 2.306954 2.954257 6.271070
v 1.897777 1.966418 6.271070
v 0.909937 1.557241 6.271070
v -0.077902 1.966418 6.271070
v -0.487079 2.954257 6.271070
v -0.077902 3.942097 6.271070
v 1.348925 3.118547 7.198727
v 0.909937 3.186598 7.198727
v 1.530760 2.954257 7.198727
v 1.348925 2.789968 7.198727
v 0.909937 2.721917 7.198727
v 0.470950 2.789968 7.198727
v 0.289115 2.954257 7.198727
v 0.470950 3.118547 7.198727
v 1.955842 3.216664 8.514795
v 0.909938 3.325356 8.514795
v 2.389070 2.954257 8.514795
v 1.955842 2.691851 8.514795
v 0.909938 2.583158 8.514795
v -0.135966 2.691851 8.514795
v -0.569193 2.954257 8.514795
v -0.135966 3.216664 8.514795
v 2.375679 3.321997 9.356743
v 0.909938 3.474319 9.356743
v 2.982809 2.954257 9.356743
v 2.375679 2.586518 9.356743
v 0.909938 2.434195 9.356743
v -0.555803 2.586518 9.356743
v -1.162933 2.954257 9.356743
v -0.555803 3.321997 9.356743
v 2.318096 3.432526 10.440081
v 0.976247 3.263357 11.047802
v 2.982809 2.954257 10.120396
v 2.375679 2.586518 10.120396
v 0.909938 2.434195 10.120396
v -0.555803 2.586518 10.120396
v -1.162933 2.954257 10.120396
v -0.358316 3.438566 10.476410
v 2.034995 2.399647 -1.933049
v 1.708567 1.611580 -1.933049
v 0.920500 1.285152 -1.933049
v 0.132433 1.611580 -1.933049
v -0.193995 2.399647 -1.933049
v 0.132433 3.187714 -1.933049
v 1.770444 3.249591 -2.879748
v 0.920500 3.601650 -2.879748
v 2.122503 2.399647 -2.879748
v 1.770444 1.549702 -2.879748
v 0.920500 1.197644 -2.879748
v 0.070555 1.549702 -2.879748
v -0.281504 2.399647 -2.879748
v 0.070555 3.249591 -2.879748
v 0.860205 1.523158 -4.536352
v 0.870432 1.498469 -4.536352
v 1.708567 3.187714 -3.318758
v 0.920500 3.514142 -3.318758
v 2.034995 2.399647 -3.318758
v 1.708567 1.611580 -3.318758
v 0.920500 1.285152 -3.318758
v 0.132433 1.611580 -3.318758
v -0.193995 2.399647 -3.318758
v 0.132433 3.187714 -3.318758
v 1.479563 2.958710 -3.722040
v 0.920500 3.190282 -3.722040
v 1.711135 2.399647 -3.722040
v 1.479563 1.840583 -3.722040
v 0.920500 1.609011 -3.722040
v 0.361436 1.840583 -3.722040
v 0.129864 2.399647 -3.722040
v 0.361436 2.958710 -3.722040
v 1.267897 2.372219 -4.443551
v 0.952205 2.502983 -4.443551
v 1.398660 2.056528 -4.443551
v 1.267897 1.740837 -4.443551
v 0.952205 1.610073 -4.443551
v 0.636514 1.740837 -4.443551
v 0.505750 2.056528 -4.443551
v 0.636514 2.372219 -4.443551
v 1.056072 1.718488 -4.775371
v 1.034521 1.639956 -5.039065
v 1.064998 1.696937 -4.775371
v 1.056072 1.675387 -4.775371
v 1.034521 1.666461 -4.775371
v 1.012971 1.587929 -5.039065
v 1.004045 1.609480 -5.039065
v 1.012971 1.631030 -5.039065
v 6.282711 4.023620 -1.465087
v 5.851941 5.063591 -1.465087
v -4.032066 5.063591 -1.465087
v -4.462835 4.023620 -1.465087
v 6.282711 4.023620 1.362575
v 5.851941 5.063590 1.362575
v -4.032066 5.063590 1.362575
v -4.462835 4.023620 1.362575
v 8.205023 5.025352 -0.988201
v 7.919553 5.714540 -0.988201
v -6.099678 5.714539 -0.988201
v -6.385148 5.025352 -0.988201
v 8.205023 5.025352 0.885689
v 7.919553 5.714539 0.885689
v -6.099678 5.714539 0.885689
v -6.385148 5.025351 0.885689
v 9.953959 5.972693 0.158190
v 9.826109 6.281350 0.158190
v -8.006233 6.281349 0.158190
v -8.134083 5.972693 0.158190
v 9.953959 5.972693 0.997421
v 9.826109 6.281350 0.997421
v -8.006233 6.281349 0.997421
v -8.134083 5.972693 0.997421
v 11.202190 6.672999 0.928533
v 11.138563 6.826607 0.928533
v -9.272083 6.826607 0.928533
v -9.335711 6.672999 0.928533
v 11.202190 6.672999 1.346190
v 11.138563 6.826607 1.346190
v -9.272083 6.826607 1.346190
v -9.335711 6.672999 1.346190
vn -0.8716 -0.3610 0.3317
vn -0.1973 0.4764 -0.8568
vn -0.6192 0.2565 0.7422
vn 0.2008 0.4848 -0.8513
vn 0.7346 -0.3043 -0.6064
vn -0.7013 -0.2905 -0.6510
vn 0.2287 -0.9360 -0.2677
vn -0.5513 0.2283 -0.8025
vn 0.5771 0.2391 -0.7809
vn -0.2272 -0.9299 -0.2893
vn -0.8630 0.3575 0.3569
vn -0.1845 -0.9828 -0.0000
vn 0.9239 -0.3827 -0.0000
vn 0.3827 0.9239 -0.0000
vn -0.3827 0.9239 -0.0000
vn -0.9239 -0.3827 -0.0000
vn 0.1845 -0.9828 -0.0000
vn -0.3166 -0.9486 -0.0000
vn -0.6819 0.3498 0.6423
vn -0.2560 -0.9258 0.2781
vn 0.8630 -0.3575 0.3569
vn 0.3575 0.8630 0.3569
vn -0.3575 0.8630 0.3569
vn -0.8630 -0.3575 0.3569
vn 0.2560 -0.9258 0.2781
vn 0.8630 0.3575 0.3569
vn 0.1174 0.9863 -0.1158
vn -0.2123 -0.6347 0.7430
vn 0.6819 -0.3498 0.6423
vn 0.2123 0.6347 0.7430
vn -0.2123 0.6347 0.7430
vn -0.6819 -0.3498 0.6423
vn 0.2123 -0.6347 0.7430
vn 0.6819 0.3498 0.6423
vn -0.4866 0.8034 -0.3432
vn -0.1174 0.9863 -0.1158
vn -0.5384 -0.7760 -0.3286
vn 0.1174 -0.9863 -0.1158
vn 0.5384 0.7760 -0.3286
vn -0.5384 0.7760 -0.3286
vn -0.1174 -0.9863 -0.1158
vn 0.5384 -0.7760 -0.3286
vn 0.1034 -0.9946 -0.0000
vn -0.1018 -0.9796 -0.1733
vn 0.4866 -0.8034 -0.3432
vn 0.1018 0.9796 -0.1733
vn -0.1018 0.9796 -0.1733
vn -0.4866 -0.8034 -0.3432
vn 0.1018 -0.9796 -0.1733
vn 0.4866 0.8034 -0.3432
vn -0.2040 -0.3368 0.9192
vn 0.5478 0.8360 -0.0329
vn -0.5169 0.8560 0.0012
vn -0.1034 -0.9946 -0.0000
vn 0.5181 -0.8553 -0.0000
vn 0.0018 0.9993 0.0362
vn 0.0013 0.9994 0.0334
vn -0.5181 -0.8553 -0.0000
vn 0.2024 -0.3341 0.9206
vn 0.2352 -0.5812 0.7790
vn -0.2278 -0.5680 0.7909
vn 0.3800 -0.9173 0.1192
vn 0.8985 -0.3722 0.2329
vn 0.3224 0.7782 0.5389
vn -0.8037 0.3329 0.4931
vn -0.3775 -0.9113 0.1643
vn 0.8410 0.3484 0.4139
vn -0.3155 0.7618 0.5658
vn -0.9205 0.3813 0.0851
vn -0.3813 -0.9205 0.0851
vn 0.9205 -0.3813 0.0851
vn -0.3813 0.9205 0.0851
vn -0.9205 -0.3813 0.0851
vn 0.3813 0.9205 0.0851
vn 0.3813 -0.9205 0.0851
vn 0.9205 0.3813 0.0851
vn -0.9086 0.3764 -0.1811
vn -0.3764 -0.9086 -0.1811
vn 0.3764 0.9086 -0.1811
vn 0.9086 -0.3764 -0.1811
vn -0.3764 0.9086 -0.1811
vn -0.9086 -0.3764 -0.1811
vn 0.3764 -0.9086 -0.1811
vn 0.9086 0.3764 -0.1811
vn 0.7420 0.3073 -0.5958
vn -0.7420 0.3073 -0.5958
vn -0.3073 -0.7420 -0.5958
vn 0.3073 0.7420 -0.5958
vn 0.7420 -0.3073 -0.5958
vn -0.3073 0.7420 -0.5958
vn -0.7420 -0.3073 -0.5958
vn 0.3073 -0.7420 -0.5958
vn -0.3826 -0.9237 -0.0182
vn 0.2897 0.6993 -0.6535
vn 0.9027 -0.3739 -0.2131
vn -0.2849 0.6878 -0.6677
vn -0.8851 -0.3666 -0.2868
vn 0.3826 -0.9238 0.0155
vn 0.7985 0.3307 -0.5031
vn -0.7699 0.3189 -0.5528
vn -0.1679 -0.9856 0.0195
vn 0.6061 0.3766 -0.7006
vn 0.8216 -0.3403 -0.4574
vn -0.2233 0.5391 -0.8121
vn -0.8310 -0.3442 -0.4369
vn 0.3819 -0.9221 -0.0619
vn 0.5516 0.2285 -0.8022
vn -0.6339 0.2626 -0.7275
vn 0.9227 -0.3822 -0.0499
vn -0.1992 0.0825 -0.9765
vn -0.1992 0.0825 0.9765
vn -0.1666 0.9860 -0.0000
vn 0.1666 0.9860 -0.0000
vn -0.4162 -0.1724 -0.8928
vn 0.3166 -0.9486 -0.0000
vn 0.4162 -0.1724 -0.8928
vn 0.6192 0.2565 0.7422
vn 0.2850 0.9585 -0.0000
vn -0.2850 0.9585 -0.0000
vn 0.4621 -0.8868 -0.0000
vn -0.4621 -0.8868 -0.0000
vn 0.1992 0.0825 0.9765
vn 0.1992 0.0825 -0.9765
vn -0.3003 0.9538 -0.0000
vn 0.3003 0.9538 -0.0000
vn -0.2202 -0.0912 0.9712
vn -0.5035 -0.8640 -0.0000
vn 0.0521 -0.0216 0.9984
vn -0.4632 0.1919 -0.8652
vn 0.4763 -0.8793 -0.0000
vn -0.4763 -0.8793 -0.0000
vn -0.0521 -0.0216 0.9984
vn 0.4632 0.1919 -0.8652
vn -0.9239 0.3827 -0.0000
vn 0.9239 0.3827 -0.0000
vn 0.4403 0.1824 -0.8792
vn -0.3837 0.9235 -0.0000
vn 0.3956 0.9184 -0.0000
vn 0.2267 -0.0939 0.9694
vn -0.4508 0.1867 -0.8729
vn 0.4893 -0.8721 -0.0000
vt 0.375000 1.000000
vt 0.250000 1.000000
vt 0.000000 1.000000
vt 0.125000 1.000000
vt 0.875000 1.000000
vt 1.000000 1.000000
vt 0.625000 1.000000
vt 0.750000 1.000000
vt 0.500000 1.000000
vt 0.080294 0.419706
vt 0.010000 0.250000
vt 0.080294 0.080294
vt 0.490000 0.250000
vt 0.419706 0.419706
vt 0.419706 0.080294
vt 0.250000 0.490000
vt 0.250000 0.010000
s 0
usemtl pico
f 103/9/101 104/1/101 112/1/101 111/9/101
f 100/6/102 99/5/102 107/5/102 108/6/102
f 101/8/103 102/7/103 110/7/103 109/8/103
f 106/4/104 100/3/104 108/3/104 114/4/104
f 104/1/105 105/2/105 113/2/105 112/1/105
f 102/7/106 103/9/106 111/9/106 110/7/106
f 99/5/107 101/8/107 109/8/107 107/5/107
f 105/2/108 106/4/108 114/4/108 113/2/108
f 110/7/109 111/9/109 112/1/109 113/2/109 114/4/109 108/3/109 107/5/109 109/8/109
usemtl Material.001
f 8/1/1 9/2/1 71/2/1 70/1/1
f 1/3/2 10/4/2 18/4/2 12/3/2
f 25/2/3 26/4/3 121/4/3 122/2/3
f 2/5/4 1/6/4 12/6/4 11/5/4
f 6/7/5 4/8/5 13/8/5 14/7/5
f 9/2/6 8/1/6 16/1/6 17/2/6
f 7/9/7 6/7/7 14/7/7 15/9/7
f 10/4/8 9/2/8 17/2/8 18/4/8
f 4/8/9 2/5/9 11/5/9 13/8/9
f 8/1/10 7/9/10 15/9/10 16/1/10
f 26/4/11 25/2/11 33/2/11 34/4/11
f 16/1/12 15/9/12 23/9/12 24/1/12
f 14/7/13 13/8/13 21/8/13 22/7/13
f 11/5/14 12/6/14 20/6/14 19/5/14
f 12/3/15 18/4/15 26/4/15 20/3/15
f 17/2/16 16/1/16 24/1/16 25/2/16
f 15/9/17 14/7/17 22/7/17 23/9/17
f 17/2/18 25/2/18 122/2/18 118/2/18
f 34/4/19 33/2/19 41/2/19 42/4/19
f 24/1/20 23/9/20 31/9/20 32/1/20
f 22/7/21 21/8/21 29/8/21 30/7/21
f 19/5/22 20/6/22 28/6/22 27/5/22
f 20/3/23 26/4/23 34/4/23 28/3/23
f 25/2/24 24/1/24 32/1/24 33/2/24
f 23/9/25 22/7/25 30/7/25 31/9/25
f 21/8/26 19/5/26 27/5/26 29/8/26
f 35/5/27 36/6/27 44/6/27 43/5/27
f 32/1/28 31/9/28 39/9/28 40/1/28
f 30/7/29 29/8/29 37/8/29 38/7/29
f 27/5/30 28/6/30 36/6/30 35/5/30
f 28/3/31 34/4/31 42/4/31 36/3/31
f 33/2/32 32/1/32 40/1/32 41/2/32
f 31/9/33 30/7/33 38/7/33 39/9/33
f 29/8/34 27/5/34 35/5/34 37/8/34
f 50/4/35 49/2/35 57/2/35 58/4/35
f 36/3/36 42/4/36 50/4/36 44/3/36
f 41/2/37 40/1/37 48/1/37 49/2/37
f 39/9/38 38/7/38 46/7/38 47/9/38
f 37/8/39 35/5/39 43/5/39 45/8/39
f 42/4/40 41/2/40 49/2/40 50/4/40
f 40/1/41 39/9/41 47/9/41 48/1/41
f 38/7/42 37/8/42 45/8/42 46/7/42
f 48/1/44 47/9/44 55/9/44 56/1/44
f 46/7/45 45/8/45 53/8/45 54/7/45
f 43/5/46 44/6/46 52/6/46 51/5/46
f 44/3/47 50/4/47 58/4/47 52/3/47
f 49/2/48 48/1/48 56/1/48 57/2/48
f 47/9/49 46/7/49 54/7/49 55/9/49
f 45/8/50 43/5/50 51/5/50 53/8/50
f 6/7/62 7/9/62 69/9/62 68/7/62
f 4/8/63 6/7/63 68/7/63 67/8/63
f 1/6/64 2/5/64 3/5/64 5/6/64
f 9/2/65 10/4/65 72/4/65 71/2/65
f 7/9/66 8/1/66 70/1/66 69/9/66
f 2/5/67 4/8/67 67/8/67 3/5/67
f 10/4/68 1/3/68 5/3/68 72/4/68
f 71/2/69 72/4/69 80/4/69 79/2/69
f 69/9/70 70/1/70 78/1/70 77/9/70
f 67/8/71 68/7/71 76/7/71 75/8/71
f 72/4/72 5/3/72 74/3/72 80/4/72
f 70/1/73 71/2/73 79/2/73 78/1/73
f 5/6/74 3/5/74 73/5/74 74/6/74
f 68/7/75 69/9/75 77/9/75 76/7/75
f 3/5/76 67/8/76 75/8/76 73/5/76
f 79/2/77 80/4/77 90/4/77 89/2/77
f 77/9/78 78/1/78 88/1/78 87/9/78
f 74/6/79 73/5/79 83/5/79 84/6/79
f 75/8/80 76/7/80 86/7/80 85/8/80
f 80/4/81 74/3/81 84/3/81 90/4/81
f 78/1/82 79/2/82 89/2/82 88/1/82
f 76/7/83 77/9/83 87/9/83 86/7/83
f 73/5/84 75/8/84 85/8/84 83/5/84
f 83/5/85 85/8/85 93/8/85 91/5/85
f 89/2/86 90/4/86 98/4/86 97/2/86
f 87/9/87 88/1/87 96/1/87 95/9/87
f 84/6/88 83/5/88 91/5/88 92/6/88
f 85/8/89 86/7/89 94/7/89 93/8/89
f 90/4/90 84/3/90 92/3/90 98/4/90
f 88/1/91 89/2/91 97/2/91 96/1/91
f 86/7/92 87/9/92 95/9/92 94/7/92
f 95/9/93 96/1/93 104/1/93 103/9/93
f 92/6/94 91/5/94 99/5/94 100/6/94
f 93/8/95 94/7/95 102/7/95 101/8/95
f 98/4/96 92/3/96 100/3/96 106/4/96
f 96/1/97 97/2/97 105/2/97 104/1/97
f 94/7/98 95/9/98 103/9/98 102/7/98
f 91/5/99 93/8/99 101/8/99 99/5/99
f 97/2/100 98/4/100 106/4/100 105/2/100
f 117/4/110 118/2/110 126/2/110 125/4/110
f 122/2/111 121/4/111 129/4/111 130/2/111
f 11/5/112 19/5/112 120/5/112 116/5/112
f 26/4/113 18/4/113 117/4/113 121/4/113
f 13/8/114 11/5/114 116/5/114 115/8/114
f 21/8/115 13/8/115 115/8/115 119/8/115
f 18/4/116 17/2/116 118/2/116 117/4/116
f 19/5/117 21/8/117 119/8/117 120/5/117
f 129/4/118 125/4/118 133/4/118 137/4/118
f 124/5/119 128/5/119 136/5/119 132/5/119
f 119/8/120 115/8/120 123/8/120 127/8/120
f 118/2/121 122/2/121 130/2/121 126/2/121
f 120/5/122 119/8/122 127/8/122 128/5/122
f 115/8/123 116/5/123 124/5/123 123/8/123
f 116/5/124 120/5/124 128/5/124 124/5/124
f 121/4/125 117/4/125 125/4/125 129/4/125
f 130/2/128 129/4/128 137/4/128 138/2/128
f 125/4/129 126/2/129 134/2/129 133/4/129
f 127/8/130 123/8/130 131/8/130 135/8/130
f 126/2/131 130/2/131 138/2/131 134/2/131
f 128/5/132 127/8/132 135/8/132 136/5/132
f 123/8/133 124/5/133 132/5/133 131/8/133
usemtl detalles
f 55/9/43 54/7/43 62/7/43 63/9/43
f 66/10/51 65/11/51 64/12/51
f 53/8/52 51/5/52 59/5/52 61/8/52
f 58/4/53 57/2/53 65/2/53 66/4/53
f 56/1/54 55/9/54 63/9/54 64/1/54
f 54/7/55 53/8/55 61/8/55 62/7/55
f 51/5/56 52/6/56 60/6/56 59/5/56
f 52/3/57 58/4/57 66/4/57 60/3/57
f 57/2/58 56/1/58 64/1/58 65/2/58
f 61/13/59 59/14/59 62/15/59
f 59/14/60 60/16/60 63/17/60 62/15/60
f 60/16/61 66/10/61 64/12/61 63/17/61
f 136/5/126 135/8/126 143/8/126 144/5/126
f 134/2/127 138/2/127 146/2/127 142/2/127
f 141/4/134 142/2/134 146/2/134 145/4/134
f 139/8/135 140/5/135 144/5/135 143/8/135
f 131/8/136 132/5/136 140/5/136 139/8/136
f 132/5/137 136/5/137 144/5/137 140/5/137
f 137/4/138 133/4/138 141/4/138 145/4/138
f 138/2/139 137/4/139 145/4/139 146/2/139
f 133/4/140 134/2/140 142/2/140 141/4/140
f 135/8/141 131/8/141 139/8/141 143/8/141
o ojo2
v 0.163789 2.866122 -2.741483
v 0.163789 2.973513 -2.407152
v -0.179346 2.973513 -2.741483
v 0.163789 2.874297 -2.613540
v 0.163789 2.897576 -2.505075
v 0.032477 2.874297 -2.741483
v 0.029186 2.884163 -2.610334
v 0.036016 2.903037 -2.522077
v -0.034320 2.911511 -2.548457
v 0.032477 2.973513 -2.432602
v -0.078844 2.973513 -2.505075
v 0.163789 2.932416 -2.432602
v 0.029186 2.931386 -2.463316
v -0.061395 2.933524 -2.522077
v -0.153227 2.932416 -2.741483
v -0.078844 2.897576 -2.741483
v -0.153227 2.973513 -2.613540
v -0.121703 2.931386 -2.610334
v -0.061395 2.903037 -2.616988
v 0.163789 2.982525 -2.407152
v 0.163789 3.089915 -2.741483
v -0.179346 2.982525 -2.741483
v 0.163789 3.023621 -2.432602
v 0.163789 3.058461 -2.505075
v 0.032477 2.982525 -2.432602
v 0.029186 3.024651 -2.463316
v 0.036016 3.053000 -2.522077
v -0.034320 3.044527 -2.548457
v 0.032477 3.081741 -2.741483
v -0.078844 3.058461 -2.741483
v 0.163789 3.081741 -2.613540
v 0.029186 3.071875 -2.610334
v -0.061395 3.053000 -2.616988
v -0.153227 2.982525 -2.613540
v -0.078844 2.982525 -2.505075
v -0.153227 3.023621 -2.741483
v -0.121703 3.024651 -2.610334
v -0.061395 3.022514 -2.522077
v 0.163789 2.866122 -2.769539
v -0.179346 2.973513 -2.769539
v 0.163789 2.973513 -3.103869
v 0.032477 2.874297 -2.769539
v -0.078844 2.897576 -2.769539
v 0.163789 2.874297 -2.897482
v 0.029186 2.884163 -2.900688
v -0.061395 2.903037 -2.894034
v -0.034320 2.911511 -2.962565
v -0.153227 2.973513 -2.897482
v -0.078844 2.973513 -3.005946
v -0.153227 2.932416 -2.769539
v -0.121703 2.931386 -2.900688
v -0.061395 2.933524 -2.988945
v 0.163789 2.932416 -3.078420
v 0.163789 2.897576 -3.005946
v 0.032477 2.973513 -3.078420
v 0.029186 2.931386 -3.047706
v 0.036016 2.903037 -2.988945
v 0.163789 3.089915 -2.769539
v 0.163789 2.982525 -3.103869
v -0.179346 2.982525 -2.769539
v 0.163789 3.081741 -2.897482
v 0.163789 3.058461 -3.005946
v 0.032477 3.081741 -2.769539
v 0.029186 3.071875 -2.900688
v 0.036016 3.053000 -2.988945
v -0.034320 3.044527 -2.962565
v 0.032477 2.982525 -3.078420
v -0.078844 2.982525 -3.005946
v 0.163789 3.023621 -3.078420
v 0.029186 3.024651 -3.047706
v -0.061395 3.022514 -2.988945
v -0.153227 3.023621 -2.769539
v -0.078844 3.058461 -2.769539
v -0.153227 2.982525 -2.897482
v -0.121703 3.024651 -2.900688
v -0.061395 3.053000 -2.894034
v 0.192584 2.866122 -2.741483
v 0.535719 2.973513 -2.741483
v 0.192584 2.973513 -2.407152
v 0.323896 2.874297 -2.741483
v 0.435217 2.897576 -2.741483
v 0.192584 2.874297 -2.613540
v 0.327187 2.884163 -2.610334
v 0.417768 2.903037 -2.616988
v 0.390693 2.911511 -2.548457
v 0.509600 2.973513 -2.613540
v 0.435217 2.973513 -2.505075
v 0.509600 2.932416 -2.741483
v 0.478077 2.931386 -2.610334
v 0.417768 2.933524 -2.522077
v 0.192584 2.932416 -2.432602
v 0.192584 2.897576 -2.505075
v 0.323896 2.973513 -2.432602
v 0.327187 2.931386 -2.463316
v 0.320358 2.903037 -2.522077
v 0.192584 3.089915 -2.741483
v 0.192584 2.982525 -2.407152
v 0.535719 2.982525 -2.741483
v 0.192584 3.081741 -2.613540
v 0.192584 3.058461 -2.505075
v 0.323896 3.081741 -2.741483
v 0.327187 3.071875 -2.610334
v 0.320358 3.053000 -2.522077
v 0.390693 3.044527 -2.548457
v 0.323896 2.982525 -2.432602
v 0.435217 2.982525 -2.505075
v 0.192584 3.023621 -2.432602
v 0.327187 3.024651 -2.463316
v 0.417768 3.022514 -2.522077
v 0.509600 3.023621 -2.741483
v 0.435217 3.058461 -2.741483
v 0.509600 2.982525 -2.613540
v 0.478077 3.024651 -2.610334
v 0.417768 3.053000 -2.616988
v 0.192584 2.866122 -2.769539
v 0.192584 2.973513 -3.103869
v 0.535719 2.973513 -2.769539
v 0.192584 2.874297 -2.897482
v 0.192584 2.897576 -3.005946
v 0.323896 2.874297 -2.769539
v 0.327187 2.884163 -2.900688
v 0.320358 2.903037 -2.988945
v 0.390693 2.911511 -2.962565
v 0.323896 2.973513 -3.078420
v 0.435217 2.973513 -3.005946
v 0.192584 2.932416 -3.078420
v 0.327187 2.931386 -3.047706
v 0.417768 2.933524 -2.988945
v 0.509600 2.932416 -2.769539
v 0.435217 2.897576 -2.769539
v 0.509600 2.973513 -2.897482
v 0.478077 2.931386 -2.900688
v 0.417768 2.903037 -2.894034
v 0.192584 3.089915 -2.769539
v 0.535719 2.982525 -2.769539
v 0.192584 2.982525 -3.103869
v 0.323896 3.081741 -2.769539
v 0.435217 3.058461 -2.769539
v 0.192584 3.081741 -2.897482
v 0.327187 3.071875 -2.900688
v 0.417768 3.053000 -2.894034
v 0.390693 3.044527 -2.962565
v 0.509600 2.982525 -2.897482
v 0.435217 2.982525 -3.005946
v 0.509600 3.023621 -2.769539
v 0.478077 3.024651 -2.900688
v 0.417768 3.022514 -2.988945
v 0.192584 3.023621 -3.078420
v 0.192584 3.058461 -3.005946
v 0.323896 2.982525 -3.078420
v 0.327187 3.024651 -3.047706
v 0.320358 3.053000 -2.988945
vn -0.0667 -0.9954 0.0685
vn -0.0681 -0.9750 0.2113
vn -0.2061 -0.9760 0.0699
vn -0.2057 -0.9556 0.2112
vn -0.1710 -0.5465 0.8198
vn -0.4751 -0.5019 0.7228
vn -0.0930 -0.8990 0.4280
vn -0.2728 -0.8717 0.4070
vn -0.8121 -0.5556 0.1785
vn -0.4189 -0.9030 0.0959
vn -0.7093 -0.5056 0.4912
vn -0.3974 -0.8737 0.2806
vn -0.1710 0.5465 0.8198
vn -0.0930 0.8990 0.4280
vn -0.4751 0.5019 0.7228
vn -0.2728 0.8717 0.4070
vn -0.0667 0.9954 0.0685
vn -0.2061 0.9760 0.0699
vn -0.0681 0.9750 0.2113
vn -0.2057 0.9556 0.2112
vn -0.8121 0.5556 0.1785
vn -0.7093 0.5056 0.4912
vn -0.4189 0.9030 0.0959
vn -0.3974 0.8737 0.2806
vn -0.0667 -0.9954 -0.0685
vn -0.2061 -0.9760 -0.0699
vn -0.0681 -0.9750 -0.2113
vn -0.2057 -0.9556 -0.2112
vn -0.8121 -0.5556 -0.1785
vn -0.7093 -0.5056 -0.4912
vn -0.4189 -0.9030 -0.0959
vn -0.3974 -0.8737 -0.2806
vn -0.1710 -0.5465 -0.8198
vn -0.0930 -0.8990 -0.4280
vn -0.4751 -0.5019 -0.7228
vn -0.2728 -0.8717 -0.4070
vn -0.0667 0.9954 -0.0685
vn -0.0681 0.9750 -0.2113
vn -0.2061 0.9760 -0.0699
vn -0.2057 0.9556 -0.2112
vn -0.1710 0.5465 -0.8198
vn -0.4751 0.5019 -0.7228
vn -0.0930 0.8990 -0.4280
vn -0.2728 0.8717 -0.4070
vn -0.8121 0.5556 -0.1785
vn -0.4189 0.9030 -0.0959
vn -0.7093 0.5056 -0.4912
vn -0.3974 0.8737 -0.2806
vn 0.0667 -0.9954 0.0685
vn 0.2061 -0.9760 0.0699
vn 0.0681 -0.9750 0.2113
vn 0.2057 -0.9556 0.2112
vn 0.8121 -0.5556 0.1785
vn 0.7093 -0.5056 0.4912
vn 0.4189 -0.9030 0.0959
vn 0.3974 -0.8737 0.2806
vn 0.1710 -0.5465 0.8198
vn 0.0930 -0.8990 0.4280
vn 0.4751 -0.5019 0.7228
vn 0.2728 -0.8717 0.4070
vn 0.0667 0.9954 0.0685
vn 0.0681 0.9750 0.2113
vn 0.2061 0.9760 0.0699
vn 0.2057 0.9556 0.2112
vn 0.1710 0.5465 0.8198
vn 0.4751 0.5019 0.7228
vn 0.0930 0.8990 0.4280
vn 0.2728 0.8717 0.4070
vn 0.8121 0.5556 0.1785
vn 0.4189 0.9030 0.0959
vn 0.7093 0.5056 0.4912
vn 0.3974 0.8737 0.2806
vn 0.0667 -0.9954 -0.0685
vn 0.0681 -0.9750 -0.2113
vn 0.2061 -0.9760 -0.0699
vn 0.2057 -0.9556 -0.2112
vn 0.1710 -0.5465 -0.8198
vn 0.4751 -0.5019 -0.7228
vn 0.0930 -0.8990 -0.4280
vn 0.2728 -0.8717 -0.4070
vn 0.8121 -0.5556 -0.1785
vn 0.4189 -0.9030 -0.0959
vn 0.7093 -0.5056 -0.4912
vn 0.3974 -0.8737 -0.2806
vn 0.0667 0.9954 -0.0685
vn 0.2061 0.9760 -0.0699
vn 0.0681 0.9750 -0.2113
vn 0.2057 0.9556 -0.2112
vn 0.8121 0.5556 -0.1785
vn 0.7093 0.5056 -0.4912
vn 0.4189 0.9030 -0.0959
vn 0.3974 0.8737 -0.2806
vn 0.1710 0.5465 -0.8198
vn 0.0930 0.8990 -0.4280
vn 0.4751 0.5019 -0.7228
vn 0.2728 0.8717 -0.4070
vn -0.0621 -0.9981 -0.0000
vn -0.2047 -0.9788 -0.0000
vn -0.4242 -0.9056 -0.0000
vn -0.8440 -0.5364 -0.0000
vn -0.1903 -0.0000 0.9817
vn -0.5456 -0.0000 0.8380
vn -0.8247 -0.0000 0.5656
vn -0.9798 -0.0000 0.2000
vn -0.0621 0.9981 -0.0000
vn -0.2047 0.9788 -0.0000
vn -0.4242 0.9056 -0.0000
vn -0.8440 0.5364 -0.0000
vn -0.1903 -0.0000 -0.9817
vn -0.5456 -0.0000 -0.8380
vn -0.8247 -0.0000 -0.5656
vn -0.9798 -0.0000 -0.2000
vn -0.0000 -0.9980 -0.0638
vn -0.0000 -0.9777 -0.2098
vn -0.0000 -0.9013 -0.4333
vn -0.0000 -0.5265 -0.8502
vn -0.0000 0.9980 -0.0638
vn -0.0000 0.9777 -0.2098
vn -0.0000 0.9013 -0.4333
vn -0.0000 0.5265 -0.8502
vn 0.9798 -0.0000 -0.2000
vn 0.8247 -0.0000 -0.5656
vn 0.5456 -0.0000 -0.8380
vn 0.1903 -0.0000 -0.9817
vn 0.0621 -0.9981 -0.0000
vn 0.2047 -0.9788 -0.0000
vn 0.4242 -0.9056 -0.0000
vn 0.8440 -0.5364 -0.0000
vn 0.0621 0.9981 -0.0000
vn 0.2047 0.9788 -0.0000
vn 0.4242 0.9056 -0.0000
vn 0.8440 0.5364 -0.0000
vn 0.1903 -0.0000 0.9817
vn 0.5456 -0.0000 0.8380
vn 0.8247 -0.0000 0.5656
vn 0.9798 -0.0000 0.2000
vn -0.0000 -0.9980 0.0638
vn -0.0000 -0.9777 0.2098
vn -0.0000 -0.9013 0.4333
vn -0.0000 -0.5265 0.8502
vn -0.0000 0.9980 0.0638
vn -0.0000 0.9777 0.2098
vn -0.0000 0.9013 0.4333
vn -0.0000 0.5265 0.8502
vn -0.0000 -1.0000 -0.0000
vn -1.0000 -0.0000 -0.0000
vn -0.0000 -0.0000 1.0000
vn -0.0000 1.0000 -0.0000
vn -0.0000 -0.0000 -1.0000
vn 1.0000 -0.0000 -0.0000
vt 0.244966 0.630034
vt 0.244966 0.675943
vt 0.197907 0.677093
vt 0.199057 0.630034
vt 0.244966 0.750000
vt 0.200294 0.750000
vt 0.125000 0.674706
vt 0.125000 0.630034
vt 0.175704 0.750000
vt 0.494966 0.880034
vt 0.494966 0.925943
vt 0.447907 0.927093
vt 0.449057 0.880034
vt 0.494966 1.000000
vt 0.450294 1.000000
vt 0.375000 0.924706
vt 0.375000 0.880034
vt 0.425704 1.000000
vt 0.494966 0.119966
vt 0.449057 0.119966
vt 0.447907 0.072907
vt 0.494966 0.074057
vt 0.375000 0.119966
vt 0.375000 0.075294
vt 0.450294 0.000000
vt 0.494966 0.000000
vt 0.375000 0.050704
vt 0.505034 0.880034
vt 0.550943 0.880034
vt 0.552093 0.927093
vt 0.505034 0.925943
vt 0.625000 0.880034
vt 0.625000 0.924706
vt 0.549706 1.000000
vt 0.505034 1.000000
vt 0.625000 0.949296
vt 0.755034 0.630034
vt 0.800943 0.630034
vt 0.802093 0.677093
vt 0.755034 0.675943
vt 0.875000 0.630034
vt 0.875000 0.674706
vt 0.799706 0.750000
vt 0.755034 0.750000
vt 0.875000 0.699296
vt 0.505034 0.119966
vt 0.505034 0.074057
vt 0.552093 0.072907
vt 0.550943 0.119966
vt 0.505034 0.000000
vt 0.549706 0.000000
vt 0.625000 0.075294
vt 0.625000 0.119966
vt 0.574296 0.000000
vt 0.244966 0.619966
vt 0.199057 0.619966
vt 0.197907 0.572907
vt 0.244966 0.574057
vt 0.125000 0.619966
vt 0.125000 0.575294
vt 0.200294 0.500000
vt 0.244966 0.500000
vt 0.125000 0.550704
vt 0.494966 0.130034
vt 0.494966 0.175943
vt 0.447907 0.177093
vt 0.449057 0.130034
vt 0.494966 0.250000
vt 0.450294 0.250000
vt 0.375000 0.174706
vt 0.375000 0.130034
vt 0.400352 0.275352
vt 0.494966 0.369966
vt 0.449057 0.369966
vt 0.447907 0.322907
vt 0.494966 0.324057
vt 0.375000 0.369966
vt 0.375000 0.325294
vt 0.755034 0.619966
vt 0.755034 0.574057
vt 0.802093 0.572907
vt 0.800943 0.619966
vt 0.755034 0.500000
vt 0.799706 0.500000
vt 0.875000 0.575294
vt 0.875000 0.619966
vt 0.824296 0.500000
vt 0.505034 0.369966
vt 0.505034 0.324057
vt 0.552093 0.322907
vt 0.550943 0.369966
vt 0.505034 0.250000
vt 0.549706 0.250000
vt 0.625000 0.325294
vt 0.625000 0.369966
vt 0.599648 0.224648
vt 0.505034 0.130034
vt 0.550943 0.130034
vt 0.552093 0.177093
vt 0.505034 0.175943
vt 0.625000 0.130034
vt 0.625000 0.174706
vt 0.255034 0.630034
vt 0.300943 0.630034
vt 0.302093 0.677093
vt 0.255034 0.675943
vt 0.375000 0.630034
vt 0.375000 0.674706
vt 0.337353 0.787647
vt 0.315017 0.809983
vt 0.391901 0.750000
vt 0.494966 0.630034
vt 0.494966 0.675943
vt 0.447907 0.677093
vt 0.449057 0.630034
vt 0.494966 0.750000
vt 0.450294 0.750000
vt 0.494966 0.869966
vt 0.449057 0.869966
vt 0.447907 0.822907
vt 0.494966 0.824057
vt 0.744966 0.630034
vt 0.744966 0.675943
vt 0.697907 0.677093
vt 0.699057 0.630034
vt 0.684983 0.809983
vt 0.662647 0.787647
vt 0.625000 0.674706
vt 0.625000 0.630034
vt 0.625000 0.733099
vt 0.505034 0.869966
vt 0.505034 0.824057
vt 0.552093 0.822907
vt 0.550943 0.869966
vt 0.505034 0.750000
vt 0.549706 0.750000
vt 0.505034 0.630034
vt 0.550943 0.630034
vt 0.552093 0.677093
vt 0.505034 0.675943
vt 0.255034 0.619966
vt 0.255034 0.574057
vt 0.302093 0.572907
vt 0.300943 0.619966
vt 0.315017 0.440017
vt 0.337353 0.462353
vt 0.375000 0.575294
vt 0.375000 0.619966
vt 0.375000 0.516901
vt 0.494966 0.380034
vt 0.494966 0.425943
vt 0.447907 0.427093
vt 0.449057 0.380034
vt 0.494966 0.500000
vt 0.450294 0.500000
vt 0.494966 0.619966
vt 0.449057 0.619966
vt 0.447907 0.572907
vt 0.494966 0.574057
vt 0.744966 0.619966
vt 0.699057 0.619966
vt 0.697907 0.572907
vt 0.744966 0.574057
vt 0.625000 0.619966
vt 0.625000 0.575294
vt 0.662647 0.462353
vt 0.684983 0.440017
vt 0.608099 0.500000
vt 0.505034 0.619966
vt 0.505034 0.574057
vt 0.552093 0.572907
vt 0.550943 0.619966
vt 0.505034 0.500000
vt 0.549706 0.500000
vt 0.505034 0.380034
vt 0.550943 0.380034
vt 0.552093 0.427093
vt 0.505034 0.425943
s 0
usemtl ojo
f 147/18/142 150/19/142 153/20/142 152/21/142
f 150/19/143 151/22/143 154/23/143 153/20/143
f 152/21/144 153/20/144 165/24/144 162/25/144
f 153/20/145 154/23/145 155/26/145 165/24/145
f 148/27/146 156/28/146 159/29/146 158/30/146
f 156/28/147 157/31/147 160/32/147 159/29/147
f 158/30/148 159/29/148 154/33/148 151/34/148
f 159/29/149 160/32/149 155/35/149 154/33/149
f 149/36/150 161/37/150 164/38/150 163/39/150
f 161/37/151 162/40/151 165/41/151 164/38/151
f 163/39/152 164/38/152 160/42/152 157/43/152
f 164/38/153 165/41/153 155/44/153 160/42/153
f 166/45/154 169/46/154 172/47/154 171/48/154
f 169/46/155 170/49/155 173/50/155 172/47/155
f 171/48/156 172/47/156 184/51/156 181/52/156
f 172/47/157 173/50/157 174/53/157 184/51/157
f 167/54/158 175/55/158 178/56/158 177/57/158
f 175/55/159 176/58/159 179/59/159 178/56/159
f 177/57/160 178/56/160 173/60/160 170/61/160
f 178/56/161 179/59/161 174/62/161 173/60/161
f 168/63/162 180/64/162 183/65/162 182/66/162
f 180/64/163 181/67/163 184/68/163 183/65/163
f 182/66/164 183/65/164 179/69/164 176/70/164
f 183/65/165 184/68/165 174/71/165 179/69/165
f 185/72/166 188/73/166 191/74/166 190/75/166
f 188/73/167 189/76/167 192/77/167 191/74/167
f 190/75/168 191/74/168 203/78/168 200/79/168
f 191/74/169 192/77/169 193/80/169 203/78/169
f 186/81/170 194/82/170 197/83/170 196/84/170
f 194/82/171 195/85/171 198/86/171 197/83/171
f 196/84/172 197/83/172 192/87/172 189/88/172
f 197/83/173 198/86/173 193/89/173 192/87/173
f 187/90/174 199/91/174 202/92/174 201/93/174
f 199/91/175 200/94/175 203/95/175 202/92/175
f 201/93/176 202/92/176 198/86/176 195/85/176
f 202/92/177 203/95/177 193/89/177 198/86/177
f 204/96/178 207/97/178 210/98/178 209/99/178
f 207/97/179 208/100/179 211/101/179 210/98/179
f 209/99/180 210/98/180 222/102/180 219/103/180
f 210/98/181 211/101/181 212/104/181 222/102/181
f 205/105/182 213/106/182 216/107/182 215/108/182
f 213/106/183 214/109/183 217/110/183 216/107/183
f 215/108/184 216/107/184 211/111/184 208/112/184
f 216/107/185 217/110/185 212/113/185 211/111/185
f 206/114/186 218/115/186 221/116/186 220/117/186
f 218/115/187 219/118/187 222/119/187 221/116/187
f 220/117/188 221/116/188 217/110/188 214/109/188
f 221/116/189 222/119/189 212/113/189 217/110/189
f 223/120/190 226/121/190 229/122/190 228/123/190
f 226/121/191 227/124/191 230/125/191 229/122/191
f 228/123/192 229/122/192 241/126/192 238/127/192
f 229/122/193 230/125/193 231/128/193 241/126/193
f 224/129/194 232/130/194 235/131/194 234/132/194
f 232/130/195 233/133/195 236/134/195 235/131/195
f 234/132/196 235/131/196 230/125/196 227/124/196
f 235/131/197 236/134/197 231/128/197 230/125/197
f 225/135/198 237/136/198 240/137/198 239/138/198
f 237/136/199 238/127/199 241/126/199 240/137/199
f 239/138/200 240/137/200 236/134/200 233/133/200
f 240/137/201 241/126/201 231/128/201 236/134/201
f 242/139/202 245/140/202 248/141/202 247/142/202
f 245/140/203 246/143/203 249/144/203 248/141/203
f 247/142/204 248/141/204 260/145/204 257/146/204
f 248/141/205 249/144/205 250/147/205 260/145/205
f 243/148/206 251/149/206 254/150/206 253/151/206
f 251/149/207 252/152/207 255/153/207 254/150/207
f 253/151/208 254/150/208 249/144/208 246/143/208
f 254/150/209 255/153/209 250/147/209 249/144/209
f 244/154/210 256/155/210 259/156/210 258/157/210
f 256/155/211 257/146/211 260/145/211 259/156/211
f 258/157/212 259/156/212 255/153/212 252/152/212
f 259/156/213 260/145/213 250/147/213 255/153/213
f 261/158/214 264/159/214 267/160/214 266/161/214
f 264/159/215 265/162/215 268/163/215 267/160/215
f 266/161/216 267/160/216 279/164/216 276/165/216
f 267/160/217 268/163/217 269/166/217 279/164/217
f 262/167/218 270/168/218 273/169/218 272/170/218
f 270/168/219 271/171/219 274/172/219 273/169/219
f 272/170/220 273/169/220 268/163/220 265/162/220
f 273/169/221 274/172/221 269/166/221 268/163/221
f 263/173/222 275/174/222 278/175/222 277/176/222
f 275/174/223 276/165/223 279/164/223 278/175/223
f 277/176/224 278/175/224 274/172/224 271/171/224
f 278/175/225 279/164/225 269/166/225 274/172/225
f 280/177/226 283/178/226 286/179/226 285/180/226
f 283/178/227 284/181/227 287/182/227 286/179/227
f 285/180/228 286/179/228 298/183/228 295/184/228
f 286/179/229 287/182/229 288/185/229 298/183/229
f 281/186/230 289/187/230 292/188/230 291/189/230
f 289/187/231 290/190/231 293/191/231 292/188/231
f 291/189/232 292/188/232 287/182/232 284/181/232
f 292/188/233 293/191/233 288/185/233 287/182/233
f 282/192/234 294/193/234 297/194/234 296/195/234
f 294/193/235 295/184/235 298/183/235 297/194/235
f 296/195/236 297/194/236 293/191/236 290/190/236
f 297/194/237 298/183/237 288/185/237 293/191/237
f 185/72/238 147/18/238 152/21/238 188/73/238
f 188/73/239 152/21/239 162/25/239 189/76/239
f 189/88/240 162/40/240 161/37/240 196/84/240
f 196/84/241 161/37/241 149/36/241 186/81/241
f 148/27/242 166/45/242 171/48/242 156/28/242
f 156/28/243 171/48/243 181/52/243 157/31/243
f 157/43/244 181/67/244 180/64/244 163/39/244
f 163/39/245 180/64/245 168/63/245 149/36/245
f 167/54/246 204/96/246 209/99/246 175/55/246
f 175/55/247 209/99/247 219/103/247 176/58/247
f 176/70/248 219/118/248 218/115/248 182/66/248
f 182/66/249 218/115/249 206/114/249 168/63/249
f 205/105/250 187/90/250 201/93/250 213/106/250
f 213/106/251 201/93/251 195/85/251 214/109/251
f 214/109/252 195/85/252 194/82/252 220/117/252
f 220/117/253 194/82/253 186/81/253 206/114/253
f 261/158/254 185/72/254 190/75/254 264/159/254
f 264/159/255 190/75/255 200/79/255 265/162/255
f 265/162/256 200/94/256 199/91/256 272/170/256
f 272/170/257 199/91/257 187/90/257 262/167/257
f 204/96/258 280/177/258 285/180/258 207/97/258
f 207/97/259 285/180/259 295/184/259 208/100/259
f 208/112/260 295/184/260 294/193/260 215/108/260
f 215/108/261 294/193/261 282/192/261 205/105/261
f 281/186/262 263/173/262 277/176/262 289/187/262
f 289/187/263 277/176/263 271/171/263 290/190/263
f 290/190/264 271/171/264 270/168/264 296/195/264
f 296/195/265 270/168/265 262/167/265 282/192/265
f 223/120/266 261/158/266 266/161/266 226/121/266
f 226/121/267 266/161/267 276/165/267 227/124/267
f 227/124/268 276/165/268 275/174/268 234/132/268
f 234/132/269 275/174/269 263/173/269 224/129/269
f 280/177/270 242/139/270 247/142/270 283/178/270
f 283/178/271 247/142/271 257/146/271 284/181/271
f 284/181/272 257/146/272 256/155/272 291/189/272
f 291/189/273 256/155/273 244/154/273 281/186/273
f 243/148/274 225/135/274 239/138/274 251/149/274
f 251/149/275 239/138/275 233/133/275 252/152/275
f 252/152/276 233/133/276 232/130/276 258/157/276
f 258/157/277 232/130/277 224/129/277 244/154/277
f 147/18/278 223/120/278 228/123/278 150/19/278
f 150/19/279 228/123/279 238/127/279 151/22/279
f 151/34/280 238/127/280 237/136/280 158/30/280
f 158/30/281 237/136/281 225/135/281 148/27/281
f 242/139/282 167/54/282 177/57/282 245/140/282
f 245/140/283 177/57/283 170/61/283 246/143/283
f 246/143/284 170/49/284 169/46/284 253/151/284
f 253/151/285 169/46/285 166/45/285 243/148/285
f 185/72/286 261/158/286 223/120/286 147/18/286
f 149/36/287 168/63/287 206/114/287 186/81/287
f 225/135/288 243/148/288 166/45/288 148/27/288
f 280/177/289 204/96/289 167/54/289 242/139/289
f 187/90/290 205/105/290 282/192/290 262/167/290
f 263/173/291 281/186/291 244/154/291 224/129/291
o ojo1
v 1.681244 2.866122 -2.741483
v 1.681244 2.973513 -2.407152
v 1.338109 2.973513 -2.741483
v 1.681244 2.874297 -2.613540
v 1.681244 2.897576 -2.505075
v 1.549932 2.874297 -2.741483
v 1.546641 2.884163 -2.610334
v 1.553470 2.903037 -2.522077
v 1.483135 2.911511 -2.548457
v 1.549932 2.973513 -2.432602
v 1.438611 2.973513 -2.505075
v 1.681244 2.932416 -2.432602
v 1.546641 2.931386 -2.463316
v 1.456060 2.933524 -2.522077
v 1.364228 2.932416 -2.741483
v 1.438611 2.897576 -2.741483
v 1.364228 2.973513 -2.613540
v 1.395752 2.931386 -2.610334
v 1.456060 2.903037 -2.616988
v 1.681244 2.982525 -2.407152
v 1.681244 3.089915 -2.741483
v 1.338109 2.982525 -2.741483
v 1.681244 3.023621 -2.432602
v 1.681244 3.058461 -2.505075
v 1.549932 2.982525 -2.432602
v 1.546641 3.024651 -2.463316
v 1.553470 3.053000 -2.522077
v 1.483135 3.044527 -2.548457
v 1.549932 3.081741 -2.741483
v 1.438611 3.058461 -2.741483
v 1.681244 3.081741 -2.613540
v 1.546641 3.071875 -2.610334
v 1.456060 3.053000 -2.616988
v 1.364228 2.982525 -2.613540
v 1.438611 2.982525 -2.505075
v 1.364228 3.023621 -2.741483
v 1.395752 3.024651 -2.610334
v 1.456060 3.022514 -2.522077
v 1.681244 2.866122 -2.769539
v 1.338109 2.973513 -2.769539
v 1.681244 2.973513 -3.103869
v 1.549932 2.874297 -2.769539
v 1.438611 2.897576 -2.769539
v 1.681244 2.874297 -2.897482
v 1.546641 2.884163 -2.900688
v 1.456060 2.903037 -2.894034
v 1.483135 2.911511 -2.962565
v 1.364228 2.973513 -2.897482
v 1.438611 2.973513 -3.005946
v 1.364228 2.932416 -2.769539
v 1.395752 2.931386 -2.900688
v 1.456060 2.933524 -2.988945
v 1.681244 2.932416 -3.078420
v 1.681244 2.897576 -3.005946
v 1.549932 2.973513 -3.078420
v 1.546641 2.931386 -3.047706
v 1.553470 2.903037 -2.988945
v 1.681244 3.089915 -2.769539
v 1.681244 2.982525 -3.103869
v 1.338109 2.982525 -2.769539
v 1.681244 3.081741 -2.897482
v 1.681244 3.058461 -3.005946
v 1.549932 3.081741 -2.769539
v 1.546641 3.071875 -2.900688
v 1.553470 3.053000 -2.988945
v 1.483135 3.044527 -2.962565
v 1.549932 2.982525 -3.078420
v 1.438611 2.982525 -3.005946
v 1.681244 3.023621 -3.078420
v 1.546641 3.024651 -3.047706
v 1.456060 3.022514 -2.988945
v 1.364228 3.023621 -2.769539
v 1.438611 3.058461 -2.769539
v 1.364228 2.982525 -2.897482
v 1.395752 3.024651 -2.900688
v 1.456060 3.053000 -2.894034
v 1.710039 2.866122 -2.741483
v 2.053174 2.973513 -2.741483
v 1.710039 2.973513 -2.407152
v 1.841351 2.874297 -2.741483
v 1.952672 2.897576 -2.741483
v 1.710039 2.874297 -2.613540
v 1.844642 2.884163 -2.610334
v 1.935223 2.903037 -2.616988
v 1.908148 2.911511 -2.548457
v 2.027055 2.973513 -2.613540
v 1.952672 2.973513 -2.505075
v 2.027055 2.932416 -2.741483
v 1.995531 2.931386 -2.610334
v 1.935223 2.933524 -2.522077
v 1.710039 2.932416 -2.432602
v 1.710039 2.897576 -2.505075
v 1.841351 2.973513 -2.432602
v 1.844642 2.931386 -2.463316
v 1.837813 2.903037 -2.522077
v 1.710039 3.089915 -2.741483
v 1.710039 2.982525 -2.407152
v 2.053174 2.982525 -2.741483
v 1.710039 3.081741 -2.613540
v 1.710039 3.058461 -2.505075
v 1.841351 3.081741 -2.741483
v 1.844642 3.071875 -2.610334
v 1.837813 3.053000 -2.522077
v 1.908148 3.044527 -2.548457
v 1.841351 2.982525 -2.432602
v 1.952672 2.982525 -2.505075
v 1.710039 3.023621 -2.432602
v 1.844642 3.024651 -2.463316
v 1.935223 3.022514 -2.522077
v 2.027055 3.023621 -2.741483
v 1.952672 3.058461 -2.741483
v 2.027055 2.982525 -2.613540
v 1.995531 3.024651 -2.610334
v 1.935223 3.053000 -2.616988
v 1.710039 2.866122 -2.769539
v 1.710039 2.973513 -3.103869
v 2.053174 2.973513 -2.769539
v 1.710039 2.874297 -2.897482
v 1.710039 2.897576 -3.005946
v 1.841351 2.874297 -2.769539
v 1.844642 2.884163 -2.900688
v 1.837813 2.903037 -2.988945
v 1.908148 2.911511 -2.962565
v 1.841351 2.973513 -3.078420
v 1.952672 2.973513 -3.005946
v 1.710039 2.932416 -3.078420
v 1.844642 2.931386 -3.047706
v 1.935223 2.933524 -2.988945
v 2.027055 2.932416 -2.769539
v 1.952672 2.897576 -2.769539
v 2.027055 2.973513 -2.897482
v 1.995531 2.931386 -2.900688
v 1.935223 2.903037 -2.894034
v 1.710039 3.089915 -2.769539
v 2.053174 2.982525 -2.769539
v 1.710039 2.982525 -3.103869
v 1.841351 3.081741 -2.769539
v 1.952672 3.058461 -2.769539
v 1.710039 3.081741 -2.897482
v 1.844642 3.071875 -2.900688
v 1.935223 3.053000 -2.894034
v 1.908148 3.044527 -2.962565
v 2.027055 2.982525 -2.897482
v 1.952672 2.982525 -3.005946
v 2.027055 3.023621 -2.769539
v 1.995531 3.024651 -2.900688
v 1.935223 3.022514 -2.988945
v 1.710039 3.023621 -3.078420
v 1.710039 3.058461 -3.005946
v 1.841351 2.982525 -3.078420
v 1.844642 3.024651 -3.047706
v 1.837813 3.053000 -2.988945
vn -0.0667 -0.9954 0.0685
vn -0.0681 -0.9750 0.2113
vn -0.2061 -0.9760 0.0699
vn -0.2057 -0.9556 0.2112
vn -0.1710 -0.5465 0.8198
vn -0.4751 -0.5019 0.7228
vn -0.0930 -0.8990 0.4280
vn -0.2728 -0.8717 0.4070
vn -0.8121 -0.5556 0.1785
vn -0.4189 -0.9030 0.0959
vn -0.7093 -0.5056 0.4912
vn -0.3974 -0.8737 0.2806
vn -0.1710 0.5465 0.8198
vn -0.0930 0.8990 0.4280
vn -0.4751 0.5019 0.7228
vn -0.2728 0.8717 0.4070
vn -0.0667 0.9954 0.0685
vn -0.2061 0.9760 0.0699
vn -0.0681 0.9750 0.2113
vn -0.2057 0.9556 0.2112
vn -0.8121 0.5556 0.1785
vn -0.7093 0.5056 0.4912
vn -0.4189 0.9030 0.0959
vn -0.3974 0.8737 0.2806
vn -0.0667 -0.9954 -0.0685
vn -0.2061 -0.9760 -0.0699
vn -0.0681 -0.9750 -0.2113
vn -0.2057 -0.9556 -0.2112
vn -0.8121 -0.5556 -0.1785
vn -0.7093 -0.5056 -0.4912
vn -0.4189 -0.9030 -0.0959
vn -0.3974 -0.8737 -0.2806
vn -0.1710 -0.5465 -0.8198
vn -0.0930 -0.8990 -0.4280
vn -0.4751 -0.5019 -0.7228
vn -0.2728 -0.8717 -0.4070
vn -0.0667 0.9954 -0.0685
vn -0.0681 0.9750 -0.2113
vn -0.2061 0.9760 -0.0699
vn -0.2057 0.9556 -0.2112
vn -0.1710 0.5465 -0.8198
vn -0.4751 0.5019 -0.7228
vn -0.0930 0.8990 -0.4280
vn -0.2728 0.8717 -0.4070
vn -0.8121 0.5556 -0.1785
vn -0.4189 0.9030 -0.0959
vn -0.7093 0.5056 -0.4912
vn -0.3974 0.8737 -0.2806
vn 0.0667 -0.9954 0.0685
vn 0.2061 -0.9760 0.0699
vn 0.0681 -0.9750 0.2113
vn 0.2057 -0.9556 0.2112
vn 0.8121 -0.5556 0.1785
vn 0.7093 -0.5056 0.4912
vn 0.4189 -0.9030 0.0959
vn 0.3974 -0.8737 0.2806
vn 0.1710 -0.5465 0.8198
vn 0.0930 -0.8990 0.4280
vn 0.4751 -0.5019 0.7228
vn 0.2728 -0.8717 0.4070
vn 0.0667 0.9954 0.0685
vn 0.0681 0.9750 0.2113
vn 0.2061 0.9760 0.0699
vn 0.2057 0.9556 0.2112
vn 0.1710 0.5465 0.8198
vn 0.4751 0.5019 0.7228
vn 0.0930 0.8990 0.4280
vn 0.2728 0.8717 0.4070
vn 0.8121 0.5556 0.1785
vn 0.4189 0.9030 0.0959
vn 0.7093 0.5056 0.4912
vn 0.3974 0.8737 0.2806
vn 0.0667 -0.9954 -0.0685
vn 0.0681 -0.9750 -0.2113
vn 0.2061 -0.9760 -0.0699
vn 0.2057 -0.9556 -0.2112
vn 0.1710 -0.5465 -0.8198
vn 0.4751 -0.5019 -0.7228
vn 0.0930 -0.8990 -0.4280
vn 0.2728 -0.8717 -0.4070
vn 0.8121 -0.5556 -0.1785
vn 0.4189 -0.9030 -0.0959
vn 0.7093 -0.5056 -0.4912
vn 0.3974 -0.8737 -0.2806
vn 0.0667 0.9954 -0.0685
vn 0.2061 0.9760 -0.0699
vn 0.0681 0.9750 -0.2113
vn 0.2057 0.9556 -0.2112
vn 0.8121 0.5556 -0.1785
vn 0.7093 0.5056 -0.4912
vn 0.4189 0.9030 -0.0959
vn 0.3974 0.8737 -0.2806
vn 0.1710 0.5465 -0.8198
vn 0.0930 0.8990 -0.4280
vn 0.4751 0.5019 -0.7228
vn 0.2728 0.8717 -0.4070
vn -0.0621 -0.9981 -0.0000
vn -0.2047 -0.9788 -0.0000
vn -0.4242 -0.9056 -0.0000
vn -0.8440 -0.5364 -0.0000
vn -0.1903 -0.0000 0.9817
vn -0.5456 -0.0000 0.8380
vn -0.8247 -0.0000 0.5656
vn -0.9798 -0.0000 0.2000
vn -0.0621 0.9981 -0.0000
vn -0.2047 0.9788 -0.0000
vn -0.4242 0.9056 -0.0000
vn -0.8440 0.5364 -0.0000
vn -0.1903 -0.0000 -0.9817
vn -0.5456 -0.0000 -0.8380
vn -0.8247 -0.0000 -0.5656
vn -0.9798 -0.0000 -0.2000
vn -0.0000 -0.9980 -0.0638
vn -0.0000 -0.9777 -0.2098
vn -0.0000 -0.9013 -0.4333
vn -0.0000 -0.5265 -0.8502
vn -0.0000 0.9980 -0.0638
vn -0.0000 0.9777 -0.2098
vn -0.0000 0.9013 -0.4333
vn -0.0000 0.5265 -0.8502
vn 0.9798 -0.0000 -0.2000
vn 0.8247 -0.0000 -0.5656
vn 0.5456 -0.0000 -0.8380
vn 0.1903 -0.0000 -0.9817
vn 0.0621 -0.9981 -0.0000
vn 0.2047 -0.9788 -0.0000
vn 0.4242 -0.9056 -0.0000
vn 0.8440 -0.5364 -0.0000
vn 0.0621 0.9981 -0.0000
vn 0.2047 0.9788 -0.0000
vn 0.4242 0.9056 -0.0000
vn 0.8440 0.5364 -0.0000
vn 0.1903 -0.0000 0.9817
vn 0.5456 -0.0000 0.8380
vn 0.8247 -0.0000 0.5656
vn 0.9798 -0.0000 0.2000
vn -0.0000 -0.9980 0.0638
vn -0.0000 -0.9777 0.2098
vn -0.0000 -0.9013 0.4333
vn -0.0000 -0.5265 0.8502
vn -0.0000 0.9980 0.0638
vn -0.0000 0.9777 0.2098
vn -0.0000 0.9013 0.4333
vn -0.0000 0.5265 0.8502
vn -0.0000 -1.0000 -0.0000
vn -1.0000 -0.0000 -0.0000
vn -0.0000 -0.0000 1.0000
vn -0.0000 1.0000 -0.0000
vn -0.0000 -0.0000 -1.0000
vn 1.0000 -0.0000 -0.0000
vt 0.244966 0.630034
vt 0.244966 0.675943
vt 0.197907 0.677093
vt 0.199057 0.630034
vt 0.244966 0.750000
vt 0.200294 0.750000
vt 0.125000 0.674706
vt 0.125000 0.630034
vt 0.175704 0.750000
vt 0.494966 0.880034
vt 0.494966 0.925943
vt 0.447907 0.927093
vt 0.449057 0.880034
vt 0.494966 1.000000
vt 0.450294 1.000000
vt 0.375000 0.924706
vt 0.375000 0.880034
vt 0.425704 1.000000
vt 0.494966 0.119966
vt 0.449057 0.119966
vt 0.447907 0.072907
vt 0.494966 0.074057
vt 0.375000 0.119966
vt 0.375000 0.075294
vt 0.450294 0.000000
vt 0.494966 0.000000
vt 0.375000 0.050704
vt 0.505034 0.880034
vt 0.550943 0.880034
vt 0.552093 0.927093
vt 0.505034 0.925943
vt 0.625000 0.880034
vt 0.625000 0.924706
vt 0.549706 1.000000
vt 0.505034 1.000000
vt 0.625000 0.949296
vt 0.755034 0.630034
vt 0.800943 0.630034
vt 0.802093 0.677093
vt 0.755034 0.675943
vt 0.875000 0.630034
vt 0.875000 0.674706
vt 0.799706 0.750000
vt 0.755034 0.750000
vt 0.875000 0.699296
vt 0.505034 0.119966
vt 0.505034 0.074057
vt 0.552093 0.072907
vt 0.550943 0.119966
vt 0.505034 0.000000
vt 0.549706 0.000000
vt 0.625000 0.075294
vt 0.625000 0.119966
vt 0.574296 0.000000
vt 0.244966 0.619966
vt 0.199057 0.619966
vt 0.197907 0.572907
vt 0.244966 0.574057
vt 0.125000 0.619966
vt 0.125000 0.575294
vt 0.200294 0.500000
vt 0.244966 0.500000
vt 0.125000 0.550704
vt 0.494966 0.130034
vt 0.494966 0.175943
vt 0.447907 0.177093
vt 0.449057 0.130034
vt 0.494966 0.250000
vt 0.450294 0.250000
vt 0.375000 0.174706
vt 0.375000 0.130034
vt 0.400352 0.275352
vt 0.494966 0.369966
vt 0.449057 0.369966
vt 0.447907 0.322907
vt 0.494966 0.324057
vt 0.375000 0.369966
vt 0.375000 0.325294
vt 0.755034 0.619966
vt 0.755034 0.574057
vt 0.802093 0.572907
vt 0.800943 0.619966
vt 0.755034 0.500000
vt 0.799706 0.500000
vt 0.875000 0.575294
vt 0.875000 0.619966
vt 0.824296 0.500000
vt 0.505034 0.369966
vt 0.505034 0.324057
vt 0.552093 0.322907
vt 0.550943 0.369966
vt 0.505034 0.250000
vt 0.549706 0.250000
vt 0.625000 0.325294
vt 0.625000 0.369966
vt 0.599648 0.224648
vt 0.505034 0.130034
vt 0.550943 0.130034
vt 0.552093 0.177093
vt 0.505034 0.175943
vt 0.625000 0.130034
vt 0.625000 0.174706
vt 0.255034 0.630034
vt 0.300943 0.630034
vt 0.302093 0.677093
vt 0.255034 0.675943
vt 0.375000 0.630034
vt 0.375000 0.674706
vt 0.337353 0.787647
vt 0.315017 0.809983
vt 0.391901 0.750000
vt 0.494966 0.630034
vt 0.494966 0.675943
vt 0.447907 0.677093
vt 0.449057 0.630034
vt 0.494966 0.750000
vt 0.450294 0.750000
vt 0.494966 0.869966
vt 0.449057 0.869966
vt 0.447907 0.822907
vt 0.494966 0.824057
vt 0.744966 0.630034
vt 0.744966 0.675943
vt 0.697907 0.677093
vt 0.699057 0.630034
vt 0.684983 0.809983
vt 0.662647 0.787647
vt 0.625000 0.674706
vt 0.625000 0.630034
vt 0.625000 0.733099
vt 0.505034 0.869966
vt 0.505034 0.824057
vt 0.552093 0.822907
vt 0.550943 0.869966
vt 0.505034 0.750000
vt 0.549706 0.750000
vt 0.505034 0.630034
vt 0.550943 0.630034
vt 0.552093 0.677093
vt 0.505034 0.675943
vt 0.255034 0.619966
vt 0.255034 0.574057
vt 0.302093 0.572907
vt 0.300943 0.619966
vt 0.315017 0.440017
vt 0.337353 0.462353
vt 0.375000 0.575294
vt 0.375000 0.619966
vt 0.375000 0.516901
vt 0.494966 0.380034
vt 0.494966 0.425943
vt 0.447907 0.427093
vt 0.449057 0.380034
vt 0.494966 0.500000
vt 0.450294 0.500000
vt 0.494966 0.619966
vt 0.449057 0.619966
vt 0.447907 0.572907
vt 0.494966 0.574057
vt 0.744966 0.619966
vt 0.699057 0.619966
vt 0.697907 0.572907
vt 0.744966 0.574057
vt 0.625000 0.619966
vt 0.625000 0.575294
vt 0.662647 0.462353
vt 0.684983 0.440017
vt 0.608099 0.500000
vt 0.505034 0.619966
vt 0.505034 0.574057
vt 0.552093 0.572907
vt 0.550943 0.619966
vt 0.505034 0.500000
vt 0.549706 0.500000
vt 0.505034 0.380034
vt 0.550943 0.380034
vt 0.552093 0.427093
vt 0.505034 0.425943
s 0
usemtl ojo.001
f 299/196/292 302/197/292 305/198/292 304/199/292
f 302/197/293 303/200/293 306/201/293 305/198/293
f 304/199/294 305/198/294 317/202/294 314/203/294
f 305/198/295 306/201/295 307/204/295 317/202/295
f 300/205/296 308/206/296 311/207/296 310/208/296
f 308/206/297 309/209/297 312/210/297 311/207/297
f 310/208/298 311/207/298 306/211/298 303/212/298
f 311/207/299 312/210/299 307/213/299 306/211/299
f 301/214/300 313/215/300 316/216/300 315/217/300
f 313/215/301 314/218/301 317/219/301 316/216/301
f 315/217/302 316/216/302 312/220/302 309/221/302
f 316/216/303 317/219/303 307/222/303 312/220/303
f 318/223/304 321/224/304 324/225/304 323/226/304
f 321/224/305 322/227/305 325/228/305 324/225/305
f 323/226/306 324/225/306 336/229/306 333/230/306
f 324/225/307 325/228/307 326/231/307 336/229/307
f 319/232/308 327/233/308 330/234/308 329/235/308
f 327/233/309 328/236/309 331/237/309 330/234/309
f 329/235/310 330/234/310 325/238/310 322/239/310
f 330/234/311 331/237/311 326/240/311 325/238/311
f 320/241/312 332/242/312 335/243/312 334/244/312
f 332/242/313 333/245/313 336/246/313 335/243/313
f 334/244/314 335/243/314 331/247/314 328/248/314
f 335/243/315 336/246/315 326/249/315 331/247/315
f 337/250/316 340/251/316 343/252/316 342/253/316
f 340/251/317 341/254/317 344/255/317 343/252/317
f 342/253/318 343/252/318 355/256/318 352/257/318
f 343/252/319 344/255/319 345/258/319 355/256/319
f 338/259/320 346/260/320 349/261/320 348/262/320
f 346/260/321 347/263/321 350/264/321 349/261/321
f 348/262/322 349/261/322 344/265/322 341/266/322
f 349/261/323 350/264/323 345/267/323 344/265/323
f 339/268/324 351/269/324 354/270/324 353/271/324
f 351/269/325 352/272/325 355/273/325 354/270/325
f 353/271/326 354/270/326 350/264/326 347/263/326
f 354/270/327 355/273/327 345/267/327 350/264/327
f 356/274/328 359/275/328 362/276/328 361/277/328
f 359/275/329 360/278/329 363/279/329 362/276/329
f 361/277/330 362/276/330 374/280/330 371/281/330
f 362/276/331 363/279/331 364/282/331 374/280/331
f 357/283/332 365/284/332 368/285/332 367/286/332
f 365/284/333 366/287/333 369/288/333 368/285/333
f 367/286/334 368/285/334 363/289/334 360/290/334
f 368/285/335 369/288/335 364/291/335 363/289/335
f 358/292/336 370/293/336 373/294/336 372/295/336
f 370/293/337 371/296/337 374/297/337 373/294/337
f 372/295/338 373/294/338 369/288/338 366/287/338
f 373/294/339 374/297/339 364/291/339 369/288/339
f 375/298/340 378/299/340 381/300/340 380/301/340
f 378/299/341 379/302/341 382/303/341 381/300/341
f 380/301/342 381/300/342 393/304/342 390/305/342
f 381/300/343 382/303/343 383/306/343 393/304/343
f 376/307/344 384/308/344 387/309/344 386/310/344
f 384/308/345 385/311/345 388/312/345 387/309/345
f 386/310/346 387/309/346 382/303/346 379/302/346
f 387/309/347 388/312/347 383/306/347 382/303/347
f 377/313/348 389/314/348 392/315/348 391/316/348
f 389/314/349 390/305/349 393/304/349 392/315/349
f 391/316/350 392/315/350 388/312/350 385/311/350
f 392/315/351 393/304/351 383/306/351 388/312/351
f 394/317/352 397/318/352 400/319/352 399/320/352
f 397/318/353 398/321/353 401/322/353 400/319/353
f 399/320/354 400/319/354 412/323/354 409/324/354
f 400/319/355 401/322/355 402/325/355 412/323/355
f 395/326/356 403/327/356 406/328/356 405/329/356
f 403/327/357 404/330/357 407/331/357 406/328/357
f 405/329/358 406/328/358 401/322/358 398/321/358
f 406/328/359 407/331/359 402/325/359 401/322/359
f 396/332/360 408/333/360 411/334/360 410/335/360
f 408/333/361 409/324/361 412/323/361 411/334/361
f 410/335/362 411/334/362 407/331/362 404/330/362
f 411/334/363 412/323/363 402/325/363 407/331/363
f 413/336/364 416/337/364 419/338/364 418/339/364
f 416/337/365 417/340/365 420/341/365 419/338/365
f 418/339/366 419/338/366 431/342/366 428/343/366
f 419/338/367 420/341/367 421/344/367 431/342/367
f 414/345/368 422/346/368 425/347/368 424/348/368
f 422/346/369 423/349/369 426/350/369 425/347/369
f 424/348/370 425/347/370 420/341/370 417/340/370
f 425/347/371 426/350/371 421/344/371 420/341/371
f 415/351/372 427/352/372 430/353/372 429/354/372
f 427/352/373 428/343/373 431/342/373 430/353/373
f 429/354/374 430/353/374 426/350/374 423/349/374
f 430/353/375 431/342/375 421/344/375 426/350/375
f 432/355/376 435/356/376 438/357/376 437/358/376
f 435/356/377 436/359/377 439/360/377 438/357/377
f 437/358/378 438/357/378 450/361/378 447/362/378
f 438/357/379 439/360/379 440/363/379 450/361/379
f 433/364/380 441/365/380 444/366/380 443/367/380
f 441/365/381 442/368/381 445/369/381 444/366/381
f 443/367/382 444/366/382 439/360/382 436/359/382
f 444/366/383 445/369/383 440/363/383 439/360/383
f 434/370/384 446/371/384 449/372/384 448/373/384
f 446/371/385 447/362/385 450/361/385 449/372/385
f 448/373/386 449/372/386 445/369/386 442/368/386
f 449/372/387 450/361/387 440/363/387 445/369/387
f 337/250/388 299/196/388 304/199/388 340/251/388
f 340/251/389 304/199/389 314/203/389 341/254/389
f 341/266/390 314/218/390 313/215/390 348/262/390
f 348/262/391 313/215/391 301/214/391 338/259/391
f 300/205/392 318/223/392 323/226/392 308/206/392
f 308/206/393 323/226/393 333/230/393 309/209/393
f 309/221/394 333/245/394 332/242/394 315/217/394
f 315/217/395 332/242/395 320/241/395 301/214/395
f 319/232/396 356/274/396 361/277/396 327/233/396
f 327/233/397 361/277/397 371/281/397 328/236/397
f 328/248/398 371/296/398 370/293/398 334/244/398
f 334/244/399 370/293/399 358/292/399 320/241/399
f 357/283/400 339/268/400 353/271/400 365/284/400
f 365/284/401 353/271/401 347/263/401 366/287/401
f 366/287/402 347/263/402 346/260/402 372/295/402
f 372/295/403 346/260/403 338/259/403 358/292/403
f 413/336/404 337/250/404 342/253/404 416/337/404
f 416/337/405 342/253/405 352/257/405 417/340/405
f 417/340/406 352/272/406 351/269/406 424/348/406
f 424/348/407 351/269/407 339/268/407 414/345/407
f 356/274/408 432/355/408 437/358/408 359/275/408
f 359/275/409 437/358/409 447/362/409 360/278/409
f 360/290/410 447/362/410 446/371/410 367/286/410
f 367/286/411 446/371/411 434/370/411 357/283/411
f 433/364/412 415/351/412 429/354/412 441/365/412
f 441/365/413 429/354/413 423/349/413 442/368/413
f 442/368/414 423/349/414 422/346/414 448/373/414
f 448/373/415 422/346/415 414/345/415 434/370/415
f 375/298/416 413/336/416 418/339/416 378/299/416
f 378/299/417 418/339/417 428/343/417 379/302/417
f 379/302/418 428/343/418 427/352/418 386/310/418
f 386/310/419 427/352/419 415/351/419 376/307/419
f 432/355/420 394/317/420 399/320/420 435/356/420
f 435/356/421 399/320/421 409/324/421 436/359/421
f 436/359/422 409/324/422 408/333/422 443/367/422
f 443/367/423 408/333/423 396/332/423 433/364/423
f 395/326/424 377/313/424 391/316/424 403/327/424
f 403/327/425 391/316/425 385/311/425 404/330/425
f 404/330/426 385/311/426 384/308/426 410/335/426
f 410/335/427 384/308/427 376/307/427 396/332/427
f 299/196/428 375/298/428 380/301/428 302/197/428
f 302/197/429 380/301/429 390/305/429 303/200/429
f 303/212/430 390/305/430 389/314/430 310/208/430
f 310/208/431 389/314/431 377/313/431 300/205/431
f 394/317/432 319/232/432 329/235/432 397/318/432
f 397/318/433 329/235/433 322/239/433 398/321/433
f 398/321/434 322/227/434 321/224/434 405/329/434
f 405/329/435 321/224/435 318/223/435 395/326/435
f 337/250/436 413/336/436 375/298/436 299/196/436
f 301/214/437 320/241/437 358/292/437 338/259/437
f 377/313/438 395/326/438 318/223/438 300/205/438
f 432/355/439 356/274/439 319/232/439 394/317/439
f 339/268/440 357/283/440 434/370/440 414/345/440
f 415/351/441 433/364/441 396/332/441 376/307/441
