# Blender 5.2.2 LTS
# www.blender.org
mtllib reja-vial.mtl
o baranda_vial_postes
v 0.000000 0.000000 -0.040000
v 0.000000 0.900000 -0.040000
v 0.007804 0.000000 -0.039231
v 0.007804 0.900000 -0.039231
v 0.015307 0.000000 -0.036955
v 0.015307 0.900000 -0.036955
v 0.022223 0.000000 -0.033259
v 0.022223 0.900000 -0.033259
v 0.028284 0.000000 -0.028284
v 0.028284 0.900000 -0.028284
v 0.033259 0.000000 -0.022223
v 0.033259 0.900000 -0.022223
v 0.036955 0.000000 -0.015307
v 0.036955 0.900000 -0.015307
v 0.039231 0.000000 -0.007804
v 0.039231 0.900000 -0.007804
v 0.040000 0.000000 0.000000
v 0.040000 0.900000 0.000000
v 0.039231 0.000000 0.007804
v 0.039231 0.900000 0.007804
v 0.036955 0.000000 0.015307
v 0.036955 0.900000 0.015307
v 0.033259 0.000000 0.022223
v 0.033259 0.900000 0.022223
v 0.028284 0.000000 0.028284
v 0.028284 0.900000 0.028284
v 0.022223 0.000000 0.033259
v 0.022223 0.900000 0.033259
v 0.015307 0.000000 0.036955
v 0.015307 0.900000 0.036955
v 0.007804 0.000000 0.039231
v 0.007804 0.900000 0.039231
v 0.000000 0.000000 0.040000
v 0.000000 0.900000 0.040000
v -0.007804 0.000000 0.039231
v -0.007804 0.900000 0.039231
v -0.015307 0.000000 0.036955
v -0.015307 0.900000 0.036955
v -0.022223 0.000000 0.033259
v -0.022223 0.900000 0.033259
v -0.028284 0.000000 0.028284
v -0.028284 0.900000 0.028284
v -0.033259 0.000000 0.022223
v -0.033259 0.900000 0.022223
v -0.036955 0.000000 0.015307
v -0.036955 0.900000 0.015307
v -0.039231 0.000000 0.007804
v -0.039231 0.900000 0.007804
v -0.040000 0.000000 0.000000
v -0.040000 0.900000 0.000000
v -0.039231 0.000000 -0.007804
v -0.039231 0.900000 -0.007804
v -0.036955 0.000000 -0.015307
v -0.036955 0.900000 -0.015307
v -0.033259 0.000000 -0.022223
v -0.033259 0.900000 -0.022223
v -0.028284 0.000000 -0.028284
v -0.028284 0.900000 -0.028284
v -0.022223 0.000000 -0.033259
v -0.022223 0.900000 -0.033259
v -0.015307 0.000000 -0.036955
v -0.015307 0.900000 -0.036955
v -0.007804 0.000000 -0.039231
v -0.007804 0.900000 -0.039231
v 1.200000 0.000000 -0.040000
v 1.200000 0.900000 -0.040000
v 1.207804 0.000000 -0.039231
v 1.207804 0.900000 -0.039231
v 1.215307 0.000000 -0.036955
v 1.215307 0.900000 -0.036955
v 1.222223 0.000000 -0.033259
v 1.222223 0.900000 -0.033259
v 1.228284 0.000000 -0.028284
v 1.228284 0.900000 -0.028284
v 1.233259 0.000000 -0.022223
v 1.233259 0.900000 -0.022223
v 1.236955 0.000000 -0.015307
v 1.236955 0.900000 -0.015307
v 1.239231 0.000000 -0.007804
v 1.239231 0.900000 -0.007804
v 1.240000 0.000000 0.000000
v 1.240000 0.900000 0.000000
v 1.239231 0.000000 0.007804
v 1.239231 0.900000 0.007804
v 1.236955 0.000000 0.015307
v 1.236955 0.900000 0.015307
v 1.233259 0.000000 0.022223
v 1.233259 0.900000 0.022223
v 1.228284 0.000000 0.028284
v 1.228284 0.900000 0.028284
v 1.222223 0.000000 0.033259
v 1.222223 0.900000 0.033259
v 1.215307 0.000000 0.036955
v 1.215307 0.900000 0.036955
v 1.207804 0.000000 0.039231
v 1.207804 0.900000 0.039231
v 1.200000 0.000000 0.040000
v 1.200000 0.900000 0.040000
v 1.192196 0.000000 0.039231
v 1.192196 0.900000 0.039231
v 1.184693 0.000000 0.036955
v 1.184693 0.900000 0.036955
v 1.177777 0.000000 0.033259
v 1.177777 0.900000 0.033259
v 1.171716 0.000000 0.028284
v 1.171716 0.900000 0.028284
v 1.166741 0.000000 0.022223
v 1.166741 0.900000 0.022223
v 1.163045 0.000000 0.015307
v 1.163045 0.900000 0.015307
v 1.160769 0.000000 0.007804
v 1.160769 0.900000 0.007804
v 1.160000 0.000000 0.000000
v 1.160000 0.900000 0.000000
v 1.160769 0.000000 -0.007804
v 1.160769 0.900000 -0.007804
v 1.163045 0.000000 -0.015307
v 1.163045 0.900000 -0.015307
v 1.166741 0.000000 -0.022223
v 1.166741 0.900000 -0.022223
v 1.171716 0.000000 -0.028284
v 1.171716 0.900000 -0.028284
v 1.177777 0.000000 -0.033259
v 1.177777 0.900000 -0.033259
v 1.184693 0.000000 -0.036955
v 1.184693 0.900000 -0.036955
v 1.192196 0.000000 -0.039231
v 1.192196 0.900000 -0.039231
v 2.400000 0.000000 -0.040000
v 2.400000 0.900000 -0.040000
v 2.407804 0.000000 -0.039231
v 2.407804 0.900000 -0.039231
v 2.415308 0.000000 -0.036955
v 2.415308 0.900000 -0.036955
v 2.422223 0.000000 -0.033259
v 2.422223 0.900000 -0.033259
v 2.428284 0.000000 -0.028284
v 2.428284 0.900000 -0.028284
v 2.433259 0.000000 -0.022223
v 2.433259 0.900000 -0.022223
v 2.436955 0.000000 -0.015307
v 2.436955 0.900000 -0.015307
v 2.439231 0.000000 -0.007804
v 2.439231 0.900000 -0.007804
v 2.440000 0.000000 0.000000
v 2.440000 0.900000 0.000000
v 2.439231 0.000000 0.007804
v 2.439231 0.900000 0.007804
v 2.436955 0.000000 0.015307
v 2.436955 0.900000 0.015307
v 2.433259 0.000000 0.022223
v 2.433259 0.900000 0.022223
v 2.428284 0.000000 0.028284
v 2.428284 0.900000 0.028284
v 2.422223 0.000000 0.033259
v 2.422223 0.900000 0.033259
v 2.415308 0.000000 0.036955
v 2.415308 0.900000 0.036955
v 2.407804 0.000000 0.039231
v 2.407804 0.900000 0.039231
v 2.400000 0.000000 0.040000
v 2.400000 0.900000 0.040000
v 2.392196 0.000000 0.039231
v 2.392196 0.900000 0.039231
v 2.384693 0.000000 0.036955
v 2.384693 0.900000 0.036955
v 2.377777 0.000000 0.033259
v 2.377777 0.900000 0.033259
v 2.371716 0.000000 0.028284
v 2.371716 0.900000 0.028284
v 2.366741 0.000000 0.022223
v 2.366741 0.900000 0.022223
v 2.363045 0.000000 0.015307
v 2.363045 0.900000 0.015307
v 2.360769 0.000000 0.007804
v 2.360769 0.900000 0.007804
v 2.360000 0.000000 0.000000
v 2.360000 0.900000 0.000000
v 2.360769 0.000000 -0.007804
v 2.360769 0.900000 -0.007804
v 2.363045 0.000000 -0.015307
v 2.363045 0.900000 -0.015307
v 2.366741 0.000000 -0.022223
v 2.366741 0.900000 -0.022223
v 2.371716 0.000000 -0.028284
v 2.371716 0.900000 -0.028284
v 2.377777 0.000000 -0.033259
v 2.377777 0.900000 -0.033259
v 2.384693 0.000000 -0.036955
v 2.384693 0.900000 -0.036955
v 2.392196 0.000000 -0.039231
v 2.392196 0.900000 -0.039231
v 3.600000 0.000000 -0.040000
v 3.600000 0.900000 -0.040000
v 3.607804 0.000000 -0.039231
v 3.607804 0.900000 -0.039231
v 3.615308 0.000000 -0.036955
v 3.615308 0.900000 -0.036955
v 3.622223 0.000000 -0.033259
v 3.622223 0.900000 -0.033259
v 3.628284 0.000000 -0.028284
v 3.628284 0.900000 -0.028284
v 3.633259 0.000000 -0.022223
v 3.633259 0.900000 -0.022223
v 3.636955 0.000000 -0.015307
v 3.636955 0.900000 -0.015307
v 3.639231 0.000000 -0.007804
v 3.639231 0.900000 -0.007804
v 3.640000 0.000000 0.000000
v 3.640000 0.900000 0.000000
v 3.639231 0.000000 0.007804
v 3.639231 0.900000 0.007804
v 3.636955 0.000000 0.015307
v 3.636955 0.900000 0.015307
v 3.633259 0.000000 0.022223
v 3.633259 0.900000 0.022223
v 3.628284 0.000000 0.028284
v 3.628284 0.900000 0.028284
v 3.622223 0.000000 0.033259
v 3.622223 0.900000 0.033259
v 3.615308 0.000000 0.036955
v 3.615308 0.900000 0.036955
v 3.607804 0.000000 0.039231
v 3.607804 0.900000 0.039231
v 3.600000 0.000000 0.040000
v 3.600000 0.900000 0.040000
v 3.592196 0.000000 0.039231
v 3.592196 0.900000 0.039231
v 3.584693 0.000000 0.036955
v 3.584693 0.900000 0.036955
v 3.577777 0.000000 0.033259
v 3.577777 0.900000 0.033259
v 3.571716 0.000000 0.028284
v 3.571716 0.900000 0.028284
v 3.566741 0.000000 0.022223
v 3.566741 0.900000 0.022223
v 3.563045 0.000000 0.015307
v 3.563045 0.900000 0.015307
v 3.560769 0.000000 0.007804
v 3.560769 0.900000 0.007804
v 3.560000 0.000000 0.000000
v 3.560000 0.900000 0.000000
v 3.560769 0.000000 -0.007804
v 3.560769 0.900000 -0.007804
v 3.563045 0.000000 -0.015307
v 3.563045 0.900000 -0.015307
v 3.566741 0.000000 -0.022223
v 3.566741 0.900000 -0.022223
v 3.571716 0.000000 -0.028284
v 3.571716 0.900000 -0.028284
v 3.577777 0.000000 -0.033259
v 3.577777 0.900000 -0.033259
v 3.584693 0.000000 -0.036955
v 3.584693 0.900000 -0.036955
v 3.592196 0.000000 -0.039231
v 3.592196 0.900000 -0.039231
v 4.800000 0.000000 -0.040000
v 4.800000 0.900000 -0.040000
v 4.807804 0.000000 -0.039231
v 4.807804 0.900000 -0.039231
v 4.815308 0.000000 -0.036955
v 4.815308 0.900000 -0.036955
v 4.822223 0.000000 -0.033259
v 4.822223 0.900000 -0.033259
v 4.828284 0.000000 -0.028284
v 4.828284 0.900000 -0.028284
v 4.833259 0.000000 -0.022223
v 4.833259 0.900000 -0.022223
v 4.836956 0.000000 -0.015307
v 4.836956 0.900000 -0.015307
v 4.839231 0.000000 -0.007804
v 4.839231 0.900000 -0.007804
v 4.840000 0.000000 0.000000
v 4.840000 0.900000 0.000000
v 4.839231 0.000000 0.007804
v 4.839231 0.900000 0.007804
v 4.836956 0.000000 0.015307
v 4.836956 0.900000 0.015307
v 4.833259 0.000000 0.022223
v 4.833259 0.900000 0.022223
v 4.828284 0.000000 0.028284
v 4.828284 0.900000 0.028284
v 4.822223 0.000000 0.033259
v 4.822223 0.900000 0.033259
v 4.815308 0.000000 0.036955
v 4.815308 0.900000 0.036955
v 4.807804 0.000000 0.039231
v 4.807804 0.900000 0.039231
v 4.800000 0.000000 0.040000
v 4.800000 0.900000 0.040000
v 4.792197 0.000000 0.039231
v 4.792197 0.900000 0.039231
v 4.784693 0.000000 0.036955
v 4.784693 0.900000 0.036955
v 4.777777 0.000000 0.033259
v 4.777777 0.900000 0.033259
v 4.771716 0.000000 0.028284
v 4.771716 0.900000 0.028284
v 4.766741 0.000000 0.022223
v 4.766741 0.900000 0.022223
v 4.763045 0.000000 0.015307
v 4.763045 0.900000 0.015307
v 4.760769 0.000000 0.007804
v 4.760769 0.900000 0.007804
v 4.760000 0.000000 0.000000
v 4.760000 0.900000 0.000000
v 4.760769 0.000000 -0.007804
v 4.760769 0.900000 -0.007804
v 4.763045 0.000000 -0.015307
v 4.763045 0.900000 -0.015307
v 4.766741 0.000000 -0.022223
v 4.766741 0.900000 -0.022223
v 4.771716 0.000000 -0.028284
v 4.771716 0.900000 -0.028284
v 4.777777 0.000000 -0.033259
v 4.777777 0.900000 -0.033259
v 4.784693 0.000000 -0.036955
v 4.784693 0.900000 -0.036955
v 4.792197 0.000000 -0.039231
v 4.792197 0.900000 -0.039231
v 6.000000 0.000000 -0.040000
v 6.000000 0.900000 -0.040000
v 6.007803 0.000000 -0.039231
v 6.007803 0.900000 -0.039231
v 6.015307 0.000000 -0.036955
v 6.015307 0.900000 -0.036955
v 6.022223 0.000000 -0.033259
v 6.022223 0.900000 -0.033259
v 6.028284 0.000000 -0.028284
v 6.028284 0.900000 -0.028284
v 6.033259 0.000000 -0.022223
v 6.033259 0.900000 -0.022223
v 6.036955 0.000000 -0.015307
v 6.036955 0.900000 -0.015307
v 6.039231 0.000000 -0.007804
v 6.039231 0.900000 -0.007804
v 6.040000 0.000000 0.000000
v 6.040000 0.900000 0.000000
v 6.039231 0.000000 0.007804
v 6.039231 0.900000 0.007804
v 6.036955 0.000000 0.015307
v 6.036955 0.900000 0.015307
v 6.033259 0.000000 0.022223
v 6.033259 0.900000 0.022223
v 6.028284 0.000000 0.028284
v 6.028284 0.900000 0.028284
v 6.022223 0.000000 0.033259
v 6.022223 0.900000 0.033259
v 6.015307 0.000000 0.036955
v 6.015307 0.900000 0.036955
v 6.007803 0.000000 0.039231
v 6.007803 0.900000 0.039231
v 6.000000 0.000000 0.040000
v 6.000000 0.900000 0.040000
v 5.992197 0.000000 0.039231
v 5.992197 0.900000 0.039231
v 5.984693 0.000000 0.036955
v 5.984693 0.900000 0.036955
v 5.977777 0.000000 0.033259
v 5.977777 0.900000 0.033259
v 5.971716 0.000000 0.028284
v 5.971716 0.900000 0.028284
v 5.966741 0.000000 0.022223
v 5.966741 0.900000 0.022223
v 5.963045 0.000000 0.015307
v 5.963045 0.900000 0.015307
v 5.960769 0.000000 0.007804
v 5.960769 0.900000 0.007804
v 5.960000 0.000000 0.000000
v 5.960000 0.900000 0.000000
v 5.960769 0.000000 -0.007804
v 5.960769 0.900000 -0.007804
v 5.963045 0.000000 -0.015307
v 5.963045 0.900000 -0.015307
v 5.966741 0.000000 -0.022223
v 5.966741 0.900000 -0.022223
v 5.971716 0.000000 -0.028284
v 5.971716 0.900000 -0.028284
v 5.977777 0.000000 -0.033259
v 5.977777 0.900000 -0.033259
v 5.984693 0.000000 -0.036955
v 5.984693 0.900000 -0.036955
v 5.992197 0.000000 -0.039231
v 5.992197 0.900000 -0.039231
vn 0.0980 -0.0000 -0.9952
vn 0.2903 -0.0000 -0.9569
vn 0.4714 -0.0000 -0.8819
vn 0.6344 -0.0000 -0.7730
vn 0.7730 -0.0000 -0.6344
vn 0.8819 -0.0000 -0.4714
vn 0.9569 -0.0000 -0.2903
vn 0.9952 -0.0000 -0.0980
vn 0.9952 -0.0000 0.0980
vn 0.9569 -0.0000 0.2903
vn 0.8819 -0.0000 0.4714
vn 0.7730 -0.0000 0.6344
vn 0.6344 -0.0000 0.7730
vn 0.4714 -0.0000 0.8819
vn 0.2903 -0.0000 0.9569
vn 0.0980 -0.0000 0.9952
vn -0.0980 -0.0000 0.9952
vn -0.2903 -0.0000 0.9569
vn -0.4714 -0.0000 0.8819
vn -0.6344 -0.0000 0.7730
vn -0.7730 -0.0000 0.6344
vn -0.8819 -0.0000 0.4714
vn -0.9569 -0.0000 0.2903
vn -0.9952 -0.0000 0.0980
vn -0.9952 -0.0000 -0.0980
vn -0.9569 -0.0000 -0.2903
vn -0.8819 -0.0000 -0.4714
vn -0.7730 -0.0000 -0.6344
vn -0.6344 -0.0000 -0.7730
vn -0.4714 -0.0000 -0.8819
vn -0.0000 1.0000 -0.0000
vn -0.2903 -0.0000 -0.9569
vn -0.0980 -0.0000 -0.9952
vn -0.0000 -1.0000 -0.0000
vn 0.9570 -0.0000 -0.2902
vn 0.9570 -0.0000 0.2902
vt 1.000000 0.500000
vt 1.000000 1.000000
vt 0.968750 1.000000
vt 0.968750 0.500000
vt 0.937500 1.000000
vt 0.937500 0.500000
vt 0.906250 1.000000
vt 0.906250 0.500000
vt 0.875000 1.000000
vt 0.875000 0.500000
vt 0.843750 1.000000
vt 0.843750 0.500000
vt 0.812500 1.000000
vt 0.812500 0.500000
vt 0.781250 1.000000
vt 0.781250 0.500000
vt 0.750000 1.000000
vt 0.750000 0.500000
vt 0.718750 1.000000
vt 0.718750 0.500000
vt 0.687500 1.000000
vt 0.687500 0.500000
vt 0.656250 1.000000
vt 0.656250 0.500000
vt 0.625000 1.000000
vt 0.625000 0.500000
vt 0.593750 1.000000
vt 0.593750 0.500000
vt 0.562500 1.000000
vt 0.562500 0.500000
vt 0.531250 1.000000
vt 0.531250 0.500000
vt 0.500000 1.000000
vt 0.500000 0.500000
vt 0.468750 1.000000
vt 0.468750 0.500000
vt 0.437500 1.000000
vt 0.437500 0.500000
vt 0.406250 1.000000
vt 0.406250 0.500000
vt 0.375000 1.000000
vt 0.375000 0.500000
vt 0.343750 1.000000
vt 0.343750 0.500000
vt 0.312500 1.000000
vt 0.312500 0.500000
vt 0.281250 1.000000
vt 0.281250 0.500000
vt 0.250000 1.000000
vt 0.250000 0.500000
vt 0.218750 1.000000
vt 0.218750 0.500000
vt 0.187500 1.000000
vt 0.187500 0.500000
vt 0.156250 1.000000
vt 0.156250 0.500000
vt 0.125000 1.000000
vt 0.125000 0.500000
vt 0.093750 1.000000
vt 0.093750 0.500000
vt 0.062500 1.000000
vt 0.062500 0.500000
vt 0.296822 0.485388
vt 0.250000 0.490000
vt 0.203178 0.485388
vt 0.158156 0.471731
vt 0.116663 0.449553
vt 0.080294 0.419706
vt 0.050447 0.383337
vt 0.028269 0.341844
vt 0.014612 0.296822
vt 0.010000 0.250000
vt 0.014612 0.203178
vt 0.028269 0.158156
vt 0.050447 0.116663
vt 0.080294 0.080294
vt 0.116663 0.050447
vt 0.158156 0.028269
vt 0.203178 0.014612
vt 0.250000 0.010000
vt 0.296822 0.014612
vt 0.341844 0.028269
vt 0.383337 0.050447
vt 0.419706 0.080294
vt 0.449553 0.116663
vt 0.471731 0.158156
vt 0.485388 0.203178
vt 0.490000 0.250000
vt 0.485388 0.296822
vt 0.471731 0.341844
vt 0.449553 0.383337
vt 0.419706 0.419706
vt 0.383337 0.449553
vt 0.341844 0.471731
vt 0.031250 1.000000
vt 0.031250 0.500000
vt 0.000000 1.000000
vt 0.000000 0.500000
vt 0.750000 0.490000
vt 0.796822 0.485388
vt 0.841844 0.471731
vt 0.883337 0.449553
vt 0.919706 0.419706
vt 0.949553 0.383337
vt 0.971731 0.341844
vt 0.985388 0.296822
vt 0.990000 0.250000
vt 0.985388 0.203178
vt 0.971731 0.158156
vt 0.949553 0.116663
vt 0.919706 0.080294
vt 0.883337 0.050447
vt 0.841844 0.028269
vt 0.796822 0.014612
vt 0.750000 0.010000
vt 0.703178 0.014612
vt 0.658156 0.028269
vt 0.616663 0.050447
vt 0.580294 0.080294
vt 0.550447 0.116663
vt 0.528269 0.158156
vt 0.514612 0.203178
vt 0.510000 0.250000
vt 0.514612 0.296822
vt 0.528269 0.341844
vt 0.550447 0.383337
vt 0.580294 0.419706
vt 0.616663 0.449553
vt 0.658156 0.471731
vt 0.703178 0.485388
s 0
f 1/1/1 2/2/1 4/3/1 3/4/1
f 3/4/2 4/3/2 6/5/2 5/6/2
f 5/6/3 6/5/3 8/7/3 7/8/3
f 7/8/4 8/7/4 10/9/4 9/10/4
f 9/10/5 10/9/5 12/11/5 11/12/5
f 11/12/6 12/11/6 14/13/6 13/14/6
f 13/14/7 14/13/7 16/15/7 15/16/7
f 15/16/8 16/15/8 18/17/8 17/18/8
f 17/18/9 18/17/9 20/19/9 19/20/9
f 19/20/10 20/19/10 22/21/10 21/22/10
f 21/22/11 22/21/11 24/23/11 23/24/11
f 23/24/12 24/23/12 26/25/12 25/26/12
f 25/26/13 26/25/13 28/27/13 27/28/13
f 27/28/14 28/27/14 30/29/14 29/30/14
f 29/30/15 30/29/15 32/31/15 31/32/15
f 31/32/16 32/31/16 34/33/16 33/34/16
f 33/34/17 34/33/17 36/35/17 35/36/17
f 35/36/18 36/35/18 38/37/18 37/38/18
f 37/38/19 38/37/19 40/39/19 39/40/19
f 39/40/20 40/39/20 42/41/20 41/42/20
f 41/42/21 42/41/21 44/43/21 43/44/21
f 43/44/22 44/43/22 46/45/22 45/46/22
f 45/46/23 46/45/23 48/47/23 47/48/23
f 47/48/24 48/47/24 50/49/24 49/50/24
f 49/50/25 50/49/25 52/51/25 51/52/25
f 51/52/26 52/51/26 54/53/26 53/54/26
f 53/54/27 54/53/27 56/55/27 55/56/27
f 55/56/28 56/55/28 58/57/28 57/58/28
f 57/58/29 58/57/29 60/59/29 59/60/29
f 59/60/30 60/59/30 62/61/30 61/62/30
f 4/63/31 2/64/31 64/65/31 62/66/31 60/67/31 58/68/31 56/69/31 54/70/31 52/71/31 50/72/31 48/73/31 46/74/31 44/75/31 42/76/31 40/77/31 38/78/31 36/79/31 34/80/31 32/81/31 30/82/31 28/83/31 26/84/31 24/85/31 22/86/31 20/87/31 18/88/31 16/89/31 14/90/31 12/91/31 10/92/31 8/93/31 6/94/31
f 61/62/32 62/61/32 64/95/32 63/96/32
f 63/96/33 64/95/33 2/97/33 1/98/33
f 1/99/34 3/100/34 5/101/34 7/102/34 9/103/34 11/104/34 13/105/34 15/106/34 17/107/34 19/108/34 21/109/34 23/110/34 25/111/34 27/112/34 29/113/34 31/114/34 33/115/34 35/116/34 37/117/34 39/118/34 41/119/34 43/120/34 45/121/34 47/122/34 49/123/34 51/124/34 53/125/34 55/126/34 57/127/34 59/128/34 61/129/34 63/130/34
f 65/1/1 66/2/1 68/3/1 67/4/1
f 67/4/2 68/3/2 70/5/2 69/6/2
f 69/6/3 70/5/3 72/7/3 71/8/3
f 71/8/4 72/7/4 74/9/4 73/10/4
f 73/10/5 74/9/5 76/11/5 75/12/5
f 75/12/6 76/11/6 78/13/6 77/14/6
f 77/14/7 78/13/7 80/15/7 79/16/7
f 79/16/8 80/15/8 82/17/8 81/18/8
f 81/18/9 82/17/9 84/19/9 83/20/9
f 83/20/10 84/19/10 86/21/10 85/22/10
f 85/22/11 86/21/11 88/23/11 87/24/11
f 87/24/12 88/23/12 90/25/12 89/26/12
f 89/26/13 90/25/13 92/27/13 91/28/13
f 91/28/14 92/27/14 94/29/14 93/30/14
f 93/30/15 94/29/15 96/31/15 95/32/15
f 95/32/16 96/31/16 98/33/16 97/34/16
f 97/34/17 98/33/17 100/35/17 99/36/17
f 99/36/18 100/35/18 102/37/18 101/38/18
f 101/38/19 102/37/19 104/39/19 103/40/19
f 103/40/20 104/39/20 106/41/20 105/42/20
f 105/42/21 106/41/21 108/43/21 107/44/21
f 107/44/22 108/43/22 110/45/22 109/46/22
f 109/46/23 110/45/23 112/47/23 111/48/23
f 111/48/24 112/47/24 114/49/24 113/50/24
f 113/50/25 114/49/25 116/51/25 115/52/25
f 115/52/26 116/51/26 118/53/26 117/54/26
f 117/54/27 118/53/27 120/55/27 119/56/27
f 119/56/28 120/55/28 122/57/28 121/58/28
f 121/58/29 122/57/29 124/59/29 123/60/29
f 123/60/30 124/59/30 126/61/30 125/62/30
f 68/63/31 66/64/31 128/65/31 126/66/31 124/67/31 122/68/31 120/69/31 118/70/31 116/71/31 114/72/31 112/73/31 110/74/31 108/75/31 106/76/31 104/77/31 102/78/31 100/79/31 98/80/31 96/81/31 94/82/31 92/83/31 90/84/31 88/85/31 86/86/31 84/87/31 82/88/31 80/89/31 78/90/31 76/91/31 74/92/31 72/93/31 70/94/31
f 125/62/32 126/61/32 128/95/32 127/96/32
f 127/96/33 128/95/33 66/97/33 65/98/33
f 65/99/34 67/100/34 69/101/34 71/102/34 73/103/34 75/104/34 77/105/34 79/106/34 81/107/34 83/108/34 85/109/34 87/110/34 89/111/34 91/112/34 93/113/34 95/114/34 97/115/34 99/116/34 101/117/34 103/118/34 105/119/34 107/120/34 109/121/34 111/122/34 113/123/34 115/124/34 117/125/34 119/126/34 121/127/34 123/128/34 125/129/34 127/130/34
f 129/1/1 130/2/1 132/3/1 131/4/1
f 131/4/2 132/3/2 134/5/2 133/6/2
f 133/6/3 134/5/3 136/7/3 135/8/3
f 135/8/4 136/7/4 138/9/4 137/10/4
f 137/10/5 138/9/5 140/11/5 139/12/5
f 139/12/6 140/11/6 142/13/6 141/14/6
f 141/14/7 142/13/7 144/15/7 143/16/7
f 143/16/8 144/15/8 146/17/8 145/18/8
f 145/18/9 146/17/9 148/19/9 147/20/9
f 147/20/10 148/19/10 150/21/10 149/22/10
f 149/22/11 150/21/11 152/23/11 151/24/11
f 151/24/12 152/23/12 154/25/12 153/26/12
f 153/26/13 154/25/13 156/27/13 155/28/13
f 155/28/14 156/27/14 158/29/14 157/30/14
f 157/30/15 158/29/15 160/31/15 159/32/15
f 159/32/16 160/31/16 162/33/16 161/34/16
f 161/34/17 162/33/17 164/35/17 163/36/17
f 163/36/18 164/35/18 166/37/18 165/38/18
f 165/38/19 166/37/19 168/39/19 167/40/19
f 167/40/20 168/39/20 170/41/20 169/42/20
f 169/42/21 170/41/21 172/43/21 171/44/21
f 171/44/22 172/43/22 174/45/22 173/46/22
f 173/46/23 174/45/23 176/47/23 175/48/23
f 175/48/24 176/47/24 178/49/24 177/50/24
f 177/50/25 178/49/25 180/51/25 179/52/25
f 179/52/26 180/51/26 182/53/26 181/54/26
f 181/54/27 182/53/27 184/55/27 183/56/27
f 183/56/28 184/55/28 186/57/28 185/58/28
f 185/58/29 186/57/29 188/59/29 187/60/29
f 187/60/30 188/59/30 190/61/30 189/62/30
f 132/63/31 130/64/31 192/65/31 190/66/31 188/67/31 186/68/31 184/69/31 182/70/31 180/71/31 178/72/31 176/73/31 174/74/31 172/75/31 170/76/31 168/77/31 166/78/31 164/79/31 162/80/31 160/81/31 158/82/31 156/83/31 154/84/31 152/85/31 150/86/31 148/87/31 146/88/31 144/89/31 142/90/31 140/91/31 138/92/31 136/93/31 134/94/31
f 189/62/32 190/61/32 192/95/32 191/96/32
f 191/96/33 192/95/33 130/97/33 129/98/33
f 129/99/34 131/100/34 133/101/34 135/102/34 137/103/34 139/104/34 141/105/34 143/106/34 145/107/34 147/108/34 149/109/34 151/110/34 153/111/34 155/112/34 157/113/34 159/114/34 161/115/34 163/116/34 165/117/34 167/118/34 169/119/34 171/120/34 173/121/34 175/122/34 177/123/34 179/124/34 181/125/34 183/126/34 185/127/34 187/128/34 189/129/34 191/130/34
f 193/1/1 194/2/1 196/3/1 195/4/1
f 195/4/2 196/3/2 198/5/2 197/6/2
f 197/6/3 198/5/3 200/7/3 199/8/3
f 199/8/4 200/7/4 202/9/4 201/10/4
f 201/10/5 202/9/5 204/11/5 203/12/5
f 203/12/6 204/11/6 206/13/6 205/14/6
f 205/14/7 206/13/7 208/15/7 207/16/7
f 207/16/8 208/15/8 210/17/8 209/18/8
f 209/18/9 210/17/9 212/19/9 211/20/9
f 211/20/10 212/19/10 214/21/10 213/22/10
f 213/22/11 214/21/11 216/23/11 215/24/11
f 215/24/12 216/23/12 218/25/12 217/26/12
f 217/26/13 218/25/13 220/27/13 219/28/13
f 219/28/14 220/27/14 222/29/14 221/30/14
f 221/30/15 222/29/15 224/31/15 223/32/15
f 223/32/16 224/31/16 226/33/16 225/34/16
f 225/34/17 226/33/17 228/35/17 227/36/17
f 227/36/18 228/35/18 230/37/18 229/38/18
f 229/38/19 230/37/19 232/39/19 231/40/19
f 231/40/20 232/39/20 234/41/20 233/42/20
f 233/42/21 234/41/21 236/43/21 235/44/21
f 235/44/22 236/43/22 238/45/22 237/46/22
f 237/46/23 238/45/23 240/47/23 239/48/23
f 239/48/24 240/47/24 242/49/24 241/50/24
f 241/50/25 242/49/25 244/51/25 243/52/25
f 243/52/26 244/51/26 246/53/26 245/54/26
f 245/54/27 246/53/27 248/55/27 247/56/27
f 247/56/28 248/55/28 250/57/28 249/58/28
f 249/58/29 250/57/29 252/59/29 251/60/29
f 251/60/30 252/59/30 254/61/30 253/62/30
f 196/63/31 194/64/31 256/65/31 254/66/31 252/67/31 250/68/31 248/69/31 246/70/31 244/71/31 242/72/31 240/73/31 238/74/31 236/75/31 234/76/31 232/77/31 230/78/31 228/79/31 226/80/31 224/81/31 222/82/31 220/83/31 218/84/31 216/85/31 214/86/31 212/87/31 210/88/31 208/89/31 206/90/31 204/91/31 202/92/31 200/93/31 198/94/31
f 253/62/32 254/61/32 256/95/32 255/96/32
f 255/96/33 256/95/33 194/97/33 193/98/33
f 193/99/34 195/100/34 197/101/34 199/102/34 201/103/34 203/104/34 205/105/34 207/106/34 209/107/34 211/108/34 213/109/34 215/110/34 217/111/34 219/112/34 221/113/34 223/114/34 225/115/34 227/116/34 229/117/34 231/118/34 233/119/34 235/120/34 237/121/34 239/122/34 241/123/34 243/124/34 245/125/34 247/126/34 249/127/34 251/128/34 253/129/34 255/130/34
f 257/1/1 258/2/1 260/3/1 259/4/1
f 259/4/2 260/3/2 262/5/2 261/6/2
f 261/6/3 262/5/3 264/7/3 263/8/3
f 263/8/4 264/7/4 266/9/4 265/10/4
f 265/10/5 266/9/5 268/11/5 267/12/5
f 267/12/6 268/11/6 270/13/6 269/14/6
f 269/14/35 270/13/35 272/15/35 271/16/35
f 271/16/8 272/15/8 274/17/8 273/18/8
f 273/18/9 274/17/9 276/19/9 275/20/9
f 275/20/36 276/19/36 278/21/36 277/22/36
f 277/22/11 278/21/11 280/23/11 279/24/11
f 279/24/12 280/23/12 282/25/12 281/26/12
f 281/26/13 282/25/13 284/27/13 283/28/13
f 283/28/14 284/27/14 286/29/14 285/30/14
f 285/30/15 286/29/15 288/31/15 287/32/15
f 287/32/16 288/31/16 290/33/16 289/34/16
f 289/34/17 290/33/17 292/35/17 291/36/17
f 291/36/18 292/35/18 294/37/18 293/38/18
f 293/38/19 294/37/19 296/39/19 295/40/19
f 295/40/20 296/39/20 298/41/20 297/42/20
f 297/42/21 298/41/21 300/43/21 299/44/21
f 299/44/22 300/43/22 302/45/22 301/46/22
f 301/46/23 302/45/23 304/47/23 303/48/23
f 303/48/24 304/47/24 306/49/24 305/50/24
f 305/50/25 306/49/25 308/51/25 307/52/25
f 307/52/26 308/51/26 310/53/26 309/54/26
f 309/54/27 310/53/27 312/55/27 311/56/27
f 311/56/28 312/55/28 314/57/28 313/58/28
f 313/58/29 314/57/29 316/59/29 315/60/29
f 315/60/30 316/59/30 318/61/30 317/62/30
f 260/63/31 258/64/31 320/65/31 318/66/31 316/67/31 314/68/31 312/69/31 310/70/31 308/71/31 306/72/31 304/73/31 302/74/31 300/75/31 298/76/31 296/77/31 294/78/31 292/79/31 290/80/31 288/81/31 286/82/31 284/83/31 282/84/31 280/85/31 278/86/31 276/87/31 274/88/31 272/89/31 270/90/31 268/91/31 266/92/31 264/93/31 262/94/31
f 317/62/32 318/61/32 320/95/32 319/96/32
f 319/96/33 320/95/33 258/97/33 257/98/33
f 257/99/34 259/100/34 261/101/34 263/102/34 265/103/34 267/104/34 269/105/34 271/106/34 273/107/34 275/108/34 277/109/34 279/110/34 281/111/34 283/112/34 285/113/34 287/114/34 289/115/34 291/116/34 293/117/34 295/118/34 297/119/34 299/120/34 301/121/34 303/122/34 305/123/34 307/124/34 309/125/34 311/126/34 313/127/34 315/128/34 317/129/34 319/130/34
f 321/1/1 322/2/1 324/3/1 323/4/1
f 323/4/2 324/3/2 326/5/2 325/6/2
f 325/6/3 326/5/3 328/7/3 327/8/3
f 327/8/4 328/7/4 330/9/4 329/10/4
f 329/10/5 330/9/5 332/11/5 331/12/5
f 331/12/6 332/11/6 334/13/6 333/14/6
f 333/14/7 334/13/7 336/15/7 335/16/7
f 335/16/8 336/15/8 338/17/8 337/18/8
f 337/18/9 338/17/9 340/19/9 339/20/9
f 339/20/10 340/19/10 342/21/10 341/22/10
f 341/22/11 342/21/11 344/23/11 343/24/11
f 343/24/12 344/23/12 346/25/12 345/26/12
f 345/26/13 346/25/13 348/27/13 347/28/13
f 347/28/14 348/27/14 350/29/14 349/30/14
f 349/30/15 350/29/15 352/31/15 351/32/15
f 351/32/16 352/31/16 354/33/16 353/34/16
f 353/34/17 354/33/17 356/35/17 355/36/17
f 355/36/18 356/35/18 358/37/18 357/38/18
f 357/38/19 358/37/19 360/39/19 359/40/19
f 359/40/20 360/39/20 362/41/20 361/42/20
f 361/42/21 362/41/21 364/43/21 363/44/21
f 363/44/22 364/43/22 366/45/22 365/46/22
f 365/46/23 366/45/23 368/47/23 367/48/23
f 367/48/24 368/47/24 370/49/24 369/50/24
f 369/50/25 370/49/25 372/51/25 371/52/25
f 371/52/26 372/51/26 374/53/26 373/54/26
f 373/54/27 374/53/27 376/55/27 375/56/27
f 375/56/28 376/55/28 378/57/28 377/58/28
f 377/58/29 378/57/29 380/59/29 379/60/29
f 379/60/30 380/59/30 382/61/30 381/62/30
f 324/63/31 322/64/31 384/65/31 382/66/31 380/67/31 378/68/31 376/69/31 374/70/31 372/71/31 370/72/31 368/73/31 366/74/31 364/75/31 362/76/31 360/77/31 358/78/31 356/79/31 354/80/31 352/81/31 350/82/31 348/83/31 346/84/31 344/85/31 342/86/31 340/87/31 338/88/31 336/89/31 334/90/31 332/91/31 330/92/31 328/93/31 326/94/31
f 381/62/32 382/61/32 384/95/32 383/96/32
f 383/96/33 384/95/33 322/97/33 321/98/33
f 321/99/34 323/100/34 325/101/34 327/102/34 329/103/34 331/104/34 333/105/34 335/106/34 337/107/34 339/108/34 341/109/34 343/110/34 345/111/34 347/112/34 349/113/34 351/114/34 353/115/34 355/116/34 357/117/34 359/118/34 361/119/34 363/120/34 365/121/34 367/122/34 369/123/34 371/124/34 373/125/34 375/126/34 377/127/34 379/128/34 381/129/34 383/130/34
o baranda_vial_barra_superior
v -0.050000 0.825000 0.025000
v -0.050000 0.875000 0.025000
v -0.050000 0.825000 -0.025000
v -0.050000 0.875000 -0.025000
v 6.050000 0.825000 0.025000
v 6.050000 0.875000 0.025000
v 6.050000 0.825000 -0.025000
v 6.050000 0.875000 -0.025000
vn -1.0000 -0.0000 -0.0000
vn -0.0000 -0.0000 -1.0000
vn 1.0000 -0.0000 -0.0000
vn -0.0000 -0.0000 1.0000
vn -0.0000 -1.0000 -0.0000
vn -0.0000 1.0000 -0.0000
vt 0.375000 0.000000
vt 0.625000 0.000000
vt 0.625000 0.250000
vt 0.375000 0.250000
vt 0.625000 0.500000
vt 0.375000 0.500000
vt 0.625000 0.750000
vt 0.375000 0.750000
vt 0.625000 1.000000
vt 0.375000 1.000000
vt 0.125000 0.500000
vt 0.125000 0.750000
vt 0.875000 0.500000
vt 0.875000 0.750000
s 0
f 385/131/37 386/132/37 388/133/37 387/134/37
f 387/134/38 388/133/38 392/135/38 391/136/38
f 391/136/39 392/135/39 390/137/39 389/138/39
f 389/138/40 390/137/40 386/139/40 385/140/40
f 387/141/41 391/136/41 389/138/41 385/142/41
f 392/135/42 388/143/42 386/144/42 390/137/42
o baranda_vial_barra_media
v -0.050000 0.430000 0.020000
v -0.050000 0.470000 0.020000
v -0.050000 0.430000 -0.020000
v -0.050000 0.470000 -0.020000
v 6.050000 0.430000 0.020000
v 6.050000 0.470000 0.020000
v 6.050000 0.430000 -0.020000
v 6.050000 0.470000 -0.020000
vn -1.0000 -0.0000 -0.0000
vn -0.0000 -0.0000 -1.0000
vn 1.0000 -0.0000 -0.0000
vn -0.0000 -0.0000 1.0000
vn -0.0000 -1.0000 -0.0000
vn -0.0000 1.0000 -0.0000
vt 0.375000 0.000000
vt 0.625000 0.000000
vt 0.625000 0.250000
vt 0.375000 0.250000
vt 0.625000 0.500000
vt 0.375000 0.500000
vt 0.625000 0.750000
vt 0.375000 0.750000
vt 0.625000 1.000000
vt 0.375000 1.000000
vt 0.125000 0.500000
vt 0.125000 0.750000
vt 0.875000 0.500000
vt 0.875000 0.750000
s 0
f 393/145/43 394/146/43 396/147/43 395/148/43
f 395/148/44 396/147/44 400/149/44 399/150/44
f 399/150/45 400/149/45 398/151/45 397/152/45
f 397/152/46 398/151/46 394/153/46 393/154/46
f 395/155/47 399/150/47 397/152/47 393/156/47
f 400/149/48 396/157/48 394/158/48 398/151/48
o baranda_vial_zocalo
v -0.050000 0.000000 0.075000
v -0.050000 0.100000 0.075000
v -0.050000 0.000000 -0.075000
v -0.050000 0.100000 -0.075000
v 6.050000 0.000000 0.075000
v 6.050000 0.100000 0.075000
v 6.050000 0.000000 -0.075000
v 6.050000 0.100000 -0.075000
vn -1.0000 -0.0000 -0.0000
vn -0.0000 -0.0000 -1.0000
vn 1.0000 -0.0000 -0.0000
vn -0.0000 -0.0000 1.0000
vn -0.0000 -1.0000 -0.0000
vn -0.0000 1.0000 -0.0000
vt 0.375000 0.000000
vt 0.625000 0.000000
vt 0.625000 0.250000
vt 0.375000 0.250000
vt 0.625000 0.500000
vt 0.375000 0.500000
vt 0.625000 0.750000
vt 0.375000 0.750000
vt 0.625000 1.000000
vt 0.375000 1.000000
vt 0.125000 0.500000
vt 0.125000 0.750000
vt 0.875000 0.500000
vt 0.875000 0.750000
s 0
f 401/159/49 402/160/49 404/161/49 403/162/49
f 403/162/50 404/161/50 408/163/50 407/164/50
f 407/164/51 408/163/51 406/165/51 405/166/51
f 405/166/52 406/165/52 402/167/52 401/168/52
f 403/169/53 407/164/53 405/166/53 401/170/53
f 408/163/54 404/171/54 402/172/54 406/165/54
