# Blender 5.2.2 LTS
# www.blender.org
mtllib botella.mtl
o Botella_Agua
v 0.000000 -0.170625 -0.040000
v 0.000000 -0.010625 -0.040000
v 0.023511 -0.170625 -0.032361
v 0.023511 -0.010625 -0.032361
v 0.038042 -0.170625 -0.012361
v 0.038042 -0.010625 -0.012361
v 0.038042 -0.170625 0.012361
v 0.038042 -0.010625 0.012361
v 0.023511 -0.170625 0.032361
v 0.023511 -0.010625 0.032361
v 0.000000 -0.170625 0.040000
v 0.000000 -0.010625 0.040000
v -0.023511 -0.170625 0.032361
v -0.023511 -0.010625 0.032361
v -0.038042 -0.170625 0.012361
v -0.038042 -0.010625 0.012361
v -0.038042 -0.170625 -0.012361
v -0.038042 -0.010625 -0.012361
v -0.023511 -0.170625 -0.032361
v -0.023511 -0.010625 -0.032361
v 0.000000 -0.010625 -0.040000
v 0.000000 0.019375 -0.026000
v 0.023511 -0.010625 -0.032361
v 0.015282 0.019375 -0.021034
v 0.038042 -0.010625 -0.012361
v 0.024727 0.019375 -0.008034
v 0.038042 -0.010625 0.012361
v 0.024727 0.019375 0.008034
v 0.023511 -0.010625 0.032361
v 0.015282 0.019375 0.021034
v 0.000000 -0.010625 0.040000
v 0.000000 0.019375 0.026000
v -0.023511 -0.010625 0.032361
v -0.015282 0.019375 0.021034
v -0.038042 -0.010625 0.012361
v -0.024727 0.019375 0.008034
v -0.038042 -0.010625 -0.012361
v -0.024727 0.019375 -0.008034
v -0.023511 -0.010625 -0.032361
v -0.015282 0.019375 -0.021034
v 0.000000 0.019375 -0.028000
v 0.000000 0.044375 -0.028000
v 0.016458 0.019375 -0.022652
v 0.016458 0.044375 -0.022652
v 0.026630 0.019375 -0.008652
v 0.026630 0.044375 -0.008652
v 0.026630 0.019375 0.008652
v 0.026630 0.044375 0.008652
v 0.016458 0.019375 0.022652
v 0.016458 0.044375 0.022652
v 0.000000 0.019375 0.028000
v 0.000000 0.044375 0.028000
v -0.016458 0.019375 0.022652
v -0.016458 0.044375 0.022652
v -0.026630 0.019375 0.008652
v -0.026630 0.044375 0.008652
v -0.026630 0.019375 -0.008652
v -0.026630 0.044375 -0.008652
v -0.016458 0.019375 -0.022652
v -0.016458 0.044375 -0.022652
v 0.000000 0.044375 -0.012000
v 0.000000 0.064375 -0.012000
v 0.007053 0.044375 -0.009708
v 0.007053 0.064375 -0.009708
v 0.011413 0.044375 -0.003708
v 0.011413 0.064375 -0.003708
v 0.011413 0.044375 0.003708
v 0.011413 0.064375 0.003708
v 0.007053 0.044375 0.009708
v 0.007053 0.064375 0.009708
v 0.000000 0.044375 0.012000
v 0.000000 0.064375 0.012000
v -0.007053 0.044375 0.009708
v -0.007053 0.064375 0.009708
v -0.011413 0.044375 0.003708
v -0.011413 0.064375 0.003708
v -0.011413 0.044375 -0.003708
v -0.011413 0.064375 -0.003708
v -0.007053 0.044375 -0.009708
v -0.007053 0.064375 -0.009708
vn 0.3090 -0.0000 -0.9511
vn 0.8090 -0.0000 -0.5878
vn 1.0000 -0.0000 -0.0000
vn 0.8090 -0.0000 0.5878
vn 0.3090 -0.0000 0.9511
vn -0.3090 -0.0000 0.9511
vn -0.8090 -0.0000 0.5878
vn -1.0000 -0.0000 -0.0000
vn -0.0000 1.0000 -0.0000
vn -0.8090 -0.0000 -0.5878
vn -0.3090 -0.0000 -0.9511
vn -0.0000 -1.0000 -0.0000
vn 0.2824 0.4057 -0.8693
vn 0.7395 0.4057 -0.5372
vn 0.9140 0.4057 -0.0000
vn 0.7395 0.4057 0.5372
vn 0.2824 0.4057 0.8693
vn -0.2824 0.4057 0.8693
vn -0.7395 0.4057 0.5372
vn -0.9140 0.4057 -0.0000
vn -0.7395 0.4057 -0.5372
vn -0.2824 0.4057 -0.8693
vt 1.000000 1.000000
vt 0.900000 0.500000
vt 1.000000 0.500000
vt 0.900000 1.000000
vt 0.800000 0.500000
vt 0.800000 1.000000
vt 0.700000 0.500000
vt 0.700000 1.000000
vt 0.600000 0.500000
vt 0.600000 1.000000
vt 0.500000 0.500000
vt 0.500000 1.000000
vt 0.400000 0.500000
vt 0.400000 1.000000
vt 0.300000 0.500000
vt 0.300000 1.000000
vt 0.200000 0.500000
vt 0.021746 0.324164
vt 0.391068 0.055836
vt 0.478254 0.324164
vt 0.200000 1.000000
vt 0.100000 0.500000
vt 0.100000 1.000000
vt -0.000000 0.500000
vt 0.978254 0.175836
vt 0.521746 0.175836
vt 0.608932 0.444164
vt 0.978254 0.175836
vt 0.521746 0.175836
vt 0.391068 0.444164
vt 0.250000 0.490000
vt 0.108932 0.444164
vt 0.021746 0.175836
vt 0.108932 0.055836
vt 0.250000 0.010000
vt 0.478254 0.175836
vt -0.000000 1.000000
vt 0.750000 0.490000
vt 0.891068 0.444164
vt 0.978254 0.324164
vt 0.891068 0.055836
vt 0.750000 0.010000
vt 0.608932 0.055836
vt 0.521746 0.324164
vt 0.021746 0.175836
vt 0.250000 0.010000
vt 0.478254 0.175836
vt 0.750000 0.010000
s 0
usemtl Mat_Botella_Cuerpo
f 2/1/1 3/2/1 1/3/1
f 4/4/2 5/5/2 3/2/2
f 6/6/3 7/7/3 5/5/3
f 8/8/4 9/9/4 7/7/4
f 10/10/5 11/11/5 9/9/5
f 12/12/6 13/13/6 11/11/6
f 14/14/7 15/15/7 13/13/7
f 16/16/8 17/17/8 15/15/8
f 18/18/9 10/19/9 6/20/9
f 18/21/10 19/22/10 17/17/10
f 20/23/11 1/24/11 19/22/11
f 7/25/12 15/26/12 19/27/12
f 22/1/13 23/2/13 21/3/13
f 23/2/14 26/6/14 25/5/14
f 26/6/15 27/7/15 25/5/15
f 28/8/16 29/9/16 27/7/16
f 30/10/17 31/11/17 29/9/17
f 32/12/18 33/13/18 31/11/18
f 33/13/19 36/16/19 35/15/19
f 36/16/20 37/17/20 35/15/20
f 38/18/9 30/19/9 26/20/9
f 38/21/21 39/22/21 37/17/21
f 40/23/22 21/24/22 39/22/22
f 27/25/12 35/26/12 39/27/12
f 2/1/1 4/4/1 3/2/1
f 4/4/2 6/6/2 5/5/2
f 6/6/3 8/8/3 7/7/3
f 8/8/4 10/10/4 9/9/4
f 10/10/5 12/12/5 11/11/5
f 12/12/6 14/14/6 13/13/6
f 14/14/7 16/16/7 15/15/7
f 16/16/8 18/21/8 17/17/8
f 6/20/9 4/30/9 2/31/9
f 2/31/9 20/32/9 18/18/9
f 18/18/9 16/33/9 14/34/9
f 14/34/9 12/35/9 10/19/9
f 10/19/9 8/36/9 6/20/9
f 6/20/9 2/31/9 18/18/9
f 18/18/9 14/34/9 10/19/9
f 18/21/10 20/23/10 19/22/10
f 20/23/11 2/37/11 1/24/11
f 19/27/12 1/38/12 3/39/12
f 3/39/12 5/40/12 7/25/12
f 7/25/12 9/41/12 11/42/12
f 11/42/12 13/43/12 15/26/12
f 15/26/12 17/44/12 19/27/12
f 19/27/12 3/39/12 7/25/12
f 7/25/12 11/42/12 15/26/12
f 22/1/13 24/4/13 23/2/13
f 23/2/14 24/4/14 26/6/14
f 26/6/15 28/8/15 27/7/15
f 28/8/16 30/10/16 29/9/16
f 30/10/17 32/12/17 31/11/17
f 32/12/18 34/14/18 33/13/18
f 33/13/19 34/14/19 36/16/19
f 36/16/20 38/21/20 37/17/20
f 26/20/9 24/30/9 22/31/9
f 22/31/9 40/32/9 38/18/9
f 38/18/9 36/45/9 34/34/9
f 34/34/9 32/46/9 30/19/9
f 30/19/9 28/47/9 26/20/9
f 26/20/9 22/31/9 38/18/9
f 38/18/9 34/34/9 30/19/9
f 38/21/21 40/23/21 39/22/21
f 40/23/22 22/37/22 21/24/22
f 39/27/12 21/38/12 23/39/12
f 23/39/12 25/40/12 27/25/12
f 27/25/12 29/41/12 31/42/12
f 31/42/12 33/43/12 35/26/12
f 35/26/12 37/44/12 39/27/12
f 39/27/12 23/39/12 27/25/12
f 27/25/12 31/42/12 35/26/12
usemtl Mat_Botella_Tapa
f 42/1/1 43/2/1 41/3/1
f 44/4/2 45/5/2 43/2/2
f 46/6/3 47/7/3 45/5/3
f 48/8/4 49/9/4 47/7/4
f 50/10/5 51/11/5 49/9/5
f 52/12/6 53/13/6 51/11/6
f 54/14/7 55/15/7 53/13/7
f 56/16/8 57/17/8 55/15/8
f 58/18/9 50/19/9 46/20/9
f 58/21/10 59/22/10 57/17/10
f 60/23/11 41/24/11 59/22/11
f 47/28/12 55/29/12 59/27/12
f 62/1/1 63/2/1 61/3/1
f 64/4/2 65/5/2 63/2/2
f 66/6/3 67/7/3 65/5/3
f 68/8/4 69/9/4 67/7/4
f 70/10/5 71/11/5 69/9/5
f 72/12/6 73/13/6 71/11/6
f 74/14/7 75/15/7 73/13/7
f 76/16/8 77/17/8 75/15/8
f 78/18/9 70/19/9 66/20/9
f 78/21/10 79/22/10 77/17/10
f 80/23/11 61/24/11 79/22/11
f 67/25/12 75/26/12 79/27/12
f 42/1/1 44/4/1 43/2/1
f 44/4/2 46/6/2 45/5/2
f 46/6/3 48/8/3 47/7/3
f 48/8/4 50/10/4 49/9/4
f 50/10/5 52/12/5 51/11/5
f 52/12/6 54/14/6 53/13/6
f 54/14/7 56/16/7 55/15/7
f 56/16/8 58/21/8 57/17/8
f 46/20/9 44/30/9 42/31/9
f 42/31/9 60/32/9 58/18/9
f 58/18/9 56/45/9 54/34/9
f 54/34/9 52/35/9 50/19/9
f 50/19/9 48/47/9 46/20/9
f 46/20/9 42/31/9 58/18/9
f 58/18/9 54/34/9 50/19/9
f 58/21/10 60/23/10 59/22/10
f 60/23/11 42/37/11 41/24/11
f 59/27/12 41/38/12 43/39/12
f 43/39/12 45/40/12 47/28/12
f 47/28/12 49/41/12 51/42/12
f 51/42/12 53/43/12 55/29/12
f 55/29/12 57/44/12 59/27/12
f 59/27/12 43/39/12 47/28/12
f 47/28/12 51/42/12 55/29/12
f 62/1/1 64/4/1 63/2/1
f 64/4/2 66/6/2 65/5/2
f 66/6/3 68/8/3 67/7/3
f 68/8/4 70/10/4 69/9/4
f 70/10/5 72/12/5 71/11/5
f 72/12/6 74/14/6 73/13/6
f 74/14/7 76/16/7 75/15/7
f 76/16/8 78/21/8 77/17/8
f 66/20/9 64/30/9 62/31/9
f 62/31/9 80/32/9 78/18/9
f 78/18/9 76/33/9 74/34/9
f 74/34/9 72/46/9 70/19/9
f 70/19/9 68/36/9 66/20/9
f 66/20/9 62/31/9 78/18/9
f 78/18/9 74/34/9 70/19/9
f 78/21/10 80/23/10 79/22/10
f 80/23/11 62/37/11 61/24/11
f 79/27/12 61/38/12 63/39/12
f 63/39/12 65/40/12 67/25/12
f 67/25/12 69/41/12 71/48/12
f 71/48/12 73/43/12 75/26/12
f 75/26/12 77/44/12 79/27/12
f 79/27/12 63/39/12 67/25/12
f 67/25/12 71/48/12 75/26/12
