# Blender 5.2.2 LTS
# www.blender.org
mtllib arbusto.mtl
o Arbusto_01
v 0.000000 0.009868 0.000000
v 0.512534 0.308117 0.372373
v -0.200089 0.299301 0.615821
v -0.679858 0.278915 -0.000000
v -0.207983 0.283199 -0.640116
v 0.527465 0.296485 -0.383221
v 0.201000 0.778076 0.618624
v -0.516453 0.770455 0.375221
v -0.500879 0.758321 -0.363905
v 0.205228 0.786701 -0.631637
v 0.673176 0.792392 0.000000
v -0.000000 1.054389 -0.000000
v -0.116107 0.094406 0.357346
v 0.308959 0.081568 0.224469
v 0.188716 0.261372 0.580799
v 0.634271 0.243174 -0.000000
v 0.295798 0.115485 -0.214907
v -0.378383 0.088894 0.000000
v -0.477731 0.276948 0.347091
v -0.123374 0.045375 -0.379712
v -0.494296 0.261147 -0.359125
v 0.190733 0.256335 -0.587005
v 0.685361 0.537760 0.222684
v 0.703881 0.537760 -0.228701
v 0.000000 0.537760 0.737152
v 0.453051 0.537760 0.623571
v -0.726727 0.537760 0.236124
v -0.409846 0.537760 0.564104
v -0.431160 0.537760 -0.593441
v -0.667519 0.537760 -0.216886
v 0.428261 0.537760 -0.589450
v 0.000000 0.537760 -0.728528
v 0.504342 0.823956 0.366424
v -0.186028 0.807434 0.572525
v -0.618167 0.819917 0.000000
v -0.194462 0.828496 -0.598480
v 0.516241 0.835308 -0.375070
v 0.116659 0.984838 0.359045
v 0.370201 0.969567 -0.000000
v -0.305432 0.984860 0.221906
v -0.301395 0.974459 -0.218974
v 0.120815 1.012876 -0.371835
v 0.364288 0.078078 -0.234016
v 0.750312 0.274866 0.046444
v 0.222759 0.286934 0.201573
v -0.114456 0.273864 -0.234016
v 0.214799 0.270697 -0.694104
v 0.722042 0.296892 -0.493936
v 0.508121 0.623666 0.208664
v -0.018947 0.628862 0.044418
v -0.015071 0.625841 -0.509632
v 0.515901 0.639537 -0.700642
v 0.823412 0.619670 -0.234016
v 0.364288 0.844013 -0.234016
v 0.280660 0.134532 0.023370
v 0.597849 0.096869 -0.064326
v 0.498159 0.259534 0.177991
v 0.811726 0.248555 -0.234016
v 0.594174 0.106337 -0.401036
v 0.102075 0.152087 -0.234016
v -0.015371 0.231695 0.041822
v 0.283261 0.152084 -0.483394
v -0.006452 0.240203 -0.503373
v 0.496819 0.262881 -0.641898
v 0.841320 0.452950 -0.079021
v 0.871646 0.452950 -0.398864
v 0.364288 0.452950 0.302075
v 0.652619 0.452950 0.162838
v -0.123931 0.452950 -0.075386
v 0.030942 0.452950 0.224795
v 0.049411 0.452950 -0.667405
v -0.154849 0.452950 -0.402691
v 0.683305 0.452950 -0.673105
v 0.364288 0.452950 -0.783949
v 0.710629 0.642423 0.017615
v 0.232601 0.640909 0.171266
v -0.063973 0.642546 -0.234016
v 0.222863 0.665230 -0.669268
v 0.737832 0.668373 -0.505411
v 0.452483 0.802180 0.037425
v 0.645557 0.793542 -0.234016
v 0.150734 0.757472 -0.078862
v 0.129819 0.811372 -0.404365
v 0.450568 0.789262 -0.499563
v -0.364864 0.119020 0.086538
v -0.011220 0.322283 0.343472
v -0.497388 0.327491 0.494412
v -0.815212 0.313951 0.086538
v -0.503914 0.314180 -0.341421
v -0.009516 0.320956 -0.171635
v -0.219986 0.654792 0.532434
v -0.721976 0.637503 0.345991
v -0.717589 0.634084 -0.169729
v -0.215465 0.664014 -0.373273
v 0.083746 0.642037 0.086538
v -0.364864 0.862270 0.086538
v -0.447765 0.158216 0.341683
v -0.152776 0.170978 0.240627
v -0.232196 0.284223 0.494840
v 0.094287 0.261198 0.086538
v -0.138832 0.135043 -0.077683
v -0.630268 0.164208 0.086538
v -0.707502 0.288694 0.335478
v -0.451458 0.133294 -0.179976
v -0.731772 0.265542 -0.180035
v -0.226932 0.271077 -0.337965
v 0.133078 0.478542 0.248326
v 0.123687 0.478542 -0.072200
v -0.364864 0.478542 0.586723
v -0.060269 0.478542 0.505777
v -0.871406 0.478542 0.251121
v -0.651901 0.478542 0.481609
v -0.658148 0.478542 -0.317133
v -0.838696 0.478542 -0.067417
v -0.058791 0.478542 -0.334736
v -0.364864 0.478542 -0.421349
v -0.008620 0.681369 0.345363
v -0.496367 0.669951 0.491254
v -0.790291 0.669859 0.086538
v -0.494492 0.665268 -0.312408
v -0.032201 0.658874 -0.155156
v -0.281217 0.803909 0.343982
v -0.084922 0.823186 0.086538
v -0.584933 0.806673 0.246425
v -0.579106 0.791656 -0.069116
v -0.283949 0.785473 -0.162498
v 0.130139 0.066686 -0.413258
v 0.487559 0.273384 -0.153581
v -0.017157 0.251400 0.040082
v -0.318239 0.269235 -0.413258
v -0.007572 0.270952 -0.837098
v 0.480151 0.279156 -0.667554
v 0.273304 0.607953 0.027364
v -0.220264 0.588932 -0.158678
v -0.225062 0.592670 -0.671324
v 0.274967 0.611346 -0.859001
v 0.573757 0.595546 -0.413258
v 0.130139 0.838050 -0.413258
v 0.050361 0.132010 -0.167721
v 0.336981 0.137229 -0.262981
v 0.259061 0.247428 -0.016486
v 0.562442 0.235767 -0.413258
v 0.328694 0.158585 -0.557515
v -0.150957 0.084223 -0.413258
v -0.239194 0.217076 -0.144923
v 0.045034 0.096071 -0.675190
v -0.230937 0.224953 -0.675595
v 0.269879 0.220410 -0.843324
v 0.637123 0.433891 -0.248532
v 0.621992 0.433891 -0.573068
v 0.130139 0.433891 0.103205
v 0.434524 0.433891 0.005690
v -0.346195 0.433891 -0.258490
v -0.160560 0.433891 -0.013145
v -0.150880 0.433891 -0.800049
v -0.364282 0.433891 -0.573903
v 0.420211 0.433891 -0.812508
v 0.130139 0.433891 -0.932859
v 0.484957 0.636859 -0.155469
v -0.001165 0.626305 -0.009154
v -0.327548 0.651606 -0.413258
v 0.001086 0.620684 -0.810437
v 0.490908 0.642536 -0.675371
v 0.210196 0.737645 -0.166867
v 0.395516 0.750785 -0.413258
v -0.074116 0.723887 -0.264860
v -0.096935 0.782693 -0.578236
v 0.214166 0.764431 -0.671868
v -0.236655 0.071806 0.329127
v 0.143488 0.297531 0.605313
v -0.388754 0.283457 0.797247
v -0.700681 0.301224 0.329127
v -0.388851 0.283259 -0.139292
v 0.162623 0.282622 0.039037
v -0.085173 0.652791 0.795350
v -0.608950 0.633859 0.599611
v -0.619768 0.642287 0.050782
v -0.089557 0.643849 -0.123604
v 0.222085 0.632949 0.329127
v -0.236655 0.882124 0.329127
v -0.324705 0.125073 0.600120
v -0.013757 0.144719 0.491070
v -0.095601 0.260018 0.763239
v 0.208580 0.268678 0.329127
v -0.009647 0.134128 0.164197
v -0.514827 0.139190 0.329127
v -0.608389 0.257678 0.599206
v -0.323949 0.130176 0.060460
v -0.617049 0.249417 0.052756
v -0.090659 0.247677 -0.120194
v 0.288829 0.468752 0.499864
v 0.279889 0.468752 0.161294
v -0.236655 0.468752 0.847114
v 0.074219 0.468752 0.757008
v -0.730714 0.468752 0.489653
v -0.550003 0.468752 0.760412
v -0.549923 0.468752 -0.102049
v -0.759531 0.468752 0.159236
v 0.075613 0.468752 -0.100673
v -0.236655 0.468752 -0.213695
v 0.124523 0.669758 0.591537
v -0.381131 0.686032 0.773770
v -0.694797 0.678788 0.329127
v -0.379411 0.681736 -0.110223
v 0.120016 0.665458 0.069991
v -0.151292 0.794304 0.591851
v 0.042727 0.800840 0.329127
v -0.461210 0.797055 0.492273
v -0.465565 0.808277 0.162816
v -0.145513 0.833294 0.048616
v 0.011206 0.423464 -0.137001
v 0.328357 0.567452 0.093420
v -0.119940 0.547039 0.266631
v -0.372391 0.572763 -0.137001
v -0.117267 0.552493 -0.532405
v 0.325886 0.569377 -0.365627
v 0.131319 0.857680 0.232675
v -0.302221 0.856870 0.090714
v -0.297958 0.853548 -0.361619
v 0.137228 0.869734 -0.524866
v 0.407316 0.862349 -0.137001
v 0.011206 1.055278 -0.137001
v -0.061170 0.427563 0.085751
v 0.202112 0.423897 0.001699
v 0.121927 0.553042 0.203759
v 0.383836 0.541982 -0.137001
v 0.186724 0.463555 -0.264521
v -0.218865 0.436208 -0.137001
v -0.289883 0.542341 0.081751
v -0.061474 0.425512 -0.360688
v -0.307279 0.525745 -0.368393
v 0.122826 0.550798 -0.480528
v 0.428708 0.713612 -0.001349
v 0.439805 0.713612 -0.276260
v 0.011206 0.713612 0.299968
v 0.245724 0.713612 0.185786
v -0.422645 0.713612 0.003963
v -0.253397 0.713612 0.227192
v -0.263515 0.713612 -0.515121
v -0.365812 0.713612 -0.259500
v 0.258557 0.713612 -0.477451
v 0.011206 0.713612 -0.595965
v 0.298338 0.871570 0.071612
v -0.109447 0.898983 0.234322
v -0.338893 0.867853 -0.137001
v -0.107963 0.895276 -0.503757
v 0.321962 0.894106 -0.362778
v 0.078151 0.963031 0.069041
v 0.237021 0.982145 -0.137001
v -0.173787 0.988084 -0.002598
v -0.175610 0.992783 -0.272729
v 0.084731 1.007421 -0.363293
vn 0.0472 -0.9685 0.2444
vn 0.5900 -0.7404 0.3220
vn -0.2017 -0.9658 0.1629
vn -0.2044 -0.9786 -0.0251
vn 0.2247 -0.9607 -0.1629
vn 0.8440 -0.4088 0.3472
vn 0.0329 -0.4750 0.8794
vn -0.7379 -0.5229 0.4267
vn -0.6187 -0.4208 -0.6634
vn 0.5041 -0.4320 -0.7479
vn 0.8230 -0.3085 0.4769
vn -0.3851 -0.1409 0.9121
vn -0.9897 -0.0612 -0.1294
vn -0.2979 -0.0868 -0.9507
vn 0.7803 -0.1887 -0.5962
vn 0.3175 0.7893 0.5255
vn -0.3944 0.7588 0.5183
vn -0.5830 0.7491 -0.3147
vn 0.0252 0.7580 -0.6517
vn 0.5016 0.8578 -0.1117
vn 0.2232 0.9741 -0.0362
vn 0.4029 0.9002 -0.1654
vn 0.3374 0.7615 -0.5533
vn -0.1455 0.9769 -0.1563
vn -0.2271 0.8858 -0.4047
vn -0.5012 0.7509 -0.4300
vn -0.2392 0.9706 -0.0251
vn -0.4523 0.8915 -0.0252
vn -0.5885 0.7654 0.2604
vn -0.0686 0.9750 0.2111
vn -0.1586 0.8582 0.4883
vn -0.0154 0.7796 0.6260
vn 0.2218 0.9682 0.1155
vn 0.3700 0.9019 0.2229
vn 0.4986 0.8526 0.1563
vn 0.8648 0.3893 -0.3173
vn 0.7788 0.1984 -0.5950
vn 0.5555 0.3717 -0.7438
vn -0.0358 0.3880 -0.9210
vn -0.2916 0.2212 -0.9306
vn -0.6004 0.4777 -0.6414
vn -0.8452 0.4107 -0.3419
vn -0.9565 0.2634 -0.1250
vn -0.7897 0.5429 0.2856
vn -0.5033 0.3937 0.7692
vn -0.3732 0.2821 0.8838
vn -0.0670 0.4858 0.8715
vn 0.4928 0.5310 0.6893
vn 0.8298 0.2833 0.4808
vn 0.8587 0.3600 0.3647
vn 0.3068 0.1148 -0.9448
vn 0.2983 -0.2597 -0.9185
vn 0.0951 -0.3950 -0.9137
vn -0.8144 0.2746 -0.5112
vn -0.8203 -0.2489 -0.5149
vn -0.8496 -0.3143 -0.4235
vn -0.7002 0.2283 0.6765
vn -0.6698 -0.3641 0.6471
vn -0.6207 -0.3997 0.6745
vn 0.2345 0.2652 0.9353
vn 0.2271 -0.3574 0.9059
vn 0.4992 -0.5774 0.6461
vn 0.9957 0.0834 0.0409
vn 0.9789 -0.2001 0.0402
vn 0.8514 -0.4321 -0.2974
vn 0.3521 -0.8381 -0.4167
vn 0.3054 -0.8588 -0.4113
vn 0.0415 -0.7310 -0.6811
vn -0.4516 -0.7270 -0.5172
vn -0.4981 -0.8335 -0.2390
vn -0.5192 -0.8238 -0.2275
vn -0.5099 -0.8090 0.2924
vn -0.4327 -0.8387 0.3306
vn -0.4054 -0.7759 0.4834
vn 0.4767 -0.8427 -0.2501
vn 0.3972 -0.9140 -0.0825
vn 0.2816 -0.9560 -0.0822
vn -0.0212 -0.7868 0.6168
vn 0.1238 -0.8685 0.4800
vn 0.4396 -0.7335 0.5184
vn -0.0625 -0.9789 0.1944
vn 0.6723 -0.7088 0.2137
vn -0.2696 -0.9552 0.1219
vn -0.2665 -0.9442 -0.1936
vn -0.0722 -0.9623 -0.2621
vn 0.9227 -0.3088 0.2310
vn 0.0198 -0.5301 0.8477
vn -0.9119 -0.2980 0.2820
vn -0.5638 -0.4063 -0.7190
vn 0.5020 -0.5955 -0.6272
vn 0.7881 0.0305 0.6149
vn -0.2099 -0.3691 0.9054
vn -0.9865 -0.1347 0.0932
vn -0.3418 -0.1749 -0.9234
vn 0.7530 -0.4068 -0.5172
vn 0.4662 0.6838 0.5613
vn -0.2816 0.8311 0.4795
vn -0.7278 0.6645 -0.1694
vn 0.0066 0.8031 -0.5958
vn 0.6961 0.7121 -0.0917
vn 0.1748 0.9740 -0.1440
vn 0.3670 0.8859 -0.2838
vn 0.3289 0.8055 -0.4929
vn 0.0084 0.9799 -0.1993
vn -0.0908 0.8581 -0.5053
vn -0.4805 0.6856 -0.5470
vn -0.2587 0.9502 0.1740
vn -0.5579 0.8123 0.1703
vn -0.5383 0.8329 0.1280
vn -0.2252 0.9493 0.2195
vn -0.3075 0.8200 0.4828
vn -0.0563 0.6820 0.7292
vn 0.1758 0.9799 0.0939
vn 0.5136 0.7877 0.3402
vn 0.6784 0.6939 0.2413
vn 0.8735 0.4459 -0.1954
vn 0.8030 0.2260 -0.5515
vn 0.5723 0.4086 -0.7110
vn -0.0567 0.4451 -0.8937
vn -0.3347 0.2655 -0.9042
vn -0.5490 0.4424 -0.7091
vn -0.8162 0.5497 -0.1781
vn -0.9264 0.3662 0.0875
vn -0.8923 0.4202 0.1649
vn -0.3808 0.6071 0.6974
vn -0.2004 0.4612 0.8644
vn -0.0814 0.5303 0.8439
vn 0.6274 0.3435 0.6988
vn 0.7683 0.2242 0.5995
vn 0.8460 0.4090 0.3422
vn 0.3243 0.1532 -0.9335
vn 0.2962 -0.4306 -0.8525
vn 0.1404 -0.5280 -0.8375
vn -0.7658 0.2536 -0.5909
vn -0.7656 -0.2545 -0.5908
vn -0.8444 -0.4557 -0.2816
vn -0.8683 0.2131 0.4480
vn -0.8726 -0.1896 0.4502
vn -0.3780 -0.5417 0.7508
vn 0.4314 0.1254 0.8934
vn 0.4191 -0.2667 0.8679
vn 0.4557 -0.2982 0.8387
vn 0.9772 0.1911 0.0927
vn 0.9731 -0.2109 0.0923
vn 0.7731 -0.5198 -0.3634
vn 0.4922 -0.6254 -0.6054
vn 0.0234 -0.8339 -0.5514
vn 0.0699 -0.8594 -0.5065
vn -0.2381 -0.8774 -0.4165
vn -0.2727 -0.9415 -0.1981
vn -0.4883 -0.8683 -0.0873
vn -0.4897 -0.8708 0.0428
vn -0.3005 -0.9428 0.1442
vn -0.2176 -0.7756 0.5926
vn 0.6870 -0.6341 -0.3550
vn 0.5626 -0.8262 -0.0294
vn 0.1011 -0.9944 -0.0291
vn -0.0206 -0.7631 0.6459
vn 0.0616 -0.8168 0.5736
vn 0.3646 -0.6967 0.6177
vn 0.1054 -0.9772 0.1844
vn 0.5221 -0.7564 0.3942
vn -0.1671 -0.9812 0.0965
vn -0.1678 -0.9858 0.0017
vn 0.0258 -0.9978 -0.0618
vn 0.7787 -0.4581 0.4287
vn -0.0780 -0.4692 0.8797
vn -0.7846 -0.5514 0.2835
vn -0.4926 -0.3442 -0.7993
vn 0.6005 -0.4767 -0.6420
vn 0.7493 -0.3493 0.5627
vn -0.3318 -0.2626 0.9061
vn -0.9679 -0.2311 -0.0994
vn -0.3298 -0.1723 -0.9282
vn 0.7789 -0.3168 -0.5413
vn 0.3510 0.7864 0.5083
vn -0.4568 0.6961 0.5539
vn -0.6258 0.7283 -0.2792
vn -0.1103 0.8452 -0.5229
vn 0.7003 0.6521 -0.2905
vn 0.1338 0.9584 -0.2521
vn 0.4118 0.7929 -0.4492
vn 0.4302 0.8356 -0.3417
vn -0.0807 0.9448 -0.3176
vn -0.1383 0.8584 -0.4940
vn -0.4401 0.7250 -0.5297
vn -0.2792 0.9589 -0.0508
vn -0.5264 0.8487 -0.0501
vn -0.6683 0.6960 0.2627
vn -0.0689 0.9679 0.2418
vn -0.1610 0.8358 0.5250
vn -0.0513 0.7750 0.6299
vn 0.1361 0.9748 0.1768
vn 0.3818 0.8533 0.3550
vn 0.7229 0.6731 0.1557
vn 0.7832 0.5209 -0.3394
vn 0.7496 0.4083 -0.5210
vn 0.6847 0.4611 -0.5644
vn -0.1946 0.3900 -0.9000
vn -0.3191 0.3024 -0.8981
vn -0.5205 0.4741 -0.7102
vn -0.8382 0.4545 -0.3013
vn -0.9436 0.3167 -0.0969
vn -0.7770 0.5662 0.2752
vn -0.5364 0.3983 0.7441
vn -0.3350 0.2261 0.9147
vn -0.1161 0.3783 0.9184
vn 0.5739 0.4131 0.7071
vn 0.7717 0.2619 0.5796
vn 0.8460 0.4816 0.2287
vn 0.2722 0.0301 -0.9618
vn 0.2667 -0.2015 -0.9425
vn -0.0511 -0.4015 -0.9144
vn -0.7870 0.2385 -0.5690
vn -0.8066 -0.0966 -0.5832
vn -0.9133 -0.3400 -0.2241
vn -0.6993 0.2599 0.6659
vn -0.6899 -0.3037 0.6571
vn -0.4898 -0.4371 0.7543
vn 0.2559 0.0862 0.9629
vn 0.2472 -0.2711 0.9303
vn 0.5425 -0.5172 0.6619
vn 0.9644 0.2630 -0.0283
vn 0.9875 -0.1547 -0.0289
vn 0.8062 -0.4162 -0.4205
vn 0.5507 -0.6486 -0.5254
vn 0.1686 -0.8490 -0.5008
vn -0.0965 -0.6782 -0.7285
vn -0.3210 -0.6808 -0.6584
vn -0.4198 -0.8899 -0.1784
vn -0.6283 -0.7760 -0.0557
vn -0.6178 -0.7630 0.1899
vn -0.4350 -0.8521 0.2911
vn -0.3575 -0.6812 0.6389
vn 0.6398 -0.6512 -0.4080
vn 0.4057 -0.9061 0.1201
vn 0.1549 -0.9809 0.1175
vn -0.1127 -0.6836 0.7211
vn 0.1915 -0.8729 0.4487
vn 0.4562 -0.7511 0.4771
vn 0.1136 -0.9503 0.2897
vn 0.5308 -0.8035 0.2695
vn -0.0605 -0.9693 0.2382
vn -0.0620 -0.9939 -0.0914
vn 0.2889 -0.9365 -0.1989
vn 0.7800 -0.5469 0.3042
vn 0.1736 -0.4442 0.8790
vn -0.9161 -0.3460 0.2026
vn -0.5245 -0.2783 -0.8046
vn 0.6549 -0.3658 -0.6613
vn 0.7358 -0.3387 0.5864
vn -0.3715 -0.0212 0.9282
vn -0.9744 -0.2180 0.0559
vn -0.4212 -0.1678 -0.8913
vn 0.7309 -0.2939 -0.6160
vn 0.2877 0.8370 0.4654
vn -0.4269 0.7976 0.4262
vn -0.6534 0.6392 -0.4055
vn -0.0891 0.7565 -0.6478
vn 0.6551 0.7521 -0.0722
vn 0.3080 0.9367 -0.1666
vn 0.3902 0.8924 -0.2265
vn 0.3366 0.7795 -0.5283
vn -0.0287 0.9589 -0.2823
vn -0.1360 0.7846 -0.6049
vn -0.4647 0.6220 -0.6302
vn -0.3652 0.9098 0.1973
vn -0.3740 0.9062 0.1973
vn -0.4562 0.8003 0.3892
vn -0.1885 0.8865 0.4225
vn -0.1798 0.9009 0.3951
vn -0.0190 0.8286 0.5595
vn 0.3004 0.9134 0.2746
vn 0.3192 0.9028 0.2882
vn 0.6532 0.7499 0.1048
vn 0.8707 0.4518 -0.1942
vn 0.7545 0.1623 -0.6359
vn 0.5951 0.2908 -0.7492
vn -0.1380 0.4745 -0.8694
vn -0.4096 0.2850 -0.8666
vn -0.5184 0.3792 -0.7665
vn -0.7948 0.4414 -0.4165
vn -0.9905 0.1252 0.0568
vn -0.8149 0.3805 0.4371
vn -0.5553 0.4454 0.7023
vn -0.3570 0.2772 0.8920
vn -0.0872 0.4573 0.8850
vn 0.5569 0.4272 0.7123
vn 0.7489 0.2878 0.5969
vn 0.8258 0.5274 0.1999
vn 0.3822 0.0715 -0.9213
vn 0.3797 -0.1353 -0.9152
vn -0.1002 -0.4399 -0.8925
vn -0.7108 0.2117 -0.6708
vn -0.7212 -0.1290 -0.6806
vn -0.8673 -0.4500 -0.2127
vn -0.7719 0.2510 0.5841
vn -0.7951 -0.0773 0.6016
vn -0.5975 -0.2470 0.7629
vn 0.3011 0.1618 0.9398
vn 0.2832 -0.3717 0.8841
vn 0.4789 -0.5335 0.6971
vn 0.9446 0.3254 -0.0440
vn 0.9464 -0.3200 -0.0441
vn 0.7874 -0.5127 -0.3423
vn 0.4667 -0.8397 -0.2777
vn 0.3099 -0.9141 -0.2615
vn -0.1424 -0.6952 -0.7046
vn -0.3229 -0.6935 -0.6441
vn -0.3981 -0.8534 -0.3365
vn -0.7352 -0.6648 -0.1325
vn -0.7389 -0.6681 0.0878
vn -0.2353 -0.8996 0.3680
vn -0.2231 -0.8748 0.4301
vn 0.4572 -0.8403 -0.2913
vn 0.3554 -0.9315 -0.0775
vn 0.3718 -0.9251 -0.0775
vn 0.0940 -0.8497 0.5188
vn 0.1640 -0.8802 0.4454
vn 0.3752 -0.7962 0.4746
vn 0.1433 -0.9612 0.2355
vn 0.5926 -0.7747 0.2206
vn -0.2339 -0.9656 0.1138
vn -0.2333 -0.9632 -0.1335
vn 0.0912 -0.9666 -0.2396
vn 0.8084 -0.5345 0.2464
vn 0.0836 -0.3224 0.9429
vn -0.8887 -0.3901 0.2408
vn -0.5728 -0.3484 -0.7420
vn 0.5343 -0.3333 -0.7768
vn 0.7436 -0.2490 0.6206
vn -0.2665 -0.0404 0.9630
vn -0.9637 -0.2533 0.0841
vn -0.3340 -0.1018 -0.9371
vn 0.7852 -0.0925 -0.6123
vn 0.3686 0.8151 0.4470
vn -0.5047 0.7444 0.4372
vn -0.6120 0.7459 -0.2628
vn 0.0552 0.6805 -0.7306
vn 0.6729 0.7188 -0.1749
vn 0.2785 0.9574 -0.0762
vn 0.5305 0.8059 -0.2628
vn 0.4678 0.6662 -0.5808
vn -0.1530 0.9640 -0.2175
vn -0.2338 0.8519 -0.4686
vn -0.4499 0.7476 -0.4885
vn -0.3307 0.9430 0.0365
vn -0.4714 0.8811 0.0362
vn -0.5934 0.7421 0.3116
vn -0.1026 0.9329 0.3452
vn -0.1183 0.9118 0.3933
vn 0.0522 0.8278 0.5587
vn 0.2722 0.9357 0.2243
vn 0.3915 0.8662 0.3106
vn 0.6757 0.7218 0.1500
vn 0.8049 0.5384 -0.2495
vn 0.7430 0.3350 -0.5794
vn 0.5779 0.4565 -0.6765
vn 0.0170 0.4461 -0.8948
vn -0.3270 0.2266 -0.9175
vn -0.5525 0.4145 -0.7232
vn -0.8257 0.4861 -0.2863
vn -0.9694 0.2304 0.0845
vn -0.8509 0.4031 0.3370
vn -0.6081 0.4317 0.6662
vn -0.2638 0.1464 0.9534
vn -0.0361 0.2980 0.9539
vn 0.6224 0.3987 0.6735
vn 0.7279 0.3179 0.6075
vn 0.8021 0.5551 0.2203
vn 0.3339 0.1941 -0.9224
vn 0.3354 -0.1704 -0.9266
vn 0.0136 -0.3819 -0.9241
vn -0.7590 0.2308 -0.6089
vn -0.7644 -0.1989 -0.6133
vn -0.8621 -0.4768 -0.1715
vn -0.8081 0.2368 0.5394
vn -0.8165 -0.1904 0.5450
vn -0.5954 -0.3771 0.7094
vn 0.2782 0.0410 0.9597
vn 0.2731 -0.1941 0.9422
vn 0.5449 -0.4217 0.7248
vn 0.9348 0.3543 -0.0247
vn 0.9349 -0.3539 -0.0247
vn 0.8793 -0.4483 -0.1608
vn 0.3856 -0.8138 -0.4348
vn 0.1441 -0.9042 -0.4021
vn -0.0575 -0.8013 -0.5954
vn -0.3121 -0.8003 -0.5119
vn -0.3619 -0.9042 -0.2268
vn -0.6561 -0.7525 -0.0575
vn -0.6537 -0.7498 0.1025
vn -0.4114 -0.8785 0.2429
vn -0.3662 -0.7799 0.5076
vn 0.5905 -0.7962 -0.1318
vn 0.5056 -0.8621 0.0343
vn 0.2879 -0.9570 0.0346
vn 0.0107 -0.7778 0.6284
vn 0.2075 -0.8768 0.4338
vn 0.4253 -0.7804 0.4585
vn -0.0090 -0.9998 0.0155
vn 0.6498 -0.7224 0.2363
vn -0.0553 -0.9985 0.0004
vn -0.0553 -0.9984 0.0088
vn 0.1762 -0.9821 -0.0662
vn 0.8664 -0.4288 0.2560
vn 0.2423 -0.3702 0.8968
vn -0.8170 -0.5266 0.2349
vn -0.5554 -0.4276 -0.7132
vn 0.4808 -0.3859 -0.7873
vn 0.7145 -0.0376 0.6986
vn -0.2652 0.0158 0.9641
vn -0.9684 -0.1364 -0.2089
vn -0.2790 -0.1516 -0.9482
vn 0.7322 -0.1696 -0.6596
vn 0.3425 0.8367 0.4274
vn -0.4810 0.7695 0.4200
vn -0.6840 0.7095 -0.1698
vn 0.0242 0.7648 -0.6438
vn 0.5724 0.8136 -0.1019
vn 0.3065 0.9465 -0.1006
vn 0.4238 0.8864 -0.1862
vn 0.3659 0.7637 -0.5319
vn -0.1403 0.9585 -0.2483
vn -0.1991 0.8806 -0.4300
vn -0.5030 0.7337 -0.4569
vn -0.3293 0.9440 0.0186
vn -0.5981 0.8012 0.0180
vn -0.6554 0.7420 0.1413
vn -0.0279 0.9089 0.4160
vn -0.0076 0.9353 0.3538
vn 0.1497 0.8528 0.5004
vn 0.2929 0.9045 0.3098
vn 0.3552 0.8651 0.3541
vn 0.5562 0.7907 0.2556
vn 0.8607 0.4353 -0.2641
vn 0.7331 0.1621 -0.6605
vn 0.6185 0.2549 -0.7433
vn -0.0321 0.4356 -0.8996
vn -0.2703 0.2889 -0.9184
vn -0.5785 0.5340 -0.6166
vn -0.9307 0.3130 -0.1895
vn -0.9260 0.3203 -0.1998
vn -0.8007 0.5781 0.1568
vn -0.5967 0.4375 0.6727
vn -0.2615 0.1665 0.9507
vn 0.0704 0.3734 0.9250
vn 0.6518 0.2895 0.7009
vn 0.6908 0.2581 0.6754
vn 0.7902 0.4711 0.3920
vn 0.4313 0.0618 -0.9001
vn 0.4087 -0.3246 -0.8530
vn 0.1817 -0.4828 -0.8567
vn -0.9139 0.1762 -0.3657
vn -0.9259 -0.0737 -0.3705
vn -0.9581 -0.1612 -0.2368
vn -0.7624 0.2908 0.5780
vn -0.7537 -0.3247 0.5714
vn -0.6729 -0.3903 0.6284
vn 0.4371 0.0549 0.8977
vn 0.4260 -0.2305 0.8749
vn 0.4687 -0.2671 0.8420
vn 0.9833 0.1776 0.0397
vn 0.9588 -0.2813 0.0387
vn 0.8299 -0.4888 -0.2689
vn 0.3231 -0.8405 -0.4350
vn 0.2978 -0.8513 -0.4319
vn 0.1277 -0.7772 -0.6162
vn -0.3144 -0.8092 -0.4963
vn -0.3633 -0.9072 -0.2122
vn -0.6642 -0.7467 -0.0352
vn -0.6576 -0.7393 0.1452
vn -0.4351 -0.8574 0.2747
vn -0.4161 -0.8151 0.4032
vn 0.4818 -0.8473 -0.2236
vn 0.4511 -0.8786 -0.1570
vn 0.1132 -0.9817 -0.1528
vn 0.1708 -0.7957 0.5811
vn 0.1735 -0.7971 0.5783
vn 0.3703 -0.7091 0.6001
vt 0.181819 0.000000
vt 0.227273 0.078731
vt 0.136365 0.078731
vt 0.272728 0.157461
vt 0.318182 0.078731
vt 0.363637 0.157461
vt 0.909091 0.000000
vt 0.954545 0.078731
vt 0.863636 0.078731
vt 0.727273 0.000000
vt 0.772727 0.078731
vt 0.681818 0.078731
vt 0.545455 0.000000
vt 0.590909 0.078731
vt 0.500000 0.078731
vt 0.318182 0.236191
vt 0.090910 0.157461
vt 0.181819 0.157461
vt 0.136365 0.236191
vt 0.818182 0.157461
vt 0.909091 0.157461
vt 0.863636 0.236191
vt 0.636364 0.157461
vt 0.727273 0.157461
vt 0.681818 0.236191
vt 0.454546 0.157461
vt 0.545455 0.157461
vt 0.500000 0.236191
vt 0.227273 0.236191
vt 0.045455 0.236191
vt 0.772727 0.236191
vt 0.590909 0.236191
vt 0.409092 0.236191
vt 0.181819 0.314921
vt 0.272728 0.314921
vt 0.227273 0.393651
vt 0.000000 0.314921
vt 0.090910 0.314921
vt 0.045455 0.393651
vt 0.727273 0.314921
vt 0.818182 0.314921
vt 0.772727 0.393651
vt 0.545455 0.314921
vt 0.636364 0.314921
vt 0.590909 0.393651
vt 0.363637 0.314921
vt 0.454546 0.314921
vt 0.409092 0.393651
vt 0.500000 0.393651
vt 0.454546 0.472382
vt 0.681818 0.393651
vt 0.636364 0.472382
vt 0.863636 0.393651
vt 0.818182 0.472382
vt 0.909091 0.314921
vt 0.136365 0.393651
vt 0.090910 0.472382
vt 0.318182 0.393651
vt 0.272728 0.472382
vt 0.954545 0.236191
vt 1.000000 0.157461
vt 0.409092 0.078731
vt 0.363637 0.000000
s 0
usemtl Mat_Arbusto_Verde.001
f 1/1/1 14/2/1 13/3/1
f 2/4/2 14/5/2 16/6/2
f 1/7/3 13/8/3 18/9/3
f 1/10/4 18/11/4 20/12/4
f 1/13/5 20/14/5 17/15/5
f 2/4/6 16/6/6 23/16/6
f 3/17/7 15/18/7 25/19/7
f 4/20/8 19/21/8 27/22/8
f 5/23/9 21/24/9 29/25/9
f 6/26/10 22/27/10 31/28/10
f 2/4/11 23/16/11 26/29/11
f 3/17/12 25/19/12 28/30/12
f 4/20/13 27/22/13 30/31/13
f 5/23/14 29/25/14 32/32/14
f 6/26/15 31/28/15 24/33/15
f 7/34/16 33/35/16 38/36/16
f 8/37/17 34/38/17 40/39/17
f 9/40/18 35/41/18 41/42/18
f 10/43/19 36/44/19 42/45/19
f 11/46/20 37/47/20 39/48/20
f 39/48/21 42/49/21 12/50/21
f 39/48/22 37/47/22 42/49/22
f 37/47/23 10/43/23 42/49/23
f 42/45/24 41/51/24 12/52/24
f 42/45/25 36/44/25 41/51/25
f 36/44/26 9/40/26 41/51/26
f 41/42/27 40/53/27 12/54/27
f 41/42/28 35/41/28 40/53/28
f 35/41/29 8/55/29 40/53/29
f 40/39/30 38/56/30 12/57/30
f 40/39/31 34/38/31 38/56/31
f 34/38/32 7/34/32 38/56/32
f 38/36/33 39/58/33 12/59/33
f 38/36/34 33/35/34 39/58/34
f 33/35/35 11/46/35 39/58/35
f 24/33/36 37/47/36 11/46/36
f 24/33/37 31/28/37 37/47/37
f 31/28/38 10/43/38 37/47/38
f 32/32/39 36/44/39 10/43/39
f 32/32/40 29/25/40 36/44/40
f 29/25/41 9/40/41 36/44/41
f 30/31/42 35/41/42 9/40/42
f 30/31/43 27/22/43 35/41/43
f 27/22/44 8/55/44 35/41/44
f 28/30/45 34/38/45 8/37/45
f 28/30/46 25/19/46 34/38/46
f 25/19/47 7/34/47 34/38/47
f 26/29/48 33/35/48 7/34/48
f 26/29/49 23/16/49 33/35/49
f 23/16/50 11/46/50 33/35/50
f 31/28/51 32/32/51 10/43/51
f 31/28/52 22/27/52 32/32/52
f 22/27/53 5/23/53 32/32/53
f 29/25/54 30/31/54 9/40/54
f 29/25/55 21/24/55 30/31/55
f 21/24/56 4/20/56 30/31/56
f 27/22/57 28/60/57 8/55/57
f 27/22/58 19/21/58 28/60/58
f 19/21/59 3/61/59 28/60/59
f 25/19/60 26/29/60 7/34/60
f 25/19/61 15/18/61 26/29/61
f 15/18/62 2/4/62 26/29/62
f 23/16/63 24/33/63 11/46/63
f 23/16/64 16/6/64 24/33/64
f 16/6/65 6/26/65 24/33/65
f 17/15/66 22/27/66 6/26/66
f 17/15/67 20/14/67 22/27/67
f 20/14/68 5/23/68 22/27/68
f 20/12/69 21/24/69 5/23/69
f 20/12/70 18/11/70 21/24/70
f 18/11/71 4/20/71 21/24/71
f 18/9/72 19/21/72 4/20/72
f 18/9/73 13/8/73 19/21/73
f 13/8/74 3/61/74 19/21/74
f 16/6/75 17/62/75 6/26/75
f 16/6/76 14/5/76 17/62/76
f 14/5/77 1/63/77 17/62/77
f 13/3/78 15/18/78 3/17/78
f 13/3/79 14/2/79 15/18/79
f 14/2/80 2/4/80 15/18/80
f 43/1/81 56/2/81 55/3/81
f 44/4/82 56/5/82 58/6/82
f 43/7/83 55/8/83 60/9/83
f 43/10/84 60/11/84 62/12/84
f 43/13/85 62/14/85 59/15/85
f 44/4/86 58/6/86 65/16/86
f 45/17/87 57/18/87 67/19/87
f 46/20/88 61/21/88 69/22/88
f 47/23/89 63/24/89 71/25/89
f 48/26/90 64/27/90 73/28/90
f 44/4/91 65/16/91 68/29/91
f 45/17/92 67/19/92 70/30/92
f 46/20/93 69/22/93 72/31/93
f 47/23/94 71/25/94 74/32/94
f 48/26/95 73/28/95 66/33/95
f 49/34/96 75/35/96 80/36/96
f 50/37/97 76/38/97 82/39/97
f 51/40/98 77/41/98 83/42/98
f 52/43/99 78/44/99 84/45/99
f 53/46/100 79/47/100 81/48/100
f 81/48/101 84/49/101 54/50/101
f 81/48/102 79/47/102 84/49/102
f 79/47/103 52/43/103 84/49/103
f 84/45/104 83/51/104 54/52/104
f 84/45/105 78/44/105 83/51/105
f 78/44/106 51/40/106 83/51/106
f 83/42/107 82/53/107 54/54/107
f 83/42/108 77/41/108 82/53/108
f 77/41/109 50/55/109 82/53/109
f 82/39/110 80/56/110 54/57/110
f 82/39/111 76/38/111 80/56/111
f 76/38/112 49/34/112 80/56/112
f 80/36/113 81/58/113 54/59/113
f 80/36/114 75/35/114 81/58/114
f 75/35/115 53/46/115 81/58/115
f 66/33/116 79/47/116 53/46/116
f 66/33/117 73/28/117 79/47/117
f 73/28/118 52/43/118 79/47/118
f 74/32/119 78/44/119 52/43/119
f 74/32/120 71/25/120 78/44/120
f 71/25/121 51/40/121 78/44/121
f 72/31/122 77/41/122 51/40/122
f 72/31/123 69/22/123 77/41/123
f 69/22/124 50/55/124 77/41/124
f 70/30/125 76/38/125 50/37/125
f 70/30/126 67/19/126 76/38/126
f 67/19/127 49/34/127 76/38/127
f 68/29/128 75/35/128 49/34/128
f 68/29/129 65/16/129 75/35/129
f 65/16/130 53/46/130 75/35/130
f 73/28/131 74/32/131 52/43/131
f 73/28/132 64/27/132 74/32/132
f 64/27/133 47/23/133 74/32/133
f 71/25/134 72/31/134 51/40/134
f 71/25/135 63/24/135 72/31/135
f 63/24/136 46/20/136 72/31/136
f 69/22/137 70/60/137 50/55/137
f 69/22/138 61/21/138 70/60/138
f 61/21/139 45/61/139 70/60/139
f 67/19/140 68/29/140 49/34/140
f 67/19/141 57/18/141 68/29/141
f 57/18/142 44/4/142 68/29/142
f 65/16/143 66/33/143 53/46/143
f 65/16/144 58/6/144 66/33/144
f 58/6/145 48/26/145 66/33/145
f 59/15/146 64/27/146 48/26/146
f 59/15/147 62/14/147 64/27/147
f 62/14/148 47/23/148 64/27/148
f 62/12/149 63/24/149 47/23/149
f 62/12/150 60/11/150 63/24/150
f 60/11/151 46/20/151 63/24/151
f 60/9/152 61/21/152 46/20/152
f 60/9/153 55/8/153 61/21/153
f 55/8/154 45/61/154 61/21/154
f 58/6/155 59/62/155 48/26/155
f 58/6/156 56/5/156 59/62/156
f 56/5/157 43/63/157 59/62/157
f 55/3/158 57/18/158 45/17/158
f 55/3/159 56/2/159 57/18/159
f 56/2/160 44/4/160 57/18/160
f 85/1/161 98/2/161 97/3/161
f 86/4/162 98/5/162 100/6/162
f 85/7/163 97/8/163 102/9/163
f 85/10/164 102/11/164 104/12/164
f 85/13/165 104/14/165 101/15/165
f 86/4/166 100/6/166 107/16/166
f 87/17/167 99/18/167 109/19/167
f 88/20/168 103/21/168 111/22/168
f 89/23/169 105/24/169 113/25/169
f 90/26/170 106/27/170 115/28/170
f 86/4/171 107/16/171 110/29/171
f 87/17/172 109/19/172 112/30/172
f 88/20/173 111/22/173 114/31/173
f 89/23/174 113/25/174 116/32/174
f 90/26/175 115/28/175 108/33/175
f 91/34/176 117/35/176 122/36/176
f 92/37/177 118/38/177 124/39/177
f 93/40/178 119/41/178 125/42/178
f 94/43/179 120/44/179 126/45/179
f 95/46/180 121/47/180 123/48/180
f 123/48/181 126/49/181 96/50/181
f 123/48/182 121/47/182 126/49/182
f 121/47/183 94/43/183 126/49/183
f 126/45/184 125/51/184 96/52/184
f 126/45/185 120/44/185 125/51/185
f 120/44/186 93/40/186 125/51/186
f 125/42/187 124/53/187 96/54/187
f 125/42/188 119/41/188 124/53/188
f 119/41/189 92/55/189 124/53/189
f 124/39/190 122/56/190 96/57/190
f 124/39/191 118/38/191 122/56/191
f 118/38/192 91/34/192 122/56/192
f 122/36/193 123/58/193 96/59/193
f 122/36/194 117/35/194 123/58/194
f 117/35/195 95/46/195 123/58/195
f 108/33/196 121/47/196 95/46/196
f 108/33/197 115/28/197 121/47/197
f 115/28/198 94/43/198 121/47/198
f 116/32/199 120/44/199 94/43/199
f 116/32/200 113/25/200 120/44/200
f 113/25/201 93/40/201 120/44/201
f 114/31/202 119/41/202 93/40/202
f 114/31/203 111/22/203 119/41/203
f 111/22/204 92/55/204 119/41/204
f 112/30/205 118/38/205 92/37/205
f 112/30/206 109/19/206 118/38/206
f 109/19/207 91/34/207 118/38/207
f 110/29/208 117/35/208 91/34/208
f 110/29/209 107/16/209 117/35/209
f 107/16/210 95/46/210 117/35/210
f 115/28/211 116/32/211 94/43/211
f 115/28/212 106/27/212 116/32/212
f 106/27/213 89/23/213 116/32/213
f 113/25/214 114/31/214 93/40/214
f 113/25/215 105/24/215 114/31/215
f 105/24/216 88/20/216 114/31/216
f 111/22/217 112/60/217 92/55/217
f 111/22/218 103/21/218 112/60/218
f 103/21/219 87/61/219 112/60/219
f 109/19/220 110/29/220 91/34/220
f 109/19/221 99/18/221 110/29/221
f 99/18/222 86/4/222 110/29/222
f 107/16/223 108/33/223 95/46/223
f 107/16/224 100/6/224 108/33/224
f 100/6/225 90/26/225 108/33/225
f 101/15/226 106/27/226 90/26/226
f 101/15/227 104/14/227 106/27/227
f 104/14/228 89/23/228 106/27/228
f 104/12/229 105/24/229 89/23/229
f 104/12/230 102/11/230 105/24/230
f 102/11/231 88/20/231 105/24/231
f 102/9/232 103/21/232 88/20/232
f 102/9/233 97/8/233 103/21/233
f 97/8/234 87/61/234 103/21/234
f 100/6/235 101/62/235 90/26/235
f 100/6/236 98/5/236 101/62/236
f 98/5/237 85/63/237 101/62/237
f 97/3/238 99/18/238 87/17/238
f 97/3/239 98/2/239 99/18/239
f 98/2/240 86/4/240 99/18/240
f 127/1/241 140/2/241 139/3/241
f 128/4/242 140/5/242 142/6/242
f 127/7/243 139/8/243 144/9/243
f 127/10/244 144/11/244 146/12/244
f 127/13/245 146/14/245 143/15/245
f 128/4/246 142/6/246 149/16/246
f 129/17/247 141/18/247 151/19/247
f 130/20/248 145/21/248 153/22/248
f 131/23/249 147/24/249 155/25/249
f 132/26/250 148/27/250 157/28/250
f 128/4/251 149/16/251 152/29/251
f 129/17/252 151/19/252 154/30/252
f 130/20/253 153/22/253 156/31/253
f 131/23/254 155/25/254 158/32/254
f 132/26/255 157/28/255 150/33/255
f 133/34/256 159/35/256 164/36/256
f 134/37/257 160/38/257 166/39/257
f 135/40/258 161/41/258 167/42/258
f 136/43/259 162/44/259 168/45/259
f 137/46/260 163/47/260 165/48/260
f 165/48/261 168/49/261 138/50/261
f 165/48/262 163/47/262 168/49/262
f 163/47/263 136/43/263 168/49/263
f 168/45/264 167/51/264 138/52/264
f 168/45/265 162/44/265 167/51/265
f 162/44/266 135/40/266 167/51/266
f 167/42/267 166/53/267 138/54/267
f 167/42/268 161/41/268 166/53/268
f 161/41/269 134/55/269 166/53/269
f 166/39/270 164/56/270 138/57/270
f 166/39/271 160/38/271 164/56/271
f 160/38/272 133/34/272 164/56/272
f 164/36/273 165/58/273 138/59/273
f 164/36/274 159/35/274 165/58/274
f 159/35/275 137/46/275 165/58/275
f 150/33/276 163/47/276 137/46/276
f 150/33/277 157/28/277 163/47/277
f 157/28/278 136/43/278 163/47/278
f 158/32/279 162/44/279 136/43/279
f 158/32/280 155/25/280 162/44/280
f 155/25/281 135/40/281 162/44/281
f 156/31/282 161/41/282 135/40/282
f 156/31/283 153/22/283 161/41/283
f 153/22/284 134/55/284 161/41/284
f 154/30/285 160/38/285 134/37/285
f 154/30/286 151/19/286 160/38/286
f 151/19/287 133/34/287 160/38/287
f 152/29/288 159/35/288 133/34/288
f 152/29/289 149/16/289 159/35/289
f 149/16/290 137/46/290 159/35/290
f 157/28/291 158/32/291 136/43/291
f 157/28/292 148/27/292 158/32/292
f 148/27/293 131/23/293 158/32/293
f 155/25/294 156/31/294 135/40/294
f 155/25/295 147/24/295 156/31/295
f 147/24/296 130/20/296 156/31/296
f 153/22/297 154/60/297 134/55/297
f 153/22/298 145/21/298 154/60/298
f 145/21/299 129/61/299 154/60/299
f 151/19/300 152/29/300 133/34/300
f 151/19/301 141/18/301 152/29/301
f 141/18/302 128/4/302 152/29/302
f 149/16/303 150/33/303 137/46/303
f 149/16/304 142/6/304 150/33/304
f 142/6/305 132/26/305 150/33/305
f 143/15/306 148/27/306 132/26/306
f 143/15/307 146/14/307 148/27/307
f 146/14/308 131/23/308 148/27/308
f 146/12/309 147/24/309 131/23/309
f 146/12/310 144/11/310 147/24/310
f 144/11/311 130/20/311 147/24/311
f 144/9/312 145/21/312 130/20/312
f 144/9/313 139/8/313 145/21/313
f 139/8/314 129/61/314 145/21/314
f 142/6/315 143/62/315 132/26/315
f 142/6/316 140/5/316 143/62/316
f 140/5/317 127/63/317 143/62/317
f 139/3/318 141/18/318 129/17/318
f 139/3/319 140/2/319 141/18/319
f 140/2/320 128/4/320 141/18/320
f 169/1/321 182/2/321 181/3/321
f 170/4/322 182/5/322 184/6/322
f 169/7/323 181/8/323 186/9/323
f 169/10/324 186/11/324 188/12/324
f 169/13/325 188/14/325 185/15/325
f 170/4/326 184/6/326 191/16/326
f 171/17/327 183/18/327 193/19/327
f 172/20/328 187/21/328 195/22/328
f 173/23/329 189/24/329 197/25/329
f 174/26/330 190/27/330 199/28/330
f 170/4/331 191/16/331 194/29/331
f 171/17/332 193/19/332 196/30/332
f 172/20/333 195/22/333 198/31/333
f 173/23/334 197/25/334 200/32/334
f 174/26/335 199/28/335 192/33/335
f 175/34/336 201/35/336 206/36/336
f 176/37/337 202/38/337 208/39/337
f 177/40/338 203/41/338 209/42/338
f 178/43/339 204/44/339 210/45/339
f 179/46/340 205/47/340 207/48/340
f 207/48/341 210/49/341 180/50/341
f 207/48/342 205/47/342 210/49/342
f 205/47/343 178/43/343 210/49/343
f 210/45/344 209/51/344 180/52/344
f 210/45/345 204/44/345 209/51/345
f 204/44/346 177/40/346 209/51/346
f 209/42/347 208/53/347 180/54/347
f 209/42/348 203/41/348 208/53/348
f 203/41/349 176/55/349 208/53/349
f 208/39/350 206/56/350 180/57/350
f 208/39/351 202/38/351 206/56/351
f 202/38/352 175/34/352 206/56/352
f 206/36/353 207/58/353 180/59/353
f 206/36/354 201/35/354 207/58/354
f 201/35/355 179/46/355 207/58/355
f 192/33/356 205/47/356 179/46/356
f 192/33/357 199/28/357 205/47/357
f 199/28/358 178/43/358 205/47/358
f 200/32/359 204/44/359 178/43/359
f 200/32/360 197/25/360 204/44/360
f 197/25/361 177/40/361 204/44/361
f 198/31/362 203/41/362 177/40/362
f 198/31/363 195/22/363 203/41/363
f 195/22/364 176/55/364 203/41/364
f 196/30/365 202/38/365 176/37/365
f 196/30/366 193/19/366 202/38/366
f 193/19/367 175/34/367 202/38/367
f 194/29/368 201/35/368 175/34/368
f 194/29/369 191/16/369 201/35/369
f 191/16/370 179/46/370 201/35/370
f 199/28/371 200/32/371 178/43/371
f 199/28/372 190/27/372 200/32/372
f 190/27/373 173/23/373 200/32/373
f 197/25/374 198/31/374 177/40/374
f 197/25/375 189/24/375 198/31/375
f 189/24/376 172/20/376 198/31/376
f 195/22/377 196/60/377 176/55/377
f 195/22/378 187/21/378 196/60/378
f 187/21/379 171/61/379 196/60/379
f 193/19/380 194/29/380 175/34/380
f 193/19/381 183/18/381 194/29/381
f 183/18/382 170/4/382 194/29/382
f 191/16/383 192/33/383 179/46/383
f 191/16/384 184/6/384 192/33/384
f 184/6/385 174/26/385 192/33/385
f 185/15/386 190/27/386 174/26/386
f 185/15/387 188/14/387 190/27/387
f 188/14/388 173/23/388 190/27/388
f 188/12/389 189/24/389 173/23/389
f 188/12/390 186/11/390 189/24/390
f 186/11/391 172/20/391 189/24/391
f 186/9/392 187/21/392 172/20/392
f 186/9/393 181/8/393 187/21/393
f 181/8/394 171/61/394 187/21/394
f 184/6/395 185/62/395 174/26/395
f 184/6/396 182/5/396 185/62/396
f 182/5/397 169/63/397 185/62/397
f 181/3/398 183/18/398 171/17/398
f 181/3/399 182/2/399 183/18/399
f 182/2/400 170/4/400 183/18/400
f 211/1/401 224/2/401 223/3/401
f 212/4/402 224/5/402 226/6/402
f 211/7/403 223/8/403 228/9/403
f 211/10/404 228/11/404 230/12/404
f 211/13/405 230/14/405 227/15/405
f 212/4/406 226/6/406 233/16/406
f 213/17/407 225/18/407 235/19/407
f 214/20/408 229/21/408 237/22/408
f 215/23/409 231/24/409 239/25/409
f 216/26/410 232/27/410 241/28/410
f 212/4/411 233/16/411 236/29/411
f 213/17/412 235/19/412 238/30/412
f 214/20/413 237/22/413 240/31/413
f 215/23/414 239/25/414 242/32/414
f 216/26/415 241/28/415 234/33/415
f 217/34/416 243/35/416 248/36/416
f 218/37/417 244/38/417 250/39/417
f 219/40/418 245/41/418 251/42/418
f 220/43/419 246/44/419 252/45/419
f 221/46/420 247/47/420 249/48/420
f 249/48/421 252/49/421 222/50/421
f 249/48/422 247/47/422 252/49/422
f 247/47/423 220/43/423 252/49/423
f 252/45/424 251/51/424 222/52/424
f 252/45/425 246/44/425 251/51/425
f 246/44/426 219/40/426 251/51/426
f 251/42/427 250/53/427 222/54/427
f 251/42/428 245/41/428 250/53/428
f 245/41/429 218/55/429 250/53/429
f 250/39/430 248/56/430 222/57/430
f 250/39/431 244/38/431 248/56/431
f 244/38/432 217/34/432 248/56/432
f 248/36/433 249/58/433 222/59/433
f 248/36/434 243/35/434 249/58/434
f 243/35/435 221/46/435 249/58/435
f 234/33/436 247/47/436 221/46/436
f 234/33/437 241/28/437 247/47/437
f 241/28/438 220/43/438 247/47/438
f 242/32/439 246/44/439 220/43/439
f 242/32/440 239/25/440 246/44/440
f 239/25/441 219/40/441 246/44/441
f 240/31/442 245/41/442 219/40/442
f 240/31/443 237/22/443 245/41/443
f 237/22/444 218/55/444 245/41/444
f 238/30/445 244/38/445 218/37/445
f 238/30/446 235/19/446 244/38/446
f 235/19/447 217/34/447 244/38/447
f 236/29/448 243/35/448 217/34/448
f 236/29/449 233/16/449 243/35/449
f 233/16/450 221/46/450 243/35/450
f 241/28/451 242/32/451 220/43/451
f 241/28/452 232/27/452 242/32/452
f 232/27/453 215/23/453 242/32/453
f 239/25/454 240/31/454 219/40/454
f 239/25/455 231/24/455 240/31/455
f 231/24/456 214/20/456 240/31/456
f 237/22/457 238/60/457 218/55/457
f 237/22/458 229/21/458 238/60/458
f 229/21/459 213/61/459 238/60/459
f 235/19/460 236/29/460 217/34/460
f 235/19/461 225/18/461 236/29/461
f 225/18/462 212/4/462 236/29/462
f 233/16/463 234/33/463 221/46/463
f 233/16/464 226/6/464 234/33/464
f 226/6/465 216/26/465 234/33/465
f 227/15/466 232/27/466 216/26/466
f 227/15/467 230/14/467 232/27/467
f 230/14/468 215/23/468 232/27/468
f 230/12/469 231/24/469 215/23/469
f 230/12/470 228/11/470 231/24/470
f 228/11/471 214/20/471 231/24/471
f 228/9/472 229/21/472 214/20/472
f 228/9/473 223/8/473 229/21/473
f 223/8/474 213/61/474 229/21/474
f 226/6/475 227/62/475 216/26/475
f 226/6/476 224/5/476 227/62/476
f 224/5/477 211/63/477 227/62/477
f 223/3/478 225/18/478 213/17/478
f 223/3/479 224/2/479 225/18/479
f 224/2/480 212/4/480 225/18/480
