# Blender 5.2.2 LTS
# www.blender.org
mtllib Casa_1.mtl
o house
v -4.000000 8.546253 6.000000
v 3.560941 4.785599 5.288170
v -4.000000 8.546253 -6.000000
v 3.560941 7.485599 5.288170
v 4.000000 8.546253 6.000000
v 3.560941 4.785599 2.588170
v 4.000000 8.546253 -6.000000
v 3.560941 7.485599 2.588170
v 0.000000 11.419827 6.000000
v 0.000000 11.419827 -6.000000
v 4.146146 2.579274 1.829104
v -4.000000 2.633661 6.000000
v -4.000000 2.633661 -6.000000
v 3.560941 4.785599 -5.288170
v 4.146146 2.579274 -1.426069
v 3.560941 7.485599 -5.288170
v 4.000000 2.633661 -6.000000
v 3.560941 4.785599 -2.588170
v 4.000000 2.633661 6.000000
v 3.560941 7.485599 -2.588170
v -4.561623 1.469914 -6.842434
v -4.561623 1.469914 6.842434
v -4.561623 2.710000 -6.842434
v 4.561623 1.469914 -6.842434
v 4.561623 2.710000 -6.842434
v 4.561623 1.469914 6.842434
v 4.561623 2.710000 6.842434
v -4.561623 2.710000 6.842434
v 4.000000 7.083992 1.829104
v 4.000000 7.083992 -1.426069
v 4.000000 2.633661 1.829104
v 4.000000 2.633661 -1.426069
v 4.146146 2.653526 -1.426069
v 4.146146 2.653526 1.829104
v 4.000000 7.485599 -5.288170
v 4.000000 4.785599 -5.288170
v 4.000000 4.785599 5.288170
v 4.000000 7.485599 5.288170
v 4.000000 4.785599 2.588170
v 4.000000 7.350110 2.588170
v 4.000000 4.785599 -2.588170
v 4.000000 7.455509 -2.588170
v 4.000000 7.485599 2.588170
v 4.000000 7.485599 -2.588170
v 4.561623 2.710000 -2.280811
v 4.561623 2.710000 2.280811
v 4.561623 1.469914 -2.280811
v 4.561623 1.469914 2.280811
v 5.967086 2.710000 -2.280811
v 5.967086 2.710000 2.280811
v 5.967086 1.469914 -2.280811
v 5.967086 1.469914 2.280811
v 5.967086 2.089957 2.280811
v 5.967086 2.089957 -2.280811
v 6.971713 1.469914 -2.280811
v 6.971713 1.469914 2.280811
v 6.971713 2.089957 -2.280811
v 6.971713 2.089957 2.280811
vn -1.0000 -0.0000 -0.0000
vn -0.0000 -0.0000 -1.0000
vn 1.0000 -0.0000 -0.0000
vn -0.0000 -0.0000 1.0000
vn -0.1347 0.9909 -0.0000
vn 0.1347 0.9909 -0.0000
vn -0.0000 0.9959 0.0902
vn -0.0000 0.9959 -0.0902
vn -0.0000 1.0000 -0.0000
vn -0.0000 -1.0000 -0.0000
vt 0.413836 0.000000
vt 0.625000 0.000000
vt 0.625000 0.250000
vt 0.413836 0.250000
vt 0.625000 0.500000
vt 0.413836 0.500000
vt 0.586045 0.571080
vt 0.572776 0.595290
vt 0.413836 0.595290
vt 0.587120 0.514830
vt 0.490691 0.514830
vt 0.490691 0.571080
vt 0.625000 0.750000
vt 0.413836 0.750000
vt 0.413836 0.663106
vt 0.572776 0.663106
vt 0.582281 0.678920
vt 0.490691 0.678920
vt 0.490691 0.735170
vt 0.587120 0.735170
vt 0.587120 0.571080
vt 0.587119 0.678920
vt 0.625000 1.000000
vt 0.413836 1.000000
vt 0.413836 0.661887
vt 0.413836 0.666667
vt 0.413836 0.583333
vt 0.413836 0.596241
vt 0.375000 0.750000
vt 0.375000 1.000000
vt 0.375000 0.666667
vt 0.375000 0.250000
vt 0.375000 0.500000
vt 0.375000 0.000000
vt 0.620879 0.750000
vt 0.620879 0.500000
vt 0.612455 0.290654
vt 0.625000 0.290654
vt 0.375000 0.290654
vt 0.375000 0.959346
vt 0.625000 0.959346
vt 0.125000 0.500000
vt 0.125000 0.750000
vt 0.165654 0.750000
vt 0.165654 0.500000
vt 0.875000 0.750000
vt 0.875000 0.500000
vt 0.834346 0.500000
vt 0.834346 0.750000
vt 0.375000 0.250000
vt 0.622214 0.290654
vt 0.875000 0.750000
vt 0.375000 0.583333
vt 0.394418 0.666667
vt 0.394418 0.583333
s 0
usemtl Material.001
f 12/1/1 1/2/1 3/3/1 13/4/1
f 13/4/2 3/3/2 7/5/2 17/6/2
f 42/7/3 30/8/3 32/9/3 17/6/3 7/5/3 35/10/3 36/11/3 41/12/3
f 5/13/3 19/14/3 31/15/3 29/16/3 40/17/3 39/18/3 37/19/3 38/20/3
f 29/16/3 30/8/3 42/7/3 44/21/3 35/10/3 7/5/3 5/13/3 38/20/3 43/22/3 40/17/3
f 19/14/4 5/13/4 1/23/4 12/24/4
f 1/23/4 5/13/4 9/23/4
f 7/5/2 3/3/2 10/5/2
f 15/5/1 11/13/1 34/35/1 33/36/1
f 40/37/4 43/38/4 8/3/4 6/32/4 39/39/4
f 37/40/2 2/30/2 4/23/2 38/41/2
f 6/42/9 2/43/9 37/44/9 39/45/9
f 4/46/10 8/47/10 43/48/10 38/49/10
f 18/50/2 20/3/2 44/38/2 42/51/2 41/39/2
f 16/23/4 14/30/4 36/40/4 35/41/4
f 36/44/9 14/43/9 18/42/9 41/45/9
f 20/47/10 16/52/10 35/49/10 44/48/10
usemtl escaleras.001
f 46/26/4 48/31/4 52/31/4 53/54/4 50/26/4
f 53/54/4 52/31/4 56/31/4 58/54/4
f 45/27/9 46/26/9 50/26/9 49/27/9
f 47/53/2 45/27/2 49/27/2 54/55/2 51/53/2
f 55/53/3 57/55/3 58/54/3 56/31/3
f 53/54/3 54/55/3 49/27/3 50/26/3
f 54/55/9 53/54/9 58/54/9 57/55/9
f 51/53/2 54/55/2 57/55/2 55/53/2
usemtl bajo
f 34/25/5 31/15/5 19/14/5 27/14/5 46/26/5 45/27/5 25/6/5 17/6/5 32/9/5 33/28/5
f 12/1/6 13/4/6 23/4/6 28/1/6
f 26/29/4 27/14/4 28/24/4 22/30/4
f 48/31/3 46/26/3 27/14/3 26/29/3
f 21/32/2 23/4/2 25/6/2 24/33/2
f 22/34/1 28/1/1 23/4/1 21/32/1
f 13/4/7 17/6/7 25/6/7 23/4/7
f 19/14/8 12/24/8 28/24/8 27/14/8
f 24/33/3 25/6/3 45/27/3 47/53/3
o Techo
v -4.000000 8.546253 7.000000
v -4.000000 8.546253 -7.000000
v 4.000000 8.546253 7.000000
v 4.000000 8.546253 -7.000000
v 0.000000 11.419827 7.000000
v 0.000000 11.419827 -7.000000
v -4.253820 8.816761 7.000000
v -4.253820 8.816761 -7.000000
v 4.253820 8.816761 -7.000000
v 4.253820 8.816761 7.000000
v 0.595072 11.445183 7.000000
v -0.595072 11.445183 7.000000
v 0.000000 11.420002 7.000000
v 0.322051 11.576237 7.000000
v -0.000000 11.622256 7.000000
v -0.322051 11.576237 7.000000
v -0.595072 11.445183 -7.000000
v 0.595072 11.445183 -7.000000
v 0.000000 11.420002 -7.000000
v -0.322051 11.576237 -7.000000
v 0.000000 11.622256 -7.000000
v 0.322051 11.576237 -7.000000
v -4.618305 8.102067 7.000000
v -4.618305 8.102067 -7.000000
v 4.618305 8.102067 -7.000000
v 4.618305 8.102067 7.000000
v -4.872125 8.372575 7.000000
v -4.872125 8.372575 -7.000000
v 4.872125 8.372575 -7.000000
v 4.872125 8.372575 7.000000
vn -0.5834 -0.8122 -0.0000
vn 0.5834 -0.8122 -0.0000
vn -0.0000 -0.0000 1.0000
vn -0.0000 -0.0000 -1.0000
vn 0.4327 0.9015 -0.0000
vn 0.1415 0.9899 -0.0000
vn -0.1415 0.9899 -0.0000
vn -0.4327 0.9015 -0.0000
vn -0.5834 0.8122 -0.0000
vn 0.5834 0.8122 -0.0000
vn 0.7292 -0.6843 -0.0000
vn -0.7292 -0.6843 -0.0000
vt 0.625000 0.750000
vt 0.625000 0.500000
vt 0.625000 0.250000
vt 0.625000 0.000000
vt 0.625000 0.000000
s 0
usemtl techo_
f 61/56/11 63/56/11 64/57/11 62/57/11
f 60/58/12 64/58/12 63/59/12 59/59/12
f 61/56/11 62/57/11 83/57/11 84/56/11
f 59/59/13 65/59/13 85/59/13 81/59/13
f 69/59/13 72/60/13 71/59/13
f 72/60/13 73/59/13 71/59/13
f 73/59/13 74/59/13 71/59/13
f 74/59/13 70/59/13 71/59/13
f 75/58/14 78/58/14 77/58/14
f 78/58/14 79/58/14 77/58/14
f 79/58/14 80/58/14 77/58/14
f 80/58/14 76/58/14 77/58/14
f 69/56/15 76/57/15 80/57/15 72/56/15
f 72/56/16 80/57/16 79/57/16 73/56/16
f 73/59/17 79/58/17 78/58/17 74/59/17
f 74/59/18 78/58/18 75/58/18 70/59/18
f 66/58/19 65/59/19 70/59/19 75/58/19
f 68/56/20 67/57/20 76/57/20 69/56/20
f 59/59/13 63/59/13 71/59/13 70/59/13 65/59/13
f 63/56/13 61/56/13 68/56/13 69/56/13 71/56/13
f 62/57/14 64/57/14 77/57/14 76/57/14 67/57/14
f 64/58/14 60/58/14 66/58/14 75/58/14 77/58/14
f 84/56/21 83/57/21 87/57/21 88/56/21
f 82/58/22 81/59/22 85/59/22 86/58/22
f 68/56/13 61/56/13 84/56/13 88/56/13
f 67/57/20 68/56/20 88/56/20 87/57/20
f 62/57/14 67/57/14 87/57/14 83/57/14
f 60/58/12 59/59/12 81/59/12 82/58/12
f 66/58/14 60/58/14 82/58/14 86/58/14
f 65/59/19 66/58/19 86/58/19 85/59/19
o chimenea
v 1.036217 6.130898 -3.687095
v 1.036217 12.130898 -3.687095
v 1.036217 6.130898 -4.687095
v 1.036217 12.130898 -4.687095
v 2.036217 6.130898 -3.687095
v 2.036217 12.130898 -3.687095
v 2.036217 6.130898 -4.687095
v 2.036217 12.130898 -4.687095
v 0.333694 12.130898 -2.984572
v 0.333694 12.130898 -5.389618
v 2.738740 12.130898 -5.389618
v 2.738740 12.130898 -2.984572
v 0.814502 13.059655 -3.465380
v 0.814502 13.059655 -4.908810
v 2.257932 13.059655 -4.908810
v 2.257932 13.059655 -3.465380
v 0.333694 13.059655 -2.984572
v 0.333694 13.059655 -5.389618
v 2.738740 13.059655 -5.389618
v 2.738740 13.059655 -2.984572
v 0.333694 13.059655 -2.984572
v 0.333694 13.059655 -5.389618
v 2.738740 13.059655 -5.389618
v 2.738740 13.059655 -2.984572
v 0.814502 12.592637 -3.465380
v 0.814502 12.592637 -4.908810
v 2.257932 12.592637 -4.908810
v 2.257932 12.592637 -3.465380
vn -1.0000 -0.0000 -0.0000
vn -0.0000 -0.0000 -1.0000
vn 1.0000 -0.0000 -0.0000
vn -0.0000 -0.0000 1.0000
vn -0.0000 -1.0000 -0.0000
vn -0.0000 1.0000 -0.0000
vt 0.375000 0.000000
vt 0.625000 0.000000
vt 0.625000 0.250000
vt 0.375000 0.250000
vt 0.625000 0.500000
vt 0.375000 0.500000
vt 0.625000 0.750000
vt 0.375000 0.750000
vt 0.625000 1.000000
vt 0.375000 1.000000
vt 0.674979 0.700021
vt 0.674979 0.549979
vt 0.875000 0.750000
vt 0.875000 0.500000
vt 0.825021 0.700021
vt 0.825021 0.549979
s 0
usemtl chimenea__
f 89/61/23 90/62/23 92/63/23 91/64/23
f 91/64/24 92/63/24 96/65/24 95/66/24
f 95/66/25 96/65/25 94/67/25 93/68/25
f 93/68/26 94/67/26 90/69/26 89/70/26
f 94/67/27 96/65/27 99/65/27 100/67/27
f 97/69/26 100/67/26 108/67/26 105/69/26
f 92/63/27 90/62/27 97/62/27 98/63/27
f 90/69/27 94/67/27 100/67/27 97/69/27
f 96/65/27 92/63/27 98/63/27 99/65/27
f 104/71/23 103/72/23 115/72/23 116/71/23
f 99/65/24 98/63/24 106/63/24 107/65/24
f 100/67/25 99/65/25 107/65/25 108/67/25
f 98/63/23 97/62/23 105/62/23 106/63/23
f 109/73/28 110/74/28 106/74/28 105/73/28
f 110/74/28 111/65/28 107/65/28 106/74/28
f 111/65/28 112/67/28 108/67/28 107/65/28
f 112/67/28 109/73/28 105/73/28 108/67/28
f 101/75/28 102/76/28 110/74/28 109/73/28
f 102/76/28 103/72/28 111/65/28 110/74/28
f 103/72/28 104/71/28 112/67/28 111/65/28
f 104/71/28 101/75/28 109/73/28 112/67/28
f 115/72/28 114/76/28 113/75/28 116/71/28
f 102/76/25 101/75/25 113/75/25 114/76/25
f 101/75/24 104/71/24 116/71/24 113/75/24
f 103/72/26 102/76/26 114/76/26 115/72/26
o Door
v 4.146146 7.184985 1.829104
v 4.146146 2.680268 1.829104
v 4.146146 7.184985 -1.426069
v 4.146146 2.680268 -1.426069
v 4.146146 3.011846 -1.014457
v 4.146146 6.853407 -1.014457
v 4.146146 6.853407 1.417492
v 4.146146 3.011846 1.417492
v 4.146146 2.680268 -1.426069
v 4.146146 7.184985 -1.426069
v 4.146146 7.184985 1.829104
v 4.146146 2.680268 1.829104
v 3.879248 3.011846 -1.014457
v 3.879248 6.853407 -1.014457
v 3.879248 6.853407 1.417492
v 3.879248 3.011846 1.417492
vn -0.0000 1.0000 -0.0000
vn 1.0000 -0.0000 -0.0000
vn -0.0000 -0.0000 1.0000
vn -0.0000 -0.0000 -1.0000
vn -0.0000 -1.0000 -0.0000
vt 0.606598 0.718388
vt 0.606598 0.531612
vt 0.000000 0.000000
vt 0.375000 0.750000
vt 0.375000 0.500000
vt 0.625000 0.500000
vt 0.625000 0.750000
vt 0.393402 0.531612
vt 0.393402 0.718388
s 0
usemtl Marco
f 124/77/29 121/78/29 129/78/29 132/77/29
f 126/79/29 125/79/29 120/79/29 119/79/29
f 127/80/29 126/81/29 119/81/29 117/80/29
f 125/82/29 128/83/29 118/83/29 120/82/29
f 128/79/29 127/79/29 117/79/29 118/79/29
f 122/84/30 121/78/30 125/82/30 126/81/30
f 123/85/30 122/84/30 126/81/30 127/80/30
f 121/78/30 124/77/30 128/83/30 125/82/30
f 124/77/30 123/85/30 127/80/30 128/83/30
f 121/78/31 122/84/31 130/84/31 129/78/31
f 123/85/32 124/77/32 132/77/32 131/85/32
f 122/84/33 123/85/33 131/85/33 130/84/33
usemtl puerta.001
f 130/84/30 131/85/30 132/77/30 129/78/30
o Cylinder
v 4.043405 4.911419 0.989139
v 3.809271 4.910916 0.949134
v 4.047749 4.817054 0.956602
v 3.813325 4.822833 0.918763
v 4.059648 4.773539 0.867456
v 3.824432 4.782214 0.835551
v 4.072133 4.806364 0.773921
v 3.836087 4.812854 0.748242
v 4.077891 4.896301 0.730788
v 3.841461 4.896804 0.707980
v 4.073548 4.990666 0.763325
v 3.837407 4.984888 0.738351
v 4.061648 5.034181 0.852471
v 3.826299 5.025506 0.821563
v 4.049163 5.001356 0.946006
v 3.814645 4.994866 0.908872
v 4.132502 4.913699 1.040687
v 4.138155 4.790873 0.998337
v 4.153643 4.734232 0.882303
v 4.169894 4.776958 0.760556
v 4.177389 4.894021 0.704414
v 4.171735 5.016848 0.746764
v 4.156247 5.073488 0.862798
v 4.139996 5.030762 0.984545
v 4.232349 4.909877 0.987530
v 4.235806 4.834768 0.961633
v 4.245277 4.800133 0.890678
v 4.255215 4.826260 0.816230
v 4.259797 4.897843 0.781899
v 4.256341 4.972952 0.807796
v 4.246869 5.007587 0.878751
v 4.236931 4.981461 0.953199
v 4.272754 4.906938 0.941811
v 4.274522 4.868515 0.928563
v 4.279367 4.850796 0.892264
v 4.284451 4.864161 0.854178
v 4.286796 4.900782 0.836615
v 4.285027 4.939206 0.849864
v 4.280182 4.956924 0.886162
v 4.275098 4.943559 0.924248
vn -0.1584 -0.3284 0.9312
vn -0.0911 -0.8997 0.4270
vn 0.0099 -0.9439 -0.3299
vn 0.0855 -0.4353 -0.8962
vn 0.0914 0.3284 -0.9401
vn 0.0241 0.8997 -0.4359
vn 0.5842 -0.7871 -0.1982
vn -0.0769 0.9439 0.3210
vn -0.1525 0.4353 0.8873
vn -0.4078 -0.8408 0.3560
vn -0.2373 0.3069 -0.9217
vn -0.4653 0.4068 0.7862
vn -0.4707 -0.3069 0.8272
vn -0.3134 -0.8822 -0.3514
vn -0.3002 0.8408 -0.4505
vn -0.2428 -0.4068 -0.8807
vn -0.3946 0.8822 0.2569
vn 0.7769 0.5545 0.2983
vn 0.4438 -0.2738 0.8533
vn 0.4487 0.3629 0.8167
vn 0.5960 0.7501 -0.2866
vn 0.6472 -0.3629 -0.6704
vn 0.4999 -0.7501 0.4329
vn 0.5117 0.7871 0.3445
vn 0.6521 0.2738 -0.7070
vn 0.9912 -0.0000 0.1323
vn 0.8758 0.1929 -0.4425
vn 0.8279 -0.5545 -0.0841
vn 0.7291 -0.1929 0.6567
vn 0.7325 0.2557 0.6309
vn 0.8362 0.5285 -0.1463
vn 0.8723 -0.2557 -0.4167
vn 0.7686 -0.5285 0.3606
vt 1.000000 0.500000
vt 1.000000 1.000000
vt 0.875000 1.000000
vt 0.875000 0.500000
vt 0.750000 1.000000
vt 0.750000 0.500000
vt 0.625000 1.000000
vt 0.625000 0.500000
vt 0.500000 1.000000
vt 0.500000 0.500000
vt 0.375000 1.000000
vt 0.375000 0.500000
vt 0.250000 1.000000
vt 0.250000 0.500000
vt 0.125000 1.000000
vt 0.125000 0.500000
vt 0.000000 1.000000
vt 0.000000 0.500000
vt 0.750000 0.490000
vt 0.919706 0.419706
vt 0.990000 0.250000
vt 0.919706 0.080294
vt 0.750000 0.010000
vt 0.580294 0.080294
vt 0.510000 0.250000
vt 0.580294 0.419706
s 0
usemtl perilla.001
f 133/86/34 134/87/34 136/88/34 135/89/34
f 135/89/35 136/88/35 138/90/35 137/91/35
f 137/91/36 138/90/36 140/92/36 139/93/36
f 139/93/37 140/92/37 142/94/37 141/95/37
f 141/95/38 142/94/38 144/96/38 143/97/38
f 143/97/39 144/96/39 146/98/39 145/99/39
f 151/91/40 152/93/40 160/93/40 159/91/40
f 145/99/41 146/98/41 148/100/41 147/101/41
f 147/101/42 148/100/42 134/102/42 133/103/42
f 135/89/43 137/91/43 151/91/43 150/89/43
f 141/95/44 143/97/44 154/97/44 153/95/44
f 147/101/45 133/103/45 149/103/45 156/101/45
f 133/86/46 135/89/46 150/89/46 149/86/46
f 137/91/47 139/93/47 152/93/47 151/91/47
f 143/97/48 145/99/48 155/99/48 154/97/48
f 139/93/49 141/95/49 153/95/49 152/93/49
f 145/99/50 147/101/50 156/101/50 155/99/50
f 163/99/51 164/101/51 172/101/51 171/99/51
f 149/86/52 150/89/52 158/89/52 157/86/52
f 156/101/53 149/103/53 157/103/53 164/101/53
f 154/97/54 155/99/54 163/99/54 162/97/54
f 152/93/55 153/95/55 161/95/55 160/93/55
f 150/89/56 151/91/56 159/91/56 158/89/56
f 155/99/57 156/101/57 164/101/57 163/99/57
f 153/95/58 154/97/58 162/97/58 161/95/58
f 165/104/59 166/105/59 167/106/59 168/107/59 169/108/59 170/109/59 171/110/59 172/111/59
f 161/95/60 162/97/60 170/97/60 169/95/60
f 159/91/61 160/93/61 168/93/61 167/91/61
f 157/86/62 158/89/62 166/89/62 165/86/62
f 164/101/63 157/103/63 165/103/63 172/101/63
f 162/97/64 163/99/64 171/99/64 170/97/64
f 160/93/65 161/95/65 169/95/65 168/93/65
f 158/89/66 159/91/66 167/91/66 166/89/66
o ventana
v 3.560941 4.785599 5.288170
v 3.560941 7.485599 5.288170
v 3.560941 4.785599 2.588170
v 3.560941 7.485599 2.588170
v 3.560941 4.965849 5.107920
v 3.560941 7.305349 5.107920
v 3.560941 4.965849 2.768420
v 3.560941 7.305349 2.768420
v 3.560941 4.965849 4.016153
v 3.560941 4.965849 3.860186
v 3.560941 7.305349 4.016153
v 3.560941 7.305349 3.860186
v 3.560941 4.785599 4.028170
v 3.560941 4.785599 3.848170
v 3.560941 7.485599 4.028170
v 3.560941 7.485599 3.848170
v 3.560941 6.072043 5.107920
v 3.560941 6.199156 5.107920
v 3.560941 6.072043 2.768420
v 3.560941 6.199156 2.768420
v 3.560941 6.062249 5.288170
v 3.560941 6.208949 5.288170
v 3.560941 6.062249 2.588170
v 3.560941 6.208949 2.588170
v 3.560941 6.072043 4.016153
v 3.560941 6.199156 4.016153
v 3.560941 6.072043 3.860186
v 3.560941 6.199156 3.860186
v 3.752764 6.199156 5.107920
v 3.752764 7.305349 5.107920
v 3.752764 4.965849 3.860186
v 3.752764 4.965849 2.768420
v 3.752764 6.199156 2.768420
v 3.752764 7.305349 2.768420
v 3.752764 7.305349 3.860186
v 3.752764 6.208949 5.288170
v 3.752764 7.485599 5.288170
v 3.752764 4.785599 3.848170
v 3.752764 4.785599 2.588170
v 3.752764 6.208949 2.588170
v 3.752764 7.485599 2.588170
v 3.752764 7.485599 3.848170
v 3.752764 4.785599 5.288170
v 3.752764 4.965849 5.107920
v 3.752764 4.965849 4.016153
v 3.752764 7.305349 4.016153
v 3.752764 4.785599 4.028170
v 3.752764 7.485599 4.028170
v 3.752764 6.199156 4.016153
v 3.752764 6.199156 3.860186
v 3.752764 6.072043 5.107920
v 3.752764 6.072043 2.768420
v 3.752764 6.062249 5.288170
v 3.752764 6.062249 2.588170
v 3.752764 6.072043 4.016153
v 3.752764 6.072043 3.860186
v 3.560941 4.785599 -5.288170
v 3.560941 7.485599 -5.288170
v 3.560941 4.785599 -2.588170
v 3.560941 7.485599 -2.588170
v 3.560941 4.965849 -5.107920
v 3.560941 7.305349 -5.107920
v 3.560941 4.965849 -2.768420
v 3.560941 7.305349 -2.768420
v 3.560941 4.965849 -4.016153
v 3.560941 4.965849 -3.860186
v 3.560941 7.305349 -4.016153
v 3.560941 7.305349 -3.860186
v 3.560941 4.785599 -4.028170
v 3.560941 4.785599 -3.848170
v 3.560941 7.485599 -4.028170
v 3.560941 7.485599 -3.848170
v 3.560941 6.072043 -5.107920
v 3.560941 6.199156 -5.107920
v 3.560941 6.072043 -2.768420
v 3.560941 6.199156 -2.768420
v 3.560941 6.062249 -5.288170
v 3.560941 6.208949 -5.288170
v 3.560941 6.062249 -2.588170
v 3.560941 6.208949 -2.588170
v 3.560941 6.072043 -4.016153
v 3.560941 6.199156 -4.016153
v 3.560941 6.072043 -3.860186
v 3.560941 6.199156 -3.860186
v 3.752764 6.199156 -5.107920
v 3.752764 7.305349 -5.107920
v 3.752764 4.965849 -3.860186
v 3.752764 4.965849 -2.768420
v 3.752764 6.199156 -2.768420
v 3.752764 7.305349 -2.768420
v 3.752764 7.305349 -3.860186
v 3.752764 6.208949 -5.288170
v 3.752764 7.485599 -5.288170
v 3.752764 4.785599 -3.848170
v 3.752764 4.785599 -2.588170
v 3.752764 6.208949 -2.588170
v 3.752764 7.485599 -2.588170
v 3.752764 7.485599 -3.848170
v 3.752764 4.785599 -5.288170
v 3.752764 4.965849 -5.107920
v 3.752764 4.965849 -4.016153
v 3.752764 7.305349 -4.016153
v 3.752764 4.785599 -4.028170
v 3.752764 7.485599 -4.028170
v 3.752764 6.199156 -4.016153
v 3.752764 6.199156 -3.860186
v 3.752764 6.072043 -5.107920
v 3.752764 6.072043 -2.768420
v 3.752764 6.062249 -5.288170
v 3.752764 6.062249 -2.588170
v 3.752764 6.072043 -4.016153
v 3.752764 6.072043 -3.860186
vn 1.0000 -0.0000 -0.0000
vn -0.0000 1.0000 -0.0000
vn -0.0000 -1.0000 -0.0000
vn -0.0000 -0.0000 -1.0000
vn -0.0000 -0.0000 1.0000
vt 0.536103 0.161103
vt 0.536103 0.233310
vt 0.608310 0.233310
vt 0.608310 0.161103
vt 0.463897 0.088897
vt 0.463897 0.161103
vt 0.536103 0.088897
vt 0.463897 0.233310
vt 0.536103 0.016690
vt 0.608310 0.016690
vt 0.625000 0.000000
vt 0.541667 0.000000
vt 0.458333 0.000000
vt 0.375000 0.000000
vt 0.391690 0.016690
vt 0.463897 0.016690
vt 0.608310 0.088897
vt 0.391690 0.233310
vt 0.375000 0.250000
vt 0.458333 0.250000
vt 0.541667 0.250000
vt 0.625000 0.250000
vt 0.391690 0.088897
vt 0.391690 0.161103
vt 0.375000 0.083333
vt 0.375000 0.166667
vt 0.625000 0.166667
vt 0.625000 0.083333
vt 0.000000 0.000000
s 0
usemtl marco.001
f 227/116/67 228/117/67 222/112/67 221/118/67
f 228/117/67 224/119/67 205/113/67 222/112/67
f 201/120/67 202/121/67 209/122/67 208/123/67 225/124/67 215/125/67 216/126/67 223/127/67
f 221/118/67 222/112/67 207/115/67 218/128/67
f 224/119/67 204/129/67 211/130/67 226/131/67 212/132/67 213/133/67 206/114/67 205/113/67
f 217/134/67 203/135/67 228/117/67 227/116/67
f 198/118/68 190/120/68 201/120/68 221/118/68
f 217/134/67 216/126/67 215/125/67 219/136/67 210/137/67 211/130/67 204/129/67 203/135/67
f 178/121/69 183/128/69 218/128/69 202/121/69
f 190/120/70 178/121/70 202/121/70 201/120/70
f 189/127/69 197/116/69 227/116/69 223/127/69
f 177/126/70 189/127/70 223/127/70 216/126/70
f 181/134/68 177/126/68 216/126/68 217/134/68
f 207/115/67 206/114/67 213/133/67 214/138/67 220/139/67 209/122/67 202/121/67 218/128/67
f 200/112/70 184/115/70 207/115/70 222/112/70
f 223/127/67 227/116/67 221/118/67 201/120/67
f 183/128/71 198/118/71 221/118/71 218/128/71
f 182/135/70 199/117/70 228/117/70 203/135/70
f 179/129/68 182/135/68 203/135/68 204/129/68
f 191/119/71 179/129/71 204/129/71 224/119/71
f 180/114/71 192/113/71 205/113/71 206/114/71
f 173/140/69 185/140/69 219/140/69 215/140/69
f 184/115/69 180/114/69 206/114/69 207/115/69
f 193/140/71 173/140/71 215/140/71 225/140/71
f 185/140/69 186/140/69 210/140/69 219/140/69
f 174/140/71 194/140/71 208/140/71 209/140/71
f 194/140/71 193/140/71 225/140/71 208/140/71
f 187/140/68 174/140/68 209/140/68 220/140/68
f 186/140/69 175/140/69 211/140/69 210/140/69
f 175/140/70 195/140/70 226/140/70 211/140/70
f 188/140/68 187/140/68 220/140/68 214/140/68
f 199/117/69 191/119/69 224/119/69 228/117/69
f 196/140/70 176/140/70 213/140/70 212/140/70
f 195/140/70 196/140/70 212/140/70 226/140/70
f 192/113/68 200/112/68 222/112/68 205/113/68
f 176/140/68 188/140/68 214/140/68 213/140/68
f 197/116/71 181/134/71 217/134/71 227/116/71
f 283/116/67 277/118/67 278/112/67 284/117/67
f 284/117/67 278/112/67 261/113/67 280/119/67
f 257/120/67 279/127/67 272/126/67 271/125/67 281/124/67 264/123/67 265/122/67 258/121/67
f 277/118/67 274/128/67 263/115/67 278/112/67
f 280/119/67 261/113/67 262/114/67 269/133/67 268/132/67 282/131/67 267/130/67 260/129/67
f 273/134/67 283/116/67 284/117/67 259/135/67
f 254/118/68 277/118/68 257/120/68 246/120/68
f 273/134/67 259/135/67 260/129/67 267/130/67 266/137/67 275/136/67 271/125/67 272/126/67
f 234/121/69 258/121/69 274/128/69 239/128/69
f 246/120/71 257/120/71 258/121/71 234/121/71
f 245/127/69 279/127/69 283/116/69 253/116/69
f 233/126/71 272/126/71 279/127/71 245/127/71
f 237/134/68 273/134/68 272/126/68 233/126/68
f 263/115/67 274/128/67 258/121/67 265/122/67 276/139/67 270/138/67 269/133/67 262/114/67
f 256/112/71 278/112/71 263/115/71 240/115/71
f 279/127/67 257/120/67 277/118/67 283/116/67
f 239/128/70 274/128/70 277/118/70 254/118/70
f 238/135/71 259/135/71 284/117/71 255/117/71
f 235/129/68 260/129/68 259/135/68 238/135/68
f 247/119/70 280/119/70 260/129/70 235/129/70
f 236/114/70 262/114/70 261/113/70 248/113/70
f 229/140/69 271/140/69 275/140/69 241/140/69
f 240/115/69 263/115/69 262/114/69 236/114/69
f 249/140/70 281/140/70 271/140/70 229/140/70
f 241/140/69 275/140/69 266/140/69 242/140/69
f 230/140/70 265/140/70 264/140/70 250/140/70
f 250/140/70 264/140/70 281/140/70 249/140/70
f 243/140/68 276/140/68 265/140/68 230/140/68
f 242/140/69 266/140/69 267/140/69 231/140/69
f 231/140/71 267/140/71 282/140/71 251/140/71
f 244/140/68 270/140/68 276/140/68 243/140/68
f 255/117/69 284/117/69 280/119/69 247/119/69
f 252/140/71 268/140/71 269/140/71 232/140/71
f 251/140/71 282/140/71 268/140/71 252/140/71
f 248/113/68 261/113/68 278/112/68 256/112/68
f 232/140/68 269/140/68 270/140/68 244/140/68
f 253/116/70 283/116/70 273/134/70 237/134/70
usemtl glass
f 200/112/67 192/113/67 180/114/67 184/115/67
f 190/120/67 198/118/67 183/128/67 178/121/67
f 177/126/67 181/134/67 197/116/67 189/127/67
f 182/135/67 179/129/67 191/119/67 199/117/67
f 256/112/67 240/115/67 236/114/67 248/113/67
f 246/120/67 234/121/67 239/128/67 254/118/67
f 233/126/67 245/127/67 253/116/67 237/134/67
f 238/135/67 255/117/67 247/119/67 235/129/67
