# Blender 5.2.2 LTS
# www.blender.org
mtllib edificio-02.mtl
o edificio_02
v -3.000000 0.000000 2.500000
v -3.000000 12.000000 2.500000
v -3.000000 0.000000 -2.500000
v -2.000000 3.750000 1.750000
v -3.000000 12.000000 -2.500000
v -2.000000 5.250000 1.750000
v 3.000000 0.000000 2.500000
v 3.000000 12.000000 2.500000
v 3.000000 0.000000 -2.500000
v -1.000000 3.750000 1.750000
v 3.000000 12.000000 -2.500000
v -1.000000 5.250000 1.750000
v -2.000000 3.750000 -1.750000
v -2.000000 5.250000 -1.750000
v -1.000000 3.750000 -1.750000
v -1.000000 5.250000 -1.750000
v -0.500000 3.750000 1.750000
v -0.500000 5.250000 1.750000
v 0.500000 3.750000 1.750000
v 0.500000 5.250000 1.750000
v -0.500000 3.750000 -1.750000
v -0.500000 5.250000 -1.750000
v 0.500000 3.750000 -1.750000
v 0.500000 5.250000 -1.750000
v 1.000000 3.750000 1.750000
v 1.000000 5.250000 1.750000
v 2.000000 3.750000 1.750000
v 2.000000 5.250000 1.750000
v 1.000000 3.750000 -1.750000
v 1.000000 5.250000 -1.750000
v 2.000000 3.750000 -1.750000
v 2.000000 5.250000 -1.750000
v -2.000000 6.750000 1.750000
v -2.000000 8.250000 1.750000
v -1.000000 6.750000 1.750000
v -1.000000 8.250000 1.750000
v -2.000000 6.750000 -1.750000
v -2.000000 8.250000 -1.750000
v -1.000000 6.750000 -1.750000
v -1.000000 8.250000 -1.750000
v -0.500000 6.750000 1.750000
v -0.500000 8.250000 1.750000
v 0.500000 6.750000 1.750000
v 0.500000 8.250000 1.750000
v -0.500000 6.750000 -1.750000
v -0.500000 8.250000 -1.750000
v 0.500000 6.750000 -1.750000
v 0.500000 8.250000 -1.750000
v 1.000000 6.750000 1.750000
v 1.000000 8.250000 1.750000
v 2.000000 6.750000 1.750000
v 2.000000 8.250000 1.750000
v 1.000000 6.750000 -1.750000
v 1.000000 8.250000 -1.750000
v 2.000000 6.750000 -1.750000
v 2.000000 8.250000 -1.750000
v -2.000000 9.750000 1.750000
v -2.000000 11.250000 1.750000
v -1.000000 9.750000 1.750000
v -1.000000 11.250000 1.750000
v -2.000000 9.750000 -1.750000
v -2.000000 11.250000 -1.750000
v -1.000000 9.750000 -1.750000
v -1.000000 11.250000 -1.750000
v -0.500000 9.750000 1.750000
v -0.500000 11.250000 1.750000
v 0.500000 9.750000 1.750000
v 0.500000 11.250000 1.750000
v -0.500000 9.750000 -1.750000
v -0.500000 11.250000 -1.750000
v 0.500000 9.750000 -1.750000
v 0.500000 11.250000 -1.750000
v 1.000000 9.750000 1.750000
v 1.000000 11.250000 1.750000
v 2.000000 9.750000 1.750000
v 2.000000 11.250000 1.750000
v 1.000000 9.750000 -1.750000
v 1.000000 11.250000 -1.750000
v 2.000000 9.750000 -1.750000
v 2.000000 11.250000 -1.750000
v -0.540000 0.000000 1.750000
v -0.540000 2.250000 1.750000
v 0.540000 0.000000 1.750000
v 0.540000 2.250000 1.750000
v -2.000000 3.750000 -2.500000
v -2.000000 5.250000 -2.500000
v -2.000000 6.750000 -2.500000
v -2.000000 9.750000 -2.500000
v -2.000000 8.250000 -2.500000
v -1.500000 8.250000 -2.500000
v -1.500000 5.250000 -2.500000
v -1.500000 6.750000 -2.500000
v -2.000000 11.250000 -2.500000
v -1.000000 5.250000 -2.500000
v -0.500000 5.250000 -2.500000
v -1.000000 6.750000 -2.500000
v -0.500000 6.750000 -2.500000
v -1.000000 8.250000 -2.500000
v -1.000000 9.750000 -2.500000
v -1.500000 9.750000 -2.500000
v -1.000000 11.250000 -2.500000
v 0.500000 8.250000 -2.500000
v 0.000000 8.250000 -2.500000
v 0.000000 9.750000 -2.500000
v 0.500000 9.750000 -2.500000
v -0.500000 8.250000 -2.500000
v -0.500000 9.750000 -2.500000
v -0.500000 11.250000 -2.500000
v 1.000000 9.750000 -2.500000
v 1.000000 10.500000 -2.500000
v 0.500000 10.500000 -2.500000
v 0.500000 11.250000 -2.500000
v 1.000000 11.250000 -2.500000
v 2.000000 11.250000 -2.500000
v 1.000000 8.250000 -2.500000
v -1.000000 3.750000 -2.500000
v -0.500000 3.750000 -2.500000
v 0.500000 4.500000 -2.500000
v 0.500000 5.250000 -2.500000
v 0.500000 3.750000 -2.500000
v 1.000000 3.750000 -2.500000
v 1.000000 4.500000 -2.500000
v 1.000000 5.250000 -2.500000
v 0.500000 6.750000 -2.500000
v 1.000000 6.750000 -2.500000
v 2.000000 9.750000 -2.500000
v 2.000000 8.250000 -2.500000
v 2.000000 3.750000 -2.500000
v 2.000000 5.250000 -2.500000
v 2.000000 6.750000 -2.500000
v -2.000000 11.250000 2.500000
v -1.000000 8.250000 2.500000
v -1.000000 9.750000 2.500000
v -1.000000 11.250000 2.500000
v -0.500000 9.750000 2.500000
v -0.500000 8.250000 2.500000
v 0.500000 5.250000 2.500000
v 0.500000 6.750000 2.500000
v 0.500000 8.250000 2.500000
v -0.500000 11.250000 2.500000
v 1.000000 5.250000 2.500000
v 1.000000 6.750000 2.500000
v 1.000000 8.250000 2.500000
v 1.000000 9.750000 2.500000
v 0.500000 9.750000 2.500000
v 0.500000 11.250000 2.500000
v 1.000000 11.250000 2.500000
v 2.000000 11.250000 2.500000
v 2.000000 6.750000 2.500000
v 2.000000 8.250000 2.500000
v 2.000000 9.750000 2.500000
v 2.000000 3.750000 2.500000
v 2.000000 5.250000 2.500000
v 1.500000 8.250000 2.500000
v 1.500000 9.750000 2.500000
v -2.000000 3.750000 2.500000
v -2.000000 5.250000 2.500000
v -2.000000 9.750000 2.500000
v -2.000000 8.250000 2.500000
v -2.000000 6.750000 2.500000
v -1.000000 3.750000 2.500000
v -1.000000 4.500000 2.500000
v -1.000000 5.250000 2.500000
v -1.000000 6.750000 2.500000
v -0.500000 6.750000 2.500000
v -0.540000 2.250000 2.500000
v -0.500000 3.750000 2.500000
v -0.500000 4.500000 2.500000
v -0.500000 5.250000 2.500000
v 0.540000 2.250000 2.500000
v 1.000000 3.750000 2.500000
v 0.540000 0.000000 2.500000
v 0.500000 3.750000 2.500000
v -0.540000 0.000000 2.500000
vn -1.0000 -0.0000 -0.0000
vn -0.0000 -0.0000 -1.0000
vn 1.0000 -0.0000 -0.0000
vn -0.0000 -0.0000 1.0000
vn -0.0000 -1.0000 -0.0000
vn -0.0000 1.0000 -0.0000
vt 0.375000 0.000000
vt 0.625000 0.000000
vt 0.625000 0.250000
vt 0.375000 0.250000
vt 0.578125 0.395833
vt 0.593750 0.395833
vt 0.593750 0.416667
vt 0.578125 0.416667
vt 0.578125 0.458333
vt 0.609375 0.458333
vt 0.625000 0.500000
vt 0.375000 0.500000
vt 0.609375 0.291667
vt 0.578125 0.291667
vt 0.578125 0.312500
vt 0.546875 0.312500
vt 0.546875 0.291667
vt 0.515625 0.291667
vt 0.515625 0.312500
vt 0.484375 0.312500
vt 0.484375 0.291667
vt 0.453125 0.291667
vt 0.453125 0.333333
vt 0.484375 0.333333
vt 0.484375 0.354167
vt 0.453125 0.354167
vt 0.453125 0.395833
vt 0.468750 0.395833
vt 0.468750 0.416667
vt 0.453125 0.416667
vt 0.453125 0.458333
vt 0.484375 0.458333
vt 0.484375 0.416667
vt 0.515625 0.416667
vt 0.515625 0.458333
vt 0.546875 0.458333
vt 0.546875 0.416667
vt 0.546875 0.395833
vt 0.546875 0.375000
vt 0.578125 0.375000
vt 0.484375 0.395833
vt 0.515625 0.333333
vt 0.546875 0.333333
vt 0.578125 0.333333
vt 0.609375 0.333333
vt 0.609375 0.416667
vt 0.609375 0.395833
vt 0.609375 0.354167
vt 0.578125 0.354167
vt 0.546875 0.354167
vt 0.515625 0.354167
vt 0.515625 0.395833
vt 0.625000 0.750000
vt 0.375000 0.750000
vt 0.609375 0.895833
vt 0.609375 0.916667
vt 0.578125 0.916667
vt 0.578125 0.958333
vt 0.546875 0.958333
vt 0.546875 0.916667
vt 0.515625 0.916667
vt 0.484375 0.916667
vt 0.468750 0.916667
vt 0.468750 0.895833
vt 0.484375 0.895833
vt 0.515625 0.895833
vt 0.546875 0.895833
vt 0.546875 0.854167
vt 0.515625 0.854167
vt 0.515625 0.833333
vt 0.546875 0.833333
vt 0.546875 0.812500
vt 0.578125 0.812500
vt 0.578125 0.833333
vt 0.578125 0.854167
vt 0.578125 0.895833
vt 0.609375 0.791667
vt 0.625000 1.000000
vt 0.609375 0.958333
vt 0.609375 0.854167
vt 0.609375 0.833333
vt 0.453125 0.833333
vt 0.484375 0.833333
vt 0.484375 0.854167
vt 0.453125 0.854167
vt 0.453125 0.895833
vt 0.453125 0.916667
vt 0.453125 0.958333
vt 0.484375 0.958333
vt 0.515625 0.958333
vt 0.375000 1.000000
vt 0.375000 0.897500
vt 0.421875 0.897500
vt 0.421875 0.852500
vt 0.375000 0.852500
vt 0.578125 0.791667
vt 0.546875 0.791667
vt 0.515625 0.791667
vt 0.484375 0.791667
vt 0.453125 0.791667
vt 0.227500 0.750000
vt 0.125000 0.750000
vt 0.125000 0.500000
vt 0.272500 0.750000
vt 0.272500 0.712500
vt 0.227500 0.712500
vt 0.875000 0.500000
vt 0.875000 0.750000
vt 0.625000 0.125000
vt 0.375000 0.125000
vt 0.375000 0.625000
vt 0.500000 0.625000
vt 0.625000 0.625000
vt 0.125000 0.625000
vt 0.875000 0.625000
vt 0.750000 0.625000
vt 0.500000 0.125000
vt 0.250000 0.625000
s 0
usemtl 
f 1/1/1 2/2/1 5/3/1 3/4/1
f 105/5/2 111/6/2 110/7/2 109/8/2 126/9/2 114/10/2 11/11/2 9/12/2 3/4/2 5/3/2 93/13/2 88/14/2 100/15/2 90/16/2 89/17/2 87/18/2 92/19/2 91/20/2 86/21/2 85/22/2 116/23/2 94/24/2 95/25/2 117/26/2 120/27/2 118/28/2 122/29/2 121/30/2 128/31/2 129/32/2 123/33/2 125/34/2 130/35/2 127/36/2 115/37/2 102/38/2 103/39/2 104/40/2
f 119/41/2 95/25/2 94/24/2 91/20/2 92/19/2 96/42/2 98/43/2 90/16/2 100/15/2 99/44/2 101/45/2 93/13/2 5/3/2 11/11/2 114/10/2 113/46/2 110/7/2 111/6/2 112/47/2 108/48/2 107/49/2 104/40/2 103/39/2 106/50/2 97/51/2 124/52/2 102/38/2 115/37/2 125/34/2 123/33/2 122/29/2 118/28/2
f 9/12/3 11/11/3 8/53/3 7/54/3
f 140/55/4 134/56/4 133/57/4 158/58/4 159/59/4 132/60/4 164/61/4 163/62/4 162/63/4 168/64/4 169/65/4 165/66/4 136/67/4 139/68/4 138/69/4 142/70/4 143/71/4 154/72/4 155/73/4 144/74/4 145/75/4 135/76/4
f 148/77/4 8/53/4 2/78/4 131/79/4 134/56/4 140/55/4 146/80/4 145/75/4 144/74/4 147/81/4
f 171/82/4 141/83/4 137/84/4 173/85/4
f 167/86/4 168/64/4 162/63/4 161/87/4 156/88/4 157/89/4 163/62/4 164/61/4 160/90/4 159/59/4 158/58/4 131/79/4 2/78/4 1/91/4 174/92/4 166/93/4 170/94/4 172/95/4 7/54/4 8/53/4 148/77/4 151/96/4 155/73/4 154/72/4 150/97/4 149/98/4 142/70/4 138/69/4 165/66/4 169/65/4 137/84/4 141/83/4 153/99/4 152/100/4 171/82/4 173/85/4
f 174/101/5 1/102/5 3/103/5 9/12/5 7/54/5 172/104/5 83/105/5 81/106/5
f 11/11/6 5/107/6 2/108/6 8/53/6
f 4/4/3 6/3/3 157/109/3 156/110/3
f 4/4/4 10/12/4 12/11/4 6/3/4
f 12/11/1 10/12/1 161/111/1 162/112/1 163/113/1
f 161/111/6 10/12/6 4/103/6 156/114/6
f 157/115/5 6/107/5 12/11/5 163/113/5
f 86/109/3 14/2/3 13/1/3 85/110/3
f 15/54/1 16/53/1 94/113/1 116/111/1
f 15/54/2 13/91/2 14/78/2 16/53/2
f 85/114/6 13/102/6 15/54/6 116/111/6
f 16/53/5 14/108/5 86/115/5 91/116/5 94/113/5
f 17/4/3 18/3/3 169/109/3 168/117/3 167/110/3
f 17/4/4 19/12/4 20/11/4 18/3/4
f 20/11/1 19/12/1 173/111/1 137/113/1
f 173/111/6 19/12/6 17/103/6 167/114/6
f 169/115/5 18/107/5 20/11/5 137/113/5
f 95/109/3 22/2/3 21/1/3 117/110/3
f 120/111/1 23/54/1 24/53/1 119/113/1 118/112/1
f 23/54/2 21/91/2 22/78/2 24/53/2
f 117/114/6 21/102/6 23/54/6 120/111/6
f 24/53/5 22/108/5 95/115/5 119/113/5
f 171/110/3 25/4/3 26/3/3 141/109/3
f 25/4/4 27/12/4 28/11/4 26/3/4
f 28/11/1 27/12/1 152/111/1 153/113/1
f 152/111/6 27/12/6 25/103/6 171/114/6
f 141/115/5 26/107/5 28/11/5 153/113/5
f 122/117/3 123/109/3 30/2/3 29/1/3 121/110/3
f 128/111/1 31/54/1 32/53/1 129/113/1
f 31/54/2 29/91/2 30/78/2 32/53/2
f 121/114/6 29/102/6 31/54/6 128/111/6
f 32/53/5 30/108/5 123/115/5 129/113/5
f 33/4/3 34/3/3 159/109/3 160/110/3
f 33/4/4 35/12/4 36/11/4 34/3/4
f 36/11/1 35/12/1 164/111/1 132/113/1
f 164/111/6 35/12/6 33/103/6 160/114/6
f 159/115/5 34/107/5 36/11/5 132/113/5
f 89/109/3 38/2/3 37/1/3 87/110/3
f 96/111/1 39/54/1 40/53/1 98/113/1
f 39/54/2 37/91/2 38/78/2 40/53/2
f 87/114/6 37/102/6 39/54/6 96/111/6 92/118/6
f 40/53/5 38/108/5 89/115/5 90/116/5 98/113/5
f 165/110/3 41/4/3 42/3/3 136/109/3
f 41/4/4 43/12/4 44/11/4 42/3/4
f 44/11/1 43/12/1 138/111/1 139/113/1
f 138/111/6 43/12/6 41/103/6 165/114/6
f 136/115/5 42/107/5 44/11/5 139/113/5
f 106/109/3 46/2/3 45/1/3 97/110/3
f 47/54/1 48/53/1 102/113/1 124/111/1
f 47/54/2 45/91/2 46/78/2 48/53/2
f 97/114/6 45/102/6 47/54/6 124/111/6
f 48/53/5 46/108/5 106/115/5 103/116/5 102/113/5
f 49/4/3 50/3/3 143/109/3 142/110/3
f 49/4/4 51/12/4 52/11/4 50/3/4
f 52/11/1 51/12/1 149/111/1 150/113/1
f 149/111/6 51/12/6 49/103/6 142/114/6
f 154/116/5 143/115/5 50/107/5 52/11/5 150/113/5
f 115/109/3 54/2/3 53/1/3 125/110/3
f 130/111/1 55/54/1 56/53/1 127/113/1
f 55/54/2 53/91/2 54/78/2 56/53/2
f 125/114/6 53/102/6 55/54/6 130/111/6
f 56/53/5 54/108/5 115/115/5 127/113/5
f 158/110/3 57/4/3 58/3/3 131/109/3
f 57/4/4 59/12/4 60/11/4 58/3/4
f 60/11/1 59/12/1 133/111/1 134/113/1
f 133/111/6 59/12/6 57/103/6 158/114/6
f 131/115/5 58/107/5 60/11/5 134/113/5
f 93/109/3 62/2/3 61/1/3 88/110/3
f 99/111/1 63/54/1 64/53/1 101/113/1
f 63/54/2 61/91/2 62/78/2 64/53/2
f 88/114/6 61/102/6 63/54/6 99/111/6 100/118/6
f 64/53/5 62/108/5 93/115/5 101/113/5
f 65/4/3 66/3/3 140/109/3 135/110/3
f 65/4/4 67/12/4 68/11/4 66/3/4
f 68/11/1 67/12/1 145/111/1 146/113/1
f 145/111/6 67/12/6 65/103/6 135/114/6
f 140/115/5 66/107/5 68/11/5 146/113/5
f 108/109/3 70/2/3 69/1/3 107/110/3
f 105/111/1 71/54/1 72/53/1 112/113/1 111/112/1
f 71/54/2 69/91/2 70/78/2 72/53/2
f 107/114/6 69/102/6 71/54/6 105/111/6 104/118/6
f 72/53/5 70/108/5 108/115/5 112/113/5
f 73/4/3 74/3/3 147/109/3 144/110/3
f 73/4/4 75/12/4 76/11/4 74/3/4
f 76/11/1 75/12/1 151/111/1 148/113/1
f 151/111/6 75/12/6 73/103/6 144/114/6 155/118/6
f 147/115/5 74/107/5 76/11/5 148/113/5
f 110/117/3 113/109/3 78/2/3 77/1/3 109/110/3
f 79/54/1 80/53/1 114/113/1 126/111/1
f 79/54/2 77/91/2 78/78/2 80/53/2
f 109/114/6 77/102/6 79/54/6 126/111/6
f 80/53/5 78/108/5 113/115/5 114/113/5
f 81/4/3 82/3/3 166/109/3 174/110/3
f 82/3/4 81/4/4 83/12/4 84/11/4
f 84/11/1 83/12/1 172/111/1 170/113/1
f 166/115/5 82/107/5 84/11/5 170/113/5
o edificio_02_puerta
v -0.486000 0.056250 2.560000
v -0.486000 2.193750 2.560000
v -0.486000 0.056250 2.500000
v -0.486000 2.193750 2.500000
v 0.486000 0.056250 2.560000
v 0.486000 2.193750 2.560000
v 0.486000 0.056250 2.500000
v 0.486000 2.193750 2.500000
vn -1.0000 -0.0000 -0.0000
vn -0.0000 -0.0000 -1.0000
vn 1.0000 -0.0000 -0.0000
vn -0.0000 -0.0000 1.0000
vn -0.0000 -1.0000 -0.0000
vn -0.0000 1.0000 -0.0000
vt 0.375000 0.000000
vt 0.625000 0.000000
vt 0.625000 0.250000
vt 0.375000 0.250000
vt 0.625000 0.500000
vt 0.375000 0.500000
vt 0.625000 0.750000
vt 0.375000 0.750000
vt 0.625000 1.000000
vt 0.375000 1.000000
vt 0.125000 0.500000
vt 0.125000 0.750000
vt 0.875000 0.500000
vt 0.875000 0.750000
s 0
f 175/119/7 176/120/7 178/121/7 177/122/7
f 177/122/8 178/121/8 182/123/8 181/124/8
f 181/124/9 182/123/9 180/125/9 179/126/9
f 179/126/10 180/125/10 176/127/10 175/128/10
f 177/129/11 181/124/11 179/126/11 175/130/11
f 182/123/12 178/131/12 176/132/12 180/125/12
o edificio_02_escalon_1
v -1.188000 0.000000 2.950000
v -1.188000 0.150000 2.950000
v -1.188000 0.000000 2.650000
v -1.188000 0.150000 2.650000
v 1.188000 0.000000 2.950000
v 1.188000 0.150000 2.950000
v 1.188000 0.000000 2.650000
v 1.188000 0.150000 2.650000
vn -1.0000 -0.0000 -0.0000
vn -0.0000 -0.0000 -1.0000
vn 1.0000 -0.0000 -0.0000
vn -0.0000 -0.0000 1.0000
vn -0.0000 -1.0000 -0.0000
vn -0.0000 1.0000 -0.0000
vt 0.375000 0.000000
vt 0.625000 0.000000
vt 0.625000 0.250000
vt 0.375000 0.250000
vt 0.625000 0.500000
vt 0.375000 0.500000
vt 0.625000 0.750000
vt 0.375000 0.750000
vt 0.625000 1.000000
vt 0.375000 1.000000
vt 0.125000 0.500000
vt 0.125000 0.750000
vt 0.875000 0.500000
vt 0.875000 0.750000
s 0
f 183/133/13 184/134/13 186/135/13 185/136/13
f 185/136/14 186/135/14 190/137/14 189/138/14
f 189/138/15 190/137/15 188/139/15 187/140/15
f 187/140/16 188/139/16 184/141/16 183/142/16
f 185/143/17 189/138/17 187/140/17 183/144/17
f 190/137/18 186/145/18 184/146/18 188/139/18
o edificio_02_escalon_2
v -0.988000 0.150000 3.250000
v -0.988000 0.300000 3.250000
v -0.988000 0.150000 2.950000
v -0.988000 0.300000 2.950000
v 0.988000 0.150000 3.250000
v 0.988000 0.300000 3.250000
v 0.988000 0.150000 2.950000
v 0.988000 0.300000 2.950000
vn -1.0000 -0.0000 -0.0000
vn -0.0000 -0.0000 -1.0000
vn 1.0000 -0.0000 -0.0000
vn -0.0000 -0.0000 1.0000
vn -0.0000 -1.0000 -0.0000
vn -0.0000 1.0000 -0.0000
vt 0.375000 0.000000
vt 0.625000 0.000000
vt 0.625000 0.250000
vt 0.375000 0.250000
vt 0.625000 0.500000
vt 0.375000 0.500000
vt 0.625000 0.750000
vt 0.375000 0.750000
vt 0.625000 1.000000
vt 0.375000 1.000000
vt 0.125000 0.500000
vt 0.125000 0.750000
vt 0.875000 0.500000
vt 0.875000 0.750000
s 0
f 191/147/19 192/148/19 194/149/19 193/150/19
f 193/150/20 194/149/20 198/151/20 197/152/20
f 197/152/21 198/151/21 196/153/21 195/154/21
f 195/154/22 196/153/22 192/155/22 191/156/22
f 193/157/23 197/152/23 195/154/23 191/158/23
f 198/151/24 194/159/24 192/160/24 196/153/24
o edificio_02_jardinera
v 0.690000 0.000000 3.050000
v 0.690000 0.900000 3.050000
v 0.690000 0.000000 2.650000
v 0.690000 0.900000 2.650000
v 1.090000 0.000000 3.050000
v 1.090000 0.900000 3.050000
v 1.090000 0.000000 2.650000
v 1.090000 0.900000 2.650000
vn -1.0000 -0.0000 -0.0000
vn -0.0000 -0.0000 -1.0000
vn 1.0000 -0.0000 -0.0000
vn -0.0000 -0.0000 1.0000
vn -0.0000 -1.0000 -0.0000
vn -0.0000 1.0000 -0.0000
vt 0.375000 0.000000
vt 0.625000 0.000000
vt 0.625000 0.250000
vt 0.375000 0.250000
vt 0.625000 0.500000
vt 0.375000 0.500000
vt 0.625000 0.750000
vt 0.375000 0.750000
vt 0.625000 1.000000
vt 0.375000 1.000000
vt 0.125000 0.500000
vt 0.125000 0.750000
vt 0.875000 0.500000
vt 0.875000 0.750000
s 0
f 199/161/25 200/162/25 202/163/25 201/164/25
f 201/164/26 202/163/26 206/165/26 205/166/26
f 205/166/27 206/165/27 204/167/27 203/168/27
f 203/168/28 204/167/28 200/169/28 199/170/28
f 201/171/29 205/166/29 203/168/29 199/172/29
f 206/165/30 202/173/30 200/174/30 204/167/30
o edificio_02_jardinera.001
v -1.090000 0.000000 3.050000
v -1.090000 0.900000 3.050000
v -1.090000 0.000000 2.650000
v -1.090000 0.900000 2.650000
v -0.690000 0.000000 3.050000
v -0.690000 0.900000 3.050000
v -0.690000 0.000000 2.650000
v -0.690000 0.900000 2.650000
vn -1.0000 -0.0000 -0.0000
vn -0.0000 -0.0000 -1.0000
vn 1.0000 -0.0000 -0.0000
vn -0.0000 -0.0000 1.0000
vn -0.0000 -1.0000 -0.0000
vn -0.0000 1.0000 -0.0000
vt 0.375000 0.000000
vt 0.625000 0.000000
vt 0.625000 0.250000
vt 0.375000 0.250000
vt 0.625000 0.500000
vt 0.375000 0.500000
vt 0.625000 0.750000
vt 0.375000 0.750000
vt 0.625000 1.000000
vt 0.375000 1.000000
vt 0.125000 0.500000
vt 0.125000 0.750000
vt 0.875000 0.500000
vt 0.875000 0.750000
s 0
f 207/175/31 208/176/31 210/177/31 209/178/31
f 209/178/32 210/177/32 214/179/32 213/180/32
f 213/180/33 214/179/33 212/181/33 211/182/33
f 211/182/34 212/181/34 208/183/34 207/184/34
f 209/185/35 213/180/35 211/182/35 207/186/35
f 214/179/36 210/187/36 208/188/36 212/181/36
o edificio_02_marquesina
v -1.404000 2.290000 3.500000
v -1.404000 2.410000 3.500000
v -1.404000 2.290000 2.500000
v -1.404000 2.410000 2.500000
v 1.404000 2.290000 3.500000
v 1.404000 2.410000 3.500000
v 1.404000 2.290000 2.500000
v 1.404000 2.410000 2.500000
vn -1.0000 -0.0000 -0.0000
vn -0.0000 -0.0000 -1.0000
vn 1.0000 -0.0000 -0.0000
vn -0.0000 -0.0000 1.0000
vn -0.0000 -1.0000 -0.0000
vn -0.0000 1.0000 -0.0000
vt 0.375000 0.000000
vt 0.625000 0.000000
vt 0.625000 0.250000
vt 0.375000 0.250000
vt 0.625000 0.500000
vt 0.375000 0.500000
vt 0.625000 0.750000
vt 0.375000 0.750000
vt 0.625000 1.000000
vt 0.375000 1.000000
vt 0.125000 0.500000
vt 0.125000 0.750000
vt 0.875000 0.500000
vt 0.875000 0.750000
s 0
f 215/189/37 216/190/37 218/191/37 217/192/37
f 217/192/38 218/191/38 222/193/38 221/194/38
f 221/194/39 222/193/39 220/195/39 219/196/39
f 219/196/40 220/195/40 216/197/40 215/198/40
f 217/199/41 221/194/41 219/196/41 215/200/41
f 222/193/42 218/201/42 216/202/42 220/195/42
o edificio_02_losa_azotea
v -3.450000 12.000000 2.875000
v -3.450000 12.299999 2.875000
v -3.450000 12.000000 -2.875000
v -3.450000 12.299999 -2.875000
v 3.450000 12.000000 2.875000
v 3.450000 12.299999 2.875000
v 3.450000 12.000000 -2.875000
v 3.450000 12.299999 -2.875000
vn -1.0000 -0.0000 -0.0000
vn -0.0000 -0.0000 -1.0000
vn 1.0000 -0.0000 -0.0000
vn -0.0000 -0.0000 1.0000
vn -0.0000 -1.0000 -0.0000
vn -0.0000 1.0000 -0.0000
vt 0.375000 0.000000
vt 0.625000 0.000000
vt 0.625000 0.250000
vt 0.375000 0.250000
vt 0.625000 0.500000
vt 0.375000 0.500000
vt 0.625000 0.750000
vt 0.375000 0.750000
vt 0.625000 1.000000
vt 0.375000 1.000000
vt 0.125000 0.500000
vt 0.125000 0.750000
vt 0.875000 0.500000
vt 0.875000 0.750000
s 0
f 223/203/43 224/204/43 226/205/43 225/206/43
f 225/206/44 226/205/44 230/207/44 229/208/44
f 229/208/45 230/207/45 228/209/45 227/210/45
f 227/210/46 228/209/46 224/211/46 223/212/46
f 225/213/47 229/208/47 227/210/47 223/214/47
f 230/207/48 226/215/48 224/216/48 228/209/48
