# Blender 5.2.2 LTS
# www.blender.org
mtllib tope.mtl
o Tope_Ciclovia
v -1.500000 0.000000 0.300000
v 1.500000 0.000000 0.300000
v 1.500000 0.000000 -0.300000
v -1.500000 0.000000 -0.300000
v -1.500000 0.120000 0.100000
v 1.500000 0.120000 0.100000
v 1.500000 0.120000 -0.100000
v -1.500000 0.120000 -0.100000
vn -0.0000 1.0000 -0.0000
vn -0.0000 0.8575 0.5145
vn -0.0000 0.8575 -0.5145
vn -1.0000 -0.0000 -0.0000
vn 1.0000 -0.0000 -0.0000
s 0
usemtl Mat_Tope_Amarillo.001
f 2//1 4//1 1//1
f 2//2 5//2 1//2
f 6//1 8//1 5//1
f 7//3 4//3 8//3
f 5//4 4//4 1//4
f 3//5 6//5 2//5
f 2//1 3//1 4//1
f 2//2 6//2 5//2
f 6//1 7//1 8//1
f 7//3 3//3 4//3
f 5//4 8//4 4//4
f 3//5 7//5 6//5
