# Blender 5.2.2 LTS
# www.blender.org
mtllib Casa_2.mtl
o Cube
v -11.000000 0.768439 11.000000
v -11.000000 30.768440 11.000000
v -11.000000 0.768439 -11.000000
v -11.000000 30.768440 -11.000000
v 11.000000 0.768439 11.000000
v 11.000000 30.768440 11.000000
v 11.000000 0.768439 -11.000000
v 11.000000 30.768440 -11.000000
v 3.497621 0.768439 -11.000000
v -3.835712 0.768439 -11.000000
v -3.835712 30.768440 -11.000000
v 3.497621 30.768440 -11.000000
v -3.835712 0.768439 11.000000
v 3.497621 0.768439 11.000000
v 3.497621 30.768440 11.000000
v -3.835712 30.768440 11.000000
v -11.000000 0.768439 14.714720
v -11.000000 30.768440 14.714720
v 11.000000 30.768440 14.714720
v 11.000000 0.768439 14.714720
v 3.497621 0.768439 14.714720
v -3.835712 30.768440 14.714720
v -3.835712 0.768439 14.714720
v 3.497621 30.768440 14.714720
v -11.000000 29.267670 11.000000
v -11.000000 29.267670 -11.000000
v 11.000000 29.267670 -11.000000
v 11.000000 29.267670 11.000000
v 3.497621 29.267670 11.000000
v -3.835712 29.267670 11.000000
v -3.835712 29.267670 -11.000000
v 3.497621 29.267670 -11.000000
v -11.000000 29.267670 14.714720
v 11.000000 29.267670 14.714720
v 3.497621 29.267670 14.714720
v -3.835712 29.267670 14.714720
v -11.000000 26.952795 -11.000000
v 11.000000 26.952795 -11.000000
v 11.000000 26.952795 11.000000
v 3.497621 26.952795 11.000000
v -3.835712 26.952795 11.000000
v -3.835712 26.952795 -11.000000
v 3.497621 26.952795 -11.000000
v 11.000000 26.952795 14.714720
v 3.497621 26.952795 14.714720
v -3.835712 26.952795 14.714720
v -11.000000 26.952795 11.000000
v -11.000000 26.952795 14.714720
v -11.000000 14.290780 -11.000000
v 11.000000 14.290780 -11.000000
v 11.000000 14.290780 11.000000
v 3.497621 14.290780 11.000000
v -3.835712 14.290780 11.000000
v -3.835712 14.290780 -11.000000
v 3.497621 14.290780 -11.000000
v 11.000000 14.290780 14.714720
v 3.497621 14.290780 14.714720
v -3.835712 14.290780 14.714720
v -11.000000 14.290780 11.000000
v -11.000000 14.290780 14.714720
v -11.000000 15.840289 11.000000
v -11.000000 15.840289 14.714720
v -11.000000 15.840289 -11.000000
v 11.000000 15.840289 -11.000000
v 11.000000 15.840289 11.000000
v 3.497621 15.840289 11.000000
v -3.835712 15.840289 11.000000
v -3.835712 15.840289 -11.000000
v 3.497621 15.840289 -11.000000
v 11.000000 15.840289 14.714720
v 3.497621 15.840289 14.714720
v -3.835712 15.840289 14.714720
v -11.000000 11.476604 -11.000000
v 11.000000 11.476604 -11.000000
v 11.000000 11.476604 11.000000
v 3.497621 11.476604 11.000000
v -3.835712 11.476604 11.000000
v -3.835712 11.476604 -11.000000
v 3.497621 11.476604 -11.000000
v 11.000000 11.476604 14.714720
v 3.497621 11.476604 14.714720
v -3.835712 11.476604 14.714720
v -11.000000 11.476604 11.000000
v -11.000000 11.476604 14.714720
v -11.000000 6.267285 -11.000000
v 11.000000 6.267285 -11.000000
v 11.000000 6.267285 11.000000
v 3.497621 6.267285 11.000000
v -3.835712 6.267285 11.000000
v -3.835712 6.267285 -11.000000
v 3.497621 6.267285 -11.000000
v 11.000000 6.267285 14.714720
v 3.497621 6.267285 14.714720
v -3.835712 6.267285 14.714720
v -11.000000 6.267285 11.000000
v -11.000000 6.267285 14.714720
v -11.000000 20.737473 11.000000
v -11.000000 20.737473 14.714720
v -11.000000 20.737473 -11.000000
v 11.000000 20.737473 -11.000000
v 11.000000 20.737473 11.000000
v 3.497621 20.737473 11.000000
v -3.835712 20.737473 11.000000
v -3.835712 20.737473 -11.000000
v 3.497621 20.737473 -11.000000
v 11.000000 20.737473 14.714720
v 3.497621 20.737473 14.714720
v -3.835712 20.737473 14.714720
v -11.000000 18.988478 -11.000000
v 11.000000 18.988478 -11.000000
v 11.000000 18.988478 11.000000
v 3.497621 18.988478 11.000000
v -3.835712 18.988478 11.000000
v -3.835712 18.988478 -11.000000
v 3.497621 18.988478 -11.000000
v 11.000000 18.988478 14.714720
v 3.497621 18.988478 14.714720
v -3.835712 18.988478 14.714720
v -11.000000 18.988478 11.000000
v -11.000000 18.988478 14.714720
v -5.291314 0.768439 -11.000000
v -6.724171 0.768439 -11.000000
v -8.157028 0.768439 -11.000000
v -9.589887 0.768439 -11.000000
v -5.291314 30.768440 11.000000
v -6.724171 30.768440 11.000000
v -8.157028 30.768440 11.000000
v -9.589887 30.768440 11.000000
v -9.589887 30.768440 -11.000000
v -8.157029 30.768440 -11.000000
v -6.724172 30.768440 -11.000000
v -5.291314 30.768440 -11.000000
v -9.589887 0.768439 11.000000
v -8.157029 0.768439 11.000000
v -6.724172 0.768439 11.000000
v -5.291314 0.768439 11.000000
v -5.291314 30.768440 14.714720
v -6.724171 30.768440 14.714720
v -8.157028 30.768440 14.714720
v -9.589887 30.768440 14.714720
v -9.589887 0.768439 14.714720
v -8.157029 0.768439 14.714720
v -6.724172 0.768439 14.714720
v -5.291314 0.768439 14.714720
v -5.291314 29.267670 14.714720
v -6.724171 29.267670 14.714720
v -8.157028 29.267670 14.714720
v -9.589887 29.267670 14.714720
v -9.589887 29.267670 -11.000000
v -8.157029 29.267670 -11.000000
v -6.724172 29.267670 -11.000000
v -5.291314 29.267670 -11.000000
v -9.589887 26.952795 -11.000000
v -8.157029 26.952795 -11.000000
v -6.724172 26.952795 -11.000000
v -5.291314 26.952795 -11.000000
v -5.291314 26.952795 14.714720
v -6.724171 26.952795 14.714720
v -8.157028 26.952795 14.714720
v -9.589887 26.952795 14.714720
v -5.291314 14.290780 14.714720
v -6.724171 14.290780 14.714720
v -8.157028 14.290780 14.714720
v -9.589887 14.290780 14.714720
v -9.589887 14.290780 -11.000000
v -8.157029 14.290780 -11.000000
v -6.724172 14.290780 -11.000000
v -5.291314 14.290780 -11.000000
v -5.291314 15.840289 14.714720
v -6.724171 15.840289 14.714720
v -8.157028 15.840289 14.714720
v -9.589887 15.840289 14.714720
v -9.589887 15.840289 -11.000000
v -8.157029 15.840289 -11.000000
v -6.724172 15.840289 -11.000000
v -5.291314 15.840289 -11.000000
v -9.589887 11.476604 -11.000000
v -8.157029 11.476604 -11.000000
v -6.724172 11.476604 -11.000000
v -5.291314 11.476604 -11.000000
v -5.291314 11.476604 14.714720
v -6.724171 11.476604 14.714720
v -8.157028 11.476604 14.714720
v -9.589887 11.476604 14.714720
v -5.291314 6.267285 14.714720
v -9.589887 6.267285 14.714720
v -9.589887 6.267285 -11.000000
v -8.157029 6.267285 -11.000000
v -6.724172 6.267285 -11.000000
v -5.291314 6.267285 -11.000000
v -5.291314 20.737473 14.714720
v -6.724171 20.737473 14.714720
v -8.157028 20.737473 14.714720
v -9.589887 20.737473 14.714720
v -9.589887 20.737473 -11.000000
v -8.157029 20.737473 -11.000000
v -6.724172 20.737473 -11.000000
v -5.291314 20.737473 -11.000000
v -9.589887 18.988478 -11.000000
v -8.157029 18.988478 -11.000000
v -6.724172 18.988478 -11.000000
v -5.291314 18.988478 -11.000000
v -5.291314 18.988478 14.714720
v -6.724171 18.988478 14.714720
v -8.157028 18.988478 14.714720
v -9.589887 18.988478 14.714720
v 2.104288 0.768439 -11.000000
v 0.637621 0.768439 -11.000000
v -0.829045 0.768439 -11.000000
v -2.295712 0.768439 -11.000000
v -2.295712 30.768440 -11.000000
v -0.829045 30.768440 -11.000000
v 0.637621 30.768440 -11.000000
v 2.104288 30.768440 -11.000000
v -2.295712 0.768439 11.000000
v -0.829045 0.768439 11.000000
v 0.637621 0.768439 11.000000
v 2.104288 0.768439 11.000000
v 2.104288 30.768440 11.000000
v 0.637621 30.768440 11.000000
v -0.829045 30.768440 11.000000
v -2.295712 30.768440 11.000000
v -2.295712 29.267670 -11.000000
v -0.829045 29.267670 -11.000000
v 0.637621 29.267670 -11.000000
v 2.104288 29.267670 -11.000000
v 2.104288 29.267670 11.000000
v 0.637621 29.267670 11.000000
v -0.829045 29.267670 11.000000
v -2.295712 29.267670 11.000000
v 2.104288 26.952795 11.000000
v 0.637621 26.952795 11.000000
v -0.829045 26.952795 11.000000
v -2.295712 26.952795 11.000000
v -2.295712 26.952795 -11.000000
v -0.829045 26.952795 -11.000000
v 0.637621 26.952795 -11.000000
v 2.104288 26.952795 -11.000000
v -2.295712 14.290780 -11.000000
v -0.829045 14.290780 -11.000000
v 0.637621 14.290780 -11.000000
v 2.104288 14.290780 -11.000000
v 2.104288 14.290780 11.000000
v 0.637621 14.290780 11.000000
v -0.829045 14.290780 11.000000
v -2.295712 14.290780 11.000000
v -2.295712 15.840289 -11.000000
v -0.829045 15.840289 -11.000000
v 0.637621 15.840289 -11.000000
v 2.104288 15.840289 -11.000000
v 2.104288 15.840289 11.000000
v 0.637621 15.840289 11.000000
v -0.829045 15.840289 11.000000
v -2.295712 15.840289 11.000000
v 2.104288 11.476604 11.000000
v 0.637621 11.476604 11.000000
v -0.829045 11.476604 11.000000
v -2.295712 11.476604 11.000000
v -2.295712 11.476604 -11.000000
v -0.829045 11.476604 -11.000000
v 0.637621 11.476604 -11.000000
v 2.104288 11.476604 -11.000000
v -2.295712 6.267285 -11.000000
v -0.829045 6.267285 -11.000000
v 0.637621 6.267285 -11.000000
v 2.104288 6.267285 -11.000000
v 2.104288 6.267285 11.000000
v 0.637621 6.267285 11.000000
v -0.829045 6.267285 11.000000
v -2.295712 6.267285 11.000000
v -2.295712 20.737473 -11.000000
v -0.829045 20.737473 -11.000000
v 0.637621 20.737473 -11.000000
v 2.104288 20.737473 -11.000000
v 2.104288 20.737473 11.000000
v -2.295712 20.737473 11.000000
v 2.104288 18.988478 11.000000
v 0.637621 18.988478 11.000000
v -0.829045 18.988478 11.000000
v -2.295712 18.988478 11.000000
v -2.295712 18.988478 -11.000000
v -0.829045 18.988478 -11.000000
v 0.637621 18.988478 -11.000000
v 2.104288 18.988478 -11.000000
v 4.746716 30.768440 -11.000000
v 6.247191 30.768440 -11.000000
v 7.747667 30.768440 -11.000000
v 9.248143 30.768440 -11.000000
v 4.746716 0.768439 11.000000
v 6.247191 0.768439 11.000000
v 7.747667 0.768439 11.000000
v 9.248143 0.768439 11.000000
v 9.248143 0.768439 -11.000000
v 7.747667 0.768439 -11.000000
v 6.247191 0.768439 -11.000000
v 4.746715 0.768439 -11.000000
v 9.248143 30.768440 11.000000
v 7.747667 30.768440 11.000000
v 6.247191 30.768440 11.000000
v 4.746715 30.768440 11.000000
v 4.746716 0.768439 14.714720
v 6.247191 0.768439 14.714720
v 7.747667 0.768439 14.714720
v 9.248143 0.768439 14.714720
v 9.248143 30.768440 14.714720
v 7.747667 30.768440 14.714720
v 6.247191 30.768440 14.714720
v 4.746715 30.768440 14.714720
v 9.248143 29.267670 14.714720
v 7.747667 29.267670 14.714720
v 6.247191 29.267670 14.714720
v 4.746715 29.267670 14.714720
v 4.746716 29.267670 -11.000000
v 6.247191 29.267670 -11.000000
v 7.747667 29.267670 -11.000000
v 9.248143 29.267670 -11.000000
v 4.746716 26.952795 -11.000000
v 6.247191 26.952795 -11.000000
v 7.747667 26.952795 -11.000000
v 9.248143 26.952795 -11.000000
v 9.248143 26.952795 14.714720
v 7.747667 26.952795 14.714720
v 6.247191 26.952795 14.714720
v 4.746715 26.952795 14.714720
v 9.248143 14.290780 14.714720
v 7.747667 14.290780 14.714720
v 6.247191 14.290780 14.714720
v 4.746715 14.290780 14.714720
v 4.746716 14.290780 -11.000000
v 6.247191 14.290780 -11.000000
v 7.747667 14.290780 -11.000000
v 9.248143 14.290780 -11.000000
v 9.248143 15.840289 14.714720
v 7.747667 15.840289 14.714720
v 6.247191 15.840289 14.714720
v 4.746715 15.840289 14.714720
v 4.746716 15.840289 -11.000000
v 6.247191 15.840289 -11.000000
v 7.747667 15.840289 -11.000000
v 9.248143 15.840289 -11.000000
v 4.746716 11.476604 -11.000000
v 6.247191 11.476604 -11.000000
v 7.747667 11.476604 -11.000000
v 9.248143 11.476604 -11.000000
v 9.248143 11.476604 14.714720
v 7.747667 11.476604 14.714720
v 6.247191 11.476604 14.714720
v 4.746715 11.476604 14.714720
v 9.248143 6.267285 14.714720
v 7.747667 6.267285 14.714720
v 6.247191 6.267285 14.714720
v 4.746715 6.267285 14.714720
v 4.746716 6.267285 -11.000000
v 6.247191 6.267285 -11.000000
v 7.747667 6.267285 -11.000000
v 9.248143 6.267285 -11.000000
v 9.248143 20.737473 14.714720
v 4.746715 20.737473 14.714720
v 4.746716 20.737473 -11.000000
v 6.247191 20.737473 -11.000000
v 7.747667 20.737473 -11.000000
v 9.248143 20.737473 -11.000000
v 4.746716 18.988478 -11.000000
v 6.247191 18.988478 -11.000000
v 7.747667 18.988478 -11.000000
v 9.248143 18.988478 -11.000000
v 9.248143 18.988478 14.714720
v 7.747667 18.988478 14.714720
v 6.247191 18.988478 14.714720
v 4.746715 18.988478 14.714720
v -2.140861 30.768440 13.322767
v -3.680861 30.768440 13.322767
v -10.845149 29.267670 17.037487
v -10.845149 30.768440 17.037487
v -9.435036 30.768440 17.037487
v 4.901567 30.768440 17.037487
v 3.652472 30.768440 17.037487
v -3.680861 30.768440 17.037487
v 3.652472 30.768440 13.322767
v 3.652472 29.267670 13.322767
v -3.680861 29.267670 13.322767
v 11.154852 30.768440 17.037487
v 11.154852 29.267670 17.037487
v 3.652472 29.267670 17.037487
v -3.680861 29.267670 17.037487
v 4.901567 29.267670 17.037487
v -9.435036 29.267670 17.037487
v -2.140861 29.267670 13.322767
v -5.136462 30.768440 17.037487
v -6.569320 30.768440 17.037487
v -8.002177 30.768440 17.037487
v -5.136462 29.267670 17.037487
v -6.569320 29.267670 17.037487
v -8.002177 29.267670 17.037487
v 2.259139 30.768440 13.322767
v 0.792472 30.768440 13.322767
v -0.674194 30.768440 13.322767
v 2.259139 29.267670 13.322767
v 0.792472 29.267670 13.322767
v -0.674194 29.267670 13.322767
v 9.402994 30.768440 17.037487
v 7.902518 30.768440 17.037487
v 6.402042 30.768440 17.037487
v 9.402994 29.267670 17.037487
v 7.902518 29.267670 17.037487
v 6.402042 29.267670 17.037487
v -3.724594 15.840289 11.555591
v -3.724594 14.290780 11.555591
v -3.724594 15.840289 15.270310
v -3.724594 14.290780 15.270310
v -9.478768 14.290780 15.270310
v -10.888882 14.290780 15.270310
v -10.888882 15.840289 15.270310
v -9.478768 15.840289 15.270310
v -5.180195 14.290780 15.270310
v -6.613052 14.290780 15.270310
v -8.045910 14.290780 15.270310
v -5.180195 15.840289 15.270310
v -6.613052 15.840289 15.270310
v -8.045910 15.840289 15.270310
v 9.248143 26.952795 12.471018
v 7.747667 26.952795 12.471018
v 6.247191 26.952795 12.471018
v 4.746715 26.952795 12.471018
v 9.248143 20.737473 12.471018
v 7.747667 20.737473 12.471018
v 6.247191 20.737473 12.471018
v 4.746715 20.737473 12.471018
v 9.248143 18.988478 12.471018
v 7.747667 18.988478 12.471018
v 6.247191 18.988478 12.471018
v 4.746715 18.988478 12.471018
v 7.555298 30.768440 -11.000000
v 7.555298 0.768439 11.000000
v 7.555298 0.768439 -11.000000
v 7.555298 30.768440 11.000000
v 7.555298 0.768439 14.714720
v 7.555298 30.768440 14.714720
v 7.555298 29.267670 14.714720
v 7.555298 29.267670 -11.000000
v 7.555298 26.952795 -11.000000
v 7.555298 26.952795 14.714720
v 7.555298 14.290780 14.714720
v 7.555298 14.290780 -11.000000
v 7.555298 15.840289 14.714720
v 7.555298 15.840289 -11.000000
v 7.555298 11.476604 -11.000000
v 7.555298 11.476604 14.714720
v 7.555298 6.267285 14.714720
v 7.555298 6.267285 -11.000000
v 7.555298 20.737473 -11.000000
v 7.555298 18.988478 -11.000000
v 7.555298 18.988478 14.714720
v 7.710149 30.768440 17.037487
v 7.710149 29.267670 17.037487
v 7.555298 26.952795 12.471018
v 7.555298 20.737473 12.471018
v 7.555298 18.988478 12.471018
v 6.054822 30.768440 -11.000000
v 6.054822 0.768439 11.000000
v 6.054822 0.768439 -11.000000
v 6.054822 30.768440 11.000000
v 6.054822 0.768439 14.714720
v 6.054822 30.768440 14.714720
v 6.054822 29.267670 14.714720
v 6.054822 29.267670 -11.000000
v 6.054822 26.952795 -11.000000
v 6.054822 26.952795 14.714720
v 6.054822 14.290780 14.714720
v 6.054822 14.290780 -11.000000
v 6.054822 15.840289 14.714720
v 6.054822 15.840289 -11.000000
v 6.054822 11.476604 -11.000000
v 6.054822 11.476604 14.714720
v 6.054822 6.267285 14.714720
v 6.054822 6.267285 -11.000000
v 6.054822 20.737473 -11.000000
v 6.054822 18.988478 -11.000000
v 6.054822 18.988478 14.714720
v 6.209673 30.768440 17.037487
v 6.209673 29.267670 17.037487
v 6.054822 26.952795 12.471018
v 6.054822 20.737473 12.471018
v 6.054822 18.988478 12.471018
v -6.526535 0.768439 -11.000000
v -6.526535 30.768440 11.000000
v -6.526536 30.768440 -11.000000
v -6.526536 0.768439 11.000000
v -6.526535 30.768440 14.714720
v -6.526536 0.768439 14.714720
v -6.526535 29.267670 14.714720
v -6.526536 29.267670 -11.000000
v -6.526536 26.952795 -11.000000
v -6.526535 26.952795 14.714720
v -6.526535 14.290780 14.714720
v -6.526536 14.290780 -11.000000
v -6.526535 15.840289 14.714720
v -6.526536 15.840289 -11.000000
v -6.526536 11.476604 -11.000000
v -6.526535 11.476604 14.714720
v -6.526536 6.267285 -11.000000
v -6.526535 20.737473 14.714720
v -6.526536 20.737473 -11.000000
v -6.526536 18.988478 -11.000000
v -6.526535 18.988478 14.714720
v -6.371684 30.768440 17.037487
v -6.371684 29.267670 17.037487
v -6.415417 14.290780 15.270310
v -6.415417 15.840289 15.270310
v -11.000000 23.853184 11.000000
v -11.000000 23.853184 14.714720
v -11.000000 23.853184 -11.000000
v 11.000000 23.853184 -11.000000
v 11.000000 23.853184 11.000000
v 3.497621 23.853184 11.000000
v -3.835712 23.853184 11.000000
v -3.835712 23.853184 -11.000000
v 3.497621 23.853184 -11.000000
v 11.000000 23.853184 14.714720
v 3.497621 23.853184 14.714720
v -3.835712 23.853184 14.714720
v -5.291314 23.853184 14.714720
v -9.589887 23.853184 14.714720
v -9.589887 23.853184 -11.000000
v -8.157029 23.853184 -11.000000
v -6.724172 23.853184 -11.000000
v -5.291314 23.853184 -11.000000
v -2.295712 23.853184 -11.000000
v -0.829045 23.853184 -11.000000
v 0.637621 23.853184 -11.000000
v 2.104288 23.853184 -11.000000
v 2.104288 23.853184 11.000000
v 0.637621 23.853184 11.000000
v -0.829045 23.853184 11.000000
v -2.295712 23.853184 11.000000
v 9.248143 23.853184 14.714720
v 4.746715 23.853184 14.714720
v 4.746716 23.853184 -11.000000
v 6.247191 23.853184 -11.000000
v 7.747667 23.853184 -11.000000
v 9.248143 23.853184 -11.000000
v 9.248143 23.853184 12.471018
v 7.747667 23.853184 12.471018
v 6.247191 23.853184 12.471018
v 4.746715 23.853184 12.471018
v 7.555298 23.853184 12.471018
v 7.555298 23.853184 -11.000000
v 6.054822 23.853184 12.471018
v 6.054822 23.853184 -11.000000
v -6.526536 23.853184 -11.000000
v -9.589887 0.768439 13.382422
v -8.157029 0.768439 13.382422
v -6.724172 0.768439 13.382422
v -6.526536 0.768439 13.382422
v -5.291314 0.768439 13.382422
v -6.526535 26.952795 13.382422
v -6.724171 26.952795 13.382422
v -8.157028 26.952795 13.382422
v -9.589887 26.952795 13.382422
v -6.526535 11.476604 13.382422
v -6.724171 11.476604 13.382422
v -8.157028 11.476604 13.382422
v -9.589887 11.476604 13.382422
v -6.526535 6.267285 13.382422
v -6.724171 6.267285 13.382422
v -8.157028 6.267285 13.382422
v -9.589887 6.267285 13.382422
v -6.526535 20.737473 13.382422
v -6.724171 20.737473 13.382422
v -8.157028 20.737473 13.382422
v -9.589887 20.737473 13.382422
v -5.291314 6.267285 13.382422
v -5.291314 11.476604 13.382422
v -5.291314 23.853184 13.382422
v -5.291314 20.737473 13.382422
v -6.724171 23.853184 13.382422
v -8.157028 23.853184 13.382422
v -9.589887 23.853184 13.382422
v 2.104288 11.476604 9.667703
v 0.637621 11.476604 9.667703
v -0.829045 11.476604 9.667703
v -2.295712 11.476604 9.667703
v 2.104288 6.267285 9.667703
v 0.637621 6.267285 9.667703
v -0.829045 6.267285 9.667703
v -2.295712 6.267285 9.667703
v 2.104288 20.737473 9.667703
v 0.637621 20.737473 9.667703
v -0.829045 20.737473 9.667703
v -2.295712 20.737473 9.667703
v 2.104288 18.988478 9.667703
v 0.637621 18.988478 9.667703
v -0.829045 18.988478 9.667703
v -2.295712 18.988478 9.667703
v 2.104288 23.853184 9.667703
v 0.637621 23.853184 9.667703
v -0.829045 23.853184 9.667703
v -2.295712 23.853184 9.667703
v 9.248143 11.476604 13.382422
v 7.747667 11.476604 13.382422
v 7.555298 11.476604 13.382422
v 6.247191 11.476604 13.382422
v 6.054822 11.476604 13.382422
v 4.746715 11.476604 13.382422
v 9.248143 6.267285 13.382422
v 7.747667 6.267285 13.382422
v 7.555298 6.267285 13.382422
v 6.247191 6.267285 13.382422
v 6.054822 6.267285 13.382422
v 4.746715 6.267285 13.382422
v -5.291314 26.952795 13.382422
v -6.526535 23.853184 13.382422
v -7.440600 0.768439 -11.000000
v -7.440600 30.768440 11.000000
v -7.440600 30.768440 -11.000000
v -7.440600 0.768439 11.000000
v -7.440600 30.768440 14.714720
v -7.440600 0.768439 14.714720
v -7.440600 29.267670 14.714720
v -7.440600 29.267670 -11.000000
v -7.440600 26.952795 -11.000000
v -7.440600 26.952795 14.714720
v -7.440600 14.290780 14.714720
v -7.440600 14.290780 -11.000000
v -7.440600 15.840289 14.714720
v -7.440600 15.840289 -11.000000
v -7.440600 11.476604 -11.000000
v -7.440600 11.476604 14.714720
v -7.440600 6.267285 -11.000000
v -7.440600 20.737473 14.714720
v -7.440600 20.737473 -11.000000
v -7.440600 18.988478 -11.000000
v -7.440600 18.988478 14.714720
v -7.285748 30.768440 17.037487
v -7.285748 29.267670 17.037487
v -7.329482 14.290780 15.270310
v -7.329482 15.840289 15.270310
v -7.440600 23.853184 -11.000000
v -7.440600 0.768439 13.382422
v -7.440600 26.952795 13.382422
v -7.440600 11.476604 13.382422
v -7.440600 6.267285 13.382422
v -7.440600 20.737473 13.382422
v -7.440600 23.853184 13.382422
v -7.778913 0.768439 -11.000000
v -7.778913 30.768440 11.000000
v -7.778913 30.768440 14.714720
v -7.778913 29.267670 14.714720
v -7.778913 26.952795 14.714720
v -7.778913 14.290780 14.714720
v -7.778913 15.840289 14.714720
v -7.778913 11.476604 14.714720
v -7.778913 20.737473 14.714720
v -7.778913 18.988478 14.714720
v -7.624063 30.768440 17.037487
v -7.624063 29.267670 17.037487
v -7.667795 14.290780 15.270310
v -7.667795 15.840289 15.270310
v -7.778913 26.952795 13.382422
v -7.778913 11.476604 13.382422
v -7.778913 6.267285 13.382422
v -7.778913 20.737473 13.382422
v -7.778913 23.853184 13.382422
v -7.778914 30.768440 -11.000000
v -7.778914 0.768439 11.000000
v -7.778914 0.768439 14.714720
v -7.778914 29.267670 -11.000000
v -7.778914 26.952795 -11.000000
v -7.778914 14.290780 -11.000000
v -7.778914 15.840289 -11.000000
v -7.778914 11.476604 -11.000000
v -7.778914 6.267285 -11.000000
v -7.778914 20.737473 -11.000000
v -7.778914 18.988478 -11.000000
v -7.778914 23.853184 -11.000000
v -7.778914 0.768439 13.382422
v -7.440600 23.853184 13.846991
v -7.440600 20.737473 13.846991
v -7.440600 26.952795 13.846991
v -7.778913 26.952795 13.846991
v -7.778913 20.737473 13.846991
v -7.778913 23.853184 13.846991
v 7.747667 20.737473 12.850055
v 7.747667 18.988478 12.850055
v 6.247191 20.737473 12.850055
v 6.247191 18.988478 12.850055
v 7.747667 23.853184 12.850055
v 6.247191 23.853184 12.850055
v 7.747667 26.952795 12.850055
v 7.555298 26.952795 12.850055
v 7.555298 20.737473 12.850055
v 7.555298 18.988478 12.850055
v 7.555298 23.853184 12.850055
v 6.247191 26.952795 12.850055
v 6.054822 26.952795 12.850055
v 6.054822 20.737473 12.850055
v 6.054822 18.988478 12.850055
v 6.054822 23.853184 12.850055
v 7.747667 11.476604 14.180024
v 7.747667 6.267285 14.180024
v 6.247191 11.476604 14.180024
v 6.247191 6.267285 14.180024
v 7.555298 11.476604 14.180024
v 7.555298 6.267285 14.180024
v 6.054822 11.476604 14.180024
v 6.054822 6.267285 14.180024
vn -1.0000 -0.0000 -0.0000
vn -0.0000 -0.0000 -1.0000
vn 1.0000 -0.0000 -0.0000
vn -0.0000 1.0000 -0.0000
vn -0.0000 -1.0000 -0.0000
vn 0.9978 -0.0000 -0.0665
vn -0.0000 -0.0000 1.0000
vn -0.9806 -0.0000 0.1961
vn -0.9978 -0.0000 0.0665
vn 0.9806 -0.0000 -0.1961
vt 0.500000 0.000000
vt 0.625000 0.000000
vt 0.625000 0.250000
vt 0.500000 0.250000
vt 0.500000 0.483333
vt 0.625000 0.483333
vt 0.625000 0.500000
vt 0.500000 0.500000
vt 0.625000 0.750000
vt 0.500000 0.750000
vt 0.858333 0.750000
vt 0.875000 0.750000
vt 0.358333 0.500000
vt 0.375000 0.500000
vt 0.375000 0.750000
vt 0.358333 0.750000
vt 0.858333 0.500000
vt 0.875000 0.500000
vt 0.691667 0.500000
vt 0.708333 0.500000
vt 0.708333 0.750000
vt 0.691667 0.750000
vt 0.775000 0.500000
vt 0.791667 0.500000
vt 0.791667 0.750000
vt 0.775000 0.750000
vt 0.191667 0.500000
vt 0.208333 0.500000
vt 0.208333 0.750000
vt 0.191667 0.750000
vt 0.275000 0.500000
vt 0.291667 0.500000
vt 0.291667 0.750000
vt 0.275000 0.750000
vt 0.382812 0.833333
vt 0.375000 0.833333
vt 0.500000 0.316667
vt 0.625000 0.316667
vt 0.625000 0.333333
vt 0.500000 0.333333
vt 0.500000 0.400000
vt 0.625000 0.400000
vt 0.625000 0.416667
vt 0.500000 0.416667
vt 0.837500 0.750000
vt 0.841667 0.750000
vt 0.816667 0.750000
vt 0.825000 0.750000
vt 0.382812 0.000000
vt 0.375000 0.000000
vt 0.437500 0.916667
vt 0.500000 0.916667
vt 0.437500 0.750000
vt 0.437500 0.816667
vt 0.500000 0.816667
vt 0.500000 0.833333
vt 0.437500 0.833333
vt 0.437500 0.983333
vt 0.500000 0.983333
vt 0.500000 1.000000
vt 0.437500 1.000000
vt 0.437500 0.400000
vt 0.437500 0.416667
vt 0.437500 0.316667
vt 0.437500 0.333333
vt 0.437500 0.900000
vt 0.500000 0.900000
vt 0.625000 0.833333
vt 0.437500 0.500000
vt 0.437500 0.483333
vt 0.437500 0.000000
vt 0.437500 0.250000
vt 0.433594 0.000000
vt 0.433594 0.250000
vt 0.433594 0.483333
vt 0.433594 0.500000
vt 0.433594 0.750000
vt 0.433594 0.900000
vt 0.433594 0.916667
vt 0.433594 0.316667
vt 0.433594 0.333333
vt 0.433594 0.400000
vt 0.433594 0.416667
vt 0.433594 0.983333
vt 0.433594 1.000000
vt 0.433594 0.816667
vt 0.433594 0.833333
vt 0.390625 0.916667
vt 0.406250 0.916667
vt 0.390625 0.750000
vt 0.406250 0.750000
vt 0.390625 0.816667
vt 0.406250 0.816667
vt 0.406250 0.833333
vt 0.390625 0.833333
vt 0.390625 0.983333
vt 0.406250 0.983333
vt 0.406250 1.000000
vt 0.390625 1.000000
vt 0.390625 0.400000
vt 0.406250 0.400000
vt 0.406250 0.416667
vt 0.390625 0.416667
vt 0.390625 0.316667
vt 0.406250 0.316667
vt 0.406250 0.333333
vt 0.390625 0.333333
vt 0.390625 0.900000
vt 0.406250 0.900000
vt 0.390625 0.500000
vt 0.406250 0.500000
vt 0.390625 0.483333
vt 0.406250 0.483333
vt 0.390625 0.000000
vt 0.406250 0.000000
vt 0.406250 0.250000
vt 0.390625 0.250000
vt 0.421875 0.000000
vt 0.421875 0.833333
vt 0.425781 0.833333
vt 0.425781 0.000000
vt 0.421875 0.750000
vt 0.421875 0.816667
vt 0.421875 0.966667
vt 0.421875 0.983333
vt 0.421875 0.400000
vt 0.421875 0.416667
vt 0.421875 0.316667
vt 0.421875 0.333333
vt 0.421875 0.900000
vt 0.421875 0.916667
vt 0.421875 0.500000
vt 0.421875 0.483333
vt 0.421875 0.250000
vt 0.382812 0.250000
vt 0.382812 0.483333
vt 0.382812 0.500000
vt 0.382812 0.750000
vt 0.382812 0.900000
vt 0.382812 0.916667
vt 0.382812 0.316667
vt 0.382812 0.333333
vt 0.382812 0.400000
vt 0.382812 0.416667
vt 0.382812 0.983333
vt 0.382812 1.000000
vt 0.382812 0.816667
vt 0.375000 0.916667
vt 0.375000 0.816667
vt 0.375000 0.983333
vt 0.375000 1.000000
vt 0.375000 0.400000
vt 0.375000 0.416667
vt 0.375000 0.316667
vt 0.375000 0.333333
vt 0.375000 0.900000
vt 0.375000 0.483333
vt 0.375000 0.250000
vt 0.429688 0.000000
vt 0.429688 0.833333
vt 0.425781 0.916667
vt 0.429688 0.916667
vt 0.425781 0.750000
vt 0.429688 0.750000
vt 0.425781 0.816667
vt 0.429688 0.816667
vt 0.425781 0.983333
vt 0.429688 0.983333
vt 0.429688 1.000000
vt 0.425781 1.000000
vt 0.425781 0.400000
vt 0.429688 0.400000
vt 0.429688 0.416667
vt 0.425781 0.416667
vt 0.425781 0.316667
vt 0.429688 0.316667
vt 0.429688 0.333333
vt 0.425781 0.333333
vt 0.425781 0.900000
vt 0.429688 0.900000
vt 0.425781 0.500000
vt 0.429688 0.500000
vt 0.425781 0.483333
vt 0.429688 0.483333
vt 0.429688 0.250000
vt 0.425781 0.250000
vt 0.421875 1.000000
vt 0.425781 0.933333
vt 0.421875 0.933333
vt 0.421875 0.941667
vt 0.425781 0.941667
vt 0.425781 0.950000
vt 0.421875 0.950000
vt 0.421875 0.962500
vt 0.425781 0.962500
vt 0.425781 0.966667
vt 0.425781 0.266667
vt 0.421875 0.266667
vt 0.425781 0.283333
vt 0.421875 0.283333
vt 0.421875 0.291667
vt 0.425781 0.291667
vt 0.425781 0.300000
vt 0.421875 0.300000
vt 0.421875 0.308333
vt 0.425781 0.308333
vt 0.429688 0.266667
vt 0.429688 0.283333
vt 0.429688 0.291667
vt 0.429688 0.300000
vt 0.429688 0.308333
vt 0.429688 0.933333
vt 0.429688 0.941667
vt 0.429688 0.950000
vt 0.429688 0.962500
vt 0.429688 0.966667
vt 0.382812 0.266667
vt 0.375000 0.266667
vt 0.382812 0.283333
vt 0.375000 0.283333
vt 0.375000 0.291667
vt 0.382812 0.291667
vt 0.382812 0.300000
vt 0.375000 0.300000
vt 0.375000 0.308333
vt 0.382812 0.308333
vt 0.382812 0.933333
vt 0.375000 0.933333
vt 0.382812 0.766667
vt 0.390625 0.766667
vt 0.382812 0.883333
vt 0.382812 0.866667
vt 0.425781 0.850000
vt 0.429688 0.850000
vt 0.390625 0.933333
vt 0.382812 0.850000
vt 0.183333 0.750000
vt 0.390625 0.266667
vt 0.390625 0.283333
vt 0.390625 0.291667
vt 0.390625 0.300000
vt 0.390625 0.308333
vt 0.406250 0.266667
vt 0.406250 0.283333
vt 0.406250 0.291667
vt 0.406250 0.300000
vt 0.406250 0.308333
vt 0.406250 0.966667
vt 0.406250 0.958333
vt 0.406250 0.950000
vt 0.406250 0.933333
vt 0.390625 0.941667
vt 0.406250 0.941667
vt 0.390625 0.950000
vt 0.390625 0.962500
vt 0.406250 0.962500
vt 0.390625 0.966667
vt 0.437500 0.933333
vt 0.433594 0.933333
vt 0.390625 0.850000
vt 0.437500 0.266667
vt 0.433594 0.266667
vt 0.437500 0.283333
vt 0.433594 0.283333
vt 0.433594 0.291667
vt 0.437500 0.291667
vt 0.437500 0.300000
vt 0.433594 0.300000
vt 0.433594 0.308333
vt 0.437500 0.308333
vt 0.500000 0.266667
vt 0.500000 0.283333
vt 0.500000 0.291667
vt 0.500000 0.300000
vt 0.500000 0.308333
vt 0.500000 0.933333
vt 0.437500 0.941667
vt 0.500000 0.941667
vt 0.500000 0.950000
vt 0.437500 0.950000
vt 0.437500 0.962500
vt 0.500000 0.962500
vt 0.500000 0.966667
vt 0.437500 0.966667
vt 0.125000 0.750000
vt 0.141667 0.750000
vt 0.158333 0.750000
vt 0.166667 0.750000
vt 0.175000 0.750000
vt 0.758333 0.750000
vt 0.808333 0.750000
vt 0.741667 0.750000
vt 0.725000 0.750000
vt 0.625000 0.266667
vt 0.625000 0.283333
vt 0.625000 0.291667
vt 0.625000 0.300000
vt 0.625000 0.308333
vt 0.125000 0.500000
vt 0.141667 0.500000
vt 0.158333 0.500000
vt 0.166667 0.500000
vt 0.175000 0.500000
vt 0.183333 0.500000
vt 0.808333 0.500000
vt 0.816667 0.500000
vt 0.825000 0.500000
vt 0.837500 0.500000
vt 0.841667 0.500000
vt 0.425781 0.350000
vt 0.421875 0.350000
vt 0.425781 0.366667
vt 0.421875 0.366667
vt 0.425781 0.383333
vt 0.421875 0.383333
vt 0.421875 0.850000
vt 0.425781 0.866667
vt 0.421875 0.866667
vt 0.425781 0.883333
vt 0.421875 0.883333
vt 0.429688 0.958333
vt 0.429688 0.350000
vt 0.429688 0.366667
vt 0.429688 0.383333
vt 0.375000 0.850000
vt 0.375000 0.866667
vt 0.375000 0.883333
vt 0.382812 0.350000
vt 0.375000 0.350000
vt 0.382812 0.366667
vt 0.375000 0.366667
vt 0.382812 0.383333
vt 0.375000 0.383333
vt 0.390625 0.350000
vt 0.390625 0.366667
vt 0.390625 0.383333
vt 0.433594 0.850000
vt 0.406250 0.850000
vt 0.406250 0.866667
vt 0.406250 0.883333
vt 0.406250 0.350000
vt 0.406250 0.366667
vt 0.406250 0.383333
vt 0.390625 0.866667
vt 0.390625 0.883333
vt 0.437500 0.350000
vt 0.433594 0.350000
vt 0.437500 0.366667
vt 0.433594 0.366667
vt 0.437500 0.383333
vt 0.433594 0.383333
vt 0.437500 0.850000
vt 0.437500 0.866667
vt 0.433594 0.866667
vt 0.437500 0.883333
vt 0.433594 0.883333
vt 0.500000 0.850000
vt 0.500000 0.866667
vt 0.500000 0.883333
vt 0.500000 0.350000
vt 0.500000 0.366667
vt 0.500000 0.383333
vt 0.625000 0.350000
vt 0.625000 0.366667
vt 0.625000 0.383333
vt 0.500000 0.808333
vt 0.500000 0.800000
vt 0.225000 0.500000
vt 0.225000 0.750000
vt 0.241667 0.500000
vt 0.241667 0.750000
vt 0.258333 0.500000
vt 0.258333 0.750000
vt 0.725000 0.500000
vt 0.741667 0.500000
vt 0.758333 0.500000
vt 0.425781 0.766667
vt 0.421875 0.766667
vt 0.425781 0.783333
vt 0.421875 0.783333
vt 0.421875 0.791667
vt 0.425781 0.791667
vt 0.425781 0.800000
vt 0.421875 0.800000
vt 0.421875 0.808333
vt 0.425781 0.808333
vt 0.425781 0.433333
vt 0.421875 0.433333
vt 0.421875 0.441667
vt 0.425781 0.441667
vt 0.425781 0.450000
vt 0.421875 0.450000
vt 0.421875 0.458333
vt 0.425781 0.458333
vt 0.425781 0.466667
vt 0.421875 0.466667
vt 0.429688 0.433333
vt 0.429688 0.441667
vt 0.429688 0.450000
vt 0.429688 0.458333
vt 0.429688 0.466667
vt 0.429688 0.766667
vt 0.437500 0.808333
vt 0.382812 0.433333
vt 0.375000 0.433333
vt 0.375000 0.441667
vt 0.382812 0.441667
vt 0.382812 0.450000
vt 0.375000 0.450000
vt 0.375000 0.458333
vt 0.382812 0.458333
vt 0.382812 0.466667
vt 0.375000 0.466667
vt 0.375000 0.766667
vt 0.382812 0.783333
vt 0.375000 0.783333
vt 0.375000 0.791667
vt 0.382812 0.791667
vt 0.382812 0.800000
vt 0.375000 0.800000
vt 0.375000 0.808333
vt 0.382812 0.808333
vt 0.390625 0.783333
vt 0.390625 0.791667
vt 0.390625 0.433333
vt 0.390625 0.441667
vt 0.390625 0.450000
vt 0.390625 0.458333
vt 0.390625 0.466667
vt 0.406250 0.433333
vt 0.406250 0.441667
vt 0.406250 0.450000
vt 0.406250 0.458333
vt 0.406250 0.466667
vt 0.406250 0.766667
vt 0.406250 0.783333
vt 0.406250 0.791667
vt 0.406250 0.800000
vt 0.406250 0.808333
vt 0.390625 0.800000
vt 0.390625 0.808333
vt 0.437500 0.766667
vt 0.433594 0.766667
vt 0.437500 0.433333
vt 0.433594 0.433333
vt 0.433594 0.441667
vt 0.437500 0.441667
vt 0.437500 0.450000
vt 0.433594 0.450000
vt 0.433594 0.458333
vt 0.437500 0.458333
vt 0.437500 0.466667
vt 0.433594 0.466667
vt 0.500000 0.433333
vt 0.500000 0.441667
vt 0.500000 0.450000
vt 0.500000 0.458333
vt 0.500000 0.466667
vt 0.500000 0.766667
vt 0.500000 0.783333
vt 0.437500 0.783333
vt 0.437500 0.791667
vt 0.500000 0.791667
vt 0.437500 0.800000
vt 0.308333 0.750000
vt 0.316667 0.750000
vt 0.325000 0.750000
vt 0.333333 0.750000
vt 0.341667 0.750000
vt 0.641667 0.750000
vt 0.658333 0.750000
vt 0.666667 0.750000
vt 0.675000 0.750000
vt 0.683333 0.750000
vt 0.500000 0.958333
vt 0.641667 0.500000
vt 0.658333 0.500000
vt 0.666667 0.500000
vt 0.675000 0.500000
vt 0.683333 0.500000
vt 0.308333 0.500000
vt 0.316667 0.500000
vt 0.325000 0.500000
vt 0.333333 0.500000
vt 0.341667 0.500000
vt 0.625000 0.433333
vt 0.625000 0.441667
vt 0.625000 0.450000
vt 0.625000 0.458333
vt 0.625000 0.466667
vt 0.625000 0.900000
vt 0.625000 0.916667
vt 0.625000 0.983333
vt 0.625000 1.000000
vt 0.625000 0.816667
vt 0.625000 0.933333
vt 0.625000 0.941667
vt 0.625000 0.950000
vt 0.625000 0.962500
vt 0.625000 0.966667
vt 0.625000 0.850000
vt 0.625000 0.866667
vt 0.625000 0.883333
vt 0.625000 0.766667
vt 0.625000 0.783333
vt 0.625000 0.791667
vt 0.625000 0.800000
vt 0.625000 0.808333
vt 0.429688 0.783333
vt 0.429688 0.791667
vt 0.429688 0.800000
vt 0.429688 0.808333
vt 0.433594 0.783333
vt 0.433594 0.791667
vt 0.433594 0.800000
vt 0.433594 0.808333
vt 0.375000 0.941667
vt 0.382812 0.941667
vt 0.382812 0.950000
vt 0.375000 0.950000
vt 0.375000 0.962500
vt 0.382812 0.962500
vt 0.382812 0.966667
vt 0.375000 0.966667
vt 0.433594 0.941667
vt 0.433594 0.950000
vt 0.433594 0.962500
vt 0.433594 0.966667
vt 0.429688 0.866667
vt 0.429688 0.883333
vt 0.390625 0.958333
vt 0.433594 0.958333
vt 0.437500 0.958333
vt 0.382812 0.958333
vt 0.375000 0.958333
vt 0.429688 0.287500
vt 0.433594 0.287500
vt 0.421875 0.958333
vt 0.625000 0.958333
vt 0.162500 0.750000
vt 0.833333 0.750000
vt 0.833333 0.500000
vt 0.162500 0.500000
vt 0.500000 0.287500
vt 0.625000 0.287500
vt 0.437500 0.287500
vt 0.390625 0.287500
vt 0.406250 0.287500
vt 0.421875 0.287500
vt 0.382812 0.287500
vt 0.375000 0.287500
vt 0.425781 0.958333
vt 0.425781 0.287500
s 0
usemtl pared
f 25/1/1 2/2/1 4/3/1 26/4/1
f 316/5/2 288/6/2 8/7/2 27/8/2
f 27/8/3 8/7/3 6/9/3 28/10/3
f 128/11/4 2/12/4 18/12/4 140/11/4
f 293/13/5 7/14/5 5/15/5 292/16/5
f 129/17/4 4/18/4 2/12/4 128/11/4
f 285/19/4 12/20/4 15/21/4 300/22/4
f 211/23/4 11/24/4 16/25/4 222/26/4
f 121/27/5 10/28/5 13/29/5 136/30/5
f 207/31/5 9/32/5 14/33/5 218/34/5
f 88/35/1 14/36/1 21/36/1 93/35/1
f 34/10/6 19/9/6 382/9/6 383/10/6
f 152/37/2 132/38/2 11/39/2 31/40/2
f 226/41/2 214/42/2 12/43/2 32/44/2
f 647/45/4 139/46/4 391/46/4 655/45/4
f 16/25/4 22/25/4 378/25/4 372/25/4
f 28/10/3 6/9/3 19/9/3 34/10/3
f 300/22/4 15/21/4 24/21/4 308/22/4
f 136/30/5 13/29/5 23/29/5 144/30/5
f 489/47/4 138/48/4 390/48/4 506/47/4
f 95/49/1 1/50/1 17/50/1 96/49/1
f 292/16/5 5/15/5 20/15/5 304/16/5
f 2/2/1 25/1/1 33/1/1 18/2/1
f 41/51/3 30/52/3 36/52/3 46/51/3
f 39/53/3 28/10/3 34/10/3 44/53/3
f 324/54/7 312/55/7 35/56/7 45/57/7
f 160/58/7 148/59/7 33/60/7 48/61/7
f 238/62/2 226/41/2 32/44/2 43/63/2
f 156/64/2 152/37/2 31/40/2 42/65/2
f 38/69/3 27/8/3 28/10/3 39/53/3
f 320/70/2 316/5/2 27/8/2 38/69/2
f 47/71/1 25/1/1 26/4/1 37/72/1
f 510/73/1 47/71/1 37/72/1 512/74/1
f 541/75/2 320/70/2 38/69/2 513/76/2
f 513/76/3 38/69/3 39/53/3 514/77/3
f 527/80/2 156/64/2 42/65/2 517/81/2
f 531/82/2 238/62/2 43/63/2 518/83/2
f 523/84/7 160/58/7 48/61/7 511/85/7
f 537/86/7 324/54/7 45/57/7 520/87/7
f 514/77/3 39/53/3 44/53/3 519/77/3
f 516/79/3 41/51/3 46/51/3 521/79/3
f 25/1/1 47/71/1 48/71/1 33/1/1
f 29/56/1 40/57/1 45/57/1 35/56/1
f 77/88/3 53/89/3 58/89/3 82/88/3
f 75/90/3 51/91/3 56/91/3 80/90/3
f 348/92/7 328/93/7 57/94/7 81/95/7
f 184/96/7 164/97/7 60/98/7 84/99/7
f 262/100/2 242/101/2 55/102/2 79/103/2
f 180/104/2 168/105/2 54/106/2 78/107/2
f 74/110/3 50/111/3 51/91/3 75/90/3
f 344/112/2 332/113/2 50/111/2 74/110/2
f 83/114/1 59/115/1 49/116/1 73/117/1
f 61/118/1 59/115/1 60/115/1 62/118/1
f 66/119/1 52/94/1 57/94/1 71/119/1
f 112/120/1 66/119/1 71/119/1 117/120/1
f 119/121/1 61/118/1 62/118/1 120/121/1
f 62/118/8 60/115/8 412/115/8 413/118/8
f 51/91/3 65/122/3 70/122/3 56/91/3
f 328/93/7 336/123/7 71/119/7 57/94/7
f 171/124/4 172/125/4 414/125/4 420/124/4
f 242/101/2 250/126/2 69/127/2 55/102/2
f 168/105/2 176/128/2 68/129/2 54/106/2
f 50/111/3 64/132/3 65/122/3 51/91/3
f 332/113/2 340/133/2 64/132/2 50/111/2
f 59/115/1 61/118/1 63/134/1 49/116/1
f 95/49/1 83/114/1 73/117/1 85/135/1
f 356/136/2 344/112/2 74/110/2 86/137/2
f 86/137/3 74/110/3 75/90/3 87/138/3
f 190/141/2 180/104/2 78/107/2 90/142/2
f 266/143/2 262/100/2 79/103/2 91/144/2
f 186/145/7 184/96/7 84/99/7 96/146/7
f 352/147/7 348/92/7 81/95/7 93/35/7
f 87/138/3 75/90/3 80/90/3 92/138/3
f 89/140/3 77/88/3 82/88/3 94/140/3
f 59/115/1 83/114/1 84/114/1 60/115/1
f 52/94/1 76/95/1 81/95/1 57/94/1
f 13/148/3 89/140/3 94/140/3 23/148/3
f 5/15/3 87/138/3 92/138/3 20/15/3
f 301/149/7 352/147/7 93/35/7 21/36/7
f 141/150/7 186/145/7 96/146/7 17/151/7
f 207/152/2 266/143/2 91/144/2 9/153/2
f 121/154/2 190/141/2 90/142/2 10/155/2
f 7/14/3 86/137/3 87/138/3 5/15/3
f 293/157/2 356/136/2 86/137/2 7/14/2
f 1/50/1 95/49/1 85/135/1 3/158/1
f 83/114/1 95/49/1 96/49/1 84/114/1
f 76/95/1 88/35/1 93/35/1 81/95/1
f 510/73/1 97/159/1 98/159/1 511/73/1
f 515/87/1 102/160/1 107/160/1 520/87/1
f 113/161/3 103/162/3 108/162/3 118/161/3
f 111/163/3 101/164/3 106/164/3 116/163/3
f 370/165/7 358/166/7 107/160/7 117/120/7
f 206/167/7 194/168/7 98/169/7 120/170/7
f 284/171/2 274/172/2 105/173/2 115/174/2
f 202/175/2 198/176/2 104/177/2 114/178/2
f 110/181/3 100/182/3 101/164/3 111/163/3
f 366/183/2 362/184/2 100/182/2 110/181/2
f 119/121/1 97/159/1 99/185/1 109/186/1
f 61/118/1 119/121/1 109/186/1 63/134/1
f 340/133/2 366/183/2 110/181/2 64/132/2
f 64/132/3 110/181/3 111/163/3 65/122/3
f 176/128/2 202/175/2 114/178/2 68/129/2
f 250/126/2 284/171/2 115/174/2 69/127/2
f 172/125/7 206/167/7 120/170/7 62/187/7
f 336/123/7 370/165/7 117/120/7 71/119/7
f 65/122/3 111/163/3 116/163/3 70/122/3
f 67/131/3 113/161/3 118/161/3 72/131/3
f 97/159/1 119/121/1 120/121/1 98/159/1
f 102/160/1 112/120/1 117/120/1 107/160/1
f 72/131/7 118/161/7 203/188/7 169/189/7
f 497/190/7 505/191/7 204/192/7 170/193/7
f 651/194/7 654/195/7 205/196/7 171/124/7
f 171/124/7 205/196/7 206/167/7 172/125/7
f 63/134/2 109/186/2 199/197/2 173/198/2
f 173/198/2 199/197/2 200/199/2 174/200/2
f 626/201/2 632/202/2 201/203/2 175/204/2
f 498/205/2 504/206/2 202/175/2 176/128/2
f 109/186/2 99/185/2 195/207/2 199/197/2
f 199/197/2 195/207/2 196/208/2 200/199/2
f 632/202/2 631/209/2 197/210/2 201/203/2
f 504/206/2 503/211/2 198/176/2 202/175/2
f 118/161/7 108/162/7 191/212/7 203/188/7
f 505/191/7 502/213/7 192/214/7 204/192/7
f 654/195/7 653/215/7 193/216/7 205/196/7
f 205/196/7 193/216/7 194/168/7 206/167/7
f 3/158/2 85/135/2 187/217/2 124/218/2
f 124/218/2 187/217/2 188/219/2 123/220/2
f 613/221/2 629/222/2 189/223/2 122/224/2
f 485/225/2 501/226/2 190/141/2 121/154/2
f 23/148/7 94/140/7 185/227/7 144/228/7
f 349/229/1 345/230/1 599/230/1 605/229/1
f 277/233/1 275/234/1 587/234/1 591/233/1
f 94/140/7 82/88/7 181/235/7 185/227/7
f 258/108/3 270/139/3 586/139/3 582/108/3
f 490/237/4 144/30/4 555/30/4 554/237/4
f 85/135/2 73/117/2 177/238/2 187/217/2
f 187/217/2 177/238/2 178/239/2 188/219/2
f 629/222/2 627/240/2 179/241/2 189/223/2
f 501/226/2 499/242/2 180/104/2 190/141/2
f 49/116/2 63/134/2 173/198/2 165/243/2
f 165/243/2 173/198/2 174/200/2 166/244/2
f 624/245/2 626/201/2 175/204/2 167/246/2
f 496/247/2 498/205/2 176/128/2 168/105/2
f 164/97/5 163/248/5 417/248/5 411/97/5
f 651/194/4 171/124/4 420/124/4 658/194/4
f 623/249/5 162/250/5 416/250/5 636/249/5
f 67/131/4 72/131/4 409/131/4 407/131/4
f 73/117/2 49/116/2 165/243/2 177/238/2
f 177/238/2 165/243/2 166/244/2 178/239/2
f 627/240/2 624/245/2 167/246/2 179/241/2
f 499/242/2 496/247/2 168/105/2 180/104/2
f 82/88/7 58/89/7 161/251/7 181/235/7
f 500/252/7 495/253/7 162/250/7 182/254/7
f 652/255/7 650/256/7 163/248/7 183/257/7
f 183/257/7 163/248/7 164/97/7 184/96/7
f 521/79/7 46/51/7 157/258/7 522/259/7
f 535/78/3 276/180/3 590/180/3 598/78/3
f 194/168/4 193/216/4 570/216/4 571/168/4
f 267/236/1 255/260/1 579/260/1 583/236/1
f 512/74/2 37/72/2 153/261/2 524/262/2
f 524/262/2 153/261/2 154/263/2 525/264/2
f 638/265/2 621/266/2 155/267/2 526/268/2
f 550/269/2 493/270/2 156/64/2 527/80/2
f 37/72/2 26/4/2 149/271/2 153/261/2
f 153/261/2 149/271/2 150/272/2 154/263/2
f 621/266/2 620/273/2 151/274/2 155/267/2
f 493/270/2 492/275/2 152/37/2 156/64/2
f 46/51/7 36/52/7 145/276/7 157/258/7
f 494/277/7 491/278/7 146/279/7 158/280/7
f 649/281/7 648/282/7 147/283/7 159/284/7
f 159/284/7 147/283/7 148/59/7 160/58/7
f 1/285/5 133/286/5 141/286/5 17/285/5
f 133/286/5 134/287/5 142/287/5 141/286/5
f 616/288/5 135/289/5 143/289/5 618/288/5
f 488/237/5 136/30/5 144/30/5 490/237/5
f 221/290/4 222/26/4 371/26/4 397/290/4
f 22/25/4 137/291/4 389/291/4 378/25/4
f 220/292/4 221/290/4 397/290/4 396/292/4
f 219/293/4 220/292/4 396/292/4 395/293/4
f 26/4/2 4/3/2 129/294/2 149/271/2
f 149/271/2 129/294/2 130/295/2 150/272/2
f 620/273/2 615/296/2 131/297/2 151/274/2
f 492/275/2 487/298/2 132/38/2 152/37/2
f 3/299/5 124/300/5 133/286/5 1/285/5
f 124/300/5 123/301/5 134/287/5 133/286/5
f 613/302/5 122/303/5 135/289/5 616/288/5
f 485/304/5 121/27/5 136/30/5 488/237/5
f 11/24/4 132/305/4 125/291/4 16/25/4
f 487/306/4 131/307/4 126/48/4 486/47/4
f 664/308/4 130/309/4 127/46/4 646/45/4
f 130/309/4 129/17/4 128/11/4 127/46/4
f 16/25/4 125/291/4 137/291/4 22/25/4
f 486/47/4 126/48/4 138/48/4 489/47/4
f 646/45/4 127/46/4 139/46/4 647/45/4
f 127/46/4 128/11/4 140/11/4 139/46/4
f 68/129/2 114/178/2 281/310/2 247/311/2
f 247/311/2 281/310/2 282/312/2 248/313/2
f 248/313/2 282/312/2 283/314/2 249/315/2
f 249/315/2 283/314/2 284/171/2 250/126/2
f 618/288/4 143/289/4 553/289/4 639/288/4
f 630/321/4 192/214/4 569/214/4 643/321/4
f 141/286/4 142/287/4 552/287/4 551/286/4
f 114/178/2 104/177/2 271/322/2 281/310/2
f 281/310/2 271/322/2 272/323/2 282/312/2
f 282/312/2 272/323/2 273/324/2 283/314/2
f 283/314/2 273/324/2 274/172/2 284/171/2
f 10/155/2 90/142/2 263/328/2 210/329/2
f 210/329/2 263/328/2 264/330/2 209/331/2
f 209/331/2 264/330/2 265/332/2 208/333/2
f 208/333/2 265/332/2 266/143/2 207/152/2
f 90/142/2 78/107/2 259/334/2 263/328/2
f 263/328/2 259/334/2 260/335/2 264/330/2
f 264/330/2 260/335/2 261/336/2 265/332/2
f 265/332/2 261/336/2 262/100/2 266/143/2
f 192/214/4 502/213/4 568/213/4 569/214/4
f 502/213/4 191/212/4 575/212/4 568/213/4
f 275/234/1 532/337/1 595/337/1 587/234/1
f 54/106/2 68/129/2 247/311/2 239/341/2
f 239/341/2 247/311/2 248/313/2 240/342/2
f 240/342/2 248/313/2 249/315/2 241/343/2
f 241/343/2 249/315/2 250/126/2 242/101/2
f 78/107/2 54/106/2 239/341/2 259/334/2
f 259/334/2 239/341/2 240/342/2 260/335/2
f 260/335/2 240/342/2 241/343/2 261/336/2
f 261/336/2 241/343/2 242/101/2 262/100/2
f 517/81/2 42/65/2 235/346/2 528/347/2
f 528/347/2 235/346/2 236/348/2 529/349/2
f 529/349/2 236/348/2 237/350/2 530/351/2
f 530/351/2 237/350/2 238/62/2 531/82/2
f 42/65/2 31/40/2 223/360/2 235/346/2
f 235/346/2 223/360/2 224/361/2 236/348/2
f 236/348/2 224/361/2 225/362/2 237/350/2
f 237/350/2 225/362/2 226/41/2 238/62/2
f 31/40/2 11/39/2 211/363/2 223/360/2
f 223/360/2 211/363/2 212/364/2 224/361/2
f 224/361/2 212/364/2 213/365/2 225/362/2
f 225/362/2 213/365/2 214/42/2 226/41/2
f 30/52/5 230/67/5 388/67/5 381/52/5
f 465/366/5 311/367/5 406/367/5 481/366/5
f 15/21/4 219/293/4 395/293/4 379/21/4
f 148/59/5 147/283/5 394/283/5 387/59/5
f 10/28/5 210/368/5 215/369/5 13/29/5
f 210/368/5 209/370/5 216/371/5 215/369/5
f 209/370/5 208/372/5 217/373/5 216/371/5
f 208/372/5 207/31/5 218/34/5 217/373/5
f 12/20/4 214/374/4 219/293/4 15/21/4
f 214/374/4 213/375/4 220/292/4 219/293/4
f 213/375/4 212/376/4 221/290/4 220/292/4
f 212/376/4 211/23/4 222/26/4 221/290/4
f 70/122/7 116/163/7 367/377/7 333/378/7
f 333/378/7 367/377/7 368/379/7 334/380/7
f 445/381/7 453/382/7 369/383/7 335/384/7
f 471/385/7 479/386/7 370/165/7 336/123/7
f 69/127/2 115/174/2 363/387/2 337/388/2
f 472/389/2 478/390/2 364/391/2 338/392/2
f 446/393/2 452/394/2 365/395/2 339/396/2
f 339/396/2 365/395/2 366/183/2 340/133/2
f 115/174/2 105/173/2 359/397/2 363/387/2
f 478/390/2 477/398/2 360/399/2 364/391/2
f 452/394/2 451/400/2 361/401/2 365/395/2
f 365/395/2 361/401/2 362/184/2 366/183/2
f 116/163/7 106/164/7 357/402/7 367/377/7
f 537/86/3 358/166/3 428/166/3 545/86/3
f 479/386/4 369/383/4 431/383/4 484/386/4
f 468/403/5 324/54/5 424/54/5 482/403/5
f 9/153/2 91/144/2 353/404/2 296/405/2
f 461/406/2 476/407/2 354/408/2 295/409/2
f 435/410/2 450/411/2 355/412/2 294/413/2
f 294/413/2 355/412/2 356/136/2 293/157/2
f 20/15/7 92/138/7 349/229/7 304/414/7
f 304/414/7 349/229/7 350/415/7 303/416/7
f 437/417/7 449/418/7 351/419/7 302/420/7
f 463/421/7 475/422/7 352/147/7 301/149/7
f 92/138/7 80/90/7 345/230/7 349/229/7
f 449/418/4 350/415/4 606/415/4 607/418/4
f 475/422/4 351/419/4 608/419/4 609/422/4
f 346/423/5 448/424/5 601/424/5 600/423/5
f 91/144/2 79/103/2 341/425/2 353/404/2
f 476/407/2 473/426/2 342/427/2 354/408/2
f 450/411/2 447/428/2 343/429/2 355/412/2
f 355/412/2 343/429/2 344/112/2 356/136/2
f 55/102/2 69/127/2 337/388/2 329/430/2
f 470/431/2 472/389/2 338/392/2 330/432/2
f 444/433/2 446/393/2 339/396/2 331/434/2
f 331/434/2 339/396/2 340/133/2 332/113/2
f 56/91/7 70/122/7 333/378/7 325/435/7
f 325/435/7 333/378/7 334/380/7 326/436/7
f 443/437/7 445/381/7 335/384/7 327/438/7
f 469/439/7 471/385/7 336/123/7 328/93/7
f 79/103/2 55/102/2 329/430/2 341/425/2
f 473/426/2 470/431/2 330/432/2 342/427/2
f 447/428/2 444/433/2 331/434/2 343/429/2
f 343/429/2 331/434/2 332/113/2 344/112/2
f 80/90/7 56/91/7 325/435/7 345/230/7
f 345/230/7 325/435/7 326/436/7 346/423/7
f 448/424/7 443/437/7 327/438/7 347/440/7
f 474/441/7 469/439/7 328/93/7 348/92/7
f 519/77/7 44/53/7 321/442/7 536/443/7
f 367/377/1 357/402/1 425/402/1 429/377/1
f 358/166/3 370/165/3 432/165/3 428/166/3
f 453/382/4 368/379/4 430/379/4 458/382/4
f 518/83/2 43/63/2 317/444/2 538/445/2
f 549/446/2 467/447/2 318/448/2 539/449/2
f 547/450/2 441/451/2 319/452/2 540/453/2
f 540/453/2 319/452/2 320/70/2 541/75/2
f 43/63/2 32/44/2 313/454/2 317/444/2
f 467/447/2 466/455/2 314/456/2 318/448/2
f 441/451/2 440/457/2 315/458/2 319/452/2
f 319/452/2 315/458/2 316/5/2 320/70/2
f 44/53/7 34/10/7 309/459/7 321/442/7
f 321/442/7 309/459/7 310/460/7 322/461/7
f 442/462/7 439/463/7 311/367/7 323/464/7
f 468/403/7 465/366/7 312/55/7 324/54/7
f 14/33/5 289/465/5 301/465/5 21/33/5
f 460/466/5 290/467/5 302/467/5 463/466/5
f 434/468/5 291/469/5 303/469/5 437/468/5
f 291/469/5 292/16/5 304/16/5 303/469/5
f 6/9/4 297/470/4 305/470/4 19/9/4
f 297/470/4 298/471/4 306/471/4 305/470/4
f 436/472/4 299/473/4 307/473/4 438/472/4
f 462/474/4 300/22/4 308/22/4 464/474/4
f 439/463/5 310/460/5 405/460/5 455/463/5
f 29/56/6 15/68/6 379/68/6 380/56/6
f 619/475/5 146/279/5 393/279/5 635/475/5
f 310/460/5 309/459/5 404/459/5 405/460/5
f 8/7/4 288/476/4 297/470/4 6/9/4
f 288/476/4 287/477/4 298/471/4 297/470/4
f 433/478/4 286/479/4 299/473/4 436/472/4
f 459/480/4 285/19/4 300/22/4 462/474/4
f 9/32/5 296/481/5 289/465/5 14/33/5
f 461/482/5 295/483/5 290/467/5 460/466/5
f 435/484/5 294/485/5 291/469/5 434/468/5
f 294/485/5 293/13/5 292/16/5 291/469/5
f 32/44/2 12/43/2 285/486/2 313/454/2
f 466/455/2 459/487/2 286/488/2 314/456/2
f 440/457/2 433/489/2 287/490/2 315/458/2
f 315/458/2 287/490/2 288/6/2 316/5/2
f 139/46/4 140/11/4 375/11/4 391/46/4
f 18/2/9 33/1/9 373/1/9 374/2/9
f 19/9/4 305/470/4 401/470/4 382/9/4
f 227/357/5 29/56/5 380/56/5 398/357/5
f 305/470/4 306/471/4 402/471/4 401/470/4
f 36/52/5 30/52/5 381/52/5 385/52/5
f 228/358/5 227/357/5 398/357/5 399/358/5
f 140/11/4 18/12/4 374/12/4 375/11/4
f 438/472/4 307/473/4 403/473/4 454/472/4
f 229/359/5 228/358/5 399/358/5 400/359/5
f 464/474/4 308/22/4 376/22/4 480/474/4
f 145/276/5 36/52/5 385/52/5 392/276/5
f 35/56/5 312/55/5 386/55/5 384/56/5
f 222/26/4 16/25/4 372/25/4 371/26/4
f 308/22/4 24/21/4 377/21/4 376/22/4
f 230/67/5 229/359/5 400/359/5 388/67/5
f 309/459/5 34/10/5 383/10/5 404/459/5
f 491/278/5 145/276/5 392/276/5 507/278/5
f 33/60/5 148/59/5 387/59/5 373/60/5
f 53/89/10 67/131/10 407/131/10 408/89/10
f 172/125/4 62/187/4 413/187/4 414/125/4
f 58/89/5 53/89/5 408/89/5 410/89/5
f 161/251/5 58/89/5 410/89/5 415/251/5
f 72/131/4 169/189/4 418/189/4 409/131/4
f 495/253/5 161/251/5 415/251/5 508/253/5
f 60/98/5 164/97/5 411/97/5 412/98/5
f 497/190/4 170/193/4 419/193/4 509/190/4
f 321/442/5 322/461/5 422/461/5 421/442/5
f 368/379/4 367/377/4 429/377/4 430/379/4
f 536/443/1 321/442/1 421/442/1 542/443/1
f 442/462/5 323/464/5 423/464/5 456/462/5
f 322/461/5 442/462/5 456/462/5 422/461/5
f 484/386/5 431/383/5 686/383/5 697/386/5
f 458/382/5 430/379/5 684/379/5 692/382/5
f 306/471/4 438/472/4 454/472/4 402/471/4
f 314/456/2 286/488/2 433/489/2 440/457/2
f 295/483/5 435/484/5 434/468/5 290/467/5
f 287/477/4 433/478/4 436/472/4 298/471/4
f 311/367/5 439/463/5 455/463/5 406/367/5
f 298/471/4 436/472/4 438/472/4 306/471/4
f 290/467/5 434/468/5 437/468/5 302/467/5
f 322/461/7 310/460/7 439/463/7 442/462/7
f 318/448/2 314/456/2 440/457/2 441/451/2
f 539/449/2 318/448/2 441/451/2 547/450/2
f 369/383/4 453/382/4 458/382/4 431/383/4
f 346/423/7 326/436/7 443/437/7 448/424/7
f 342/427/2 330/432/2 444/433/2 447/428/2
f 326/436/7 334/380/7 445/381/7 443/437/7
f 330/432/2 338/392/2 446/393/2 444/433/2
f 354/408/2 342/427/2 447/428/2 450/411/2
f 347/440/5 474/441/5 603/441/5 602/440/5
f 303/416/7 350/415/7 449/418/7 437/417/7
f 295/409/2 354/408/2 450/411/2 435/410/2
f 364/391/2 360/399/2 451/400/2 452/394/2
f 338/392/2 364/391/2 452/394/2 446/393/2
f 334/380/7 368/379/7 453/382/7 445/381/7
f 456/462/1 546/514/1 693/514/1 690/462/1
f 307/473/4 464/474/4 480/474/4 403/473/4
f 313/454/2 285/486/2 459/487/2 466/455/2
f 296/481/5 461/482/5 460/466/5 289/465/5
f 286/479/4 459/480/4 462/474/4 299/473/4
f 299/473/4 462/474/4 464/474/4 307/473/4
f 289/465/5 460/466/5 463/466/5 301/465/5
f 323/464/7 311/367/7 465/366/7 468/403/7
f 317/444/2 313/454/2 466/455/2 467/447/2
f 538/445/2 317/444/2 467/447/2 549/446/2
f 347/440/7 327/438/7 469/439/7 474/441/7
f 341/425/2 329/430/2 470/431/2 473/426/2
f 327/438/7 335/384/7 471/385/7 469/439/7
f 329/430/2 337/388/2 472/389/2 470/431/2
f 353/404/2 341/425/2 473/426/2 476/407/2
f 257/345/5 258/108/5 582/108/5 581/345/5
f 302/420/7 351/419/7 475/422/7 463/421/7
f 296/405/2 353/404/2 476/407/2 461/406/2
f 323/464/5 468/403/5 482/403/5 423/464/5
f 370/165/4 479/386/4 484/386/4 432/165/4
f 363/387/2 359/397/2 477/398/2 478/390/2
f 337/388/2 363/387/2 478/390/2 472/389/2
f 335/384/7 369/383/7 479/386/7 471/385/7
f 312/55/5 465/366/5 481/366/5 386/55/5
f 169/189/4 497/190/4 509/190/4 418/189/4
f 162/250/5 495/253/5 508/253/5 416/250/5
f 146/279/5 491/278/5 507/278/5 393/279/5
f 125/291/4 486/47/4 489/47/4 137/291/4
f 132/305/4 487/306/4 486/47/4 125/291/4
f 122/303/5 485/304/5 488/237/5 135/289/5
f 151/274/2 131/297/2 487/298/2 492/275/2
f 135/289/5 488/237/5 490/237/5 143/289/5
f 157/258/7 145/276/7 491/278/7 494/277/7
f 155/267/2 151/274/2 492/275/2 493/270/2
f 526/268/2 155/267/2 493/270/2 550/269/2
f 181/235/5 500/252/5 560/252/5 573/235/5
f 181/235/7 161/251/7 495/253/7 500/252/7
f 179/241/2 167/246/2 496/247/2 499/242/2
f 167/246/2 175/204/2 498/205/2 496/247/2
f 189/223/2 179/241/2 499/242/2 501/226/2
f 160/58/3 523/84/3 578/84/3 559/58/3
f 256/344/5 257/345/5 581/345/5 580/344/5
f 122/224/2 189/223/2 501/226/2 485/225/2
f 203/188/7 191/212/7 502/213/7 505/191/7
f 201/203/2 197/210/2 503/211/2 504/206/2
f 175/204/2 201/203/2 504/206/2 498/205/2
f 169/189/7 203/188/7 505/191/7 497/190/7
f 137/291/4 489/47/4 506/47/4 389/291/4
f 255/260/5 256/344/5 580/344/5 579/260/5
f 197/210/2 526/268/2 550/269/2 503/211/2
f 359/397/2 538/445/2 549/446/2 477/398/2
f 360/399/2 539/449/2 547/450/2 451/400/2
f 423/464/4 482/403/4 695/403/4 694/464/4
f 357/402/1 536/443/1 542/443/1 425/402/1
f 361/401/2 540/453/2 541/75/2 362/184/2
f 451/400/2 547/450/2 540/453/2 361/401/2
f 477/398/2 549/446/2 539/449/2 360/399/2
f 105/173/2 518/83/2 538/445/2 359/397/2
f 106/164/7 519/77/7 536/443/7 357/402/7
f 324/54/3 537/86/3 545/86/3 424/54/3
f 280/179/4 279/319/4 593/319/4 594/179/4
f 279/319/4 278/317/4 592/317/4 593/319/4
f 522/259/1 157/258/1 611/258/1 574/259/1
f 273/324/2 530/351/2 531/82/2 274/172/2
f 272/323/2 529/349/2 530/351/2 273/324/2
f 271/322/2 528/347/2 529/349/2 272/323/2
f 104/177/2 517/81/2 528/347/2 271/322/2
f 503/211/2 550/269/2 527/80/2 198/176/2
f 631/209/2 638/265/2 526/268/2 197/210/2
f 195/207/2 524/262/2 525/264/2 196/208/2
f 99/185/2 512/74/2 524/262/2 195/207/2
f 278/317/4 277/233/4 591/233/4 592/317/4
f 159/284/5 160/58/5 559/58/5 558/284/5
f 649/281/5 159/284/5 558/284/5 659/281/5
f 108/162/7 521/79/7 522/259/7 191/212/7
f 40/57/1 515/87/1 520/87/1 45/57/1
f 47/71/1 510/73/1 511/73/1 48/71/1
f 103/162/3 516/79/3 521/79/3 108/162/3
f 101/164/3 514/77/3 519/77/3 106/164/3
f 358/166/7 537/86/7 520/87/7 107/160/7
f 194/168/7 523/84/7 511/85/7 98/169/7
f 274/172/2 531/82/2 518/83/2 105/173/2
f 198/176/2 527/80/2 517/81/2 104/177/2
f 100/182/3 513/76/3 514/77/3 101/164/3
f 362/184/2 541/75/2 513/76/2 100/182/2
f 97/159/1 510/73/1 512/74/1 99/185/1
f 609/422/5 608/419/5 702/419/5 706/422/5
f 144/228/1 185/227/1 572/227/1 555/228/1
f 345/230/5 346/423/5 600/423/5 599/230/5
f 448/424/5 347/440/5 602/440/5 601/424/5
f 191/212/1 522/259/1 574/259/1 575/212/1
f 276/180/3 280/179/3 594/179/3 590/180/3
f 348/92/3 352/147/3 610/147/3 604/92/3
f 474/441/5 348/92/5 604/92/5 603/441/5
f 186/145/3 141/150/3 551/150/3 567/145/3
f 185/227/1 181/235/1 573/235/1 572/227/1
f 143/289/4 490/237/4 554/237/4 553/289/4
f 523/84/3 194/168/3 571/168/3 578/84/3
f 350/415/4 349/229/4 605/229/4 606/415/4
f 500/252/5 182/254/5 561/254/5 560/252/5
f 351/419/4 449/418/4 607/418/4 608/419/4
f 534/356/5 535/78/5 598/78/5 597/356/5
f 652/255/5 183/257/5 562/257/5 660/255/5
f 352/147/4 475/422/4 609/422/4 610/147/4
f 184/96/3 186/145/3 567/145/3 563/96/3
f 533/354/5 534/356/5 597/356/5 596/354/5
f 183/257/5 184/96/5 563/96/5 562/257/5
f 494/277/5 158/280/5 557/280/5 556/277/5
f 157/258/5 494/277/5 556/277/5 611/258/5
f 532/337/5 533/354/5 596/354/5 595/337/5
f 182/254/5 628/531/5 641/531/5 561/254/5
f 158/280/5 622/533/5 640/533/5 557/280/5
f 673/536/2 675/537/2 638/265/2 631/209/2
f 648/282/5 619/475/5 635/475/5 656/282/5
f 653/215/4 630/321/4 643/321/4 662/215/4
f 666/540/4 618/288/4 639/288/4 676/540/4
f 126/48/4 614/541/4 617/541/4 138/48/4
f 131/307/4 615/542/4 614/541/4 126/48/4
f 645/543/5 613/302/5 616/288/5 665/540/5
f 667/544/2 664/545/2 615/296/2 620/273/2
f 665/540/5 616/288/5 618/288/5 666/540/5
f 158/280/7 146/279/7 619/475/7 622/533/7
f 668/546/2 667/544/2 620/273/2 621/266/2
f 675/537/2 668/546/2 621/266/2 638/265/2
f 182/254/7 162/250/7 623/249/7 628/531/7
f 671/547/2 669/548/2 624/245/2 627/240/2
f 650/256/5 623/249/5 636/249/5 657/256/5
f 170/193/4 625/538/4 637/538/4 419/193/4
f 669/548/2 670/549/2 626/201/2 624/245/2
f 672/550/2 671/547/2 627/240/2 629/222/2
f 645/551/2 672/550/2 629/222/2 613/221/2
f 204/192/7 192/214/7 630/321/7 633/552/7
f 674/553/2 673/536/2 631/209/2 632/202/2
f 670/549/2 674/553/2 632/202/2 626/201/2
f 170/193/7 204/192/7 633/552/7 625/538/7
f 138/48/4 617/541/4 634/541/4 390/48/4
f 174/200/2 200/199/2 674/553/2 670/549/2
f 200/199/2 196/208/2 673/536/2 674/553/2
f 123/220/2 188/219/2 672/550/2 645/551/2
f 188/219/2 178/239/2 671/547/2 672/550/2
f 166/244/2 174/200/2 670/549/2 669/548/2
f 163/248/5 650/256/5 657/256/5 417/248/5
f 178/239/2 166/244/2 669/548/2 671/547/2
f 525/264/2 154/263/2 668/546/2 675/537/2
f 154/263/2 150/272/2 667/544/2 668/546/2
f 134/287/5 665/540/5 666/540/5 142/287/5
f 150/272/2 130/295/2 664/545/2 667/544/2
f 123/301/5 645/543/5 665/540/5 134/287/5
f 142/287/4 666/540/4 676/540/4 552/287/4
f 193/216/4 653/215/4 662/215/4 570/216/4
f 147/283/5 648/282/5 656/282/5 394/283/5
f 196/208/2 525/264/2 675/537/2 673/536/2
f 628/531/5 652/255/5 660/255/5 641/531/5
f 662/215/5 643/321/5 678/321/5 681/215/5
f 622/533/5 649/281/5 659/281/5 640/533/5
f 614/541/4 646/45/4 647/45/4 617/541/4
f 615/542/4 664/308/4 646/45/4 614/541/4
f 622/533/7 619/475/7 648/282/7 649/281/7
f 628/531/7 623/249/7 650/256/7 652/255/7
f 625/538/4 651/194/4 658/194/4 637/538/4
f 633/552/7 630/321/7 653/215/7 654/195/7
f 625/538/7 633/552/7 654/195/7 651/194/7
f 617/541/4 647/45/4 655/45/4 634/541/4
f 663/527/1 662/215/1 681/215/1 682/527/1
f 640/533/4 659/281/4 680/281/4 679/533/4
f 482/403/1 548/516/1 698/516/1 695/403/1
f 548/516/1 483/512/1 696/512/1 698/516/1
f 546/514/1 457/510/1 691/510/1 693/514/1
f 483/512/1 484/386/1 697/386/1 696/512/1
f 422/461/4 456/462/4 690/462/4 689/461/4
f 600/423/4 601/424/4 703/424/4 699/423/4
f 602/440/4 603/441/4 705/441/4 701/440/4
f 607/418/5 606/415/5 700/415/5 704/418/5
usemtl puerta
f 554/517/7 564/518/7 565/519/7 553/520/7
f 676/521/7 661/522/7 566/523/7 552/524/7
f 552/524/7 566/523/7 567/145/7 551/150/7
f 564/518/7 560/252/7 561/254/7 565/519/7
f 661/522/7 660/255/7 562/257/7 566/523/7
f 566/523/7 562/257/7 563/96/7 567/145/7
f 572/227/7 573/235/7 560/252/7 564/518/7
f 555/228/7 572/227/7 564/518/7 554/517/7
f 565/519/7 561/254/7 641/531/7 642/534/7
f 553/520/7 565/519/7 642/534/7 639/535/7
f 642/534/7 641/531/7 660/255/7 661/522/7
f 639/535/7 642/534/7 661/522/7 676/521/7
usemtl acabado
f 15/68/1 29/56/1 35/56/1 24/68/1
f 388/67/7 371/491/7 372/492/7 381/52/7
f 387/59/7 375/493/7 374/494/7 373/60/7
f 386/55/7 376/495/7 377/68/7 384/56/7
f 381/52/3 372/492/3 378/492/3 385/52/3
f 385/52/7 378/492/7 389/496/7 392/276/7
f 507/278/7 506/497/7 390/498/7 393/279/7
f 656/282/7 655/499/7 391/500/7 394/283/7
f 394/283/7 391/500/7 375/493/7 387/59/7
f 380/56/7 379/68/7 395/501/7 398/357/7
f 398/357/7 395/501/7 396/502/7 399/358/7
f 399/358/7 396/502/7 397/503/7 400/359/7
f 400/359/7 397/503/7 371/491/7 388/67/7
f 383/10/7 382/9/7 401/504/7 404/459/7
f 404/459/7 401/504/7 402/505/7 405/460/7
f 455/463/7 454/506/7 403/507/7 406/367/7
f 481/366/7 480/508/7 376/495/7 386/55/7
f 24/68/9 35/56/9 384/56/9 377/68/9
f 408/89/3 407/131/3 409/131/3 410/89/3
f 411/97/7 414/125/7 413/187/7 412/98/7
f 410/89/7 409/131/7 418/189/7 415/251/7
f 508/253/7 509/190/7 419/193/7 416/250/7
f 657/256/7 658/194/7 420/124/7 417/248/7
f 417/248/7 420/124/7 414/125/7 411/97/7
f 405/460/7 402/505/7 454/506/7 455/463/7
f 406/367/7 403/507/7 480/508/7 481/366/7
f 415/251/7 418/189/7 509/190/7 508/253/7
f 392/276/7 389/496/7 506/497/7 507/278/7
f 416/250/7 419/193/7 637/538/7 636/249/7
f 393/279/7 390/498/7 634/539/7 635/475/7
f 636/249/7 637/538/7 658/194/7 657/256/7
f 635/475/7 634/539/7 655/499/7 656/282/7
usemtl ventana
f 429/377/7 425/402/7 426/509/7 430/379/7
f 458/382/7 457/510/7 427/511/7 431/383/7
f 484/386/7 483/512/7 428/166/7 432/165/7
f 542/443/7 421/442/7 422/461/7 543/513/7
f 546/514/7 456/462/7 423/464/7 544/515/7
f 548/516/7 482/403/7 424/54/7 545/86/7
f 483/512/7 548/516/7 545/86/7 428/166/7
f 457/510/7 546/514/7 544/515/7 427/511/7
f 425/402/7 542/443/7 543/513/7 426/509/7
f 612/525/7 556/277/7 557/280/7 576/526/7
f 663/527/7 659/281/7 558/284/7 577/528/7
f 577/528/7 558/284/7 559/58/7 578/84/7
f 591/233/7 587/234/7 588/529/7 592/317/7
f 592/317/7 588/529/7 589/530/7 593/319/7
f 593/319/7 589/530/7 590/180/7 594/179/7
f 583/236/7 579/260/7 580/344/7 584/232/7
f 584/232/7 580/344/7 581/345/7 585/231/7
f 585/231/7 581/345/7 582/108/7 586/139/7
f 605/229/7 599/230/7 600/423/7 606/415/7
f 607/418/7 601/424/7 602/440/7 608/419/7
f 609/422/7 603/441/7 604/92/7 610/147/7
f 574/259/7 611/258/7 556/277/7 612/525/7
f 575/212/7 574/259/7 612/525/7 568/213/7
f 589/530/7 597/356/7 598/78/7 590/180/7
f 588/529/7 596/354/7 597/356/7 589/530/7
f 587/234/7 595/337/7 596/354/7 588/529/7
f 570/216/7 577/528/7 578/84/7 571/168/7
f 662/215/7 663/527/7 577/528/7 570/216/7
f 568/213/7 612/525/7 576/526/7 569/214/7
f 569/214/7 576/526/7 644/532/7 643/321/7
f 576/526/7 557/280/7 640/533/7 644/532/7
usemtl marco
f 427/511/3 544/515/3 688/515/3 685/511/3
f 426/509/3 543/513/3 687/513/3 683/509/3
f 601/424/1 607/418/1 704/418/1 703/424/1
f 659/281/1 663/527/1 682/527/1 680/281/1
f 678/321/7 677/532/7 682/527/7 681/215/7
f 677/532/7 679/533/7 680/281/7 682/527/7
f 643/321/3 644/532/3 677/532/3 678/321/3
f 644/532/3 640/533/3 679/533/3 677/532/3
f 687/513/7 689/461/7 690/462/7 693/514/7
f 684/379/7 683/509/7 691/510/7 692/382/7
f 688/515/7 694/464/7 695/403/7 698/516/7
f 686/383/7 685/511/7 696/512/7 697/386/7
f 685/511/7 688/515/7 698/516/7 696/512/7
f 683/509/7 687/513/7 693/514/7 691/510/7
f 430/379/3 426/509/3 683/509/3 684/379/3
f 431/383/3 427/511/3 685/511/3 686/383/3
f 457/510/1 458/382/1 692/382/1 691/510/1
f 543/513/3 422/461/3 689/461/3 687/513/3
f 544/515/3 423/464/3 694/464/3 688/515/3
f 700/415/7 699/423/7 703/424/7 704/418/7
f 702/419/7 701/440/7 705/441/7 706/422/7
f 608/419/3 602/440/3 701/440/3 702/419/3
f 603/441/1 609/422/1 706/422/1 705/441/1
f 606/415/3 600/423/3 699/423/3 700/415/3
usemtl escalera
f 234/66/7 230/67/7 30/52/7 41/51/7
f 535/78/7 234/66/7 41/51/7 516/79/7
f 258/108/7 246/109/7 53/89/7 77/88/7
f 246/109/7 254/130/7 67/131/7 53/89/7
f 270/139/7 258/108/7 77/88/7 89/140/7
f 215/156/7 270/139/7 89/140/7 13/148/7
f 280/179/7 276/180/7 103/162/7 113/161/7
f 254/130/7 280/179/7 113/161/7 67/131/7
f 269/231/4 268/232/4 584/232/4 585/231/4
f 268/232/4 267/236/4 583/236/4 584/232/4
f 66/119/7 112/120/7 277/233/7 251/316/7
f 251/316/7 277/233/7 278/317/7 252/318/7
f 252/318/7 278/317/7 279/319/7 253/320/7
f 253/320/7 279/319/7 280/179/7 254/130/7
f 112/120/7 102/160/7 275/234/7 277/233/7
f 14/36/7 88/35/7 267/236/7 218/325/7
f 218/325/7 267/236/7 268/232/7 217/326/7
f 217/326/7 268/232/7 269/231/7 216/327/7
f 216/327/7 269/231/7 270/139/7 215/156/7
f 88/35/7 76/95/7 255/260/7 267/236/7
f 52/94/7 66/119/7 251/316/7 243/338/7
f 243/338/7 251/316/7 252/318/7 244/339/7
f 244/339/7 252/318/7 253/320/7 245/340/7
f 245/340/7 253/320/7 254/130/7 246/109/7
f 76/95/7 52/94/7 243/338/7 255/260/7
f 255/260/7 243/338/7 244/339/7 256/344/7
f 256/344/7 244/339/7 245/340/7 257/345/7
f 257/345/7 245/340/7 246/109/7 258/108/7
f 515/87/7 40/57/7 231/352/7 532/337/7
f 532/337/7 231/352/7 232/353/7 533/354/7
f 533/354/7 232/353/7 233/355/7 534/356/7
f 534/356/7 233/355/7 234/66/7 535/78/7
f 40/57/7 29/56/7 227/357/7 231/352/7
f 231/352/7 227/357/7 228/358/7 232/353/7
f 232/353/7 228/358/7 229/359/7 233/355/7
f 233/355/7 229/359/7 230/67/7 234/66/7
f 102/160/7 515/87/7 532/337/7 275/234/7
f 276/180/7 535/78/7 516/79/7 103/162/7
f 270/139/4 269/231/4 585/231/4 586/139/4
o Cylinder
v -8.738566 6.950466 14.290573
v -8.738566 6.950466 14.538060
v -8.826066 6.914222 14.290573
v -8.826066 6.914222 14.538060
v -8.862310 6.826722 14.290573
v -8.862310 6.826722 14.538061
v -8.826066 6.739222 14.290574
v -8.826066 6.739222 14.538061
v -8.738566 6.702979 14.290574
v -8.738566 6.702979 14.538061
v -8.651067 6.739222 14.290574
v -8.651067 6.739222 14.538061
v -8.614822 6.826722 14.290573
v -8.614822 6.826722 14.538061
v -8.651067 6.914222 14.290573
v -8.651067 6.914222 14.538060
v -8.848524 6.936680 14.589452
v -8.738566 6.982226 14.589452
v -8.894071 6.826722 14.589452
v -8.848524 6.716764 14.589452
v -8.738566 6.671218 14.589452
v -8.628609 6.716764 14.589452
v -8.583062 6.826722 14.589452
v -8.628609 6.936680 14.589452
v -8.848524 6.936680 14.665892
v -8.738566 6.982226 14.665892
v -8.894071 6.826722 14.665892
v -8.848524 6.716764 14.665892
v -8.738566 6.671218 14.665892
v -8.628609 6.716764 14.665892
v -8.583062 6.826722 14.665892
v -8.628609 6.936680 14.665892
v -8.764593 6.852749 14.712861
v -8.738566 6.863530 14.712861
v -8.775373 6.826722 14.712861
v -8.764593 6.800695 14.712861
v -8.738566 6.789915 14.712861
v -8.712540 6.800695 14.712861
v -8.701759 6.826722 14.712861
v -8.712540 6.852749 14.712861
vn -0.3827 0.9239 -0.0000
vn -0.9239 0.3827 -0.0000
vn -0.9239 -0.3827 -0.0000
vn -0.3827 -0.9239 -0.0000
vn 0.3827 -0.9239 -0.0000
vn 0.9239 -0.3827 -0.0000
vn 0.8023 -0.3323 -0.4958
vn 0.9239 0.3827 -0.0000
vn 0.3827 0.9239 -0.0000
vn -0.0000 -0.0000 -1.0000
vn -0.3323 -0.8023 -0.4958
vn 0.8023 0.3323 -0.4958
vn -0.8023 0.3323 -0.4958
vn 0.3323 -0.8023 -0.4958
vn 0.3323 0.8023 -0.4958
vn -0.3323 0.8023 -0.4958
vn -0.8023 -0.3323 -0.4958
vn 0.1507 0.3637 0.9192
vn -0.0000 -0.0000 1.0000
vn 0.3637 -0.1507 0.9192
vn -0.1507 -0.3637 0.9192
vn -0.3637 0.1507 0.9192
vn 0.3637 0.1507 0.9192
vn 0.1507 -0.3637 0.9192
vn -0.3637 -0.1507 0.9192
vn -0.1507 0.3637 0.9192
vt 1.000000 0.500000
vt 1.000000 1.000000
vt 0.875000 1.000000
vt 0.875000 0.500000
vt 0.750000 1.000000
vt 0.750000 0.500000
vt 0.625000 1.000000
vt 0.625000 0.500000
vt 0.500000 1.000000
vt 0.500000 0.500000
vt 0.375000 1.000000
vt 0.375000 0.500000
vt 0.250000 1.000000
vt 0.250000 0.500000
vt 0.125000 1.000000
vt 0.125000 0.500000
vt 0.000000 1.000000
vt 0.000000 0.500000
vt 0.750000 0.490000
vt 0.919706 0.419706
vt 0.990000 0.250000
vt 0.919706 0.080294
vt 0.750000 0.010000
vt 0.580294 0.080294
vt 0.510000 0.250000
vt 0.580294 0.419706
vt 0.419706 0.419706
vt 0.250000 0.490000
vt 0.080294 0.419706
vt 0.010000 0.250000
vt 0.080294 0.080294
vt 0.250000 0.010000
vt 0.419706 0.080294
vt 0.490000 0.250000
s 0
f 707/554/11 709/557/11 710/556/11 708/555/11
f 709/557/12 711/559/12 712/558/12 710/556/12
f 711/559/13 713/561/13 714/560/13 712/558/13
f 713/561/14 715/563/14 716/562/14 714/560/14
f 715/563/15 717/565/15 718/564/15 716/562/15
f 717/565/16 719/567/16 720/566/16 718/564/16
f 720/566/17 729/566/17 728/564/17 718/564/17
f 719/567/18 721/569/18 722/568/18 720/566/18
f 721/569/19 707/571/19 708/570/19 722/568/19
f 707/572/20 721/579/20 719/578/20 717/577/20 715/576/20 713/575/20 711/574/20 709/573/20
f 725/558/12 733/558/12 731/556/12 723/556/12
f 716/562/21 727/562/21 726/560/21 714/560/21
f 722/568/22 730/568/22 729/566/22 720/566/22
f 712/558/23 725/558/23 723/556/23 710/556/23
f 718/564/24 728/564/24 727/562/24 716/562/24
f 708/570/25 724/570/25 730/568/25 722/568/25
f 710/556/26 723/556/26 724/555/26 708/555/26
f 714/560/27 726/560/27 725/558/27 712/558/27
f 732/570/28 740/570/28 746/568/28 738/568/28
f 730/568/18 738/568/18 737/566/18 729/566/18
f 728/564/15 736/564/15 735/562/15 727/562/15
f 726/560/13 734/560/13 733/558/13 725/558/13
f 723/556/11 731/556/11 732/555/11 724/555/11
f 724/570/19 732/570/19 738/568/19 730/568/19
f 729/566/16 737/566/16 736/564/16 728/564/16
f 727/562/14 735/562/14 734/560/14 726/560/14
f 739/580/29 741/587/29 742/586/29 743/585/29 744/584/29 745/583/29 746/582/29 740/581/29
f 737/566/30 745/566/30 744/564/30 736/564/30
f 735/562/31 743/562/31 742/560/31 734/560/31
f 733/558/32 741/558/32 739/556/32 731/556/32
f 738/568/33 746/568/33 745/566/33 737/566/33
f 736/564/34 744/564/34 743/562/34 735/562/34
f 734/560/35 742/560/35 741/558/35 733/558/35
f 731/556/36 739/556/36 740/555/36 732/555/36
