# Blender 5.2.2 LTS
# www.blender.org
mtllib edificio-01.mtl
o edificio_01
v -2.500000 0.000000 2.500000
v -2.500000 18.000000 2.500000
v -2.500000 0.000000 -2.500000
v -1.666667 0.750000 1.750000
v -2.500000 18.000000 -2.500000
v -1.666667 2.250000 1.750000
v 2.500000 0.000000 2.500000
v 2.500000 18.000000 2.500000
v 2.500000 0.000000 -2.500000
v -0.833333 0.750000 1.750000
v 2.500000 18.000000 -2.500000
v -0.833333 2.250000 1.750000
v -1.666667 0.750000 -1.750000
v -1.666667 2.250000 -1.750000
v -0.833333 0.750000 -1.750000
v -0.833333 2.250000 -1.750000
v -0.416667 0.750000 1.750000
v -0.416667 2.250000 1.750000
v 0.416667 0.750000 1.750000
v 0.416667 2.250000 1.750000
v -0.416667 0.750000 -1.750000
v -0.416667 2.250000 -1.750000
v 0.416667 0.750000 -1.750000
v 0.416667 2.250000 -1.750000
v 0.833333 0.750000 1.750000
v 0.833333 2.250000 1.750000
v 1.666667 0.750000 1.750000
v 1.666667 2.250000 1.750000
v 0.833333 0.750000 -1.750000
v 0.833333 2.250000 -1.750000
v 1.666667 0.750000 -1.750000
v 1.666667 2.250000 -1.750000
v -1.666667 3.750000 1.750000
v -1.666667 5.250000 1.750000
v -0.833333 3.750000 1.750000
v -0.833333 5.250000 1.750000
v -1.666667 3.750000 -1.750000
v -1.666667 5.250000 -1.750000
v -0.833333 3.750000 -1.750000
v -0.833333 5.250000 -1.750000
v -0.416667 3.750000 1.750000
v -0.416667 5.250000 1.750000
v 0.416667 3.750000 1.750000
v 0.416667 5.250000 1.750000
v -0.416667 3.750000 -1.750000
v -0.416667 5.250000 -1.750000
v 0.416667 3.750000 -1.750000
v 0.416667 5.250000 -1.750000
v 0.833333 3.750000 1.750000
v 0.833333 5.250000 1.750000
v 1.666667 3.750000 1.750000
v 1.666667 5.250000 1.750000
v 0.833333 3.750000 -1.750000
v 0.833333 5.250000 -1.750000
v 1.666667 3.750000 -1.750000
v 1.666667 5.250000 -1.750000
v -1.666667 6.750000 1.750000
v -1.666667 8.250000 1.750000
v -0.833333 6.750000 1.750000
v -0.833333 8.250000 1.750000
v -1.666667 6.750000 -1.750000
v -1.666667 8.250000 -1.750000
v -0.833333 6.750000 -1.750000
v -0.833333 8.250000 -1.750000
v -0.416667 6.750000 1.750000
v -0.416667 8.250000 1.750000
v 0.416667 6.750000 1.750000
v 0.416667 8.250000 1.750000
v -0.416667 6.750000 -1.750000
v -0.416667 8.250000 -1.750000
v 0.416667 6.750000 -1.750000
v 0.416667 8.250000 -1.750000
v 0.833333 6.750000 1.750000
v 0.833333 8.250000 1.750000
v 1.666667 6.750000 1.750000
v 1.666667 8.250000 1.750000
v 0.833333 6.750000 -1.750000
v 0.833333 8.250000 -1.750000
v 1.666667 6.750000 -1.750000
v 1.666667 8.250000 -1.750000
v -1.666667 9.750000 1.750000
v -1.666667 11.250000 1.750000
v -0.833333 9.750000 1.750000
v -0.833333 11.250000 1.750000
v -1.666667 9.750000 -1.750000
v -1.666667 11.250000 -1.750000
v -0.833333 9.750000 -1.750000
v -0.833333 11.250000 -1.750000
v -0.416667 9.750000 1.750000
v -0.416667 11.250000 1.750000
v 0.416667 9.750000 1.750000
v 0.416667 11.250000 1.750000
v -0.416667 9.750000 -1.750000
v -0.416667 11.250000 -1.750000
v 0.416667 9.750000 -1.750000
v 0.416667 11.250000 -1.750000
v 0.833333 9.750000 1.750000
v 0.833333 11.250000 1.750000
v 1.666667 9.750000 1.750000
v 1.666667 11.250000 1.750000
v 0.833333 9.750000 -1.750000
v 0.833333 11.250000 -1.750000
v 1.666667 9.750000 -1.750000
v 1.666667 11.250000 -1.750000
v -1.666667 12.750000 1.750000
v -1.666667 14.250000 1.750000
v -0.833333 12.750000 1.750000
v -0.833333 14.250000 1.750000
v -1.666667 12.750000 -1.750000
v -1.666667 14.250000 -1.750000
v -0.833333 12.750000 -1.750000
v -0.833333 14.250000 -1.750000
v -0.416667 12.750000 1.750000
v -0.416667 14.250000 1.750000
v 0.416667 12.750000 1.750000
v 0.416667 14.250000 1.750000
v -0.416667 12.750000 -1.750000
v -0.416667 14.250000 -1.750000
v 0.416667 12.750000 -1.750000
v 0.416667 14.250000 -1.750000
v 0.833333 12.750000 1.750000
v 0.833333 14.250000 1.750000
v 1.666667 12.750000 1.750000
v 1.666667 14.250000 1.750000
v 0.833333 12.750000 -1.750000
v 0.833333 14.250000 -1.750000
v 1.666667 12.750000 -1.750000
v 1.666667 14.250000 -1.750000
v -1.666667 15.750000 1.750000
v -1.666667 17.250000 1.750000
v -0.833333 15.750000 1.750000
v -0.833333 17.250000 1.750000
v -1.666667 15.750000 -1.750000
v -1.666667 17.250000 -1.750000
v -0.833333 15.750000 -1.750000
v -0.833333 17.250000 -1.750000
v -0.416667 15.750000 1.750000
v -0.416667 17.250000 1.750000
v 0.416667 15.750000 1.750000
v 0.416667 17.250000 1.750000
v -0.416667 15.750000 -1.750000
v -0.416667 17.250000 -1.750000
v 0.416667 15.750000 -1.750000
v 0.416667 17.250000 -1.750000
v 0.833333 15.750000 1.750000
v 0.833333 17.250000 1.750000
v 1.666667 15.750000 1.750000
v 1.666667 17.250000 1.750000
v 0.833333 15.750000 -1.750000
v 0.833333 17.250000 -1.750000
v 1.666667 15.750000 -1.750000
v 1.666667 17.250000 -1.750000
v -1.666667 3.750000 -2.500000
v -1.666667 5.250000 -2.500000
v -1.666667 6.750000 -2.500000
v -1.666667 8.250000 -2.500000
v -1.666667 9.750000 -2.500000
v -1.666667 11.250000 -2.500000
v -1.666667 12.750000 -2.500000
v -1.666667 14.250000 -2.500000
v -1.666667 15.750000 -2.500000
v -1.666667 17.250000 -2.500000
v -0.833333 6.750000 -2.500000
v -0.416667 7.500000 -2.500000
v -0.833333 7.500000 -2.500000
v -0.833333 8.250000 -2.500000
v -0.833333 9.750000 -2.500000
v -0.833333 10.500000 -2.500000
v -0.833333 11.250000 -2.500000
v -0.833333 12.750000 -2.500000
v -0.833333 13.500000 -2.500000
v -0.833333 14.250000 -2.500000
v -0.833333 15.750000 -2.500000
v -0.833333 16.500000 -2.500000
v -0.833333 17.250000 -2.500000
v 0.416667 10.500000 -2.500000
v 0.416667 11.250000 -2.500000
v -0.416667 9.750000 -2.500000
v -0.416667 8.250000 -2.500000
v -0.416667 10.500000 -2.500000
v -0.416667 11.250000 -2.500000
v -0.416667 12.750000 -2.500000
v -0.416667 13.500000 -2.500000
v -0.416667 14.250000 -2.500000
v 0.000000 14.250000 -2.500000
v -0.416667 15.750000 -2.500000
v 0.000000 15.750000 -2.500000
v -0.416667 16.500000 -2.500000
v -0.416667 17.250000 -2.500000
v 0.416667 12.750000 -2.500000
v 0.833333 12.750000 -2.500000
v 0.416667 14.250000 -2.500000
v 0.833333 14.250000 -2.500000
v 0.416667 15.750000 -2.500000
v 0.833333 15.750000 -2.500000
v 1.666667 17.250000 -2.500000
v 1.666667 15.750000 -2.500000
v 0.833333 17.250000 -2.500000
v 0.416667 17.250000 -2.500000
v -1.666667 0.750000 -2.500000
v -1.666667 2.250000 -2.500000
v -0.833333 0.750000 -2.500000
v -0.416667 0.750000 -2.500000
v -0.416667 1.500000 -2.500000
v -0.833333 1.500000 -2.500000
v -0.833333 2.250000 -2.500000
v -0.416667 2.250000 -2.500000
v -0.833333 3.750000 -2.500000
v -0.416667 3.750000 -2.500000
v -0.833333 5.250000 -2.500000
v -0.416667 6.750000 -2.500000
v -0.416667 5.250000 -2.500000
v 0.416667 8.250000 -2.500000
v 0.416667 0.750000 -2.500000
v 0.416667 2.250000 -2.500000
v 0.416667 3.750000 -2.500000
v 0.416667 4.500000 -2.500000
v 0.416667 5.250000 -2.500000
v 0.416667 6.750000 -2.500000
v 0.833333 9.750000 -2.500000
v 0.833333 8.250000 -2.500000
v 0.833333 0.750000 -2.500000
v 0.833333 2.250000 -2.500000
v 0.833333 3.750000 -2.500000
v 0.833333 4.500000 -2.500000
v 0.833333 5.250000 -2.500000
v 0.833333 6.750000 -2.500000
v 0.416667 9.750000 -2.500000
v 0.833333 10.500000 -2.500000
v 0.833333 11.250000 -2.500000
v 1.666667 12.750000 -2.500000
v 1.666667 11.250000 -2.500000
v 1.666667 14.250000 -2.500000
v 1.666667 6.750000 -2.500000
v 1.666667 8.250000 -2.500000
v 1.666667 9.750000 -2.500000
v 1.666667 0.750000 -2.500000
v 1.666667 2.250000 -2.500000
v 1.666667 3.750000 -2.500000
v 1.666667 5.250000 -2.500000
v -1.666667 15.750000 2.500000
v -1.666667 17.250000 2.500000
v -0.416667 12.750000 2.500000
v -0.416667 13.500000 2.500000
v -0.833333 13.500000 2.500000
v -0.833333 14.250000 2.500000
v -0.416667 10.500000 2.500000
v -0.416667 11.250000 2.500000
v -0.833333 12.750000 2.500000
v -0.833333 15.750000 2.500000
v -0.833333 16.500000 2.500000
v -0.833333 17.250000 2.500000
v -0.416667 15.750000 2.500000
v -0.416667 14.250000 2.500000
v -0.416667 16.500000 2.500000
v 0.416667 7.500000 2.500000
v 0.416667 8.250000 2.500000
v 0.416667 9.750000 2.500000
v 0.416667 11.250000 2.500000
v 0.416667 12.750000 2.500000
v 0.416667 13.500000 2.500000
v 0.416667 14.250000 2.500000
v 0.416667 15.750000 2.500000
v -0.416667 17.250000 2.500000
v 0.833333 6.750000 2.500000
v 0.833333 7.500000 2.500000
v 0.833333 8.250000 2.500000
v 0.833333 9.750000 2.500000
v 0.833333 11.250000 2.500000
v 0.833333 12.750000 2.500000
v 0.833333 13.500000 2.500000
v 0.833333 15.750000 2.500000
v 0.833333 16.500000 2.500000
v 0.416667 16.500000 2.500000
v 0.416667 17.250000 2.500000
v 0.833333 17.250000 2.500000
v 1.666667 3.750000 2.500000
v 1.666667 15.750000 2.500000
v 1.666667 14.250000 2.500000
v 1.666667 17.250000 2.500000
v 1.666667 9.750000 2.500000
v 1.666667 11.250000 2.500000
v 1.666667 12.750000 2.500000
v 1.666667 5.250000 2.500000
v 1.666667 6.750000 2.500000
v 1.666667 8.250000 2.500000
v 0.833333 14.250000 2.500000
v -1.666667 0.750000 2.500000
v -1.666667 2.250000 2.500000
v -1.666667 3.750000 2.500000
v -1.666667 5.250000 2.500000
v -1.666667 6.750000 2.500000
v -1.666667 14.250000 2.500000
v -1.666667 8.250000 2.500000
v -1.666667 9.750000 2.500000
v -1.666667 11.250000 2.500000
v -1.666667 12.750000 2.500000
v -0.833333 1.500000 2.500000
v -0.833333 0.750000 2.500000
v -0.416667 0.750000 2.500000
v -0.833333 2.250000 2.500000
v -0.833333 3.750000 2.500000
v -0.833333 4.500000 2.500000
v -0.833333 5.250000 2.500000
v -0.833333 6.750000 2.500000
v -0.833333 7.500000 2.500000
v -0.833333 8.250000 2.500000
v -0.833333 9.750000 2.500000
v -0.833333 10.500000 2.500000
v -0.833333 11.250000 2.500000
v 0.416667 0.750000 2.500000
v 0.416667 1.500000 2.500000
v 0.416667 2.250000 2.500000
v -0.416667 1.500000 2.500000
v -0.416667 2.250000 2.500000
v -0.416667 3.750000 2.500000
v -0.416667 4.500000 2.500000
v -0.416667 5.250000 2.500000
v -0.416667 6.750000 2.500000
v -0.416667 7.500000 2.500000
v -0.416667 8.250000 2.500000
v -0.416667 9.750000 2.500000
v 0.833333 2.250000 2.500000
v 0.833333 3.750000 2.500000
v 0.416667 3.750000 2.500000
v 0.416667 4.500000 2.500000
v 0.833333 5.250000 2.500000
v 0.833333 4.500000 2.500000
v 1.666667 2.250000 2.500000
v 1.666667 0.750000 2.500000
v 0.833333 0.750000 2.500000
v 0.833333 1.500000 2.500000
v 0.416667 5.250000 2.500000
v 0.416667 6.750000 2.500000
vn -1.0000 -0.0000 -0.0000
vn -0.0000 -0.0000 -1.0000
vn 1.0000 -0.0000 -0.0000
vn -0.0000 -0.0000 1.0000
vn -0.0000 -1.0000 -0.0000
vn -0.0000 1.0000 -0.0000
vt 0.375000 0.000000
vt 0.625000 0.000000
vt 0.625000 0.250000
vt 0.375000 0.250000
vt 0.614583 0.395833
vt 0.614583 0.354167
vt 0.614583 0.333333
vt 0.614583 0.291667
vt 0.593750 0.291667
vt 0.593750 0.333333
vt 0.604167 0.333333
vt 0.604167 0.354167
vt 0.593750 0.354167
vt 0.593750 0.375000
vt 0.572917 0.375000
vt 0.572917 0.354167
vt 0.572917 0.333333
vt 0.572917 0.291667
vt 0.552083 0.291667
vt 0.552083 0.333333
vt 0.562500 0.333333
vt 0.562500 0.354167
vt 0.552083 0.354167
vt 0.552083 0.395833
vt 0.572917 0.395833
vt 0.572917 0.416667
vt 0.552083 0.416667
vt 0.552083 0.458333
vt 0.531250 0.458333
vt 0.531250 0.416667
vt 0.520833 0.416667
vt 0.520833 0.395833
vt 0.531250 0.395833
vt 0.531250 0.354167
vt 0.520833 0.354167
vt 0.520833 0.333333
vt 0.531250 0.333333
vt 0.531250 0.291667
vt 0.510417 0.291667
vt 0.510417 0.333333
vt 0.510417 0.354167
vt 0.510417 0.395833
vt 0.510417 0.416667
vt 0.510417 0.458333
vt 0.489583 0.458333
vt 0.489583 0.416667
vt 0.489583 0.395833
vt 0.489583 0.354167
vt 0.489583 0.333333
vt 0.489583 0.291667
vt 0.468750 0.291667
vt 0.468750 0.333333
vt 0.479167 0.333333
vt 0.479167 0.354167
vt 0.468750 0.354167
vt 0.468750 0.395833
vt 0.447917 0.395833
vt 0.447917 0.354167
vt 0.447917 0.333333
vt 0.447917 0.291667
vt 0.427083 0.291667
vt 0.427083 0.333333
vt 0.427083 0.354167
vt 0.427083 0.395833
vt 0.406250 0.395833
vt 0.406250 0.354167
vt 0.406250 0.333333
vt 0.406250 0.291667
vt 0.385417 0.291667
vt 0.385417 0.333333
vt 0.395833 0.333333
vt 0.395833 0.354167
vt 0.385417 0.354167
vt 0.385417 0.395833
vt 0.385417 0.416667
vt 0.385417 0.458333
vt 0.375000 0.500000
vt 0.625000 0.500000
vt 0.614583 0.458333
vt 0.614583 0.416667
vt 0.593750 0.416667
vt 0.593750 0.395833
vt 0.437500 0.395833
vt 0.437500 0.416667
vt 0.427083 0.416667
vt 0.427083 0.458333
vt 0.447917 0.458333
vt 0.447917 0.416667
vt 0.468750 0.416667
vt 0.468750 0.458333
vt 0.572917 0.458333
vt 0.593750 0.458333
vt 0.406250 0.458333
vt 0.406250 0.416667
vt 0.625000 0.750000
vt 0.375000 0.750000
vt 0.552083 0.895833
vt 0.562500 0.895833
vt 0.562500 0.916667
vt 0.552083 0.916667
vt 0.604167 0.895833
vt 0.614583 0.895833
vt 0.614583 0.916667
vt 0.604167 0.916667
vt 0.614583 0.854167
vt 0.604167 0.854167
vt 0.604167 0.833333
vt 0.614583 0.833333
vt 0.489583 0.854167
vt 0.479167 0.854167
vt 0.479167 0.833333
vt 0.489583 0.833333
vt 0.531250 0.833333
vt 0.531250 0.854167
vt 0.510417 0.854167
vt 0.510417 0.833333
vt 0.552083 0.833333
vt 0.562500 0.833333
vt 0.562500 0.854167
vt 0.552083 0.854167
vt 0.447917 0.854167
vt 0.437500 0.854167
vt 0.437500 0.833333
vt 0.447917 0.833333
vt 0.447917 0.791667
vt 0.468750 0.791667
vt 0.468750 0.833333
vt 0.468750 0.854167
vt 0.468750 0.895833
vt 0.479167 0.895833
vt 0.479167 0.916667
vt 0.468750 0.916667
vt 0.468750 0.958333
vt 0.489583 0.958333
vt 0.489583 0.916667
vt 0.489583 0.895833
vt 0.489583 0.791667
vt 0.510417 0.791667
vt 0.510417 0.895833
vt 0.510417 0.916667
vt 0.510417 0.958333
vt 0.531250 0.958333
vt 0.531250 0.916667
vt 0.520833 0.916667
vt 0.520833 0.895833
vt 0.531250 0.895833
vt 0.531250 0.791667
vt 0.552083 0.791667
vt 0.552083 0.958333
vt 0.572917 0.958333
vt 0.572917 0.916667
vt 0.572917 0.895833
vt 0.572917 0.854167
vt 0.572917 0.833333
vt 0.572917 0.791667
vt 0.593750 0.791667
vt 0.593750 0.833333
vt 0.593750 0.854167
vt 0.593750 0.895833
vt 0.593750 0.916667
vt 0.593750 0.958333
vt 0.614583 0.958333
vt 0.614583 0.791667
vt 0.625000 1.000000
vt 0.375000 1.000000
vt 0.385417 0.791667
vt 0.385417 0.833333
vt 0.395833 0.833333
vt 0.395833 0.854167
vt 0.385417 0.854167
vt 0.385417 0.895833
vt 0.395833 0.895833
vt 0.395833 0.916667
vt 0.385417 0.916667
vt 0.385417 0.958333
vt 0.406250 0.958333
vt 0.406250 0.916667
vt 0.406250 0.895833
vt 0.406250 0.854167
vt 0.427083 0.854167
vt 0.427083 0.895833
vt 0.437500 0.895833
vt 0.437500 0.916667
vt 0.427083 0.916667
vt 0.427083 0.958333
vt 0.447917 0.958333
vt 0.447917 0.916667
vt 0.447917 0.895833
vt 0.406250 0.833333
vt 0.406250 0.791667
vt 0.427083 0.791667
vt 0.427083 0.833333
vt 0.125000 0.500000
vt 0.125000 0.750000
vt 0.875000 0.500000
vt 0.875000 0.750000
vt 0.625000 0.125000
vt 0.375000 0.125000
vt 0.375000 0.625000
vt 0.500000 0.625000
vt 0.625000 0.625000
vt 0.125000 0.625000
vt 0.875000 0.625000
vt 0.500000 0.125000
vt 0.750000 0.625000
vt 0.250000 0.625000
s 0
usemtl 
f 1/1/1 2/2/1 5/3/1 3/4/1
f 199/5/2 189/6/2 175/7/2 162/8/2 161/9/2 173/10/2 174/11/2 188/12/2 186/13/2 187/14/2 185/15/2 184/16/2 172/17/2 160/18/2 159/19/2 170/20/2 171/21/2 183/22/2 182/23/2 190/24/2 192/25/2 193/26/2 191/27/2 231/28/2 232/29/2 230/30/2 229/31/2 176/32/2 177/33/2 181/34/2 180/35/2 168/36/2 169/37/2 158/38/2 157/39/2 167/40/2 178/41/2 228/42/2 220/43/2 236/44/2 235/45/2 221/46/2 213/47/2 179/48/2 166/49/2 156/50/2 155/51/2 163/52/2 165/53/2 164/54/2 211/55/2 219/56/2 218/57/2 212/58/2 210/59/2 154/60/2 153/61/2 208/62/2 209/63/2 216/64/2 215/65/2 207/66/2 206/67/2 201/68/2 200/69/2 202/70/2 205/71/2 204/72/2 203/73/2 214/74/2 222/75/2 237/76/2 9/77/2 3/4/2 5/3/2 11/78/2 196/79/2 198/80/2 195/81/2 194/82/2
f 166/49/2 179/48/2 164/54/2 165/53/2
f 168/36/2 180/35/2 178/41/2 167/40/2
f 172/17/2 184/16/2 183/22/2 171/21/2
f 175/7/2 189/6/2 188/12/2 174/11/2
f 204/72/2 205/71/2 206/67/2 207/66/2
f 209/63/2 208/62/2 210/59/2 212/58/2
f 176/32/2 229/31/2 220/43/2 228/42/2
f 215/65/2 216/64/2 217/83/2 225/84/2 224/85/2 239/86/2 240/87/2 226/88/2 218/57/2 219/56/2 213/47/2 221/46/2 227/89/2 234/90/2 235/45/2 236/44/2 232/29/2 231/28/2 233/91/2 193/26/2 192/25/2 185/15/2 187/14/2 194/82/2 195/81/2 197/92/2 196/79/2 11/78/2 9/77/2 237/76/2 238/93/2 223/94/2 222/75/2 214/74/2
f 218/57/2 226/88/2 225/84/2 217/83/2
f 9/77/3 11/78/3 8/95/3 7/96/3
f 243/97/4 244/98/4 245/99/4 249/100/4
f 255/101/4 264/102/4 252/103/4 251/104/4
f 275/105/4 274/106/4 273/107/4 276/108/4
f 257/109/4 256/110/4 266/111/4 267/112/4
f 269/113/4 259/114/4 258/115/4 268/116/4
f 270/117/4 271/118/4 261/119/4 260/120/4
f 333/121/4 326/122/4 328/123/4 327/124/4 284/125/4 285/126/4 265/127/4 266/111/4 256/110/4 334/128/4 319/129/4 320/130/4 306/131/4 305/132/4 292/133/4 294/134/4 307/135/4 321/136/4 257/109/4 267/112/4 286/137/4 281/138/4 268/116/4 258/115/4 322/139/4 308/140/4 295/141/4 296/142/4 310/143/4 309/144/4 247/145/4 248/146/4 259/114/4 269/113/4 282/147/4 283/148/4 270/117/4 260/120/4 243/97/4 249/100/4 297/149/4 293/150/4 246/151/4 245/99/4 244/98/4 254/152/4 262/153/4 261/119/4 271/118/4 287/154/4 279/155/4 278/156/4 272/157/4 273/107/4 274/106/4 263/158/4 253/159/4 255/101/4 251/104/4 250/160/4 241/161/4 242/162/4 252/103/4 264/102/4 275/105/4 276/108/4 280/163/4 8/95/4 2/164/4 1/165/4 7/96/4 330/166/4 331/167/4 332/168/4 312/169/4 311/170/4 300/171/4 314/172/4 298/173/4 299/174/4 288/175/4 289/176/4 301/177/4 315/178/4 313/179/4 325/180/4 316/181/4 317/182/4 303/183/4 302/184/4 290/185/4 291/186/4 304/187/4 318/188/4
f 323/189/4 329/190/4 330/166/4 7/96/4 8/95/4 280/163/4 278/156/4 279/155/4 283/148/4 282/147/4 281/138/4 286/137/4 285/126/4 284/125/4 277/191/4 324/192/4 328/123/4 326/122/4 325/180/4 313/179/4 312/169/4 332/168/4
f 314/172/4 315/178/4 301/177/4 298/173/4
f 317/182/4 318/188/4 304/187/4 303/183/4
f 320/130/4 321/136/4 307/135/4 306/131/4
f 322/139/4 247/145/4 309/144/4 308/140/4
f 3/193/5 9/77/5 7/96/5 1/194/5
f 11/78/6 5/195/6 2/196/6 8/95/6
f 4/4/3 6/3/3 289/197/3 288/198/3
f 4/4/4 10/77/4 12/78/4 6/3/4
f 12/78/1 10/77/1 299/199/1 298/200/1 301/201/1
f 299/199/6 10/77/6 4/193/6 288/202/6
f 289/203/5 6/195/5 12/78/5 301/201/5
f 201/197/3 14/2/3 13/1/3 200/198/3
f 202/199/1 15/96/1 16/95/1 206/201/1 205/200/1
f 15/96/2 13/165/2 14/164/2 16/95/2
f 200/202/6 13/194/6 15/96/6 202/199/6
f 16/95/5 14/196/5 201/203/5 206/201/5
f 17/4/3 18/3/3 315/197/3 314/204/3 300/198/3
f 17/4/4 19/77/4 20/78/4 18/3/4
f 20/78/1 19/77/1 311/199/1 312/200/1 313/201/1
f 311/199/6 19/77/6 17/193/6 300/202/6
f 315/203/5 18/195/5 20/78/5 313/201/5
f 204/204/3 207/197/3 22/2/3 21/1/3 203/198/3
f 214/199/1 23/96/1 24/95/1 215/201/1
f 23/96/2 21/165/2 22/164/2 24/95/2
f 203/202/6 21/194/6 23/96/6 214/199/6
f 24/95/5 22/196/5 207/203/5 215/201/5
f 25/4/3 26/3/3 323/197/3 332/204/3 331/198/3
f 25/4/4 27/77/4 28/78/4 26/3/4
f 28/78/1 27/77/1 330/199/1 329/201/1
f 330/199/6 27/77/6 25/193/6 331/202/6
f 323/203/5 26/195/5 28/78/5 329/201/5
f 223/197/3 30/2/3 29/1/3 222/198/3
f 237/199/1 31/96/1 32/95/1 238/201/1
f 31/96/2 29/165/2 30/164/2 32/95/2
f 222/202/6 29/194/6 31/96/6 237/199/6
f 32/95/5 30/196/5 223/203/5 238/201/5
f 33/4/3 34/3/3 291/197/3 290/198/3
f 33/4/4 35/77/4 36/78/4 34/3/4
f 36/78/1 35/77/1 302/199/1 303/200/1 304/201/1
f 302/199/6 35/77/6 33/193/6 290/202/6
f 291/203/5 34/195/5 36/78/5 304/201/5
f 154/197/3 38/2/3 37/1/3 153/198/3
f 208/199/1 39/96/1 40/95/1 210/201/1
f 39/96/2 37/165/2 38/164/2 40/95/2
f 153/202/6 37/194/6 39/96/6 208/199/6
f 40/95/5 38/196/5 154/203/5 210/201/5
f 41/4/3 42/3/3 318/197/3 317/204/3 316/198/3
f 41/4/4 43/77/4 44/78/4 42/3/4
f 44/78/1 43/77/1 325/199/1 326/200/1 333/201/1
f 325/199/6 43/77/6 41/193/6 316/202/6
f 318/203/5 42/195/5 44/78/5 333/201/5
f 212/197/3 46/2/3 45/1/3 209/198/3
f 216/199/1 47/96/1 48/95/1 218/201/1 217/200/1
f 47/96/2 45/165/2 46/164/2 48/95/2
f 209/202/6 45/194/6 47/96/6 216/199/6
f 48/95/5 46/196/5 212/203/5 218/201/5
f 49/4/3 50/3/3 327/197/3 328/204/3 324/198/3
f 49/4/4 51/77/4 52/78/4 50/3/4
f 52/78/1 51/77/1 277/199/1 284/201/1
f 277/199/6 51/77/6 49/193/6 324/202/6
f 50/195/5 52/78/5 284/201/5 327/203/5
f 225/204/3 226/197/3 54/2/3 53/1/3 224/198/3
f 239/199/1 55/96/1 56/95/1 240/201/1
f 55/96/2 53/165/2 54/164/2 56/95/2
f 224/202/6 53/194/6 55/96/6 239/199/6
f 56/95/5 54/196/5 226/203/5 240/201/5
f 57/4/3 58/3/3 294/197/3 292/198/3
f 57/4/4 59/77/4 60/78/4 58/3/4
f 60/78/1 59/77/1 305/199/1 306/200/1 307/201/1
f 305/199/6 59/77/6 57/193/6 292/202/6
f 294/203/5 58/195/5 60/78/5 307/201/5
f 156/197/3 62/2/3 61/1/3 155/198/3
f 163/199/1 63/96/1 64/95/1 166/201/1 165/200/1
f 63/96/2 61/165/2 62/164/2 64/95/2
f 155/202/6 61/194/6 63/96/6 163/199/6
f 64/95/5 62/196/5 156/203/5 166/201/5
f 65/4/3 66/3/3 321/197/3 320/204/3 319/198/3
f 65/4/4 67/77/4 68/78/4 66/3/4
f 68/78/1 67/77/1 334/199/1 256/200/1 257/201/1
f 334/199/6 67/77/6 65/193/6 319/202/6
f 321/203/5 66/195/5 68/78/5 257/201/5
f 164/204/3 179/197/3 70/2/3 69/1/3 211/198/3
f 219/199/1 71/96/1 72/95/1 213/201/1
f 71/96/2 69/165/2 70/164/2 72/95/2
f 211/202/6 69/194/6 71/96/6 219/199/6
f 72/95/5 70/196/5 179/203/5 213/201/5
f 73/4/3 74/3/3 267/197/3 266/204/3 265/198/3
f 73/4/4 75/77/4 76/78/4 74/3/4
f 76/78/1 75/77/1 285/199/1 286/201/1
f 285/199/6 75/77/6 73/193/6 265/202/6
f 267/203/5 74/195/5 76/78/5 286/201/5
f 221/197/3 78/2/3 77/1/3 227/198/3
f 234/199/1 79/96/1 80/95/1 235/201/1
f 79/96/2 77/165/2 78/164/2 80/95/2
f 227/202/6 77/194/6 79/96/6 234/199/6
f 80/95/5 78/196/5 221/203/5 235/201/5
f 81/4/3 82/3/3 296/197/3 295/198/3
f 81/4/4 83/77/4 84/78/4 82/3/4
f 84/78/1 83/77/1 308/199/1 309/200/1 310/201/1
f 308/199/6 83/77/6 81/193/6 295/202/6
f 296/203/5 82/195/5 84/78/5 310/201/5
f 158/197/3 86/2/3 85/1/3 157/198/3
f 167/199/1 87/96/1 88/95/1 169/201/1 168/200/1
f 87/96/2 85/165/2 86/164/2 88/95/2
f 157/202/6 85/194/6 87/96/6 167/199/6
f 88/95/5 86/196/5 158/203/5 169/201/5
f 247/204/3 322/198/3 89/4/3 90/3/3 248/197/3
f 89/4/4 91/77/4 92/78/4 90/3/4
f 92/78/1 91/77/1 258/199/1 259/201/1
f 258/199/6 91/77/6 89/193/6 322/202/6
f 248/203/5 90/195/5 92/78/5 259/201/5
f 180/204/3 181/197/3 94/2/3 93/1/3 178/198/3
f 95/96/1 96/95/1 177/201/1 176/200/1 228/199/1
f 95/96/2 93/165/2 94/164/2 96/95/2
f 178/202/6 93/194/6 95/96/6 228/199/6
f 96/95/5 94/196/5 181/203/5 177/201/5
f 97/4/3 98/3/3 269/197/3 268/198/3
f 97/4/4 99/77/4 100/78/4 98/3/4
f 100/78/1 99/77/1 281/199/1 282/201/1
f 281/199/6 99/77/6 97/193/6 268/202/6
f 269/203/5 98/195/5 100/78/5 282/201/5
f 229/204/3 230/197/3 102/2/3 101/1/3 220/198/3
f 236/199/1 103/96/1 104/95/1 232/201/1
f 103/96/2 101/165/2 102/164/2 104/95/2
f 220/202/6 101/194/6 103/96/6 236/199/6
f 104/95/5 102/196/5 230/203/5 232/201/5
f 105/4/3 106/3/3 293/197/3 297/198/3
f 105/4/4 107/77/4 108/78/4 106/3/4
f 108/78/1 107/77/1 249/199/1 245/200/1 246/201/1
f 249/199/6 107/77/6 105/193/6 297/202/6
f 106/195/5 108/78/5 246/201/5 293/203/5
f 160/197/3 110/2/3 109/1/3 159/198/3
f 170/199/1 111/96/1 112/95/1 172/201/1 171/200/1
f 111/96/2 109/165/2 110/164/2 112/95/2
f 159/202/6 109/194/6 111/96/6 170/199/6
f 112/95/5 110/196/5 160/203/5 172/201/5
f 113/4/3 114/3/3 254/197/3 244/204/3 243/198/3
f 113/4/4 115/77/4 116/78/4 114/3/4
f 116/78/1 115/77/1 260/199/1 261/200/1 262/201/1
f 260/199/6 115/77/6 113/193/6 243/202/6
f 254/203/5 114/195/5 116/78/5 262/201/5
f 183/204/3 184/197/3 118/2/3 117/1/3 182/198/3
f 190/199/1 119/96/1 120/95/1 192/201/1
f 119/96/2 117/165/2 118/164/2 120/95/2
f 182/202/6 117/194/6 119/96/6 190/199/6
f 120/95/5 118/196/5 184/203/5 185/205/5 192/201/5
f 121/4/3 122/3/3 287/197/3 271/204/3 270/198/3
f 121/4/4 123/77/4 124/78/4 122/3/4
f 124/78/1 123/77/1 283/199/1 279/201/1
f 283/199/6 123/77/6 121/193/6 270/202/6
f 287/203/5 122/195/5 124/78/5 279/201/5
f 193/197/3 126/2/3 125/1/3 191/198/3
f 231/199/1 127/96/1 128/95/1 233/201/1
f 127/96/2 125/165/2 126/164/2 128/95/2
f 191/202/6 125/194/6 127/96/6 231/199/6
f 128/95/5 126/196/5 193/203/5 233/201/5
f 129/4/3 130/3/3 242/197/3 241/198/3
f 129/4/4 131/77/4 132/78/4 130/3/4
f 132/78/1 131/77/1 250/199/1 251/200/1 252/201/1
f 250/199/6 131/77/6 129/193/6 241/202/6
f 242/203/5 130/195/5 132/78/5 252/201/5
f 162/197/3 134/2/3 133/1/3 161/198/3
f 173/199/1 135/96/1 136/95/1 175/201/1 174/200/1
f 135/96/2 133/165/2 134/164/2 136/95/2
f 161/202/6 133/194/6 135/96/6 173/199/6
f 136/95/5 134/196/5 162/203/5 175/201/5
f 137/4/3 138/3/3 264/197/3 255/204/3 253/198/3
f 137/4/4 139/77/4 140/78/4 138/3/4
f 140/78/1 139/77/1 263/199/1 274/200/1 275/201/1
f 263/199/6 139/77/6 137/193/6 253/202/6
f 264/203/5 138/195/5 140/78/5 275/201/5
f 188/204/3 189/197/3 142/2/3 141/1/3 186/198/3
f 194/199/1 143/96/1 144/95/1 199/201/1
f 143/96/2 141/165/2 142/164/2 144/95/2
f 186/202/6 141/194/6 143/96/6 194/199/6 187/206/6
f 144/95/5 142/196/5 189/203/5 199/201/5
f 145/4/3 146/3/3 276/197/3 273/204/3 272/198/3
f 145/4/4 147/77/4 148/78/4 146/3/4
f 148/78/1 147/77/1 278/199/1 280/201/1
f 278/199/6 147/77/6 145/193/6 272/202/6
f 276/203/5 146/195/5 148/78/5 280/201/5
f 198/197/3 150/2/3 149/1/3 195/198/3
f 197/199/1 151/96/1 152/95/1 196/201/1
f 151/96/2 149/165/2 150/164/2 152/95/2
f 195/202/6 149/194/6 151/96/6 197/199/6
f 152/95/5 150/196/5 198/203/5 196/201/5
o edificio_01_remate
v -1.250000 18.000000 1.250000
v -1.250000 18.799999 1.250000
v -1.250000 18.000000 -1.250000
v -1.250000 18.799999 -1.250000
v 1.250000 18.000000 1.250000
v 1.250000 18.799999 1.250000
v 1.250000 18.000000 -1.250000
v 1.250000 18.799999 -1.250000
vn -1.0000 -0.0000 -0.0000
vn -0.0000 -0.0000 -1.0000
vn 1.0000 -0.0000 -0.0000
vn -0.0000 -0.0000 1.0000
vn -0.0000 -1.0000 -0.0000
vn -0.0000 1.0000 -0.0000
vt 0.375000 0.000000
vt 0.625000 0.000000
vt 0.625000 0.250000
vt 0.375000 0.250000
vt 0.625000 0.500000
vt 0.375000 0.500000
vt 0.625000 0.750000
vt 0.375000 0.750000
vt 0.625000 1.000000
vt 0.375000 1.000000
vt 0.125000 0.500000
vt 0.125000 0.750000
vt 0.875000 0.500000
vt 0.875000 0.750000
s 0
f 335/207/7 336/208/7 338/209/7 337/210/7
f 337/210/8 338/209/8 342/211/8 341/212/8
f 341/212/9 342/211/9 340/213/9 339/214/9
f 339/214/10 340/213/10 336/215/10 335/216/10
f 337/217/11 341/212/11 339/214/11 335/218/11
f 342/211/12 338/219/12 336/220/12 340/213/12
