# Blender 5.2.2 LTS
# www.blender.org
mtllib mapa.mtl
o Mapa_Papel_Cicloturismo
v -0.146126 0.027564 0.120000
v -0.050000 0.000000 0.120000
v 0.050000 0.000000 0.120000
v 0.146126 0.027564 0.120000
v -0.146126 0.027564 -0.120000
v -0.050000 0.000000 -0.120000
v 0.050000 0.000000 -0.120000
v 0.146126 0.027564 -0.120000
v -0.147229 0.023719 0.120000
v -0.050557 -0.003961 0.120000
v 0.050557 -0.003961 0.120000
v 0.147229 0.023719 0.120000
v -0.147229 0.023719 -0.120000
v -0.050557 -0.003961 -0.120000
v 0.050557 -0.003961 -0.120000
v 0.147229 0.023719 -0.120000
v -0.037500 -0.000100 0.107500
v -0.037500 0.000500 0.107500
v -0.037500 -0.000100 0.072500
v -0.037500 0.000500 0.072500
v -0.002500 -0.000100 0.107500
v -0.002500 0.000500 0.107500
v -0.002500 -0.000100 0.072500
v -0.002500 0.000500 0.072500
v 0.007500 -0.000100 0.102500
v 0.007500 0.000500 0.102500
v 0.007500 -0.000100 0.057500
v 0.007500 0.000500 0.057500
v 0.032500 -0.000100 0.102500
v 0.032500 0.000500 0.102500
v 0.032500 -0.000100 0.057500
v 0.032500 0.000500 0.057500
v -0.020000 -0.000100 0.060000
v -0.020000 0.000500 0.060000
v -0.020000 -0.000100 0.040000
v -0.020000 0.000500 0.040000
v 0.000000 -0.000100 0.060000
v 0.000000 0.000500 0.060000
v 0.000000 -0.000100 0.040000
v 0.000000 0.000500 0.040000
v 0.024669 -0.000100 0.071287
v 0.024669 0.000500 0.071287
v 0.000829 -0.000100 -0.046321
v 0.000829 0.000500 -0.046321
v 0.049171 -0.000100 0.066321
v 0.049171 0.000500 0.066321
v 0.025331 -0.000100 -0.051287
v 0.025331 0.000500 -0.051287
v -0.037953 -0.000100 -0.019691
v -0.037953 0.000500 -0.019691
v 0.000401 -0.000100 -0.089898
v 0.000401 0.000500 -0.089898
v -0.020401 -0.000100 -0.010102
v -0.020401 0.000500 -0.010102
v 0.017953 -0.000100 -0.080309
v 0.017953 0.000500 -0.080309
v -0.042500 -0.000100 -0.055000
v -0.042500 0.000500 -0.055000
v -0.042500 -0.000100 -0.105000
v -0.042500 0.000500 -0.105000
v -0.007500 -0.000100 -0.055000
v -0.007500 0.000500 -0.055000
v -0.007500 -0.000100 -0.105000
v -0.007500 0.000500 -0.105000
v 0.023969 -0.000100 -0.047199
v 0.023969 0.000500 -0.047199
v 0.012148 -0.000100 -0.085413
v 0.012148 0.000500 -0.085413
v 0.047852 -0.000100 -0.054587
v 0.047852 0.000500 -0.054587
v 0.036031 -0.000100 -0.092801
v 0.036031 0.000500 -0.092801
v -0.040940 -0.000100 -0.003827
v -0.040940 0.000500 -0.003827
v -0.043935 -0.000100 -0.033677
v -0.043935 0.000500 -0.033677
v -0.016065 -0.000100 -0.006323
v -0.016065 0.000500 -0.006323
v -0.019060 -0.000100 -0.036173
v -0.019060 0.000500 -0.036173
v 0.006000 -0.000100 0.052500
v 0.006000 0.000500 0.052500
v 0.006000 -0.000100 0.027500
v 0.006000 0.000500 0.027500
v 0.024000 -0.000100 0.052500
v 0.024000 0.000500 0.052500
v 0.024000 -0.000100 0.027500
v 0.024000 0.000500 0.027500
v 0.004018 -0.000100 0.110299
v 0.004018 0.000500 0.110299
v -0.003968 -0.000100 0.030699
v -0.003968 0.000500 0.030699
v 0.013968 -0.000100 0.109301
v 0.013968 0.000500 0.109301
v 0.005982 -0.000100 0.029701
v 0.005982 0.000500 0.029701
v -0.017847 -0.000100 0.038209
v -0.017847 0.000500 0.038209
v -0.001954 -0.000100 -0.040196
v -0.001954 0.000500 -0.040196
v -0.008046 -0.000100 0.040196
v -0.008046 0.000500 0.040196
v 0.007847 -0.000100 -0.038209
v 0.007847 0.000500 -0.038209
v 0.019024 -0.000100 -0.025816
v 0.019024 0.000500 -0.025816
v -0.008235 -0.000100 -0.090290
v -0.008235 0.000500 -0.090290
v 0.028235 -0.000100 -0.029710
v 0.028235 0.000500 -0.029710
v 0.000976 -0.000100 -0.094184
v 0.000976 0.000500 -0.094184
v -0.001000 -0.000100 0.111000
v -0.001000 0.000500 0.111000
v -0.001000 -0.000100 0.099000
v -0.001000 0.000500 0.099000
v 0.011000 -0.000100 0.111000
v 0.011000 0.000500 0.111000
v 0.011000 -0.000100 0.099000
v 0.011000 0.000500 0.099000
v 0.019000 -0.000100 -0.089000
v 0.019000 0.000500 -0.089000
v 0.019000 -0.000100 -0.101000
v 0.019000 0.000500 -0.101000
v 0.031000 -0.000100 -0.089000
v 0.031000 0.000500 -0.089000
v 0.031000 -0.000100 -0.101000
v 0.031000 0.000500 -0.101000
v -0.126928 0.021955 0.000000
v -0.126763 0.022532 0.000000
v -0.126928 0.021955 -0.080000
v -0.126763 0.022532 -0.080000
v -0.069253 0.005417 0.000000
v -0.069087 0.005993 0.000000
v -0.069253 0.005417 -0.080000
v -0.069087 0.005993 -0.080000
v -0.091746 0.013686 0.073238
v -0.091584 0.014262 0.073205
v -0.103666 0.013686 0.014434
v -0.103504 0.014262 0.014401
v -0.054062 0.002660 0.065599
v -0.053900 0.003237 0.065566
v -0.065982 0.002660 0.006795
v -0.065820 0.003237 0.006762
v -0.131735 0.023333 0.090000
v -0.131569 0.023910 0.090000
v -0.131735 0.023333 0.050000
v -0.131569 0.023910 0.050000
v -0.102897 0.015064 0.090000
v -0.102732 0.015641 0.090000
v -0.102897 0.015064 0.050000
v -0.102732 0.015641 0.050000
v -0.105300 0.015753 0.032500
v -0.105135 0.016330 0.032500
v -0.105300 0.015753 -0.012500
v -0.105135 0.016330 -0.012500
v -0.071656 0.006106 0.032500
v -0.071491 0.006682 0.032500
v -0.071656 0.006106 -0.012500
v -0.071491 0.006682 -0.012500
v -0.102655 0.018509 0.030472
v -0.102502 0.019086 0.030407
v -0.126020 0.018509 -0.024792
v -0.125867 0.019086 -0.024857
v -0.089374 0.014375 0.024857
v -0.089222 0.014952 0.024792
v -0.112739 0.014375 -0.030407
v -0.112587 0.014952 -0.030472
v -0.123083 0.020852 -0.024000
v -0.122918 0.021429 -0.024000
v -0.123083 0.020852 -0.036000
v -0.122918 0.021429 -0.036000
v -0.111548 0.017545 -0.024000
v -0.111383 0.018121 -0.024000
v -0.111548 0.017545 -0.036000
v -0.111383 0.018121 -0.036000
v 0.074059 0.006795 0.095000
v 0.073894 0.007372 0.095000
v 0.074059 0.006795 0.025000
v 0.073894 0.007372 0.025000
v 0.122122 0.020577 0.095000
v 0.121957 0.021153 0.095000
v 0.122122 0.020577 0.025000
v 0.121957 0.021153 0.025000
v 0.062232 0.002660 -0.023214
v 0.062067 0.003237 -0.023197
v 0.057240 0.002660 -0.072964
v 0.057075 0.003237 -0.072948
v 0.100490 0.013686 -0.027052
v 0.100325 0.014262 -0.027036
v 0.095498 0.013686 -0.076803
v 0.095334 0.014262 -0.076786
v 0.080467 0.010929 0.013003
v 0.080309 0.011506 0.012954
v 0.098199 0.010929 -0.044317
v 0.098041 0.011506 -0.044366
v 0.117201 0.021955 0.024366
v 0.117043 0.022532 0.024317
v 0.134932 0.021955 -0.032954
v 0.134774 0.022532 -0.033003
v 0.064446 0.004038 0.035000
v 0.064281 0.004615 0.035000
v 0.064446 0.004038 0.005000
v 0.064281 0.004615 0.005000
v 0.093284 0.012308 0.035000
v 0.093119 0.012884 0.035000
v 0.093284 0.012308 0.005000
v 0.093119 0.012884 0.005000
v 0.102897 0.015064 -0.065000
v 0.102732 0.015641 -0.065000
v 0.102897 0.015064 -0.095000
v 0.102732 0.015641 -0.095000
v 0.131735 0.023333 -0.065000
v 0.131569 0.023910 -0.065000
v 0.131735 0.023333 -0.095000
v 0.131569 0.023910 -0.095000
vn 0.2756 0.9613 -0.0000
vn -0.0000 1.0000 -0.0000
vn -0.2756 0.9613 -0.0000
vn -0.2753 -0.9614 -0.0000
vn -0.0000 -1.0000 -0.0000
vn 0.2753 -0.9614 -0.0000
vn -0.9613 0.2756 -0.0000
vn -0.0000 -0.0000 1.0000
vn -0.0000 -0.0000 -1.0000
vn 0.9613 0.2756 -0.0000
vn -1.0000 -0.0000 -0.0000
vn 1.0000 -0.0000 -0.0000
vn -0.9801 -0.0000 0.1987
vn -0.1987 -0.0000 -0.9801
vn 0.9801 -0.0000 -0.1987
vn 0.1987 -0.0000 0.9801
vn -0.8776 -0.0000 -0.4794
vn 0.4794 -0.0000 -0.8776
vn 0.8776 -0.0000 0.4794
vn -0.4794 -0.0000 0.8776
vn -0.9553 -0.0000 0.2955
vn -0.2955 -0.0000 -0.9553
vn 0.9553 -0.0000 -0.2955
vn 0.2955 -0.0000 0.9553
vn -0.9950 -0.0000 0.0998
vn -0.0998 -0.0000 -0.9950
vn 0.9950 -0.0000 -0.0998
vn 0.0998 -0.0000 0.9950
vn -0.9801 -0.0000 -0.1987
vn 0.1987 -0.0000 -0.9801
vn 0.9801 -0.0000 0.1987
vn -0.1987 -0.0000 0.9801
vn -0.9211 -0.0000 0.3894
vn -0.3894 -0.0000 -0.9211
vn 0.9211 -0.0000 -0.3894
vn 0.3894 -0.0000 0.9211
vn 0.9613 -0.2756 -0.0000
vn -0.2756 -0.9613 -0.0000
vn -0.9421 0.2757 0.1910
vn 0.9421 -0.2756 -0.1910
vn -0.2701 -0.9613 0.0548
vn 0.2701 0.9613 -0.0548
vn -0.8854 0.2756 0.3743
vn 0.8854 -0.2756 -0.3743
vn -0.2539 -0.9613 0.1073
vn 0.2539 0.9613 -0.1073
vn -0.9613 -0.2756 -0.0000
vn 0.2756 -0.9613 -0.0000
vn -0.9565 -0.2756 0.0960
vn 0.9565 0.2756 -0.0960
vn 0.2743 -0.9613 -0.0275
vn -0.2743 0.9613 0.0275
vn -0.9183 -0.2756 -0.2841
vn 0.2955 -0.0000 -0.9553
vn 0.9183 0.2756 0.2841
vn -0.2955 -0.0000 0.9553
vn 0.2633 -0.9613 0.0815
vn -0.2633 0.9613 -0.0815
vn -0.9421 0.2756 0.1910
vt 0.000000 0.000000
vt 0.625000 0.000000
vt 0.375000 0.250000
vt 0.375000 0.000000
vt 0.625000 0.250000
vt 0.375000 0.500000
vt 0.625000 0.500000
vt 0.375000 0.750000
vt 0.625000 0.750000
vt 0.375000 1.000000
vt 0.125000 0.750000
vt 0.125000 0.500000
vt 0.875000 0.500000
vt 0.875000 0.750000
vt 0.625000 1.000000
s 0
usemtl Mat_Mapa_Papel.005
f 2/1/1 5/1/1 1/1/1
f 3/1/2 6/1/2 2/1/2
f 4/1/3 7/1/3 3/1/3
f 13/1/4 10/1/4 9/1/4
f 14/1/5 11/1/5 10/1/5
f 15/1/6 12/1/6 11/1/6
f 5/1/7 9/1/7 1/1/7
f 2/1/8 9/1/8 10/1/8
f 6/1/9 13/1/9 5/1/9
f 2/1/8 11/1/8 3/1/8
f 7/1/9 14/1/9 6/1/9
f 3/1/8 12/1/8 4/1/8
f 4/1/10 16/1/10 8/1/10
f 7/1/9 16/1/9 15/1/9
f 2/1/1 6/1/1 5/1/1
f 3/1/2 7/1/2 6/1/2
f 4/1/3 8/1/3 7/1/3
f 13/1/4 14/1/4 10/1/4
f 14/1/5 15/1/5 11/1/5
f 15/1/6 16/1/6 12/1/6
f 5/1/7 13/1/7 9/1/7
f 2/1/8 1/1/8 9/1/8
f 6/1/9 14/1/9 13/1/9
f 2/1/8 10/1/8 11/1/8
f 7/1/9 15/1/9 14/1/9
f 3/1/8 11/1/8 12/1/8
f 4/1/10 12/1/10 16/1/10
f 7/1/9 8/1/9 16/1/9
usemtl Mat_Mapa_Cemento.003
f 18/2/11 19/3/11 17/4/11
f 20/5/9 23/6/9 19/3/9
f 24/7/12 21/8/12 23/6/12
f 22/9/8 17/10/8 21/8/8
f 23/6/5 17/11/5 19/12/5
f 20/13/2 22/9/2 24/7/2
f 26/2/11 27/3/11 25/4/11
f 28/5/9 31/6/9 27/3/9
f 32/7/12 29/8/12 31/6/12
f 30/9/8 25/10/8 29/8/8
f 31/6/5 25/11/5 27/12/5
f 28/13/2 30/9/2 32/7/2
f 34/2/11 35/3/11 33/4/11
f 36/5/9 39/6/9 35/3/9
f 40/7/12 37/8/12 39/6/12
f 38/9/8 33/10/8 37/8/8
f 39/6/5 33/11/5 35/12/5
f 36/13/2 38/9/2 40/7/2
f 202/2/47 203/3/47 201/4/47
f 203/3/9 208/7/9 207/6/9
f 208/7/10 205/8/10 207/6/10
f 205/8/8 202/15/8 201/10/8
f 207/6/48 201/11/48 203/12/48
f 204/13/3 206/9/3 208/7/3
f 18/2/11 20/5/11 19/3/11
f 20/5/9 24/7/9 23/6/9
f 24/7/12 22/9/12 21/8/12
f 22/9/8 18/15/8 17/10/8
f 23/6/5 21/8/5 17/11/5
f 20/13/2 18/14/2 22/9/2
f 26/2/11 28/5/11 27/3/11
f 28/5/9 32/7/9 31/6/9
f 32/7/12 30/9/12 29/8/12
f 30/9/8 26/15/8 25/10/8
f 31/6/5 29/8/5 25/11/5
f 28/13/2 26/14/2 30/9/2
f 34/2/11 36/5/11 35/3/11
f 36/5/9 40/7/9 39/6/9
f 40/7/12 38/9/12 37/8/12
f 38/9/8 34/15/8 33/10/8
f 39/6/5 37/8/5 33/11/5
f 36/13/2 34/14/2 38/9/2
f 202/2/47 204/5/47 203/3/47
f 203/3/9 204/5/9 208/7/9
f 208/7/10 206/9/10 205/8/10
f 205/8/8 206/9/8 202/15/8
f 207/6/48 205/8/48 201/11/48
f 204/13/3 202/14/3 206/9/3
usemtl Mat_Mapa_Agua.005
f 42/2/13 43/3/13 41/4/13
f 44/5/14 47/6/14 43/3/14
f 48/7/15 45/8/15 47/6/15
f 46/9/16 41/10/16 45/8/16
f 47/6/5 41/11/5 43/12/5
f 44/13/2 46/9/2 48/7/2
f 50/2/17 51/3/17 49/4/17
f 52/5/18 55/6/18 51/3/18
f 56/7/19 53/8/19 55/6/19
f 54/9/20 49/10/20 53/8/20
f 51/12/5 53/8/5 49/11/5
f 52/13/2 54/9/2 56/7/2
f 154/2/7 155/3/7 153/4/7
f 156/5/9 159/6/9 155/3/9
f 160/7/37 157/8/37 159/6/37
f 157/8/8 154/15/8 153/10/8
f 159/6/38 153/11/38 155/12/38
f 156/13/1 158/9/1 160/7/1
f 194/2/53 195/3/53 193/4/53
f 195/3/54 200/7/54 199/6/54
f 200/7/55 197/8/55 199/6/55
f 197/8/56 194/15/56 193/10/56
f 199/6/57 193/11/57 195/12/57
f 196/13/58 198/9/58 200/7/58
f 42/2/13 44/5/13 43/3/13
f 44/5/14 48/7/14 47/6/14
f 48/7/15 46/9/15 45/8/15
f 46/9/16 42/15/16 41/10/16
f 47/6/5 45/8/5 41/11/5
f 44/13/2 42/14/2 46/9/2
f 50/2/17 52/5/17 51/3/17
f 52/5/18 56/7/18 55/6/18
f 56/7/19 54/9/19 53/8/19
f 54/9/20 50/15/20 49/10/20
f 51/12/5 55/6/5 53/8/5
f 52/13/2 50/14/2 54/9/2
f 154/2/7 156/5/7 155/3/7
f 156/5/9 160/7/9 159/6/9
f 160/7/37 158/9/37 157/8/37
f 157/8/8 158/9/8 154/15/8
f 159/6/38 157/8/38 153/11/38
f 156/13/1 154/14/1 158/9/1
f 194/2/53 196/5/53 195/3/53
f 195/3/54 196/5/54 200/7/54
f 200/7/55 198/9/55 197/8/55
f 197/8/56 198/9/56 194/15/56
f 199/6/57 197/8/57 193/11/57
f 196/13/58 194/14/58 198/9/58
usemtl Mat_Mapa_Bosque.003
f 58/2/11 59/3/11 57/4/11
f 60/5/9 63/6/9 59/3/9
f 64/7/12 61/8/12 63/6/12
f 62/9/8 57/10/8 61/8/8
f 63/6/5 57/11/5 59/12/5
f 60/13/2 62/9/2 64/7/2
f 66/2/21 67/3/21 65/4/21
f 68/5/22 71/6/22 67/3/22
f 72/7/23 69/8/23 71/6/23
f 70/9/24 65/10/24 69/8/24
f 71/6/5 65/11/5 67/12/5
f 68/13/2 70/9/2 72/7/2
f 130/2/7 131/3/7 129/4/7
f 132/5/9 135/6/9 131/3/9
f 136/7/37 133/8/37 135/6/37
f 133/8/8 130/15/8 129/10/8
f 135/6/38 129/11/38 131/12/38
f 132/13/1 134/9/1 136/7/1
f 137/4/39 140/5/39 139/3/39
f 140/5/14 143/6/14 139/3/14
f 144/7/40 141/8/40 143/6/40
f 142/9/16 137/10/16 141/8/16
f 143/6/41 137/11/41 139/12/41
f 144/7/42 138/14/42 142/9/42
f 210/2/47 211/3/47 209/4/47
f 212/5/9 215/6/9 211/3/9
f 216/7/10 213/8/10 215/6/10
f 213/8/8 210/15/8 209/10/8
f 215/6/48 209/11/48 211/12/48
f 212/13/3 214/9/3 216/7/3
f 58/2/11 60/5/11 59/3/11
f 60/5/9 64/7/9 63/6/9
f 64/7/12 62/9/12 61/8/12
f 62/9/8 58/15/8 57/10/8
f 63/6/5 61/8/5 57/11/5
f 60/13/2 58/14/2 62/9/2
f 66/2/21 68/5/21 67/3/21
f 68/5/22 72/7/22 71/6/22
f 72/7/23 70/9/23 69/8/23
f 70/9/24 66/15/24 65/10/24
f 71/6/5 69/8/5 65/11/5
f 68/13/2 66/14/2 70/9/2
f 130/2/7 132/5/7 131/3/7
f 132/5/9 136/7/9 135/6/9
f 136/7/37 134/9/37 133/8/37
f 133/8/8 134/9/8 130/15/8
f 135/6/38 133/8/38 129/11/38
f 132/13/1 130/14/1 134/9/1
f 137/4/59 138/2/59 140/5/59
f 140/5/14 144/7/14 143/6/14
f 144/7/40 142/9/40 141/8/40
f 142/9/16 138/15/16 137/10/16
f 143/6/41 141/8/41 137/11/41
f 144/7/42 140/13/42 138/14/42
f 210/2/47 212/5/47 211/3/47
f 212/5/9 216/7/9 215/6/9
f 216/7/10 214/9/10 213/8/10
f 213/8/8 214/9/8 210/15/8
f 215/6/48 213/8/48 209/11/48
f 212/13/3 210/14/3 214/9/3
usemtl Mat_Mapa_Tierra.003
f 74/2/25 75/3/25 73/4/25
f 76/5/26 79/6/26 75/3/26
f 80/7/27 77/8/27 79/6/27
f 78/9/28 73/10/28 77/8/28
f 79/6/5 73/11/5 75/12/5
f 80/7/2 74/14/2 78/9/2
f 82/2/11 83/3/11 81/4/11
f 84/5/9 87/6/9 83/3/9
f 88/7/12 85/8/12 87/6/12
f 86/9/8 81/10/8 85/8/8
f 87/6/5 81/11/5 83/12/5
f 84/13/2 86/9/2 88/7/2
f 162/2/43 163/3/43 161/4/43
f 164/5/34 167/6/34 163/3/34
f 168/7/44 165/8/44 167/6/44
f 166/9/36 161/10/36 165/8/36
f 163/12/45 165/8/45 161/11/45
f 164/13/46 166/9/46 168/7/46
f 178/2/47 179/3/47 177/4/47
f 179/3/9 184/7/9 183/6/9
f 184/7/10 181/8/10 183/6/10
f 181/8/8 178/15/8 177/10/8
f 183/6/48 177/11/48 179/12/48
f 180/13/3 182/9/3 184/7/3
f 74/2/25 76/5/25 75/3/25
f 76/5/26 80/7/26 79/6/26
f 80/7/27 78/9/27 77/8/27
f 78/9/28 74/15/28 73/10/28
f 79/6/5 77/8/5 73/11/5
f 80/7/2 76/13/2 74/14/2
f 82/2/11 84/5/11 83/3/11
f 84/5/9 88/7/9 87/6/9
f 88/7/12 86/9/12 85/8/12
f 86/9/8 82/15/8 81/10/8
f 87/6/5 85/8/5 81/11/5
f 84/13/2 82/14/2 86/9/2
f 162/2/43 164/5/43 163/3/43
f 164/5/34 168/7/34 167/6/34
f 168/7/44 166/9/44 165/8/44
f 166/9/36 162/15/36 161/10/36
f 163/12/45 167/6/45 165/8/45
f 164/13/46 162/14/46 166/9/46
f 178/2/47 180/5/47 179/3/47
f 179/3/9 180/5/9 184/7/9
f 184/7/10 182/9/10 181/8/10
f 181/8/8 182/9/8 178/15/8
f 183/6/48 181/8/48 177/11/48
f 180/13/3 178/14/3 182/9/3
usemtl Mat_Mapa_Ruta.005
f 90/2/25 91/3/25 89/4/25
f 92/5/26 95/6/26 91/3/26
f 96/7/27 93/8/27 95/6/27
f 94/9/28 89/10/28 93/8/28
f 95/6/5 89/11/5 91/12/5
f 96/7/2 90/14/2 94/9/2
f 98/2/29 99/3/29 97/4/29
f 100/5/30 103/6/30 99/3/30
f 104/7/31 101/8/31 103/6/31
f 102/9/32 97/10/32 101/8/32
f 99/12/5 101/8/5 97/11/5
f 100/13/2 102/9/2 104/7/2
f 106/2/33 107/3/33 105/4/33
f 108/5/34 111/6/34 107/3/34
f 112/7/35 109/8/35 111/6/35
f 110/9/36 105/10/36 109/8/36
f 111/6/5 105/11/5 107/12/5
f 108/13/2 110/9/2 112/7/2
f 90/2/25 92/5/25 91/3/25
f 92/5/26 96/7/26 95/6/26
f 96/7/27 94/9/27 93/8/27
f 94/9/28 90/15/28 89/10/28
f 95/6/5 93/8/5 89/11/5
f 96/7/2 92/13/2 90/14/2
f 98/2/29 100/5/29 99/3/29
f 100/5/30 104/7/30 103/6/30
f 104/7/31 102/9/31 101/8/31
f 102/9/32 98/15/32 97/10/32
f 99/12/5 103/6/5 101/8/5
f 100/13/2 98/14/2 102/9/2
f 106/2/33 108/5/33 107/3/33
f 108/5/34 112/7/34 111/6/34
f 112/7/35 110/9/35 109/8/35
f 110/9/36 106/15/36 105/10/36
f 111/6/5 109/8/5 105/11/5
f 108/13/2 106/14/2 110/9/2
usemtl Mat_Mapa_Hito.003
f 114/2/11 115/3/11 113/4/11
f 116/5/9 119/6/9 115/3/9
f 120/7/12 117/8/12 119/6/12
f 118/9/8 113/10/8 117/8/8
f 119/6/5 113/11/5 115/12/5
f 116/13/2 118/9/2 120/7/2
f 122/2/11 123/3/11 121/4/11
f 124/5/9 127/6/9 123/3/9
f 128/7/12 125/8/12 127/6/12
f 126/9/8 121/10/8 125/8/8
f 127/6/5 121/11/5 123/12/5
f 124/13/2 126/9/2 128/7/2
f 170/2/7 171/3/7 169/4/7
f 171/3/9 176/7/9 175/6/9
f 176/7/37 173/8/37 175/6/37
f 174/9/8 169/10/8 173/8/8
f 175/6/38 169/11/38 171/12/38
f 172/13/1 174/9/1 176/7/1
f 114/2/11 116/5/11 115/3/11
f 116/5/9 120/7/9 119/6/9
f 120/7/12 118/9/12 117/8/12
f 118/9/8 114/15/8 113/10/8
f 119/6/5 117/8/5 113/11/5
f 116/13/2 114/14/2 118/9/2
f 122/2/11 124/5/11 123/3/11
f 124/5/9 128/7/9 127/6/9
f 128/7/12 126/9/12 125/8/12
f 126/9/8 122/15/8 121/10/8
f 127/6/5 125/8/5 121/11/5
f 124/13/2 122/14/2 126/9/2
f 170/2/7 172/5/7 171/3/7
f 171/3/9 172/5/9 176/7/9
f 176/7/37 174/9/37 173/8/37
f 174/9/8 170/15/8 169/10/8
f 175/6/38 173/8/38 169/11/38
f 172/13/1 170/14/1 174/9/1
usemtl Mat_Mapa_Pasto.003
f 146/2/7 147/3/7 145/4/7
f 147/3/9 152/7/9 151/6/9
f 152/7/37 149/8/37 151/6/37
f 150/9/8 145/10/8 149/8/8
f 151/6/38 145/11/38 147/12/38
f 148/13/1 150/9/1 152/7/1
f 186/2/49 187/3/49 185/4/49
f 187/3/26 192/7/26 191/6/26
f 192/7/50 189/8/50 191/6/50
f 190/9/28 185/10/28 189/8/28
f 191/6/51 185/11/51 187/12/51
f 188/13/52 190/9/52 192/7/52
f 146/2/7 148/5/7 147/3/7
f 147/3/9 148/5/9 152/7/9
f 152/7/37 150/9/37 149/8/37
f 150/9/8 146/15/8 145/10/8
f 151/6/38 149/8/38 145/11/38
f 148/13/1 146/14/1 150/9/1
f 186/2/49 188/5/49 187/3/49
f 187/3/26 188/5/26 192/7/26
f 192/7/50 190/9/50 189/8/50
f 190/9/28 186/15/28 185/10/28
f 191/6/51 189/8/51 185/11/51
f 188/13/52 186/14/52 190/9/52
