# Blender 5.2.2 LTS
# www.blender.org
mtllib señal-ceda.mtl
o senal_ceda_paso_poste
v 0.000000 0.000000 -0.030000
v 0.000000 2.200000 -0.030000
v 0.005853 0.000000 -0.029424
v 0.005853 2.200000 -0.029424
v 0.011481 0.000000 -0.027716
v 0.011481 2.200000 -0.027716
v 0.016667 0.000000 -0.024944
v 0.016667 2.200000 -0.024944
v 0.021213 0.000000 -0.021213
v 0.021213 2.200000 -0.021213
v 0.024944 0.000000 -0.016667
v 0.024944 2.200000 -0.016667
v 0.027716 0.000000 -0.011481
v 0.027716 2.200000 -0.011481
v 0.029424 0.000000 -0.005853
v 0.029424 2.200000 -0.005853
v 0.030000 0.000000 0.000000
v 0.030000 2.200000 0.000000
v 0.029424 0.000000 0.005853
v 0.029424 2.200000 0.005853
v 0.027716 0.000000 0.011481
v 0.027716 2.200000 0.011481
v 0.024944 0.000000 0.016667
v 0.024944 2.200000 0.016667
v 0.021213 0.000000 0.021213
v 0.021213 2.200000 0.021213
v 0.016667 0.000000 0.024944
v 0.016667 2.200000 0.024944
v 0.011481 0.000000 0.027716
v 0.011481 2.200000 0.027716
v 0.005853 0.000000 0.029424
v 0.005853 2.200000 0.029424
v 0.000000 0.000000 0.030000
v 0.000000 2.200000 0.030000
v -0.005853 0.000000 0.029424
v -0.005853 2.200000 0.029424
v -0.011481 0.000000 0.027716
v -0.011481 2.200000 0.027716
v -0.016667 0.000000 0.024944
v -0.016667 2.200000 0.024944
v -0.021213 0.000000 0.021213
v -0.021213 2.200000 0.021213
v -0.024944 0.000000 0.016667
v -0.024944 2.200000 0.016667
v -0.027716 0.000000 0.011481
v -0.027716 2.200000 0.011481
v -0.029424 0.000000 0.005853
v -0.029424 2.200000 0.005853
v -0.030000 0.000000 0.000000
v -0.030000 2.200000 0.000000
v -0.029424 0.000000 -0.005853
v -0.029424 2.200000 -0.005853
v -0.027716 0.000000 -0.011481
v -0.027716 2.200000 -0.011481
v -0.024944 0.000000 -0.016667
v -0.024944 2.200000 -0.016667
v -0.021213 0.000000 -0.021213
v -0.021213 2.200000 -0.021213
v -0.016667 0.000000 -0.024944
v -0.016667 2.200000 -0.024944
v -0.011481 0.000000 -0.027716
v -0.011481 2.200000 -0.027716
v -0.005853 0.000000 -0.029424
v -0.005853 2.200000 -0.029424
vn 0.0980 -0.0000 -0.9952
vn 0.2903 -0.0000 -0.9569
vn 0.4714 -0.0000 -0.8819
vn 0.6344 -0.0000 -0.7730
vn 0.7730 -0.0000 -0.6344
vn 0.8819 -0.0000 -0.4714
vn 0.9569 -0.0000 -0.2903
vn 0.9952 -0.0000 -0.0980
vn 0.9952 -0.0000 0.0980
vn 0.9569 -0.0000 0.2903
vn 0.8819 -0.0000 0.4714
vn 0.7730 -0.0000 0.6344
vn 0.6344 -0.0000 0.7730
vn 0.4714 -0.0000 0.8819
vn 0.2903 -0.0000 0.9569
vn 0.0980 -0.0000 0.9952
vn -0.0980 -0.0000 0.9952
vn -0.2903 -0.0000 0.9569
vn -0.4714 -0.0000 0.8819
vn -0.6344 -0.0000 0.7730
vn -0.7730 -0.0000 0.6344
vn -0.8819 -0.0000 0.4714
vn -0.9569 -0.0000 0.2903
vn -0.9952 -0.0000 0.0980
vn -0.9952 -0.0000 -0.0980
vn -0.9569 -0.0000 -0.2903
vn -0.8819 -0.0000 -0.4714
vn -0.7730 -0.0000 -0.6344
vn -0.6344 -0.0000 -0.7730
vn -0.4714 -0.0000 -0.8819
vn -0.0000 1.0000 -0.0000
vn -0.2903 -0.0000 -0.9569
vn -0.0980 -0.0000 -0.9952
vn -0.0000 -1.0000 -0.0000
vt 1.000000 0.500000
vt 1.000000 1.000000
vt 0.968750 1.000000
vt 0.968750 0.500000
vt 0.937500 1.000000
vt 0.937500 0.500000
vt 0.906250 1.000000
vt 0.906250 0.500000
vt 0.875000 1.000000
vt 0.875000 0.500000
vt 0.843750 1.000000
vt 0.843750 0.500000
vt 0.812500 1.000000
vt 0.812500 0.500000
vt 0.781250 1.000000
vt 0.781250 0.500000
vt 0.750000 1.000000
vt 0.750000 0.500000
vt 0.718750 1.000000
vt 0.718750 0.500000
vt 0.687500 1.000000
vt 0.687500 0.500000
vt 0.656250 1.000000
vt 0.656250 0.500000
vt 0.625000 1.000000
vt 0.625000 0.500000
vt 0.593750 1.000000
vt 0.593750 0.500000
vt 0.562500 1.000000
vt 0.562500 0.500000
vt 0.531250 1.000000
vt 0.531250 0.500000
vt 0.500000 1.000000
vt 0.500000 0.500000
vt 0.468750 1.000000
vt 0.468750 0.500000
vt 0.437500 1.000000
vt 0.437500 0.500000
vt 0.406250 1.000000
vt 0.406250 0.500000
vt 0.375000 1.000000
vt 0.375000 0.500000
vt 0.343750 1.000000
vt 0.343750 0.500000
vt 0.312500 1.000000
vt 0.312500 0.500000
vt 0.281250 1.000000
vt 0.281250 0.500000
vt 0.250000 1.000000
vt 0.250000 0.500000
vt 0.218750 1.000000
vt 0.218750 0.500000
vt 0.187500 1.000000
vt 0.187500 0.500000
vt 0.156250 1.000000
vt 0.156250 0.500000
vt 0.125000 1.000000
vt 0.125000 0.500000
vt 0.093750 1.000000
vt 0.093750 0.500000
vt 0.062500 1.000000
vt 0.062500 0.500000
vt 0.296822 0.485388
vt 0.250000 0.490000
vt 0.203178 0.485388
vt 0.158156 0.471731
vt 0.116663 0.449553
vt 0.080294 0.419706
vt 0.050447 0.383337
vt 0.028269 0.341844
vt 0.014612 0.296822
vt 0.010000 0.250000
vt 0.014612 0.203178
vt 0.028269 0.158156
vt 0.050447 0.116663
vt 0.080294 0.080294
vt 0.116663 0.050447
vt 0.158156 0.028269
vt 0.203178 0.014612
vt 0.250000 0.010000
vt 0.296822 0.014612
vt 0.341844 0.028269
vt 0.383337 0.050447
vt 0.419706 0.080294
vt 0.449553 0.116663
vt 0.471731 0.158156
vt 0.485388 0.203178
vt 0.490000 0.250000
vt 0.485388 0.296822
vt 0.471731 0.341844
vt 0.449553 0.383337
vt 0.419706 0.419706
vt 0.383337 0.449553
vt 0.341844 0.471731
vt 0.031250 1.000000
vt 0.031250 0.500000
vt 0.000000 1.000000
vt 0.000000 0.500000
vt 0.750000 0.490000
vt 0.796822 0.485388
vt 0.841844 0.471731
vt 0.883337 0.449553
vt 0.919706 0.419706
vt 0.949553 0.383337
vt 0.971731 0.341844
vt 0.985388 0.296822
vt 0.990000 0.250000
vt 0.985388 0.203178
vt 0.971731 0.158156
vt 0.949553 0.116663
vt 0.919706 0.080294
vt 0.883337 0.050447
vt 0.841844 0.028269
vt 0.796822 0.014612
vt 0.750000 0.010000
vt 0.703178 0.014612
vt 0.658156 0.028269
vt 0.616663 0.050447
vt 0.580294 0.080294
vt 0.550447 0.116663
vt 0.528269 0.158156
vt 0.514612 0.203178
vt 0.510000 0.250000
vt 0.514612 0.296822
vt 0.528269 0.341844
vt 0.550447 0.383337
vt 0.580294 0.419706
vt 0.616663 0.449553
vt 0.658156 0.471731
vt 0.703178 0.485388
s 0
f 1/1/1 2/2/1 4/3/1 3/4/1
f 3/4/2 4/3/2 6/5/2 5/6/2
f 5/6/3 6/5/3 8/7/3 7/8/3
f 7/8/4 8/7/4 10/9/4 9/10/4
f 9/10/5 10/9/5 12/11/5 11/12/5
f 11/12/6 12/11/6 14/13/6 13/14/6
f 13/14/7 14/13/7 16/15/7 15/16/7
f 15/16/8 16/15/8 18/17/8 17/18/8
f 17/18/9 18/17/9 20/19/9 19/20/9
f 19/20/10 20/19/10 22/21/10 21/22/10
f 21/22/11 22/21/11 24/23/11 23/24/11
f 23/24/12 24/23/12 26/25/12 25/26/12
f 25/26/13 26/25/13 28/27/13 27/28/13
f 27/28/14 28/27/14 30/29/14 29/30/14
f 29/30/15 30/29/15 32/31/15 31/32/15
f 31/32/16 32/31/16 34/33/16 33/34/16
f 33/34/17 34/33/17 36/35/17 35/36/17
f 35/36/18 36/35/18 38/37/18 37/38/18
f 37/38/19 38/37/19 40/39/19 39/40/19
f 39/40/20 40/39/20 42/41/20 41/42/20
f 41/42/21 42/41/21 44/43/21 43/44/21
f 43/44/22 44/43/22 46/45/22 45/46/22
f 45/46/23 46/45/23 48/47/23 47/48/23
f 47/48/24 48/47/24 50/49/24 49/50/24
f 49/50/25 50/49/25 52/51/25 51/52/25
f 51/52/26 52/51/26 54/53/26 53/54/26
f 53/54/27 54/53/27 56/55/27 55/56/27
f 55/56/28 56/55/28 58/57/28 57/58/28
f 57/58/29 58/57/29 60/59/29 59/60/29
f 59/60/30 60/59/30 62/61/30 61/62/30
f 4/63/31 2/64/31 64/65/31 62/66/31 60/67/31 58/68/31 56/69/31 54/70/31 52/71/31 50/72/31 48/73/31 46/74/31 44/75/31 42/76/31 40/77/31 38/78/31 36/79/31 34/80/31 32/81/31 30/82/31 28/83/31 26/84/31 24/85/31 22/86/31 20/87/31 18/88/31 16/89/31 14/90/31 12/91/31 10/92/31 8/93/31 6/94/31
f 61/62/32 62/61/32 64/95/32 63/96/32
f 63/96/33 64/95/33 2/97/33 1/98/33
f 1/99/34 3/100/34 5/101/34 7/102/34 9/103/34 11/104/34 13/105/34 15/106/34 17/107/34 19/108/34 21/109/34 23/110/34 25/111/34 27/112/34 29/113/34 31/114/34 33/115/34 35/116/34 37/117/34 39/118/34 41/119/34 43/120/34 45/121/34 47/122/34 49/123/34 51/124/34 53/125/34 55/126/34 57/127/34 59/128/34 61/129/34 63/130/34
o senal_ceda_paso_placa
v 0.000000 1.100000 0.025000
v 0.606218 2.150000 0.025000
v -0.606218 2.150000 0.025000
v 0.000000 1.800000 -0.025000
vn 0.1225 -0.0707 -0.9899
vn -0.0000 -0.0000 1.0000
vn -0.0000 0.1414 -0.9899
vn -0.1225 -0.0707 -0.9899
vt 0.250000 0.490000
vt 0.250000 0.250000
vt 0.457846 0.130000
vt 0.750000 0.490000
vt 0.957846 0.130000
vt 0.542154 0.130000
vt 0.042154 0.130000
s 0
f 65/131/35 68/132/35 66/133/35
f 65/134/36 66/135/36 67/136/36
f 66/133/37 68/132/37 67/137/37
f 67/137/38 68/132/38 65/131/38
o senal_ceda_paso_texto
v 0.186725 1.669800 0.055000
v 0.172711 1.700754 0.055000
v 0.128051 1.700754 0.055000
v 0.114807 1.669800 0.055000
v 0.099407 1.669800 0.055000
v 0.144529 1.775444 0.055000
v 0.155155 1.775444 0.055000
v 0.202125 1.669800 0.055000
v 0.166551 1.714306 0.055000
v 0.149611 1.752344 0.055000
v 0.133903 1.714306 0.055000
v 0.036421 1.774828 0.055000
v 0.045673 1.774268 0.055000
v 0.054037 1.772660 0.055000
v 0.061528 1.770109 0.055000
v 0.068162 1.766723 0.055000
v 0.073956 1.762607 0.055000
v 0.078925 1.757869 0.055000
v 0.083086 1.752614 0.055000
v 0.086454 1.746948 0.055000
v 0.089046 1.740979 0.055000
v 0.090877 1.734813 0.055000
v 0.091964 1.728556 0.055000
v 0.092323 1.722314 0.055000
v 0.091888 1.715619 0.055000
v 0.090600 1.709066 0.055000
v 0.088485 1.702739 0.055000
v 0.085570 1.696721 0.055000
v 0.081880 1.691097 0.055000
v 0.077443 1.685951 0.055000
v 0.072283 1.681366 0.055000
v 0.066428 1.677426 0.055000
v 0.059904 1.674215 0.055000
v 0.052736 1.671818 0.055000
v 0.044951 1.670319 0.055000
v 0.036575 1.669800 0.055000
v -0.004389 1.669800 0.055000
v -0.004389 1.774828 0.055000
v 0.034727 1.683352 0.055000
v 0.042736 1.683872 0.055000
v 0.049712 1.685340 0.055000
v 0.055719 1.687621 0.055000
v 0.060821 1.690579 0.055000
v 0.065083 1.694078 0.055000
v 0.068568 1.697982 0.055000
v 0.071342 1.702156 0.055000
v 0.073467 1.706463 0.055000
v 0.075008 1.710769 0.055000
v 0.076029 1.714936 0.055000
v 0.076595 1.718830 0.055000
v 0.076769 1.722314 0.055000
v 0.076488 1.727513 0.055000
v 0.075640 1.732526 0.055000
v 0.074216 1.737303 0.055000
v 0.072206 1.741792 0.055000
v 0.069601 1.745944 0.055000
v 0.066393 1.749707 0.055000
v 0.062572 1.753030 0.055000
v 0.058129 1.755863 0.055000
v 0.053055 1.758155 0.055000
v 0.047341 1.759855 0.055000
v 0.040978 1.760912 0.055000
v 0.033957 1.761276 0.055000
v 0.010703 1.761276 0.055000
v 0.010703 1.683352 0.055000
v -0.066451 1.761276 0.055000
v -0.066451 1.729552 0.055000
v -0.023485 1.729552 0.055000
v -0.023485 1.716000 0.055000
v -0.066451 1.716000 0.055000
v -0.066451 1.683352 0.055000
v -0.020559 1.683352 0.055000
v -0.020559 1.669800 0.055000
v -0.081543 1.669800 0.055000
v -0.081543 1.774828 0.055000
v -0.021945 1.774828 0.055000
v -0.021945 1.761276 0.055000
v -0.104298 1.753220 0.055000
v -0.107429 1.754850 0.055000
v -0.110502 1.756312 0.055000
v -0.113529 1.757609 0.055000
v -0.116520 1.758743 0.055000
v -0.119485 1.759717 0.055000
v -0.122433 1.760534 0.055000
v -0.125376 1.761196 0.055000
v -0.128323 1.761707 0.055000
v -0.131284 1.762068 0.055000
v -0.134270 1.762283 0.055000
v -0.137291 1.762354 0.055000
v -0.143162 1.762004 0.055000
v -0.148735 1.760981 0.055000
v -0.153971 1.759322 0.055000
v -0.158828 1.757067 0.055000
v -0.163266 1.754253 0.055000
v -0.167244 1.750919 0.055000
v -0.170721 1.747105 0.055000
v -0.173658 1.742847 0.055000
v -0.176012 1.738186 0.055000
v -0.177745 1.733158 0.055000
v -0.178814 1.727803 0.055000
v -0.179179 1.722160 0.055000
v -0.178825 1.716426 0.055000
v -0.177784 1.711024 0.055000
v -0.176089 1.705988 0.055000
v -0.173772 1.701347 0.055000
v -0.170864 1.697134 0.055000
v -0.167398 1.693381 0.055000
v -0.163406 1.690119 0.055000
v -0.158919 1.687379 0.055000
v -0.153971 1.685193 0.055000
v -0.148593 1.683592 0.055000
v -0.142817 1.682609 0.055000
v -0.136675 1.682274 0.055000
v -0.133689 1.682360 0.055000
v -0.130666 1.682618 0.055000
v -0.127613 1.683044 0.055000
v -0.124538 1.683637 0.055000
v -0.121447 1.684395 0.055000
v -0.118349 1.685315 0.055000
v -0.115251 1.686396 0.055000
v -0.112160 1.687635 0.055000
v -0.109085 1.689031 0.055000
v -0.106032 1.690580 0.055000
v -0.103009 1.692281 0.055000
v -0.100023 1.694132 0.055000
v -0.100023 1.677654 0.055000
v -0.102624 1.676340 0.055000
v -0.105279 1.675098 0.055000
v -0.108002 1.673936 0.055000
v -0.110809 1.672863 0.055000
v -0.113714 1.671886 0.055000
v -0.116732 1.671013 0.055000
v -0.119879 1.670252 0.055000
v -0.123169 1.669612 0.055000
v -0.126617 1.669100 0.055000
v -0.130238 1.668724 0.055000
v -0.134048 1.668493 0.055000
v -0.138061 1.668414 0.055000
v -0.147458 1.669024 0.055000
v -0.155948 1.670763 0.055000
v -0.163548 1.673498 0.055000
v -0.170276 1.677095 0.055000
v -0.176147 1.681419 0.055000
v -0.181181 1.686336 0.055000
v -0.185393 1.691711 0.055000
v -0.188801 1.697412 0.055000
v -0.191422 1.703302 0.055000
v -0.193273 1.709249 0.055000
v -0.194371 1.715118 0.055000
v -0.194733 1.720774 0.055000
v -0.194238 1.728594 0.055000
v -0.192787 1.736003 0.055000
v -0.190433 1.742950 0.055000
v -0.187227 1.749384 0.055000
v -0.183221 1.755253 0.055000
v -0.178467 1.760506 0.055000
v -0.173016 1.765092 0.055000
v -0.166922 1.768959 0.055000
v -0.160235 1.772056 0.055000
v -0.153007 1.774332 0.055000
v -0.145290 1.775735 0.055000
v -0.137137 1.776214 0.055000
v -0.134437 1.776159 0.055000
v -0.131719 1.775992 0.055000
v -0.128973 1.775711 0.055000
v -0.126186 1.775313 0.055000
v -0.123348 1.774795 0.055000
v -0.120447 1.774154 0.055000
v -0.117473 1.773389 0.055000
v -0.114413 1.772495 0.055000
v -0.111258 1.771471 0.055000
v -0.107995 1.770314 0.055000
v -0.104613 1.769021 0.055000
v -0.101101 1.767590 0.055000
v -0.101101 1.751420 0.055000
v 0.186725 1.669800 0.035000
v 0.172711 1.700754 0.035000
v 0.128051 1.700754 0.035000
v 0.114807 1.669800 0.035000
v 0.099407 1.669800 0.035000
v 0.144529 1.775444 0.035000
v 0.155155 1.775444 0.035000
v 0.202125 1.669800 0.035000
v 0.166551 1.714306 0.035000
v 0.149611 1.752344 0.035000
v 0.133903 1.714306 0.035000
v 0.036421 1.774828 0.035000
v 0.045673 1.774268 0.035000
v 0.054037 1.772660 0.035000
v 0.061528 1.770109 0.035000
v 0.068162 1.766723 0.035000
v 0.073956 1.762607 0.035000
v 0.078925 1.757869 0.035000
v 0.083086 1.752614 0.035000
v 0.086454 1.746948 0.035000
v 0.089046 1.740979 0.035000
v 0.090877 1.734813 0.035000
v 0.091964 1.728556 0.035000
v 0.092323 1.722314 0.035000
v 0.091888 1.715619 0.035000
v 0.090600 1.709066 0.035000
v 0.088485 1.702739 0.035000
v 0.085570 1.696721 0.035000
v 0.081880 1.691097 0.035000
v 0.077443 1.685951 0.035000
v 0.072283 1.681366 0.035000
v 0.066428 1.677426 0.035000
v 0.059904 1.674215 0.035000
v 0.052736 1.671818 0.035000
v 0.044951 1.670319 0.035000
v 0.036575 1.669800 0.035000
v -0.004389 1.669800 0.035000
v -0.004389 1.774828 0.035000
v 0.034727 1.683352 0.035000
v 0.042736 1.683872 0.035000
v 0.049712 1.685340 0.035000
v 0.055719 1.687621 0.035000
v 0.060821 1.690579 0.035000
v 0.065083 1.694078 0.035000
v 0.068568 1.697982 0.035000
v 0.071342 1.702156 0.035000
v 0.073467 1.706463 0.035000
v 0.075008 1.710769 0.035000
v 0.076029 1.714936 0.035000
v 0.076595 1.718830 0.035000
v 0.076769 1.722314 0.035000
v 0.076488 1.727513 0.035000
v 0.075640 1.732526 0.035000
v 0.074216 1.737303 0.035000
v 0.072206 1.741792 0.035000
v 0.069601 1.745944 0.035000
v 0.066393 1.749707 0.035000
v 0.062572 1.753030 0.035000
v 0.058129 1.755863 0.035000
v 0.053055 1.758155 0.035000
v 0.047341 1.759855 0.035000
v 0.040978 1.760912 0.035000
v 0.033957 1.761276 0.035000
v 0.010703 1.761276 0.035000
v 0.010703 1.683352 0.035000
v -0.066451 1.761276 0.035000
v -0.066451 1.729552 0.035000
v -0.023485 1.729552 0.035000
v -0.023485 1.716000 0.035000
v -0.066451 1.716000 0.035000
v -0.066451 1.683352 0.035000
v -0.020559 1.683352 0.035000
v -0.020559 1.669800 0.035000
v -0.081543 1.669800 0.035000
v -0.081543 1.774828 0.035000
v -0.021945 1.774828 0.035000
v -0.021945 1.761276 0.035000
v -0.104298 1.753220 0.035000
v -0.107429 1.754850 0.035000
v -0.110502 1.756312 0.035000
v -0.113529 1.757609 0.035000
v -0.116520 1.758743 0.035000
v -0.119485 1.759717 0.035000
v -0.122433 1.760534 0.035000
v -0.125376 1.761196 0.035000
v -0.128323 1.761707 0.035000
v -0.131284 1.762068 0.035000
v -0.134270 1.762283 0.035000
v -0.137291 1.762354 0.035000
v -0.143162 1.762004 0.035000
v -0.148735 1.760981 0.035000
v -0.153971 1.759322 0.035000
v -0.158828 1.757067 0.035000
v -0.163266 1.754253 0.035000
v -0.167244 1.750919 0.035000
v -0.170721 1.747105 0.035000
v -0.173658 1.742847 0.035000
v -0.176012 1.738186 0.035000
v -0.177745 1.733158 0.035000
v -0.178814 1.727803 0.035000
v -0.179179 1.722160 0.035000
v -0.178825 1.716426 0.035000
v -0.177784 1.711024 0.035000
v -0.176089 1.705988 0.035000
v -0.173772 1.701347 0.035000
v -0.170864 1.697134 0.035000
v -0.167398 1.693381 0.035000
v -0.163406 1.690119 0.035000
v -0.158919 1.687379 0.035000
v -0.153971 1.685193 0.035000
v -0.148593 1.683592 0.035000
v -0.142817 1.682609 0.035000
v -0.136675 1.682274 0.035000
v -0.133689 1.682360 0.035000
v -0.130666 1.682618 0.035000
v -0.127613 1.683044 0.035000
v -0.124538 1.683637 0.035000
v -0.121447 1.684395 0.035000
v -0.118349 1.685315 0.035000
v -0.115251 1.686396 0.035000
v -0.112160 1.687635 0.035000
v -0.109085 1.689031 0.035000
v -0.106032 1.690580 0.035000
v -0.103009 1.692281 0.035000
v -0.100023 1.694132 0.035000
v -0.100023 1.677654 0.035000
v -0.102624 1.676340 0.035000
v -0.105279 1.675098 0.035000
v -0.108002 1.673936 0.035000
v -0.110809 1.672863 0.035000
v -0.113714 1.671886 0.035000
v -0.116732 1.671013 0.035000
v -0.119879 1.670252 0.035000
v -0.123169 1.669612 0.035000
v -0.126617 1.669100 0.035000
v -0.130238 1.668724 0.035000
v -0.134048 1.668493 0.035000
v -0.138061 1.668414 0.035000
v -0.147458 1.669024 0.035000
v -0.155948 1.670763 0.035000
v -0.163548 1.673498 0.035000
v -0.170276 1.677095 0.035000
v -0.176147 1.681419 0.035000
v -0.181181 1.686336 0.035000
v -0.185393 1.691711 0.035000
v -0.188801 1.697412 0.035000
v -0.191422 1.703302 0.035000
v -0.193273 1.709249 0.035000
v -0.194371 1.715118 0.035000
v -0.194733 1.720774 0.035000
v -0.194238 1.728594 0.035000
v -0.192787 1.736003 0.035000
v -0.190433 1.742950 0.035000
v -0.187227 1.749384 0.035000
v -0.183221 1.755253 0.035000
v -0.178467 1.760506 0.035000
v -0.173016 1.765092 0.035000
v -0.166922 1.768959 0.035000
v -0.160235 1.772056 0.035000
v -0.153007 1.774332 0.035000
v -0.145290 1.775735 0.035000
v -0.137137 1.776214 0.035000
v -0.134437 1.776159 0.035000
v -0.131719 1.775992 0.035000
v -0.128973 1.775711 0.035000
v -0.126186 1.775313 0.035000
v -0.123348 1.774795 0.035000
v -0.120447 1.774154 0.035000
v -0.117473 1.773389 0.035000
v -0.114413 1.772495 0.035000
v -0.111258 1.771471 0.035000
v -0.107995 1.770314 0.035000
v -0.104613 1.769021 0.035000
v -0.101101 1.767590 0.035000
v -0.101101 1.751420 0.035000
v -0.104298 1.753220 0.035000
v -0.104298 1.753220 0.055000
v -0.107429 1.754850 0.035000
v -0.107429 1.754850 0.055000
v -0.110502 1.756312 0.035000
v -0.110502 1.756312 0.055000
v -0.113529 1.757609 0.035000
v -0.113529 1.757609 0.055000
v -0.116520 1.758743 0.035000
v -0.116520 1.758743 0.055000
v -0.119485 1.759717 0.035000
v -0.119485 1.759717 0.055000
v -0.122433 1.760534 0.035000
v -0.122433 1.760534 0.055000
v -0.125376 1.761196 0.035000
v -0.125376 1.761196 0.055000
v -0.128323 1.761707 0.035000
v -0.128323 1.761707 0.055000
v -0.131284 1.762068 0.035000
v -0.131284 1.762068 0.055000
v -0.134270 1.762283 0.035000
v -0.134270 1.762283 0.055000
v -0.137291 1.762354 0.035000
v -0.137291 1.762354 0.055000
v -0.143162 1.762004 0.035000
v -0.143162 1.762004 0.055000
v -0.148735 1.760981 0.035000
v -0.148735 1.760981 0.055000
v -0.153971 1.759322 0.035000
v -0.153971 1.759322 0.055000
v -0.158828 1.757067 0.035000
v -0.158828 1.757067 0.055000
v -0.163266 1.754253 0.035000
v -0.163266 1.754253 0.055000
v -0.167244 1.750919 0.035000
v -0.167244 1.750919 0.055000
v -0.170721 1.747105 0.035000
v -0.170721 1.747105 0.055000
v -0.173658 1.742847 0.035000
v -0.173658 1.742847 0.055000
v -0.176012 1.738186 0.035000
v -0.176012 1.738186 0.055000
v -0.177745 1.733158 0.035000
v -0.177745 1.733158 0.055000
v -0.178814 1.727803 0.035000
v -0.178814 1.727803 0.055000
v -0.179179 1.722160 0.035000
v -0.179179 1.722160 0.055000
v -0.178825 1.716426 0.035000
v -0.178825 1.716426 0.055000
v -0.177784 1.711024 0.035000
v -0.177784 1.711024 0.055000
v -0.176089 1.705988 0.035000
v -0.176089 1.705988 0.055000
v -0.173772 1.701347 0.035000
v -0.173772 1.701347 0.055000
v -0.170864 1.697134 0.035000
v -0.170864 1.697134 0.055000
v -0.167398 1.693381 0.035000
v -0.167398 1.693381 0.055000
v -0.163406 1.690119 0.035000
v -0.163406 1.690119 0.055000
v -0.158919 1.687379 0.035000
v -0.158919 1.687379 0.055000
v -0.153971 1.685193 0.035000
v -0.153971 1.685193 0.055000
v -0.148593 1.683592 0.035000
v -0.148593 1.683592 0.055000
v -0.142817 1.682609 0.035000
v -0.142817 1.682609 0.055000
v -0.136675 1.682274 0.035000
v -0.136675 1.682274 0.055000
v -0.133689 1.682360 0.035000
v -0.133689 1.682360 0.055000
v -0.130666 1.682618 0.035000
v -0.130666 1.682618 0.055000
v -0.127613 1.683044 0.035000
v -0.127613 1.683044 0.055000
v -0.124538 1.683637 0.035000
v -0.124538 1.683637 0.055000
v -0.121447 1.684395 0.035000
v -0.121447 1.684395 0.055000
v -0.118349 1.685315 0.035000
v -0.118349 1.685315 0.055000
v -0.115251 1.686396 0.035000
v -0.115251 1.686396 0.055000
v -0.112160 1.687635 0.035000
v -0.112160 1.687635 0.055000
v -0.109085 1.689031 0.035000
v -0.109085 1.689031 0.055000
v -0.106032 1.690580 0.035000
v -0.106032 1.690580 0.055000
v -0.103009 1.692281 0.035000
v -0.103009 1.692281 0.055000
v -0.100023 1.694132 0.035000
v -0.100023 1.694132 0.055000
v -0.100023 1.677654 0.035000
v -0.100023 1.677654 0.055000
v -0.102624 1.676340 0.035000
v -0.102624 1.676340 0.055000
v -0.105279 1.675098 0.035000
v -0.105279 1.675098 0.055000
v -0.108002 1.673936 0.035000
v -0.108002 1.673936 0.055000
v -0.110809 1.672863 0.035000
v -0.110809 1.672863 0.055000
v -0.113714 1.671886 0.035000
v -0.113714 1.671886 0.055000
v -0.116732 1.671013 0.035000
v -0.116732 1.671013 0.055000
v -0.119879 1.670252 0.035000
v -0.119879 1.670252 0.055000
v -0.123169 1.669612 0.035000
v -0.123169 1.669612 0.055000
v -0.126617 1.669100 0.035000
v -0.126617 1.669100 0.055000
v -0.130238 1.668724 0.035000
v -0.130238 1.668724 0.055000
v -0.134048 1.668493 0.035000
v -0.134048 1.668493 0.055000
v -0.138061 1.668414 0.035000
v -0.138061 1.668414 0.055000
v -0.147458 1.669024 0.035000
v -0.147458 1.669024 0.055000
v -0.155948 1.670763 0.035000
v -0.155948 1.670763 0.055000
v -0.163548 1.673498 0.035000
v -0.163548 1.673498 0.055000
v -0.170276 1.677095 0.035000
v -0.170276 1.677095 0.055000
v -0.176147 1.681419 0.035000
v -0.176147 1.681419 0.055000
v -0.181181 1.686336 0.035000
v -0.181181 1.686336 0.055000
v -0.185393 1.691711 0.035000
v -0.185393 1.691711 0.055000
v -0.188801 1.697412 0.035000
v -0.188801 1.697412 0.055000
v -0.191422 1.703302 0.035000
v -0.191422 1.703302 0.055000
v -0.193273 1.709249 0.035000
v -0.193273 1.709249 0.055000
v -0.194371 1.715118 0.035000
v -0.194371 1.715118 0.055000
v -0.194733 1.720774 0.035000
v -0.194733 1.720774 0.055000
v -0.194238 1.728594 0.035000
v -0.194238 1.728594 0.055000
v -0.192787 1.736003 0.035000
v -0.192787 1.736003 0.055000
v -0.190433 1.742950 0.035000
v -0.190433 1.742950 0.055000
v -0.187227 1.749384 0.035000
v -0.187227 1.749384 0.055000
v -0.183221 1.755253 0.035000
v -0.183221 1.755253 0.055000
v -0.178467 1.760506 0.035000
v -0.178467 1.760506 0.055000
v -0.173016 1.765092 0.035000
v -0.173016 1.765092 0.055000
v -0.166922 1.768959 0.035000
v -0.166922 1.768959 0.055000
v -0.160235 1.772056 0.035000
v -0.160235 1.772056 0.055000
v -0.153007 1.774332 0.035000
v -0.153007 1.774332 0.055000
v -0.145290 1.775735 0.035000
v -0.145290 1.775735 0.055000
v -0.137137 1.776214 0.035000
v -0.137137 1.776214 0.055000
v -0.134437 1.776159 0.035000
v -0.134437 1.776159 0.055000
v -0.131719 1.775992 0.035000
v -0.131719 1.775992 0.055000
v -0.128973 1.775711 0.035000
v -0.128973 1.775711 0.055000
v -0.126186 1.775313 0.035000
v -0.126186 1.775313 0.055000
v -0.123348 1.774795 0.035000
v -0.123348 1.774795 0.055000
v -0.120447 1.774154 0.035000
v -0.120447 1.774154 0.055000
v -0.117473 1.773389 0.035000
v -0.117473 1.773389 0.055000
v -0.114413 1.772495 0.035000
v -0.114413 1.772495 0.055000
v -0.111258 1.771471 0.035000
v -0.111258 1.771471 0.055000
v -0.107995 1.770314 0.035000
v -0.107995 1.770314 0.055000
v -0.104613 1.769021 0.035000
v -0.104613 1.769021 0.055000
v -0.101101 1.767590 0.035000
v -0.101101 1.767590 0.055000
v -0.101101 1.751420 0.035000
v -0.101101 1.751420 0.055000
v -0.066451 1.761276 0.035000
v -0.066451 1.761276 0.055000
v -0.066451 1.729552 0.035000
v -0.066451 1.729552 0.055000
v -0.023485 1.729552 0.035000
v -0.023485 1.729552 0.055000
v -0.023485 1.716000 0.035000
v -0.023485 1.716000 0.055000
v -0.066451 1.716000 0.035000
v -0.066451 1.716000 0.055000
v -0.066451 1.683352 0.035000
v -0.066451 1.683352 0.055000
v -0.020559 1.683352 0.035000
v -0.020559 1.683352 0.055000
v -0.020559 1.669800 0.035000
v -0.020559 1.669800 0.055000
v -0.081543 1.669800 0.035000
v -0.081543 1.669800 0.055000
v -0.081543 1.774828 0.035000
v -0.081543 1.774828 0.055000
v -0.021945 1.774828 0.035000
v -0.021945 1.774828 0.055000
v -0.021945 1.761276 0.035000
v -0.021945 1.761276 0.055000
v 0.036421 1.774828 0.035000
v 0.036421 1.774828 0.055000
v 0.045673 1.774268 0.035000
v 0.045673 1.774268 0.055000
v 0.054037 1.772660 0.035000
v 0.054037 1.772660 0.055000
v 0.061528 1.770109 0.035000
v 0.061528 1.770109 0.055000
v 0.068162 1.766723 0.035000
v 0.068162 1.766723 0.055000
v 0.073956 1.762607 0.035000
v 0.073956 1.762607 0.055000
v 0.078925 1.757869 0.035000
v 0.078925 1.757869 0.055000
v 0.083086 1.752614 0.035000
v 0.083086 1.752614 0.055000
v 0.086454 1.746948 0.035000
v 0.086454 1.746948 0.055000
v 0.089046 1.740979 0.035000
v 0.089046 1.740979 0.055000
v 0.090877 1.734813 0.035000
v 0.090877 1.734813 0.055000
v 0.091964 1.728556 0.035000
v 0.091964 1.728556 0.055000
v 0.092323 1.722314 0.035000
v 0.092323 1.722314 0.055000
v 0.091888 1.715619 0.035000
v 0.091888 1.715619 0.055000
v 0.090600 1.709066 0.035000
v 0.090600 1.709066 0.055000
v 0.088485 1.702739 0.035000
v 0.088485 1.702739 0.055000
v 0.085570 1.696721 0.035000
v 0.085570 1.696721 0.055000
v 0.081880 1.691097 0.035000
v 0.081880 1.691097 0.055000
v 0.077443 1.685951 0.035000
v 0.077443 1.685951 0.055000
v 0.072283 1.681366 0.035000
v 0.072283 1.681366 0.055000
v 0.066428 1.677426 0.035000
v 0.066428 1.677426 0.055000
v 0.059904 1.674215 0.035000
v 0.059904 1.674215 0.055000
v 0.052736 1.671818 0.035000
v 0.052736 1.671818 0.055000
v 0.044951 1.670319 0.035000
v 0.044951 1.670319 0.055000
v 0.036575 1.669800 0.035000
v 0.036575 1.669800 0.055000
v -0.004389 1.669800 0.035000
v -0.004389 1.669800 0.055000
v -0.004389 1.774828 0.035000
v -0.004389 1.774828 0.055000
v 0.034727 1.683352 0.035000
v 0.034727 1.683352 0.055000
v 0.042736 1.683872 0.035000
v 0.042736 1.683872 0.055000
v 0.049712 1.685340 0.035000
v 0.049712 1.685340 0.055000
v 0.055719 1.687621 0.035000
v 0.055719 1.687621 0.055000
v 0.060821 1.690579 0.035000
v 0.060821 1.690579 0.055000
v 0.065083 1.694078 0.035000
v 0.065083 1.694078 0.055000
v 0.068568 1.697982 0.035000
v 0.068568 1.697982 0.055000
v 0.071342 1.702156 0.035000
v 0.071342 1.702156 0.055000
v 0.073467 1.706463 0.035000
v 0.073467 1.706463 0.055000
v 0.075008 1.710769 0.035000
v 0.075008 1.710769 0.055000
v 0.076029 1.714936 0.035000
v 0.076029 1.714936 0.055000
v 0.076595 1.718830 0.035000
v 0.076595 1.718830 0.055000
v 0.076769 1.722314 0.035000
v 0.076769 1.722314 0.055000
v 0.076488 1.727513 0.035000
v 0.076488 1.727513 0.055000
v 0.075640 1.732526 0.035000
v 0.075640 1.732526 0.055000
v 0.074216 1.737303 0.035000
v 0.074216 1.737303 0.055000
v 0.072206 1.741792 0.035000
v 0.072206 1.741792 0.055000
v 0.069601 1.745944 0.035000
v 0.069601 1.745944 0.055000
v 0.066393 1.749707 0.035000
v 0.066393 1.749707 0.055000
v 0.062572 1.753030 0.035000
v 0.062572 1.753030 0.055000
v 0.058129 1.755863 0.035000
v 0.058129 1.755863 0.055000
v 0.053055 1.758155 0.035000
v 0.053055 1.758155 0.055000
v 0.047341 1.759855 0.035000
v 0.047341 1.759855 0.055000
v 0.040978 1.760912 0.035000
v 0.040978 1.760912 0.055000
v 0.033957 1.761276 0.035000
v 0.033957 1.761276 0.055000
v 0.010703 1.761276 0.035000
v 0.010703 1.761276 0.055000
v 0.010703 1.683352 0.035000
v 0.010703 1.683352 0.055000
v 0.186725 1.669800 0.035000
v 0.186725 1.669800 0.055000
v 0.172711 1.700754 0.035000
v 0.172711 1.700754 0.055000
v 0.128051 1.700754 0.035000
v 0.128051 1.700754 0.055000
v 0.114807 1.669800 0.035000
v 0.114807 1.669800 0.055000
v 0.099407 1.669800 0.035000
v 0.099407 1.669800 0.055000
v 0.144529 1.775444 0.035000
v 0.144529 1.775444 0.055000
v 0.155155 1.775444 0.035000
v 0.155155 1.775444 0.055000
v 0.202125 1.669800 0.035000
v 0.202125 1.669800 0.055000
v 0.166551 1.714306 0.035000
v 0.166551 1.714306 0.055000
v 0.149611 1.752344 0.035000
v 0.149611 1.752344 0.055000
v 0.133903 1.714306 0.035000
v 0.133903 1.714306 0.055000
vn -0.0000 -0.0000 1.0000
vn -0.0000 -0.0000 -1.0000
vn -0.4763 -0.8793 -0.0000
vn -0.4457 -0.8952 -0.0000
vn -0.4117 -0.9113 -0.0000
vn -0.3742 -0.9273 -0.0000
vn -0.3334 -0.9428 -0.0000
vn -0.2897 -0.9571 -0.0000
vn -0.2434 -0.9699 -0.0000
vn -0.1952 -0.9808 -0.0000
vn -0.1460 -0.9893 -0.0000
vn -0.0965 -0.9953 -0.0000
vn -0.0477 -0.9989 -0.0000
vn 0.0180 -0.9998 -0.0000
vn 0.1203 -0.9927 -0.0000
vn 0.2418 -0.9703 -0.0000
vn 0.3623 -0.9320 -0.0000
vn 0.4793 -0.8776 -0.0000
vn 0.5902 -0.8073 -0.0000
vn 0.6922 -0.7217 -0.0000
vn 0.7829 -0.6221 -0.0000
vn 0.8599 -0.5105 -0.0000
vn 0.9212 -0.3892 -0.0000
vn 0.9652 -0.2614 -0.0000
vn 0.9915 -0.1305 -0.0000
vn 1.0000 -0.0015 -0.0000
vn 0.9921 0.1257 -0.0000
vn 0.9670 0.2546 -0.0000
vn 0.9234 0.3838 -0.0000
vn 0.8609 0.5087 -0.0000
vn 0.7808 0.6248 -0.0000
vn 0.6854 0.7282 -0.0000
vn 0.5784 0.8158 -0.0000
vn 0.4637 0.8860 -0.0000
vn 0.3454 0.9385 -0.0000
vn 0.2269 0.9739 -0.0000
vn 0.1113 0.9938 -0.0000
vn 0.0128 0.9999 -0.0000
vn -0.0569 0.9984 -0.0000
vn -0.1116 0.9938 -0.0000
vn -0.1639 0.9865 -0.0000
vn -0.2138 0.9769 -0.0000
vn -0.2616 0.9652 -0.0000
vn -0.3072 0.9516 -0.0000
vn -0.3509 0.9364 -0.0000
vn -0.3927 0.9196 -0.0000
vn -0.4329 0.9014 -0.0000
vn -0.4716 0.8818 -0.0000
vn -0.5088 0.8609 -0.0000
vn 0.4864 0.8738 -0.0000
vn 0.8517 -0.5240 -0.0000
vn 0.4374 -0.8993 -0.0000
vn 0.4081 -0.9129 -0.0000
vn 0.3749 -0.9271 -0.0000
vn 0.3381 -0.9411 -0.0000
vn 0.2984 -0.9544 -0.0000
vn 0.2565 -0.9666 -0.0000
vn 0.2131 -0.9770 -0.0000
vn 0.1690 -0.9856 -0.0000
vn 0.1251 -0.9922 -0.0000
vn 0.0819 -0.9966 -0.0000
vn 0.0401 -0.9992 -0.0000
vn -0.0226 -0.9997 -0.0000
vn -0.1330 -0.9911 -0.0000
vn -0.2704 -0.9628 -0.0000
vn -0.4061 -0.9138 -0.0000
vn -0.5336 -0.8457 -0.0000
vn -0.6474 -0.7621 -0.0000
vn -0.7446 -0.6675 -0.0000
vn -0.8243 -0.5661 -0.0000
vn -0.8876 -0.4607 -0.0000
vn -0.9358 -0.3524 -0.0000
vn -0.9705 -0.2409 -0.0000
vn -0.9923 -0.1241 -0.0000
vn -1.0000 -0.0004 -0.0000
vn -0.9918 0.1279 -0.0000
vn -0.9664 0.2571 -0.0000
vn -0.9232 0.3844 -0.0000
vn -0.8625 0.5061 -0.0000
vn -0.7855 0.6188 -0.0000
vn -0.6942 0.7198 -0.0000
vn -0.5911 0.8066 -0.0000
vn -0.4790 0.8778 -0.0000
vn -0.3610 0.9325 -0.0000
vn -0.2401 0.9708 -0.0000
vn -0.1190 0.9929 -0.0000
vn -0.0192 0.9998 -0.0000
vn 0.0408 0.9992 -0.0000
vn 0.0816 0.9967 -0.0000
vn 0.1217 0.9926 -0.0000
vn 0.1606 0.9870 -0.0000
vn 0.1976 0.9803 -0.0000
vn 0.2325 0.9726 -0.0000
vn 0.2648 0.9643 -0.0000
vn 0.2945 0.9556 -0.0000
vn 0.3214 0.9469 -0.0000
vn 0.3457 0.9384 -0.0000
vn 0.3673 0.9301 -0.0000
vn 0.8299 0.5579 -0.0000
vn 0.5047 -0.8633 -0.0000
vn 0.7071 -0.7071 -0.0000
vn 0.7071 0.7071 -0.0000
vn -0.7071 -0.7071 -0.0000
vn -0.7071 0.7071 -0.0000
vn 0.0302 0.9995 -0.0000
vn 0.1249 0.9922 -0.0000
vn 0.2562 0.9666 -0.0000
vn 0.3895 0.9210 -0.0000
vn 0.5182 0.8552 -0.0000
vn 0.6363 0.7715 -0.0000
vn 0.7389 0.6739 -0.0000
vn 0.8236 0.5671 -0.0000
vn 0.8902 0.4556 -0.0000
vn 0.9397 0.3421 -0.0000
vn 0.9736 0.2283 -0.0000
vn 0.9934 0.1145 -0.0000
vn 1.0000 -0.0037 -0.0000
vn 0.9916 -0.1291 -0.0000
vn 0.9668 -0.2555 -0.0000
vn 0.9261 -0.3773 -0.0000
vn 0.8699 -0.4933 -0.0000
vn 0.7985 -0.6021 -0.0000
vn 0.7124 -0.7018 -0.0000
vn 0.6126 -0.7904 -0.0000
vn 0.5010 -0.8654 -0.0000
vn 0.3802 -0.9249 -0.0000
vn 0.2537 -0.9673 -0.0000
vn 0.1257 -0.9921 -0.0000
vn 0.0309 -0.9995 -0.0000
vn -0.0324 0.9995 -0.0000
vn -0.1357 0.9908 -0.0000
vn -0.2813 0.9596 -0.0000
vn -0.4297 0.9030 -0.0000
vn -0.5699 0.8217 -0.0000
vn -0.6923 0.7216 -0.0000
vn -0.7915 0.6112 -0.0000
vn -0.8666 0.4989 -0.0000
vn -0.9207 0.3903 -0.0000
vn -0.9577 0.2879 -0.0000
vn -0.9816 0.1911 -0.0000
vn -0.9953 0.0970 -0.0000
vn -1.0000 -0.0020 -0.0000
vn -0.9939 -0.1105 -0.0000
vn -0.9740 -0.2267 -0.0000
vn -0.9375 -0.3479 -0.0000
vn -0.8820 -0.4712 -0.0000
vn -0.8062 -0.5917 -0.0000
vn -0.7106 -0.7036 -0.0000
vn -0.5986 -0.8010 -0.0000
vn -0.4759 -0.8795 -0.0000
vn -0.3492 -0.9370 -0.0000
vn -0.2250 -0.9744 -0.0000
vn -0.1080 -0.9942 -0.0000
vn -0.0259 -0.9997 -0.0000
vn -0.5420 -0.8404 -0.0000
vn 0.5507 -0.8347 -0.0000
vn -0.8345 -0.5510 -0.0000
vn -0.5510 0.8345 -0.0000
vn 0.5449 0.8385 -0.0000
vn 0.8385 -0.5449 -0.0000
vn -0.8387 0.5446 -0.0000
vn 0.0137 -0.9999 -0.0000
vn 0.8312 0.5560 -0.0000
vt 0.400000 0.000000
vt 0.300000 0.000000
vt 0.200000 0.000000
vt 1.000000 0.000000
vt 0.500000 0.000000
vt 0.600000 0.000000
vt 0.900000 0.000000
vt 0.800000 0.000000
vt 0.100000 0.000000
vt 0.000000 0.000000
vt 0.700000 0.000000
vt 0.490566 0.000000
vt 0.471698 0.000000
vt 0.981132 0.000000
vt 0.433962 0.000000
vt 0.528302 0.000000
vt 0.452830 0.000000
vt 0.924528 0.000000
vt 0.018868 0.000000
vt 0.943396 0.000000
vt 0.509434 0.000000
vt 0.962264 0.000000
vt 0.547170 0.000000
vt 0.415094 0.000000
vt 0.396226 0.000000
vt 0.566038 0.000000
vt 0.377358 0.000000
vt 0.584906 0.000000
vt 0.867925 0.000000
vt 0.075472 0.000000
vt 0.886792 0.000000
vt 0.056604 0.000000
vt 0.905660 0.000000
vt 0.037736 0.000000
vt 0.226415 0.000000
vt 0.207547 0.000000
vt 0.735849 0.000000
vt 0.339623 0.000000
vt 0.320755 0.000000
vt 0.622642 0.000000
vt 0.641509 0.000000
vt 0.301887 0.000000
vt 0.660377 0.000000
vt 0.283019 0.000000
vt 0.679245 0.000000
vt 0.264151 0.000000
vt 0.698113 0.000000
vt 0.245283 0.000000
vt 0.716981 0.000000
vt 0.754717 0.000000
vt 0.188679 0.000000
vt 0.773585 0.000000
vt 0.169811 0.000000
vt 0.792453 0.000000
vt 0.150943 0.000000
vt 0.811321 0.000000
vt 0.132075 0.000000
vt 0.830189 0.000000
vt 0.113208 0.000000
vt 0.358491 0.000000
vt 0.603774 0.000000
vt 0.849057 0.000000
vt 0.094340 0.000000
vt 0.727273 0.000000
vt 0.454545 0.000000
vt 0.363636 0.000000
vt 0.818182 0.000000
vt 0.090909 0.000000
vt 0.636364 0.000000
vt 0.545455 0.000000
vt 0.272727 0.000000
vt 0.181818 0.000000
vt 0.909091 0.000000
vt 0.701031 0.000000
vt 0.690722 0.000000
vt 0.278351 0.000000
vt 0.268041 0.000000
vt 0.711340 0.000000
vt 0.257732 0.000000
vt 0.721649 0.000000
vt 0.247423 0.000000
vt 0.731959 0.000000
vt 0.742268 0.000000
vt 0.237113 0.000000
vt 0.752577 0.000000
vt 0.226804 0.000000
vt 0.762887 0.000000
vt 0.216495 0.000000
vt 0.773196 0.000000
vt 0.206186 0.000000
vt 0.783505 0.000000
vt 0.195876 0.000000
vt 0.793814 0.000000
vt 0.649485 0.000000
vt 0.319588 0.000000
vt 0.659794 0.000000
vt 0.309278 0.000000
vt 0.164948 0.000000
vt 0.154639 0.000000
vt 0.824742 0.000000
vt 0.835052 0.000000
vt 0.329897 0.000000
vt 0.639175 0.000000
vt 0.340206 0.000000
vt 0.134021 0.000000
vt 0.845361 0.000000
vt 0.144330 0.000000
vt 0.618557 0.000000
vt 0.350515 0.000000
vt 0.628866 0.000000
vt 0.113402 0.000000
vt 0.865979 0.000000
vt 0.123711 0.000000
vt 0.855670 0.000000
vt 0.670103 0.000000
vt 0.298969 0.000000
vt 0.680412 0.000000
vt 0.288660 0.000000
vt 0.185567 0.000000
vt 0.804124 0.000000
vt 0.175258 0.000000
vt 0.814433 0.000000
vt 0.608247 0.000000
vt 0.371134 0.000000
vt 0.360825 0.000000
vt 0.876289 0.000000
vt 0.103093 0.000000
vt 0.886598 0.000000
vt 0.082474 0.000000
vt 0.896907 0.000000
vt 0.092784 0.000000
vt 0.597938 0.000000
vt 0.381443 0.000000
vt 0.402062 0.000000
vt 0.577320 0.000000
vt 0.567010 0.000000
vt 0.412371 0.000000
vt 0.061856 0.000000
vt 0.927835 0.000000
vt 0.072165 0.000000
vt 0.917526 0.000000
vt 0.587629 0.000000
vt 0.391753 0.000000
vt 0.907216 0.000000
vt 0.030928 0.000000
vt 0.958763 0.000000
vt 0.041237 0.000000
vt 0.948454 0.000000
vt 0.494845 0.000000
vt 0.484536 0.000000
vt 0.474227 0.000000
vt 0.989691 0.000000
vt 0.463918 0.000000
vt 0.010309 0.000000
vt 0.979381 0.000000
vt 0.432990 0.000000
vt 0.536082 0.000000
vt 0.525773 0.000000
vt 0.443299 0.000000
vt 0.515464 0.000000
vt 0.453608 0.000000
vt 0.505155 0.000000
vt 0.020619 0.000000
vt 0.969072 0.000000
vt 0.556701 0.000000
vt 0.422680 0.000000
vt 0.546392 0.000000
vt 0.051546 0.000000
vt 0.938144 0.000000
vt 0.000000 1.000000
vt 0.010204 1.000000
vt 0.010204 0.000000
vt 0.020408 1.000000
vt 0.020408 0.000000
vt 0.030612 1.000000
vt 0.030612 0.000000
vt 0.040816 1.000000
vt 0.040816 0.000000
vt 0.051020 1.000000
vt 0.051020 0.000000
vt 0.061224 1.000000
vt 0.061224 0.000000
vt 0.071429 1.000000
vt 0.071429 0.000000
vt 0.081633 1.000000
vt 0.081633 0.000000
vt 0.091837 1.000000
vt 0.091837 0.000000
vt 0.102041 1.000000
vt 0.102041 0.000000
vt 0.112245 1.000000
vt 0.112245 0.000000
vt 0.122449 1.000000
vt 0.122449 0.000000
vt 0.132653 1.000000
vt 0.132653 0.000000
vt 0.142857 1.000000
vt 0.142857 0.000000
vt 0.153061 1.000000
vt 0.153061 0.000000
vt 0.163265 1.000000
vt 0.163265 0.000000
vt 0.173469 1.000000
vt 0.173469 0.000000
vt 0.183673 1.000000
vt 0.183673 0.000000
vt 0.193878 1.000000
vt 0.193878 0.000000
vt 0.204082 1.000000
vt 0.204082 0.000000
vt 0.214286 1.000000
vt 0.214286 0.000000
vt 0.224490 1.000000
vt 0.224490 0.000000
vt 0.234694 1.000000
vt 0.234694 0.000000
vt 0.244898 1.000000
vt 0.244898 0.000000
vt 0.255102 1.000000
vt 0.255102 0.000000
vt 0.265306 1.000000
vt 0.265306 0.000000
vt 0.275510 1.000000
vt 0.275510 0.000000
vt 0.285714 1.000000
vt 0.285714 0.000000
vt 0.295918 1.000000
vt 0.295918 0.000000
vt 0.306122 1.000000
vt 0.306122 0.000000
vt 0.316327 1.000000
vt 0.316327 0.000000
vt 0.326531 1.000000
vt 0.326531 0.000000
vt 0.336735 1.000000
vt 0.336735 0.000000
vt 0.346939 1.000000
vt 0.346939 0.000000
vt 0.357143 1.000000
vt 0.357143 0.000000
vt 0.367347 1.000000
vt 0.367347 0.000000
vt 0.377551 1.000000
vt 0.377551 0.000000
vt 0.387755 1.000000
vt 0.387755 0.000000
vt 0.397959 1.000000
vt 0.397959 0.000000
vt 0.408163 1.000000
vt 0.408163 0.000000
vt 0.418367 1.000000
vt 0.418367 0.000000
vt 0.428571 1.000000
vt 0.428571 0.000000
vt 0.438776 1.000000
vt 0.438776 0.000000
vt 0.448980 1.000000
vt 0.448980 0.000000
vt 0.459184 1.000000
vt 0.459184 0.000000
vt 0.469388 1.000000
vt 0.469388 0.000000
vt 0.479592 1.000000
vt 0.479592 0.000000
vt 0.489796 1.000000
vt 0.489796 0.000000
vt 0.500000 1.000000
vt 0.510204 1.000000
vt 0.510204 0.000000
vt 0.520408 1.000000
vt 0.520408 0.000000
vt 0.530612 1.000000
vt 0.530612 0.000000
vt 0.540816 1.000000
vt 0.540816 0.000000
vt 0.551020 1.000000
vt 0.551020 0.000000
vt 0.561224 1.000000
vt 0.561224 0.000000
vt 0.571429 1.000000
vt 0.571429 0.000000
vt 0.581633 1.000000
vt 0.581633 0.000000
vt 0.591837 1.000000
vt 0.591837 0.000000
vt 0.602041 1.000000
vt 0.602041 0.000000
vt 0.612245 1.000000
vt 0.612245 0.000000
vt 0.622449 1.000000
vt 0.622449 0.000000
vt 0.632653 1.000000
vt 0.632653 0.000000
vt 0.642857 1.000000
vt 0.642857 0.000000
vt 0.653061 1.000000
vt 0.653061 0.000000
vt 0.663265 1.000000
vt 0.663265 0.000000
vt 0.673469 1.000000
vt 0.673469 0.000000
vt 0.683673 1.000000
vt 0.683673 0.000000
vt 0.693878 1.000000
vt 0.693878 0.000000
vt 0.704082 1.000000
vt 0.704082 0.000000
vt 0.714286 1.000000
vt 0.714286 0.000000
vt 0.724490 1.000000
vt 0.724490 0.000000
vt 0.734694 1.000000
vt 0.734694 0.000000
vt 0.744898 1.000000
vt 0.744898 0.000000
vt 0.755102 1.000000
vt 0.755102 0.000000
vt 0.765306 1.000000
vt 0.765306 0.000000
vt 0.775510 1.000000
vt 0.775510 0.000000
vt 0.785714 1.000000
vt 0.785714 0.000000
vt 0.795918 1.000000
vt 0.795918 0.000000
vt 0.806122 1.000000
vt 0.806122 0.000000
vt 0.816327 1.000000
vt 0.816327 0.000000
vt 0.826531 1.000000
vt 0.826531 0.000000
vt 0.836735 1.000000
vt 0.836735 0.000000
vt 0.846939 1.000000
vt 0.846939 0.000000
vt 0.857143 1.000000
vt 0.857143 0.000000
vt 0.867347 1.000000
vt 0.867347 0.000000
vt 0.877551 1.000000
vt 0.877551 0.000000
vt 0.887755 1.000000
vt 0.887755 0.000000
vt 0.897959 1.000000
vt 0.897959 0.000000
vt 0.908163 1.000000
vt 0.908163 0.000000
vt 0.918367 1.000000
vt 0.918367 0.000000
vt 0.928571 1.000000
vt 0.928571 0.000000
vt 0.938776 1.000000
vt 0.938776 0.000000
vt 0.948980 1.000000
vt 0.948980 0.000000
vt 0.959184 1.000000
vt 0.959184 0.000000
vt 0.969388 1.000000
vt 0.969388 0.000000
vt 0.979592 1.000000
vt 0.979592 0.000000
vt 0.989796 1.000000
vt 0.989796 0.000000
vt 1.000000 1.000000
vt 0.083333 1.000000
vt 0.083333 0.000000
vt 0.166667 1.000000
vt 0.166667 0.000000
vt 0.250000 1.000000
vt 0.250000 0.000000
vt 0.333333 1.000000
vt 0.333333 0.000000
vt 0.416667 1.000000
vt 0.416667 0.000000
vt 0.583333 1.000000
vt 0.583333 0.000000
vt 0.666667 1.000000
vt 0.666667 0.000000
vt 0.750000 1.000000
vt 0.750000 0.000000
vt 0.833333 1.000000
vt 0.833333 0.000000
vt 0.916667 1.000000
vt 0.916667 0.000000
vt 0.037037 1.000000
vt 0.037037 0.000000
vt 0.074074 1.000000
vt 0.074074 0.000000
vt 0.111111 1.000000
vt 0.111111 0.000000
vt 0.148148 1.000000
vt 0.148148 0.000000
vt 0.185185 1.000000
vt 0.185185 0.000000
vt 0.222222 1.000000
vt 0.222222 0.000000
vt 0.259259 1.000000
vt 0.259259 0.000000
vt 0.296296 1.000000
vt 0.296296 0.000000
vt 0.370370 1.000000
vt 0.370370 0.000000
vt 0.407407 1.000000
vt 0.407407 0.000000
vt 0.444444 1.000000
vt 0.444444 0.000000
vt 0.481481 1.000000
vt 0.481481 0.000000
vt 0.518519 1.000000
vt 0.518519 0.000000
vt 0.555556 1.000000
vt 0.555556 0.000000
vt 0.592593 1.000000
vt 0.592593 0.000000
vt 0.629630 1.000000
vt 0.629630 0.000000
vt 0.703704 1.000000
vt 0.703704 0.000000
vt 0.740741 1.000000
vt 0.740741 0.000000
vt 0.777778 1.000000
vt 0.777778 0.000000
vt 0.814815 1.000000
vt 0.814815 0.000000
vt 0.851852 1.000000
vt 0.851852 0.000000
vt 0.888889 1.000000
vt 0.888889 0.000000
vt 0.925926 1.000000
vt 0.925926 0.000000
vt 0.962963 1.000000
vt 0.962963 0.000000
vt 0.125000 1.000000
vt 0.125000 0.000000
vt 0.375000 1.000000
vt 0.375000 0.000000
vt 0.625000 1.000000
vt 0.625000 0.000000
vt 0.875000 1.000000
vt 0.875000 0.000000
s 0
f 73/138/39 72/139/39 71/140/39
f 71/140/39 79/141/39 73/138/39
f 79/141/39 74/142/39 73/138/39
f 75/143/39 78/144/39 77/145/39
f 70/146/39 69/147/39 76/148/39
f 70/146/39 76/148/39 77/145/39
f 75/143/39 77/145/39 76/148/39
f 70/146/39 77/145/39 71/140/39
f 79/141/39 71/140/39 77/145/39
f 74/142/39 79/141/39 78/144/39
f 78/144/39 75/143/39 74/142/39
f 106/149/39 105/150/39 133/141/39
f 106/149/39 133/141/39 132/151/39
f 103/152/39 108/153/39 104/154/39
f 129/155/39 81/156/39 130/157/39
f 80/147/39 130/157/39 81/156/39
f 133/141/39 105/150/39 104/154/39
f 107/158/39 133/141/39 104/154/39
f 104/154/39 108/153/39 107/158/39
f 130/157/39 80/147/39 131/159/39
f 132/151/39 131/159/39 80/147/39
f 106/149/39 132/151/39 80/147/39
f 109/160/39 102/161/39 101/162/39
f 101/162/39 110/163/39 109/160/39
f 110/163/39 101/162/39 100/164/39
f 100/164/39 111/165/39 110/163/39
f 126/166/39 84/167/39 127/168/39
f 84/167/39 83/169/39 127/168/39
f 128/170/39 127/168/39 83/169/39
f 82/171/39 128/170/39 83/169/39
f 108/153/39 103/152/39 102/161/39
f 102/161/39 109/160/39 108/153/39
f 128/170/39 82/171/39 129/155/39
f 81/156/39 129/155/39 82/171/39
f 92/172/39 91/173/39 119/174/39
f 98/175/39 97/176/39 113/177/39
f 114/178/39 113/177/39 97/176/39
f 97/176/39 96/179/39 114/178/39
f 115/180/39 114/178/39 96/179/39
f 96/179/39 95/181/39 115/180/39
f 116/182/39 115/180/39 95/181/39
f 95/181/39 94/183/39 116/182/39
f 117/184/39 116/182/39 94/183/39
f 94/183/39 93/185/39 117/184/39
f 118/186/39 117/184/39 93/185/39
f 93/185/39 92/172/39 118/186/39
f 92/172/39 119/174/39 118/186/39
f 119/174/39 91/173/39 120/187/39
f 91/173/39 90/188/39 120/187/39
f 121/189/39 120/187/39 90/188/39
f 90/188/39 89/190/39 121/189/39
f 122/191/39 121/189/39 89/190/39
f 89/190/39 88/192/39 122/191/39
f 123/193/39 122/191/39 88/192/39
f 88/192/39 87/194/39 123/193/39
f 124/195/39 123/193/39 87/194/39
f 87/194/39 86/196/39 124/195/39
f 111/165/39 100/164/39 99/197/39
f 112/198/39 111/165/39 99/197/39
f 99/197/39 98/175/39 112/198/39
f 98/175/39 113/177/39 112/198/39
f 124/195/39 86/196/39 125/199/39
f 86/196/39 85/200/39 125/199/39
f 126/166/39 125/199/39 85/200/39
f 84/167/39 126/166/39 85/200/39
f 142/201/39 139/202/39 138/203/39
f 143/204/39 142/201/39 138/203/39
f 138/203/39 135/205/39 143/204/39
f 135/205/39 134/147/39 143/204/39
f 139/202/39 142/201/39 141/206/39
f 141/206/39 140/207/39 139/202/39
f 135/205/39 138/203/39 137/208/39
f 137/208/39 136/209/39 135/205/39
f 145/141/39 144/210/39 134/147/39
f 143/204/39 134/147/39 144/210/39
f 214/211/39 213/212/39 173/213/39
f 173/213/39 172/214/39 214/211/39
f 215/215/39 214/211/39 172/214/39
f 172/214/39 171/216/39 215/215/39
f 216/217/39 215/215/39 171/216/39
f 171/216/39 170/218/39 216/217/39
f 217/219/39 216/217/39 170/218/39
f 218/220/39 217/219/39 170/218/39
f 170/218/39 169/221/39 218/220/39
f 219/222/39 218/220/39 169/221/39
f 169/221/39 168/223/39 219/222/39
f 220/224/39 219/222/39 168/223/39
f 168/223/39 167/225/39 220/224/39
f 221/226/39 220/224/39 167/225/39
f 167/225/39 166/227/39 221/226/39
f 222/228/39 221/226/39 166/227/39
f 166/227/39 165/229/39 222/228/39
f 223/230/39 222/228/39 165/229/39
f 209/231/39 177/232/39 210/233/39
f 177/232/39 176/234/39 210/233/39
f 162/235/39 161/236/39 226/237/39
f 161/236/39 227/238/39 226/237/39
f 178/239/39 208/240/39 179/241/39
f 159/242/39 228/243/39 160/244/39
f 206/245/39 180/246/39 207/247/39
f 157/248/39 230/249/39 158/250/39
f 229/251/39 158/250/39 230/249/39
f 179/241/39 208/240/39 207/247/39
f 207/247/39 180/246/39 179/241/39
f 158/250/39 229/251/39 159/242/39
f 228/243/39 159/242/39 229/251/39
f 208/240/39 178/239/39 209/231/39
f 177/232/39 209/231/39 178/239/39
f 227/238/39 161/236/39 160/244/39
f 160/244/39 228/243/39 227/238/39
f 210/233/39 176/234/39 211/252/39
f 176/234/39 175/253/39 211/252/39
f 212/254/39 211/252/39 175/253/39
f 175/253/39 174/255/39 212/254/39
f 213/212/39 212/254/39 174/255/39
f 173/213/39 213/212/39 174/255/39
f 223/230/39 165/229/39 164/256/39
f 224/257/39 223/230/39 164/256/39
f 164/256/39 163/258/39 224/257/39
f 225/259/39 224/257/39 163/258/39
f 163/258/39 162/235/39 225/259/39
f 162/235/39 226/237/39 225/259/39
f 205/260/39 182/261/39 181/262/39
f 231/263/39 156/264/39 232/265/39
f 154/266/39 233/267/39 155/268/39
f 182/261/39 205/260/39 204/269/39
f 204/269/39 183/270/39 182/261/39
f 232/265/39 156/264/39 155/268/39
f 155/268/39 233/267/39 232/265/39
f 185/271/39 202/272/39 201/273/39
f 201/273/39 186/274/39 185/271/39
f 152/275/39 236/276/39 153/277/39
f 235/278/39 153/277/39 236/276/39
f 183/270/39 204/269/39 203/279/39
f 184/280/39 183/270/39 203/279/39
f 203/279/39 202/272/39 184/280/39
f 202/272/39 185/271/39 184/280/39
f 153/277/39 235/278/39 154/266/39
f 235/278/39 234/281/39 154/266/39
f 233/267/39 154/266/39 234/281/39
f 149/282/39 239/283/39 150/284/39
f 238/285/39 150/284/39 239/283/39
f 194/286/39 193/287/39 192/288/39
f 243/141/39 242/289/39 146/147/39
f 194/286/39 192/288/39 191/290/39
f 146/147/39 242/289/39 147/291/39
f 241/292/39 147/291/39 242/289/39
f 188/293/39 198/294/39 197/295/39
f 189/296/39 188/293/39 197/295/39
f 197/295/39 196/297/39 189/296/39
f 190/298/39 189/296/39 196/297/39
f 196/297/39 195/299/39 190/298/39
f 195/299/39 194/286/39 190/298/39
f 194/286/39 191/290/39 190/298/39
f 147/291/39 241/292/39 148/300/39
f 241/292/39 240/301/39 148/300/39
f 149/282/39 148/300/39 240/301/39
f 239/283/39 149/282/39 240/301/39
f 186/274/39 201/273/39 200/302/39
f 187/303/39 186/274/39 200/302/39
f 200/302/39 199/304/39 187/303/39
f 199/304/39 198/294/39 187/303/39
f 198/294/39 188/293/39 187/303/39
f 150/284/39 238/285/39 151/305/39
f 238/285/39 237/306/39 151/305/39
f 152/275/39 151/305/39 237/306/39
f 236/276/39 152/275/39 237/306/39
f 205/260/39 181/262/39 206/245/39
f 180/246/39 206/245/39 181/262/39
f 156/264/39 231/263/39 157/248/39
f 230/249/39 157/248/39 231/263/39
f 248/138/40 246/140/40 247/139/40
f 246/140/40 248/138/40 254/141/40
f 254/141/40 248/138/40 249/142/40
f 250/143/40 252/145/40 253/144/40
f 245/146/40 251/148/40 244/147/40
f 245/146/40 252/145/40 251/148/40
f 250/143/40 251/148/40 252/145/40
f 245/146/40 246/140/40 252/145/40
f 254/141/40 252/145/40 246/140/40
f 249/142/40 253/144/40 254/141/40
f 253/144/40 249/142/40 250/143/40
f 281/149/40 308/141/40 280/150/40
f 281/149/40 307/151/40 308/141/40
f 278/152/40 279/154/40 283/153/40
f 304/155/40 305/157/40 256/156/40
f 255/147/40 256/156/40 305/157/40
f 308/141/40 279/154/40 280/150/40
f 282/158/40 279/154/40 308/141/40
f 279/154/40 282/158/40 283/153/40
f 305/157/40 306/159/40 255/147/40
f 307/151/40 255/147/40 306/159/40
f 281/149/40 255/147/40 307/151/40
f 284/160/40 276/162/40 277/161/40
f 276/162/40 284/160/40 285/163/40
f 285/163/40 275/164/40 276/162/40
f 275/164/40 285/163/40 286/165/40
f 301/166/40 302/168/40 259/167/40
f 259/167/40 302/168/40 258/169/40
f 303/170/40 258/169/40 302/168/40
f 257/171/40 258/169/40 303/170/40
f 283/153/40 277/161/40 278/152/40
f 277/161/40 283/153/40 284/160/40
f 303/170/40 304/155/40 257/171/40
f 256/156/40 257/171/40 304/155/40
f 267/172/40 294/174/40 266/173/40
f 273/175/40 288/177/40 272/176/40
f 289/178/40 272/176/40 288/177/40
f 272/176/40 289/178/40 271/179/40
f 290/180/40 271/179/40 289/178/40
f 271/179/40 290/180/40 270/181/40
f 291/182/40 270/181/40 290/180/40
f 270/181/40 291/182/40 269/183/40
f 292/184/40 269/183/40 291/182/40
f 269/183/40 292/184/40 268/185/40
f 293/186/40 268/185/40 292/184/40
f 268/185/40 293/186/40 267/172/40
f 267/172/40 293/186/40 294/174/40
f 294/174/40 295/187/40 266/173/40
f 266/173/40 295/187/40 265/188/40
f 296/189/40 265/188/40 295/187/40
f 265/188/40 296/189/40 264/190/40
f 297/191/40 264/190/40 296/189/40
f 264/190/40 297/191/40 263/192/40
f 298/193/40 263/192/40 297/191/40
f 263/192/40 298/193/40 262/194/40
f 299/195/40 262/194/40 298/193/40
f 262/194/40 299/195/40 261/196/40
f 286/165/40 274/197/40 275/164/40
f 287/198/40 274/197/40 286/165/40
f 274/197/40 287/198/40 273/175/40
f 273/175/40 287/198/40 288/177/40
f 299/195/40 300/199/40 261/196/40
f 261/196/40 300/199/40 260/200/40
f 301/166/40 260/200/40 300/199/40
f 259/167/40 260/200/40 301/166/40
f 317/201/40 313/203/40 314/202/40
f 318/204/40 313/203/40 317/201/40
f 313/203/40 318/204/40 310/205/40
f 310/205/40 318/204/40 309/147/40
f 314/202/40 316/206/40 317/201/40
f 316/206/40 314/202/40 315/207/40
f 310/205/40 312/208/40 313/203/40
f 312/208/40 310/205/40 311/209/40
f 320/141/40 309/147/40 319/210/40
f 318/204/40 319/210/40 309/147/40
f 389/211/40 348/213/40 388/212/40
f 348/213/40 389/211/40 347/214/40
f 390/215/40 347/214/40 389/211/40
f 347/214/40 390/215/40 346/216/40
f 391/217/40 346/216/40 390/215/40
f 346/216/40 391/217/40 345/218/40
f 392/219/40 345/218/40 391/217/40
f 393/220/40 345/218/40 392/219/40
f 345/218/40 393/220/40 344/221/40
f 394/222/40 344/221/40 393/220/40
f 344/221/40 394/222/40 343/223/40
f 395/224/40 343/223/40 394/222/40
f 343/223/40 395/224/40 342/225/40
f 396/226/40 342/225/40 395/224/40
f 342/225/40 396/226/40 341/227/40
f 397/228/40 341/227/40 396/226/40
f 341/227/40 397/228/40 340/229/40
f 398/230/40 340/229/40 397/228/40
f 384/231/40 385/233/40 352/232/40
f 352/232/40 385/233/40 351/234/40
f 337/235/40 401/237/40 336/236/40
f 336/236/40 401/237/40 402/238/40
f 353/239/40 354/241/40 383/240/40
f 334/242/40 335/244/40 403/243/40
f 381/245/40 382/247/40 355/246/40
f 332/248/40 333/250/40 405/249/40
f 404/251/40 405/249/40 333/250/40
f 354/241/40 382/247/40 383/240/40
f 382/247/40 354/241/40 355/246/40
f 333/250/40 334/242/40 404/251/40
f 403/243/40 404/251/40 334/242/40
f 383/240/40 384/231/40 353/239/40
f 352/232/40 353/239/40 384/231/40
f 402/238/40 335/244/40 336/236/40
f 335/244/40 402/238/40 403/243/40
f 385/233/40 386/252/40 351/234/40
f 351/234/40 386/252/40 350/253/40
f 387/254/40 350/253/40 386/252/40
f 350/253/40 387/254/40 349/255/40
f 388/212/40 349/255/40 387/254/40
f 348/213/40 349/255/40 388/212/40
f 398/230/40 339/256/40 340/229/40
f 399/257/40 339/256/40 398/230/40
f 339/256/40 399/257/40 338/258/40
f 400/259/40 338/258/40 399/257/40
f 338/258/40 400/259/40 337/235/40
f 337/235/40 400/259/40 401/237/40
f 380/260/40 356/262/40 357/261/40
f 406/263/40 407/265/40 331/264/40
f 329/266/40 330/268/40 408/267/40
f 357/261/40 379/269/40 380/260/40
f 379/269/40 357/261/40 358/270/40
f 407/265/40 330/268/40 331/264/40
f 330/268/40 407/265/40 408/267/40
f 360/271/40 376/273/40 377/272/40
f 376/273/40 360/271/40 361/274/40
f 327/275/40 328/277/40 411/276/40
f 410/278/40 411/276/40 328/277/40
f 358/270/40 378/279/40 379/269/40
f 359/280/40 378/279/40 358/270/40
f 378/279/40 359/280/40 377/272/40
f 377/272/40 359/280/40 360/271/40
f 328/277/40 329/266/40 410/278/40
f 410/278/40 329/266/40 409/281/40
f 408/267/40 409/281/40 329/266/40
f 324/282/40 325/284/40 414/283/40
f 413/285/40 414/283/40 325/284/40
f 369/286/40 367/288/40 368/287/40
f 418/141/40 321/147/40 417/289/40
f 369/286/40 366/290/40 367/288/40
f 321/147/40 322/291/40 417/289/40
f 416/292/40 417/289/40 322/291/40
f 363/293/40 372/295/40 373/294/40
f 364/296/40 372/295/40 363/293/40
f 372/295/40 364/296/40 371/297/40
f 365/298/40 371/297/40 364/296/40
f 371/297/40 365/298/40 370/299/40
f 370/299/40 365/298/40 369/286/40
f 369/286/40 365/298/40 366/290/40
f 322/291/40 323/300/40 416/292/40
f 416/292/40 323/300/40 415/301/40
f 324/282/40 415/301/40 323/300/40
f 414/283/40 415/301/40 324/282/40
f 361/274/40 375/302/40 376/273/40
f 362/303/40 375/302/40 361/274/40
f 375/302/40 362/303/40 374/304/40
f 374/304/40 362/303/40 373/294/40
f 373/294/40 362/303/40 363/293/40
f 325/284/40 326/305/40 413/285/40
f 413/285/40 326/305/40 412/306/40
f 327/275/40 412/306/40 326/305/40
f 411/276/40 412/306/40 327/275/40
f 380/260/40 381/245/40 356/262/40
f 355/246/40 356/262/40 381/245/40
f 331/264/40 332/248/40 406/263/40
f 405/249/40 406/263/40 332/248/40
s 1
f 420/307/41 422/308/42 421/309/42 419/147/41
f 422/308/42 424/310/43 423/311/43 421/309/42
f 424/310/43 426/312/44 425/313/44 423/311/43
f 426/312/44 428/314/45 427/315/45 425/313/44
f 428/314/45 430/316/46 429/317/46 427/315/45
f 430/316/46 432/318/47 431/319/47 429/317/46
f 432/318/47 434/320/48 433/321/48 431/319/47
f 434/320/48 436/322/49 435/323/49 433/321/48
f 436/322/49 438/324/50 437/325/50 435/323/49
f 438/324/50 440/326/51 439/327/51 437/325/50
f 440/326/51 442/328/52 441/329/52 439/327/51
f 442/328/52 444/330/53 443/331/53 441/329/52
f 444/330/53 446/332/54 445/333/54 443/331/53
f 446/332/54 448/334/55 447/335/55 445/333/54
f 448/334/55 450/336/56 449/337/56 447/335/55
f 450/336/56 452/338/57 451/339/57 449/337/56
f 452/338/57 454/340/58 453/341/58 451/339/57
f 454/340/58 456/342/59 455/343/59 453/341/58
f 456/342/59 458/344/60 457/345/60 455/343/59
f 458/344/60 460/346/61 459/347/61 457/345/60
f 460/346/61 462/348/62 461/349/62 459/347/61
f 462/348/62 464/350/63 463/351/63 461/349/62
f 464/350/63 466/352/64 465/353/64 463/351/63
f 466/352/64 468/354/65 467/355/65 465/353/64
f 468/354/65 470/356/66 469/357/66 467/355/65
f 470/356/66 472/358/67 471/359/67 469/357/66
f 472/358/67 474/360/68 473/361/68 471/359/67
f 474/360/68 476/362/69 475/363/69 473/361/68
f 476/362/69 478/364/70 477/365/70 475/363/69
f 478/364/70 480/366/71 479/367/71 477/365/70
f 480/366/71 482/368/72 481/369/72 479/367/71
f 482/368/72 484/370/73 483/371/73 481/369/72
f 484/370/73 486/372/74 485/373/74 483/371/73
f 486/372/74 488/374/75 487/375/75 485/373/74
f 488/374/75 490/376/76 489/377/76 487/375/75
f 490/376/76 492/378/77 491/379/77 489/377/76
f 492/378/77 494/380/78 493/381/78 491/379/77
f 494/380/78 496/382/79 495/383/79 493/381/78
f 496/382/79 498/384/80 497/385/80 495/383/79
f 498/384/80 500/386/81 499/387/81 497/385/80
f 500/386/81 502/388/82 501/389/82 499/387/81
f 502/388/82 504/390/83 503/391/83 501/389/82
f 504/390/83 506/392/84 505/393/84 503/391/83
f 506/392/84 508/394/85 507/395/85 505/393/84
f 508/394/85 510/396/86 509/397/86 507/395/85
f 510/396/86 512/398/87 511/399/87 509/397/86
f 512/398/87 514/400/88 513/401/88 511/399/87
f 514/400/88 516/402/89 515/403/89 513/401/88
f 516/402/89 518/404/90 517/142/90 515/403/89
f 518/404/90 520/405/91 519/406/91 517/142/90
f 520/405/91 522/407/92 521/408/92 519/406/91
f 522/407/92 524/409/93 523/410/93 521/408/92
f 524/409/93 526/411/94 525/412/94 523/410/93
f 526/411/94 528/413/95 527/414/95 525/412/94
f 528/413/95 530/415/96 529/416/96 527/414/95
f 530/415/96 532/417/97 531/418/97 529/416/96
f 532/417/97 534/419/98 533/420/98 531/418/97
f 534/419/98 536/421/99 535/422/99 533/420/98
f 536/421/99 538/423/100 537/424/100 535/422/99
f 538/423/100 540/425/101 539/426/101 537/424/100
f 540/425/101 542/427/102 541/428/102 539/426/101
f 542/427/102 544/429/103 543/430/103 541/428/102
f 544/429/103 546/431/104 545/432/104 543/430/103
f 546/431/104 548/433/105 547/434/105 545/432/104
f 548/433/105 550/435/106 549/436/106 547/434/105
f 550/435/106 552/437/107 551/438/107 549/436/106
f 552/437/107 554/439/108 553/440/108 551/438/107
f 554/439/108 556/441/109 555/442/109 553/440/108
f 556/441/109 558/443/110 557/444/110 555/442/109
f 558/443/110 560/445/111 559/446/111 557/444/110
f 560/445/111 562/447/112 561/448/112 559/446/111
f 562/447/112 564/449/113 563/450/113 561/448/112
f 564/449/113 566/451/114 565/452/114 563/450/113
f 566/451/114 568/453/115 567/454/115 565/452/114
f 568/453/115 570/455/116 569/456/116 567/454/115
f 570/455/116 572/457/117 571/458/117 569/456/116
f 572/457/117 574/459/118 573/460/118 571/458/117
f 574/459/118 576/461/119 575/462/119 573/460/118
f 576/461/119 578/463/120 577/464/120 575/462/119
f 578/463/120 580/465/121 579/466/121 577/464/120
f 580/465/121 582/467/122 581/468/122 579/466/121
f 582/467/122 584/469/123 583/470/123 581/468/122
f 584/469/123 586/471/124 585/472/124 583/470/123
f 586/471/124 588/473/125 587/474/125 585/472/124
f 588/473/125 590/475/126 589/476/126 587/474/125
f 590/475/126 592/477/127 591/478/127 589/476/126
f 592/477/127 594/479/128 593/480/128 591/478/127
f 594/479/128 596/481/129 595/482/129 593/480/128
f 596/481/129 598/483/130 597/484/130 595/482/129
f 598/483/130 600/485/131 599/486/131 597/484/130
f 600/485/131 602/487/132 601/488/132 599/486/131
f 602/487/132 604/489/133 603/490/133 601/488/132
f 604/489/133 606/491/134 605/492/134 603/490/133
f 606/491/134 608/493/135 607/494/135 605/492/134
f 608/493/135 610/495/136 609/496/136 607/494/135
f 610/495/136 612/497/137 611/498/137 609/496/136
f 612/497/137 614/499/138 613/500/138 611/498/137
f 614/499/138 420/501/41 419/141/41 613/500/138
f 616/307/139 618/502/140 617/503/140 615/147/139
f 618/502/140 620/504/140 619/505/140 617/503/140
f 620/504/140 622/506/139 621/507/139 619/505/140
f 622/506/139 624/508/139 623/509/139 621/507/139
f 624/508/139 626/510/140 625/511/140 623/509/139
f 626/510/140 628/404/140 627/142/140 625/511/140
f 628/404/140 630/512/139 629/513/139 627/142/140
f 630/512/139 632/514/141 631/515/141 629/513/139
f 632/514/141 634/516/142 633/517/142 631/515/141
f 634/516/142 636/518/140 635/519/140 633/517/142
f 636/518/140 638/520/139 637/521/139 635/519/140
f 638/520/139 616/501/139 615/141/139 637/521/139
f 640/307/143 642/522/144 641/523/144 639/147/143
f 642/522/144 644/524/145 643/525/145 641/523/144
f 644/524/145 646/526/146 645/527/146 643/525/145
f 646/526/146 648/528/147 647/529/147 645/527/146
f 648/528/147 650/530/148 649/531/148 647/529/147
f 650/530/148 652/532/149 651/533/149 649/531/148
f 652/532/149 654/534/150 653/535/150 651/533/149
f 654/534/150 656/536/151 655/537/151 653/535/150
f 656/536/151 658/508/152 657/509/152 655/537/151
f 658/508/152 660/538/153 659/539/153 657/509/152
f 660/538/153 662/540/154 661/541/154 659/539/153
f 662/540/154 664/542/155 663/543/155 661/541/154
f 664/542/155 666/544/156 665/545/156 663/543/155
f 666/544/156 668/546/157 667/547/157 665/545/156
f 668/546/157 670/548/158 669/549/158 667/547/157
f 670/548/158 672/550/159 671/551/159 669/549/158
f 672/550/159 674/552/160 673/553/160 671/551/159
f 674/552/160 676/514/161 675/515/161 673/553/160
f 676/514/161 678/554/162 677/555/162 675/515/161
f 678/554/162 680/556/163 679/557/163 677/555/162
f 680/556/163 682/558/164 681/559/164 679/557/163
f 682/558/164 684/560/165 683/561/165 681/559/164
f 684/560/165 686/562/166 685/563/166 683/561/165
f 686/562/166 688/564/167 687/565/167 685/563/166
f 688/564/167 690/566/141 689/567/141 687/565/167
f 690/566/141 692/568/142 691/569/142 689/567/141
f 692/568/142 640/501/143 639/141/143 691/569/142
f 694/307/168 696/522/169 695/523/169 693/147/168
f 696/522/169 698/524/170 697/525/170 695/523/169
f 698/524/170 700/526/171 699/527/171 697/525/170
f 700/526/171 702/528/172 701/529/172 699/527/171
f 702/528/172 704/530/173 703/531/173 701/529/172
f 704/530/173 706/532/174 705/533/174 703/531/173
f 706/532/174 708/534/175 707/535/175 705/533/174
f 708/534/175 710/536/176 709/537/176 707/535/175
f 710/536/176 712/508/177 711/509/177 709/537/176
f 712/508/177 714/538/178 713/539/178 711/509/177
f 714/538/178 716/540/179 715/541/179 713/539/178
f 716/540/179 718/542/180 717/543/180 715/541/179
f 718/542/180 720/544/181 719/545/181 717/543/180
f 720/544/181 722/546/182 721/547/182 719/545/181
f 722/546/182 724/548/183 723/549/183 721/547/182
f 724/548/183 726/550/184 725/551/184 723/549/183
f 726/550/184 728/552/185 727/553/185 725/551/184
f 728/552/185 730/514/186 729/515/186 727/553/185
f 730/514/186 732/554/187 731/555/187 729/515/186
f 732/554/187 734/556/188 733/557/188 731/555/187
f 734/556/188 736/558/189 735/559/189 733/557/188
f 736/558/189 738/560/190 737/561/190 735/559/189
f 738/560/190 740/562/191 739/563/191 737/561/190
f 740/562/191 742/564/192 741/565/192 739/563/191
f 742/564/192 744/566/139 743/567/139 741/565/192
f 744/566/139 746/568/140 745/569/140 743/567/139
f 746/568/140 694/501/168 693/141/168 745/569/140
f 748/307/193 750/570/193 749/571/193 747/147/193
f 750/570/193 752/506/194 751/507/194 749/571/193
f 752/506/194 754/572/194 753/573/194 751/507/194
f 754/572/194 756/404/195 755/142/195 753/573/194
f 756/404/195 758/574/196 757/575/196 755/142/195
f 758/574/196 760/516/197 759/517/197 757/575/196
f 760/516/197 762/576/198 761/577/198 759/517/197
f 762/576/198 748/501/193 747/141/193 761/577/198
f 764/307/199 766/508/200 765/509/200 763/147/199
f 766/508/200 768/514/201 767/515/201 765/509/200
f 768/514/201 764/501/199 763/141/199 767/515/201
